<svg height="427" viewBox="0 0 513 427" width="513" xmlns="http://www.w3.org/2000/svg" xmlns:xlink="http://www.w3.org/1999/xlink"><mask id="a" fill="#fff"><path d="m.00104738.43729001h509.95699662v238.20349799h-509.95699662z" fill="none"/></mask><g fill="none" fill-rule="evenodd"><path d="m47.4219536 136.971762c-16.3631013 16.912338-47.44205916 13.8992-47.42089541 40.037731.01763645 23.181779 25.93264081 34.022028 44.38037081 40.788373 60.676454 22.247882 109.977395 29.747248 169.052459 7.203337 40.803698-15.562593 256.352901-141.712634 286.207889-161.6275375 41.131737-27.4459862-50.517856-53.44355171-102.813467-62.15874481-76.535153-12.76090349-349.4063564 135.75684131-349.4063564 135.75684131" fill="#fea089" fill-opacity=".2" mask="url(#a)" transform="translate(3 187.90278)"/><path d="m0 197.001996v.939318l15.0684642 8.485172 73.9315358 41.573514v-10.941314l-89-50.058686z" fill="#e0ebef"/><path d="m88.6569264 237.803764 106.4276746-61.404959s9.40686-6.019956 23.10624-13.35105c9.62907-5.138815 17.134806-9.865255 29.254031-6.724869 6.08783 1.610726 18.961861 9.089852 18.961861 9.089852 18.767868 10.788691 100.38217 56.093441 100.38217 56.093441l1.633062-.948108 85.317791-49.594144s-143.409651-78.724669-158.036667-87.081411c-26.718023-15.2261179-45.919729-23.4348282-77.194806-18.4651925-17.159496 2.9500604-52.462558 24.9680136-52.462558 24.9680136l-33.23969 19.1454329-132.70833345 76.60993v.948108z" fill="#fff"/><path d="m91.5847984 326.222313.5819768-80.356542-3.5094961 2.019576-73.5653876-42.115019v76.317391z" fill="#fff"/><path d="m363.108694 229.572144c2.285581 1.244171 3.576511 1.949084 3.576511 1.949084l1.738876-.976304v-9.988615l-1.636589.951632s-81.614302-45.308274-100.38217-56.096966c0 0-12.870504-7.4756-18.961861-9.086326-12.119225-3.140387-19.621434 1.582529-29.254031 6.721344-13.69938 7.331094-23.10624 13.351049-23.10624 13.351049l-106.4276745 61.40496v11.084755l3.5130233-2.0231 7.9466282-4.603081 94.968023-54.782303s9.40686-5.99176 23.10624-13.322854c9.632597-5.142339 17.134806-9.889927 29.254031-6.721344 6.091357 1.579005 18.961861 9.058131 18.961861 9.058131 2.828759 1.631873 7.047209 3.996856 12.214457 6.8729 2.461938 1.364006 5.142558 2.847848 7.967791 4.405705 21.480232 11.863684 52.095736 28.524299 68.546279 37.462595 3.294341 1.77638 5.996124 3.263746 7.974845 4.338738" fill="#e0ebef"/><path d="m92.1667752 246.864714-.5819768 80.356542 7.9642636-4.553737.564341-80.405886z" fill="#e9f1f4"/><path d="m287.099357 259.360704-.169303-24.770638-.193992-26.747918-.151667-20.072394c-2.821705-1.557857-5.502325-3.041699-7.964263-4.405705l.557287 80.504573 7.996007 4.553737z" fill="#78909b"/><path d="m286.586159 187.771516.151667 20.072394 68.542752 39.140287-.144613-21.750087c-16.450543-8.938295-47.069574-25.59891-68.549806-37.462594" fill="#e0ebef"/><path d="m355.279167 246.984902-68.542752-39.140287.193992 26.744394 68.542752 39.143811z" fill="#e9f1f4"/><path d="m295.26643 263.769934 60.352752 32.640991-.148139-22.677047-68.539225-39.143812.169302 24.770638z" fill="#e0ebef"/><path d="m287.099357 259.360704.074069 9.061655s3.117985-1.779905 8.091241-4.652425z" fill="#36464f"/><path d="m363.66986 309.855728-.560813-80.282526c-1.978721-1.074993-4.680504-2.562359-7.974845-4.338739l.144612 21.750086.193992 26.747919.14814 22.680571.077597 8.885427z" fill="#e9f1f4"/><path d="m363.108694 229.572144.560814 80.282526 76.51407-44.138119v-75.947312l-71.759497 40.775685-1.738876.976304s-1.29093-.704913-3.576511-1.949084" fill="#fff"/><path d="m453.73905 182.073353v-11.109426l-85.314263 49.594144v9.985091l71.755969-40.77216z" fill="#e9f1f4"/><g fill="#1e5f30"><path d="m367.155725 108.503008c.800659.616798 1.477868 1.286466 1.784728 1.980805-.546705-.669668-1.14279-1.328761-1.784728-1.980805"/><path d="m385.132457 123.594135c-.088178.017622-.176356.031721-.268062.056393-.292752.052868-.624302.066966-.955852.119835.426783-.098688.842984-.158606 1.223914-.176228"/><path d="m376.765748 122.515265c.077597.232622.155194.461718.243372.683766-.02469.074016-.042325.155081-.067015.232621-.042326-.28549-.105814-.595651-.176357-.916387"/><path d="m376.751992 122.472266c-.292752-.867043-.532597-1.779905-.723062-2.74916.306861.979828.550233 1.913838.723062 2.74916"/><path d="m376.173543 133.471021c.031744.28549.074069.57098.116395.859994-.04938-.289014-.126977-.574504-.215155-.84942.031744 0 .063488-.010574.09876-.010574"/><path d="m376.173543 133.471021c-.035272 0-.067016.010574-.09876.010574-.119923-.391227-.275116-.793027-.472636-1.163106.130504-.014099.250427-.035246.380931-.04582.070542.394751.123449.800076.190465 1.198352"/></g><path d="m376.800314 141.643781h-.010581c0 .778929-.564342 1.727036-.331551 2.340311.317442.958681 2.003411 1.286466 2.574806.243195.211628-.514587-.042325-1.032698-.197519-1.557858-.07407-1.399252-.197519-2.809078-.317442-4.194231 4.828644-.056393 9.452713 1.519087 11.791202 4.331689.268062.345407.514961.673192.698372 1.015075-1.00876 2.142935-3.378992 4.060298-6.796783 5.202257-6.641589 2.220475-14.743411.740158-18.097713-3.309566-.275117-.331309-.518489-.676717-.7019-1.025649 1.00876-2.135886 3.371938-4.035626 6.796783-5.188158 1.460233-.489915 2.998062-.793027 4.535892-.923436.077597 1.018599.102287 2.054821.056434 3.066371" fill="#795549"/><path d="m376.290643 134.3504c.201047 1.406301.373876 2.816127.455 4.225953-1.541356.130408-3.075659.437046-4.535891.923435-3.428372 1.156058-5.79155 3.055798-6.80031 5.191684-2.204458-3.838251.539651-8.286251 6.62748-10.319925 1.305039-.437046 2.662985-.736634 4.035039-.88819.091706.271392.165775.560406.218682.845896z" fill="#d64527"/><path d="m390.130403 137.671949c1.615426 1.959658 1.837636 4.148413.878256 6.150365-.186938-.341883-.43031-.669667-.698372-1.015074-2.338489-2.812603-6.962558-4.388083-11.791202-4.33169-.144612-1.727036-.299806-3.443499-.387984-5.128241 4.899186-.095163 9.618488 1.476792 11.999302 4.32464" fill="#d64527"/><path d="m390.130403 137.671949c-2.380814-2.847848-7.100116-4.419803-11.999302-4.32464-.021163-.4018-.045853-.814174-.052907-1.215975 5.79155-.144507 11.382054 1.702365 14.175542 5.05775 1.495504 1.804577 1.971667 3.785382 1.555466 5.699221-.684264 3.06637-3.692907 5.949464-8.465117 7.542567-7.752635 2.59408-17.21593.859994-21.138101-3.859398-.867674-1.043271-1.382635-2.146459-1.608372-3.253173-.723062-3.919315 2.490155-7.979613 8.525078-9.988615 1.449651-.48639 2.959263-.814174 4.479457-1.01155.19752.370079.349186.77188.472636 1.166631-1.375581.151556-2.733527.451144-4.038566.884666-6.084302 2.037198-8.831938 6.481673-6.627481 10.319924.186938.348932.426783.694339.7019 1.025648 3.357829 4.049725 11.456124 5.530042 18.097713 3.309566 3.421318-1.145483 5.79155-3.059322 6.80031-5.202257.95938-2.001952.73717-4.190707-.878256-6.150365" fill="#f48967"/><path d="m389.785802 161.860329c-.493798 2.283918-2.726473 4.40923-6.285349 5.597008-5.738643 1.920888-12.764689.641471-15.681627-2.872519-.451473-.525161-.772442-1.085566-.969962-1.649497l-4.250193-19.617725c.222209 1.106714.740697 2.209902 1.608372 3.256698 3.918643 4.715867 13.385465 6.453477 21.134573 3.855873 4.775737-1.593103 7.780853-4.476196 8.468644-7.542567h.010581z" fill="#f27048"/><g fill="#378e43"><path d="m372.208694 111.375175c-.483217-.704913-.998178-1.364006-1.53783-1.924412l.042326-.045819c-1.784729-2.298016-4.962674-4.049725-7.35407-5.720368-2.652403-1.913839-6.92376-3.9898071-10.602558-3.9898071-.663101 0-1.305039.0775404-1.922287.2185229 0 0 2.641822.6379462 2.881667.7154862 1.287403.482866 2.740581.803601 4.017403 1.37458 2.257364.955157 4.017403 2.805554 6.031395 4.243576.772442.542783 2.193876 1.332285 3.378993 2.245147 0 0 0 .010574.010581.010574.641938.652044 1.238023 1.311138 1.784729 1.98433 1.566046 1.910314 2.811124 3.954561 3.763449 6.132742-2.550116-3.002929-5.117868-4.585458-9.1-5.071848-5.135504-.634422-10.599031-.965731-14.616434-4.648901-2.73-2.576456-5.470581-8.1981363-.969961-10.4397592 3.534186-1.7693313 9.00124-.1621299 12.538953.6414707 4.16907 1.1172869 8.352248 2.5694074 10.278062 6.7389665 1.103993 2.329738 1.252132 5.004882 1.375582 7.535519"/><path d="m348.820988 134.185098c-2.567752-2.562358-1.287403-7.225357 1.118101-9.636159 4.07031-3.880545 14.775155-4.310542 18.640892.521636-1.199225-.278441-2.490155-.422948-3.855155-.475817v.04582c-2.246783.07754-4.16907 0-6.341783.800076-3.079186 1.022123-7.869031 2.505965-9.396279 5.69922 1.520193-1.748184 6.504031-3.535138 8.673217-4.014478 1.527248-.320736 3.047441-.726061 4.581744-.965731 1.044031-.144507 2.084535.049344 3.079186-.12336.010581.010574.010581 0 .017636 0 1.31562.105737 2.677093.440571 3.985658.965731-2.804069-.218523-6.059612 1.642447-8.130038 3.017027-3.216745 2.241623-8.19 8.346168-12.373179 4.166035"/><path d="m401.035589 124.881658c1.94345 4.969636-2.07748 9.470504-7.216511 7.697648-3.216745-1.120811-4.990892-5.13529-7.88314-6.256101-1.111047-.320736-3.072132-.789503-4.19376-.331309.723062-.419423 1.449651-.736634 2.102171-.958682l-.014109-.021147c2.310272-.704913 5.15314-.613274 7.466938-.292539 1.661279.218523 3.326086.68729 4.874496 1.490891.857093.482865 2.29969 1.342859 2.885194 2.199328-.208101-.535734-.585504-1.064419-.95938-1.494415-2.356124-2.738587-6.486395-3.32014-9.851279-3.584482-1.079302-.098688-2.12686.066966-3.114457.264342-.38093.017623-.793605.07754-1.220388.176228h-.031744c-.134031.021148-.268062.042295-.391511.088114-.014109 0-.035272.010574-.04938.010574-.398566.098688-.797132.218523-1.178062.359506 3.44248-6.421757 15.935581-6.453478 18.774922.652044"/><path d="m389.272605 109.304846c-1.287403.637946-3.336667 2.157033-4.458295 2.728013-1.252132.8036-2.334961 1.73761-3.280232 2.773832.359767-.955157 1.079302-1.550808 1.506085-2.287442.804186-1.769332.804186-3.697268 1.456705-5.4666 1.925814-4.97316 6.260659-7.0632266 11.244496-8.3496925 3.692907-.8036007 7.385814-.9586815 10.768334.9692551 3.851628 2.2416234 6.899069 5.1352904 3.043914 9.1497694-1.922286 2.090066-5.456472 3.048748-8.027752 4.014478-3.216744 1.120812-6.747403 2.410802-9.964147 3.045224-3.855155.60975-7.177713-.172704-10.182829 2.234574.842984-1.187778 1.894069-2.319164 3.177945-3.376533.014109-.010574.038799-.021147.04938-.045819 1.209807-.867043 2.285582-1.942035 3.583566-2.661046 1.925814-1.043271 3.777558-2.241623 5.858566-3.059322 3.862209-1.438022 8.52155-2.967683 11.974612-5.367912-2.013992 0-3.893953.89524-5.819767 1.300565-1.851744.320735-3.336667 1.219499-5.110814 1.871543-1.925814.637946-4.049147 1.557858-5.819767 2.527113"/><path d="m377.502919 109.096897c.176356-2.245148.581976-4.440951 1.202752-6.531018l-.102287-.035246c1.213333-3.5175149 1.544883-7.116095 1.386163-10.9649193-.165776 2.410802-1.118101 5.1352902-1.678915 7.4579781-.328023 1.2406462-1.026396 2.5835052-1.276822 3.8699712v.021148c-.673682 2.104165-1.160426 4.511442-1.386163 6.99626-1.453178-2.287442-2.599496-3.869972-3.040387-6.71077-.65252-4.1766092-.328024-9.7877156 2.560697-13.3299027 2.578334-3.0452236 8.038334-2.5623583 10.285117.9692552 3.855155 5.8507767-6.532248 12.6249895-7.950155 18.2572435"/></g><g fill="#1e5f30"><path d="m375.601442 132.317784c-1.202752-2.43195-3.611783-4.268248-6.250078-5.315043h-.02469c-1.308565-.52516-2.673565-.859994-3.989186-.965731-.007054 0-.007054.010574-.017635 0-.991124.172704-2.035155-.021147-3.079186.119835-1.534303.239671-3.050969.64852-4.581745.965731-2.169186.482865-7.153023 2.266295-8.673217 4.018003 1.530776-3.193255 6.317093-4.680621 9.396279-5.69922 2.172714-.803601 4.095-.722536 6.341783-.803601v-.042295c1.365.052869 2.655931.197376 3.855155.475816 2.839342.637947 5.213101 1.987855 7.02252 4.680622.116395.835322.250426 1.674168.38093 2.520063-.130504.010574-.250426.035246-.38093.04582"/><path d="m398.097488 126.913922c.373876.429997.751279.958681.95938 1.49794-.585504-.859994-2.028101-1.716463-2.885194-2.202853-1.54841-.803601-3.213217-1.272368-4.874496-1.490891-2.313798-.320735-5.156666-.408849-7.466938.292539l.014109.024672c-.65252.222047-1.379109.535734-2.102171.958681-.010581 0-.02469.010574-.031744.010574-1.474341.835322-2.938101 2.033674-3.657636 3.471696.014109-.623848.04938-1.254745.102287-1.871544-.010581-.007049 0-.017623 0-.017623.645465-1.540234 2.331434-2.696291 4.105582-3.355385.38093-.140982.779496-.264342 1.178062-.36303.014108 0 .035271-.010574.04938-.010574.134031-.035245.271589-.066966.391511-.088114h.031744c.328024-.052868.659574-.066966.952326-.119835.091705-.024672.179884-.03877.268062-.056393.987597-.197375 2.035155-.36303 3.114457-.264342 3.364884.264342 7.495155.845895 9.851279 3.584482"/><path d="m378.835822 142.668019c.155194.528685.409147 1.043271.197519 1.561382-.571395 1.043271-2.257364.711962-2.574806-.243195-.232791-.616798.33155-1.561382.33155-2.343835h.010582c.045852-1.01155.021162-2.044247-.056434-3.066371.592558-.070491 1.188643-.091639 1.774147-.098688.119922 1.385154.243372 2.79498.317442 4.190707"/><path d="m378.12969 133.348719c.088178 1.684742.243372 3.401204.387984 5.128241-.585503.007049-1.181589.028196-1.774147.098688-.077597-1.409826-.253953-2.819652-.451473-4.225953v-.021147c-.042325-.28549-.088178-.574504-.119922-.856469.648992-.077541 1.308566-.112787 1.957558-.12336"/><path d="m375.983783 132.273022c.694845-.077541 1.396744-.12336 2.095116-.140983.007054.4018.031744.81065.04938 1.215975-.645465.014098-1.308566.045819-1.954031.12336-.067015-.398276-.119922-.803601-.190465-1.198352"/><path d="m406.022953 103.606683c-3.453062 2.400228-8.112403 3.926364-11.974612 5.367911-2.081008.814175-3.932752 2.016051-5.858566 3.059322-1.297984.715487-2.373759 1.794003-3.583566 2.661046-.010581.021148-.035271.031721-.04938.045819-1.283876 1.053845-2.334961 2.18523-3.177945 3.376533-2.0669 2.879569-2.948682 6.093972-3.223799 9.470504 0 0-.010581.010574 0 .017623-.052907.616799-.088178 1.247696-.102287 1.871544-.021162.870567-.010581 1.762282.02469 2.653997-.694845.021147-1.396744.063442-2.095116.140982-.130504-.845895-.264535-1.684741-.38093-2.520063-.165775-1.156057-.320969-2.298016-.433837-3.429401-.377403-3.510466-1.163954-6.742492-2.465465-9.703126-.952326-2.178181-2.197404-4.222428-3.76345-6.132742-.306861-.697863-.98407-1.367531-1.784729-1.984329-.007054 0-.007054-.010574-.007054-.010574-1.188643-.912862-2.610078-1.702365-3.378992-2.245148-2.01752-1.438022-3.777558-3.288418-6.031396-4.243575-1.280348-.570979-2.733527-.891715-4.02093-1.37458-.236318-.07754-2.878139-.7154866-2.878139-.7154866.613721-.1409826 1.255659-.218523 1.918759-.218523 3.678799 0 7.950155 2.0759686 10.602558 3.9898066 2.391396 1.674168 5.569342 3.422352 7.35407 5.723893l-.038798.042294c.536124.560406 1.051085 1.2195 1.534302 1.924413 1.675388 2.453096 2.983954 5.586434 3.819884 8.335594v.014098c.190465.969256.43031 1.878593.723062 2.749161 0 .021147 0 .031721.014108.042294.070543.320736.134031.627373.176357.916387.02469-.07754.045853-.158605.067015-.232621.338605-1.099664.737171-2.167607 1.188644-3.189731.857093-1.917363 1.936395-3.67612 3.336667-5.205781.945271-1.032698 2.0281-1.966707 3.280232-2.770308 1.121628-.570979 3.170892-2.090067 4.458295-2.728013 1.77062-.969255 3.893953-1.889166 5.819767-2.530637 1.774147-.64852 3.25907-1.547284 5.110814-1.868019 1.925814-.408849 3.805775-1.300564 5.819767-1.300564"/><path d="m378.704965 102.565526c-.620775 2.090067-1.026395 4.285871-1.202752 6.531018-.317442 3.630301-.07407 7.380438.694845 10.912051-.447946 1.022124-.850039 2.090067-1.185116 3.189731-.091706-.218523-.165775-.451144-.246899-.683765-.014109-.00705-.014109-.021148-.014109-.042295-.172829-.835322-.416201-1.769332-.723062-2.74916v-.010574c-.603139-3.059322-.701899-6.499297-.38093-9.801813.225736-2.484818.71248-4.892096 1.386163-6.996261v-.021147c.253953-1.286466.948798-2.629325 1.276821-3.8699716.560814-2.3226879 1.51314-5.0471761 1.678915-7.4579781.158721 3.8488242-.172829 7.4474044-1.382636 10.9649197z"/></g><path d="m142.759248 146.997947c.014109 2.047771.747752 4.409229 1.343837 6.220856l-31.22217-15.941605c1.065194-1.529661 1.946976-3.210878 2.846395-4.892095l27.046047 14.179322c-.014109.151556-.014109.28549-.014109.433522" fill="#250f8a"/><path d="m143.158872 146.763915 46.198372-25.976039c.62783 1.082042 1.89407 4.010955 2.648876 5.558238l-47.901977 26.874803c-.596085-1.81515-1.329728-4.176608-1.343837-6.22438z" fill="#644bd9"/><path d="m168.103453 108.936881c6.796783 3.707842 21.430853 11.750898 21.430853 11.750898l-.179884.098688-46.194844 25.976039-.387985-.197376-27.046046-14.179322c.074069-.116311.130503-.232621.204573-.348932v-.017623c2.846396-1.445071 19.155853-9.78419 32.139225-16.406847-1.69655 4.490295-4.415969 8.339119-8.662636 11.61344l10.380349 5.526516.14814-.098687 12.4931-7.524945-.074069-.098688c3.252015-4.81103 4.934457-10.351645 5.749224-16.093161" fill="#5740c0"/><path d="m148.070756 115.610644c1.848217-4.825129 2.500736-10.365744 2.578333-16.6077471l5.117868-2.8795691c.846512 11.8989292 1.245078 25.9619412-5.833876 36.5285842l-.148139.098688-10.376822-5.526517c4.246667-3.27432 6.966085-7.11962 8.662636-11.613439" fill="#250f8a"/><path d="m168.103453 108.936881c-.814767 5.741516-2.497209 11.282131-5.749224 16.093161l.074069.098688-12.4931 7.524945c7.075426-10.566644 6.67686-24.63318 5.830349-36.5285849l12.556589-7.0597023c.43031 6.3265929.698372 13.2312142-.218683 19.8714932" fill="#644bd9"/><path d="m105.503919 52.4233123 85.331899-48.95972295 11.590155-3.44349933-90.481512 51.55380228h-.014108l-6.426434.9481078z" fill="#250f8a"/><path d="m105.503919 52.5212951 6.426434-.9481078-1.481396.84942-.398566 69.4127697-4.828643-7.454454z" fill="#250f8a"/><path d="m196.44819 69.4642283.246899-60.74234145-79.769612 45.46335515-.345659 60.196034zm-84.503023-17.8906885 90.481511-51.55380224-.285697 70.02604384-33.821667 19.0220736-12.553062 7.0561777-5.114341 2.8795691-40.600814 22.8321272.398566-69.4127692 1.481395-.84942z" fill="#5740c0"/><path d="m196.696147 8.72082949-.246899 60.74234141-79.868372 44.9170481.345659-60.1960344z" fill="#fff"/><path d="m182.62536 169.603092-2.9381 1.695316-1.946977-1.364007 2.934574-1.695315z" fill="#c1bed4"/><path d="m175.075182 171.466882 1.950504 1.364006-2.881667 1.663595-1.946976-1.364007z" fill="#c1bed4"/><path d="m233.517287 150.312447-59.17469 34.082537-.218682-.130409-.331551-2.562358.116396.081065 59.608527-34.248192z" fill="#cad0e9"/><path d="m193.844109 166.457066 3.248488-1.864494 3.100349-1.779905 2.864031-1.663595 2.662984-1.529661 2.962791-1.719987 3.082713-1.77638 2.899302-1.663595 2.645349-1.533185 2.317326-1.328761 3.079186-1.779905 2.864031-1.663594 2.666512-1.53671 2.130387-1.226549 3.149729 2.14646-59.608527 34.244667-.116396-.081065-2.846395-2.016051 2.73-1.579005 3.096822-1.783429 2.885193-1.663595 2.648876-1.526136 2.931047-1.69884 3.082713-1.765807 2.881667-1.681217z" fill="#9096ba"/><path d="m227.716919 143.557619 2.652403 1.832774-2.133915 1.226548-2.613605-1.843347z" fill="#9096ba"/><path d="m225.62286 144.772537 2.613605 1.843347-2.666512 1.53671-2.613604-1.843347z" fill="#c1bed4"/><path d="m227.716919 143.557619-2.095117 1.215975-1.946976-1.364006 2.07748-1.198352z" fill="#9096ba"/><path d="m225.753717 142.211941-2.081008 1.198352-2.613604-1.832774 2.049263-1.180729z" fill="#9096ba"/><path d="m225.62286 144.772537-2.666511 1.53671-1.950504-1.353433 2.666512-1.547284z" fill="#99afd4"/><path d="m222.956702 146.307837 2.613604 1.843347-2.864031 1.667119-2.627713-1.846872z" fill="#99afd4"/><path d="m223.673062 143.409588-2.666512 1.543759-2.613604-1.843347 2.666511-1.533186z" fill="#c1bed4"/><path d="m223.108368 140.396085-2.049263 1.180729-2.049264-1.430973 2.035155-1.163106z" fill="#9096ba"/><path d="m222.956702 146.307837-2.87814 1.663594-1.932868-1.367531 2.860504-1.649496z" fill="#c1bed4"/><path d="m220.077151 147.970374 2.627713 1.846872-3.079186 1.779905-2.63124-1.850397z" fill="#c1bed4"/><path d="m221.058752 141.578576-2.666512 1.529661-2.0281-1.430973 2.645348-1.529661z" fill="#99afd4"/><path d="m218.392946 137.150314 2.652403 1.832773-2.035155 1.163107-2.613605-1.829249z" fill="#9096ba"/><path d="m218.392946 143.10859 2.613604 1.846872-2.860503 1.649496-2.634768-1.832774z" fill="#99afd4"/><path d="m220.077151 147.970374-3.082713 1.77638-1.946977-1.346383 3.096822-1.794004z" fill="#99afd4"/><path d="m219.626031 151.598208-2.313798 1.328761-2.631241-1.843348 2.313799-1.335809z" fill="#9096ba"/><path d="m219.009488 140.146546-2.645348 1.529661-2.634768-1.829249 2.666512-1.533185z" fill="#c1bed4"/><path d="m218.392946 137.150314-1.996357 1.166631-2.031628-1.413351 1.978721-1.149008z" fill="#9096ba"/><path d="m218.392946 143.10859-2.881667 1.663594-2.031628-1.430973 2.885194-1.663594z" fill="#c1bed4"/><path d="m218.144636 146.605663-3.096822 1.794003-2.617132-1.846872 3.079186-1.779905z" fill="#c1bed4"/><path d="m217.311174 152.926616-2.645348 1.533186-2.634768-1.850397 2.648876-1.526136z" fill="#d8d6cc"/><path d="m216.994438 149.746402-2.313798 1.33581-1.929342-1.346384 2.296163-1.33581z" fill="#9096ba"/><path d="m216.394826 138.315535-2.666512 1.533185-2.010465-1.416875 2.648876-1.526136z" fill="#99afd4"/><path d="m216.36414 141.676559-2.881667 1.667119-2.63124-1.832773 2.878139-1.663595z" fill="#99afd4"/><path d="m216.343329 135.753177-1.97872 1.152532-2.617132-1.853921 1.954031-1.113762z" fill="#9096ba"/><path d="m215.509868 144.772537-3.079186 1.779905-2.049263-1.430974 3.100348-1.779904z" fill="#99afd4"/><path d="m212.430329 146.552089 2.617132 1.846872-2.296163 1.33581-2.634767-1.850397z" fill="#9096ba"/><path d="m214.679581 151.081859-2.648876 1.529661-1.946976-1.346383 2.666511-1.529661z" fill="#c1bed4"/><path d="m214.665826 154.460154-2.899303 1.663594-2.613604-1.850396 2.878139-1.663594z" fill="#d8d6cc"/><path d="m211.748535 135.052493 2.617132 1.850396-2.648876 1.529661-2.631241-1.846871z" fill="#c1bed4"/><path d="m213.729019 139.84731-2.878139 1.663595-2.01752-1.41335 2.885194-1.663595z" fill="#c1bed4"/><path d="m213.701508 133.939083-1.954031 1.113763-2.232675-1.547284 1.929341-1.113762z" fill="#9096ba"/><path d="m213.481062 143.342621-3.100349 1.779905-2.613604-1.829249 3.082713-1.78343z" fill="#c1bed4"/><path d="m212.750593 149.734066-2.666512 1.529661-2.613604-1.850397 2.645349-1.52966z" fill="#c1bed4"/><path d="m212.430329 146.552089-2.313798 1.332285-2.028101-1.430973 2.292636-1.332285z" fill="#9096ba"/><path d="m212.030705 152.61011-2.878139 1.663595-1.950504-1.346384 2.881667-1.663594z" fill="#c1bed4"/><path d="m209.151155 154.274057 2.613605 1.846872-3.082713 1.779905-2.631241-1.829249z" fill="#d8d6cc"/><path d="m211.748535 135.052493-2.662985 1.533186-2.218566-1.547284 2.648876-1.529661z" fill="#9096ba"/><path d="m211.717496 138.43255-2.881667 1.663595-2.634767-1.846872 2.885194-1.663594z" fill="#99afd4"/><path d="m211.445202 132.3918-1.929342 1.113762-2.613604-1.846872 1.879961-1.082041z" fill="#9096ba"/><path d="m208.834419 140.09685 2.013992 1.41335-3.082713 1.783429-2.031628-1.416874z" fill="#99afd4"/><path d="m210.381066 145.122173-2.292636 1.332286-2.634767-1.832774 2.313798-1.32876z" fill="#9096ba"/><path d="m210.115826 147.884022-2.645349 1.529661-2.031628-1.430973 2.648876-1.529661z" fill="#c1bed4"/><path d="m207.470477 149.414035 2.613604 1.850397-2.881666 1.663594-2.613605-1.846872z" fill="#99afd4"/><path d="m206.901903 131.660452 2.613605 1.846872-2.648876 1.529661-2.631241-1.846872z" fill="#c1bed4"/><path d="m209.151155 154.274057-3.100349 1.797528-1.932868-1.364006 3.082713-1.779905z" fill="#99afd4"/><path d="m209.085903 136.586031-2.885194 1.663594-2.215038-1.547283 2.881666-1.663595z" fill="#9096ba"/><path d="m208.834419 140.09685-3.100349 1.779905-2.610078-1.843348 3.075659-1.783429z" fill="#c1bed4"/><path d="m198.273833 136.652998-2.292635 1.314662-2.652403 1.529661-1.149845-.782453 15.455891-8.934771 1.146318.796552-1.879961 1.082041-2.666512 1.529661-2.874612 1.663594z" fill="#9096ba"/><path d="m208.682752 157.900129-2.962791 1.719987-2.617132-1.850396 2.948683-1.69884z" fill="#9096ba"/><path d="m208.087019 146.454106-2.648876 1.529661-2.627713-1.829249 2.641822-1.533185z" fill="#c1bed4"/><path d="m207.766756 143.292572-2.313799 1.328761-2.013992-1.41335 2.296163-1.328761z" fill="#9096ba"/><path d="m207.470477 149.414035-2.881667 1.667119-2.045736-1.430973 2.895775-1.667119z" fill="#c1bed4"/><path d="m204.587399 151.081859 2.613605 1.843347-3.082713 1.78343-2.627713-1.846872z" fill="#c1bed4"/><path d="m206.86769 135.036985-2.881667 1.663594-2.627713-1.846871 2.87814-1.663595z" fill="#9096ba"/><path d="m206.199298 138.249978-3.075658 1.783429-2.232675-1.554332 3.093295-1.776381z" fill="#9096ba"/><path d="m204.118996 154.707931 1.932868 1.364006-2.948682 1.69884-1.950504-1.349908z" fill="#c1bed4"/><path d="m203.12364 140.033055 2.610077 1.843347-2.292636 1.332285-2.634767-1.850396z" fill="#9096ba"/><path d="m203.102829 157.769368 2.617132 1.850396-2.662984 1.529661-2.613605-1.832774z" fill="#d8d6cc"/><path d="m203.440376 143.208335 2.010465 1.41335-2.641822 1.533186-2.017519-1.416875z" fill="#c1bed4"/><path d="m205.438143 147.98412-2.895775 1.667119-2.613604-1.829249 2.881666-1.667119z" fill="#99afd4"/><path d="m204.587399 151.081859-3.096821 1.779905-2.035156-1.434497 3.086241-1.776381z" fill="#99afd4"/><path d="m204.118996 154.707931-2.966318 1.712938-2.627713-1.846871 2.966318-1.712939z" fill="#99afd4"/><path d="m203.984612 136.701284-3.093294 1.779905-2.617132-1.829249 3.08624-1.797527z" fill="#c1bed4"/><path d="m200.805256 141.360053 2.634767 1.846872-2.648876 1.529661-2.627713-1.843347z" fill="#c1bed4"/><path d="m203.12364 140.033055-2.317326 1.325236-2.211512-1.543759 2.296163-1.332285z" fill="#9096ba"/><path d="m203.102829 157.769368-2.659457 1.547283-1.950504-1.364006 2.659458-1.533186z" fill="#99afd4"/><path d="m203.058035 161.149425-2.864031 1.663594-2.63124-1.846872 2.881666-1.649496z" fill="#d8d6cc"/><path d="m200.7915 144.738348 2.017519 1.416875-2.881666 1.667119-2.035155-1.416875z" fill="#c1bed4"/><path d="m202.54131 149.649829-3.08624 1.77638-2.631241-1.825724 3.103876-1.779905z" fill="#c1bed4"/><path d="m201.49093 152.861412-2.966318 1.712938-2.031628-1.427449 2.962791-1.719987z" fill="#c1bed4"/><path d="m198.524965 154.575407 2.627713 1.843347-2.659457 1.533186-2.613605-1.846872z" fill="#c1bed4"/><path d="m198.273833 136.652998 2.617132 1.829249-2.296163 1.332285-2.613604-1.846872z" fill="#d8d6cc"/><path d="m200.805256 141.360053-2.641822 1.533186-2.218566-1.547284 2.648876-1.529661z" fill="#9096ba"/><path d="m200.7915 144.738348-2.899302 1.667119-2.613605-1.850396 2.885194-1.66007z" fill="#99afd4"/><path d="m200.443725 159.316651-2.87814 1.649496-1.932868-1.364006 2.860504-1.649496z" fill="#c1bed4"/><path d="m197.564174 160.967205 2.627714 1.846871-3.100349 1.779905-2.613605-1.850396z" fill="#d8d6cc"/><path d="m199.927 147.82058-3.103876 1.779905-2.006938-1.41335 3.075659-1.78343z" fill="#c1bed4"/><path d="m199.45507 151.427619-2.962791 1.716463-2.627713-1.829249 2.959263-1.716463z" fill="#99afd4"/><path d="m195.979787 137.96625 2.613604 1.846872-2.648875 1.529661-2.617132-1.846872z" fill="#9096ba"/><path d="m198.524965 154.575407-2.645349 1.529661-2.049263-1.41335 2.662984-1.547284z" fill="#99afd4"/><path d="m195.879616 156.105421 2.613605 1.846871-2.860504 1.649497-2.634767-1.832774z" fill="#99afd4"/><path d="m198.163434 142.893239-2.885194 1.663594-2.215038-1.543759 2.881666-1.667119z" fill="#9096ba"/><path d="m195.276829 144.555776 2.613605 1.846872-3.075659 1.783429-2.617132-1.846872z" fill="#c1bed4"/><path d="m197.564174 160.967205-3.08624 1.77638-1.950504-1.346383 3.103876-1.797528z" fill="#99afd4"/><path d="m194.477934 162.743233 2.613605 1.850396-3.248489 1.864494-2.613604-1.832773z" fill="#d8d6cc"/><g fill="#c1bed4"><path d="m194.815481 148.185372 2.006938 1.413351-2.959264 1.716462-2.013992-1.416874z"/><path d="m196.492984 153.145139-2.662984 1.543759-2.613605-1.843347 2.648876-1.533185z"/><path d="m193.327384 139.496264 2.617132 1.846872-2.881667 1.670643-2.627713-1.853921z"/><path d="m195.879616 156.105421-2.881666 1.663594-2.031628-1.430973 2.864031-1.645972z"/><path d="m195.631659 159.600731-3.103876 1.794003-2.610078-1.843347 3.079186-1.783429z"/></g><path d="m195.276829 144.555776-3.079186 1.783429-2.236201-1.550808 3.100349-1.77638z" fill="#9096ba"/><path d="m192.197643 146.338853 2.617132 1.846872-2.966318 1.712938-2.63124-1.850396z" fill="#99afd4"/><path d="m194.477934 162.743233-3.248488 1.882117-1.946977-1.364006 3.244961-1.864495z" fill="#c1bed4"/><path d="m191.849868 149.899368 2.013992 1.41335-2.648876 1.533186-2.031627-1.416875z" fill="#99afd4"/><path d="m193.844109 166.457066-2.641822 1.529661-2.617132-1.829249 2.645349-1.533185z" fill="#d8d6cc"/><path d="m191.216043 152.845904 2.613604 1.843347-2.860504 1.649496-2.63124-1.829249z" fill="#99afd4"/><path d="m190.434078 141.160211-3.086241 1.797527-2.980426 1.712939-1.111047-.796552 8.923644-5.156437 1.146318.778928z" fill="#9096ba"/><path d="m193.062143 143.012017-3.100348 1.77638-2.613605-1.829249 3.08624-1.797528z" fill="#d8d6cc"/><path d="m192.996891 157.769368-3.079186 1.779905-2.049263-1.430974 3.100349-1.779905z" fill="#99afd4"/><path d="m189.917353 159.550682 2.610077 1.843347-3.244961 1.86802-2.613605-1.829249z" fill="#99afd4"/><path d="m192.197643 146.338853-2.980426 1.709414-2.218566-1.543759 2.962791-1.716463z" fill="#9096ba"/><path d="m191.849868 149.899368-2.666511 1.529661-2.617132-1.846872 2.652403-1.533185z" fill="#c1bed4"/><path d="m191.229798 164.625702-2.645348 1.529661-1.946977-1.364006 2.645349-1.529661z" fill="#99afd4"/><path d="m191.216043 152.845904-2.87814 1.663594-2.021046-1.430973 2.867558-1.649496z" fill="#c1bed4"/><path d="m191.202287 167.987079-2.881667 1.681218-2.617132-1.846872 2.881667-1.667119z" fill="#d8d6cc"/><path d="m190.968085 156.339452-3.100349 1.779905-2.63124-1.829249 3.100349-1.78343z" fill="#c1bed4"/><path d="m187.347837 142.958796 2.613605 1.829249-2.962791 1.716463-2.63124-1.832774z" fill="#9096ba"/><path d="m189.917353 159.550682-3.248489 1.882118-2.049263-1.434498 3.248488-1.878593z" fill="#c1bed4"/><path d="m189.283527 163.262753-2.645349 1.529661-2.613604-1.829248 2.645348-1.529661z" fill="#c1bed4"/><path d="m189.218275 148.049324-2.652403 1.533186-2.211512-1.547284 2.645349-1.529661z" fill="#9096ba"/><path d="m186.565872 149.5811 2.617132 1.846871-2.864031 1.649497-2.634768-1.832774z" fill="#99afd4"/><path d="m188.58445 166.155716-2.87814 1.667119-1.950504-1.367531 2.881667-1.663595z" fill="#c1bed4"/><path d="m186.317915 153.078172 2.017519 1.430974-3.100349 1.783429-2.010465-1.420399z" fill="#99afd4"/><path d="m185.704899 167.821777 2.613605 1.846872-3.082713 1.762282-2.610078-1.829249z" fill="#d8d6cc"/><path d="m187.868089 158.119004-3.248488 1.882118-2.613605-1.846872 3.230853-1.864495z" fill="#99afd4"/><path d="m187.000062 146.503803-2.645349 1.533185-2.63124-1.832773 2.645349-1.533186z" fill="#c1bed4"/><path d="m186.669217 161.433505-2.645349 1.529661-2.049263-1.430974 2.645348-1.533185z" fill="#99afd4"/><path d="m186.638178 164.792767-2.881666 1.663594-2.631241-1.829249 2.899303-1.667119z" fill="#99afd4"/><path d="m186.565872 149.5811-2.881667 1.663594-2.211511-1.547284 2.881666-1.660069z" fill="#9096ba"/><path d="m186.317915 153.078172-3.093295 1.794004-2.634767-1.843347 3.093294-1.78343z" fill="#c1bed4"/><path d="m185.704899 167.821777-3.079186 1.779905-1.950504-1.360481 3.079186-1.78343z" fill="#99afd4"/><path d="m183.224973 154.873233 2.010465 1.416875-3.230853 1.864494-2.031628-1.41335z" fill="#c1bed4"/><path d="m185.236496 171.432341-2.927519 1.69884-2.620659-1.832773 2.938101-1.695316z" fill="#d8d6cc"/><path d="m182.005291 158.153193 2.613604 1.846871-2.645348 1.529661-2.617132-1.846871z" fill="#c1bed4"/><path d="m183.255659 143.872715 1.111046.800076-2.645348 1.533186-1.13221-.800076z" fill="#9096ba"/><path d="m184.354713 148.035578-2.881666 1.663595-2.617132-1.846872 2.867558-1.649496z" fill="#d8d6cc"/><path d="m184.023868 162.961756-2.899302 1.663594-2.031628-1.430973 2.881667-1.663594z" fill="#c1bed4"/><path d="m183.755101 166.457066-3.079186 1.78343-2.613605-1.836298 3.06155-1.779905z" fill="#c1bed4"/><path d="m181.471636 149.698115 2.211511 1.547284-3.093294 1.78343-2.215039-1.547284z" fill="#9096ba"/><path d="m183.224973 154.873233-3.252016 1.868019-2.613604-1.832773 3.230852-1.878593z" fill="#99afd4"/><path d="m182.308624 173.130829-2.652403 1.529661-2.63124-1.829249 2.662984-1.533186z" fill="#d8d6cc"/><path d="m182.005291 158.153193-2.648876 1.529661-2.035155-1.413351 2.652403-1.529661z" fill="#99afd4"/><path d="m179.356767 159.683206 2.617132 1.846872-2.881666 1.667119-2.631241-1.850397z" fill="#99afd4"/><path d="m178.857326 147.851596-3.096822 1.797528-3.230853 1.864494-2.666511 1.529661-2.87814 1.663595-3.082713 1.783429-2.92752 1.695316-2.666511 1.52966-2.864031 1.663595-3.100349 1.783429-2.610078 1.512038-1.114573-.782453 31.969922-18.48634 1.13221.800076z" fill="#9096ba"/><path d="m178.857326 147.851596 2.613604 1.846872-3.096821 1.783429-2.613605-1.832773z" fill="#9096ba"/><path d="m179.091527 163.195787 2.031628 1.430973-3.06155 1.779905-2.049264-1.434498z" fill="#99afd4"/><path d="m180.675915 168.239791-2.934574 1.691791-2.627713-1.843348 2.948682-1.684741z" fill="#99afd4"/><path d="m180.589853 153.028124-3.230853 1.882117-2.215039-1.550808 3.230853-1.878593z" fill="#9096ba"/><path d="m179.97331 156.740195-2.652403 1.529661-2.613605-1.829249 2.652403-1.533186z" fill="#c1bed4"/><path d="m179.68726 171.299817-2.662985 1.533186-1.950504-1.367531 2.666512-1.533185z" fill="#99afd4"/><path d="m179.656221 174.65908-2.881667 1.663594-2.627713-1.825724 2.87814-1.667119z" fill="#d8d6cc"/><g fill="#c1bed4"><path d="m179.356767 159.683206-2.895775 1.663594-2.017519-1.409825 2.878139-1.667119z"/><path d="m179.091527 163.195787-3.079186 1.77638-2.617132-1.843347 3.065078-1.779905z"/><path d="m178.375167 151.481192-3.230853 1.878593-2.613605-1.846872 3.230853-1.864494z"/><path d="m178.061605 166.405255-2.948683 1.684742-2.035155-1.430973 2.934574-1.684742z"/><path d="m177.741341 169.933344-2.666512 1.533185-2.610077-1.829249 2.648876-1.547283z"/></g><path d="m175.143961 153.36049 2.215039 1.547284-2.652403 1.533185-2.211512-1.547283z" fill="#9096ba"/><path d="m177.320907 158.268446-2.874612 1.667119-2.631241-1.832774 2.892248-1.663594z" fill="#99afd4"/><path d="m176.773143 176.323379-3.096821 1.78343-2.613605-1.829249 3.082713-1.78343z" fill="#d8d6cc"/><path d="m176.459934 161.347505-3.065077 1.78343-2.028101-1.416875 3.079186-1.77638z" fill="#99afd4"/><path d="m173.394151 163.13023 2.617132 1.843347-2.934574 1.684742-2.627713-1.832774z" fill="#99afd4"/><path d="m172.529651 151.511856 2.613605 1.846872-2.648876 1.533185-2.63124-1.846871z" fill="#d8d6cc"/><path d="m175.112922 168.088587-2.648875 1.547284-2.049264-1.430973 2.662984-1.547284z" fill="#99afd4"/><path d="m172.464399 169.635518 2.610078 1.832774-2.87814 1.663594-2.613604-1.850396z" fill="#99afd4"/><path d="m174.706597 156.440959-2.888721 1.663595-2.204457-1.547284 2.881666-1.663594z" fill="#9096ba"/><path d="m174.444884 159.93627-3.079186 1.77638-2.617132-1.829249 3.068605-1.779905z" fill="#c1bed4"/><path d="m172.195632 173.130829 1.950504 1.364006-3.082714 1.78343-1.950503-1.367531z" fill="#99afd4"/><path d="m174.12462 184.265632-5.495271-3.246124 2.317325-1.332285 2.846396 2.012526z" fill="#a0acd7"/><path d="m173.676674 178.106456-2.73 1.579005-2.613604-1.846872 2.73-1.561382z" fill="#9096ba"/><path d="m173.394151 163.13023-2.945155 1.695315-2.017519-1.41335 2.934573-1.69884z" fill="#c1bed4"/><path d="m173.077415 166.658319-2.662985 1.547283-2.613604-1.846871 2.648876-1.533186z" fill="#c1bed4"/><path d="m169.863845 153.043632 2.63124 1.846871-2.881666 1.667119-2.627714-1.850396z" fill="#9096ba"/><path d="m170.414783 168.205602 2.049264 1.430974-2.881667 1.645971-2.049264-1.430973z" fill="#c1bed4"/><path d="m169.581322 171.282547 2.613604 1.846872-3.082713 1.779905-2.63124-1.829249z" fill="#c1bed4"/><path d="m169.61236 156.557975 2.204458 1.543759-3.068605 1.783429-2.211511-1.564906z" fill="#9096ba"/><path d="m171.365345 161.712298-2.934574 1.69884-2.627713-1.846872 2.945155-1.681217z" fill="#99afd4"/><path d="m171.062364 176.278617-2.726473 1.561382-1.932868-1.367531 2.708837-1.561382z" fill="#9096ba"/><path d="m168.334481 177.839647 2.610077 1.846871-2.313798 1.332286-4.976783-2.946536 2.747635-1.600152z" fill="#a0acd7"/><path d="m168.430771 163.410785 2.01752 1.416875-2.648876 1.529661-2.031628-1.41335z" fill="#99afd4"/><path d="m167.800473 166.357321 2.613605 1.846872-2.881667 1.645971-2.613605-1.829249z" fill="#99afd4"/><path d="m166.984295 154.707931 2.627713 1.850396-3.075659 1.758758-2.634768-1.829249z" fill="#c1bed4"/><path d="m169.581322 171.282547-3.100349 1.797528-2.028101-1.430973 3.079186-1.797528z" fill="#99afd4"/><path d="m169.112919 174.910381-2.712365 1.561382-2.595969-1.846872 2.677093-1.543759z" fill="#9096ba"/><path d="m166.536349 158.318495 2.211511 1.564906-2.945155 1.681217-2.193876-1.550808z" fill="#9096ba"/><path d="m168.430771 163.410785-2.662984 1.533186-2.613605-1.829249 2.648876-1.547284z" fill="#c1bed4"/><path d="m167.800473 166.357321-2.881667 1.663594-2.031628-1.41335 2.881667-1.663594z" fill="#c1bed4"/><path d="m167.531705 169.850869-3.079186 1.797528-2.63124-1.846872 3.096822-1.779905z" fill="#c1bed4"/><path d="m166.536349 158.318495-2.92752 1.695315-2.634767-1.829249 2.927519-1.695315z" fill="#d8d6cc"/><path d="m164.452519 171.649102 2.028101 1.430973-2.677093 1.547284-2.049263-1.430973z" fill="#9096ba"/><path d="m163.804938 174.626301 2.595969 1.846872-2.747636 1.600152-15.036162-8.903049v-5.276273l1.1181.782453 2.592442 1.846872 2.197403 1.547284 2.617132 1.846871 2.017519 1.430973 2.595969 1.846872z" fill="#a0acd7"/><path d="m165.802705 161.566028-2.648876 1.547284-2.215038-1.547284 2.670038-1.550808z" fill="#9096ba"/><path d="m165.76814 164.944323-2.87814 1.663594-2.617132-1.846871 2.881667-1.645972z" fill="#99afd4"/><path d="m164.917395 168.021268-3.096821 1.779905-2.031628-1.413351 3.100349-1.779905z" fill="#99afd4"/><path d="m164.452519 171.649102-2.698255 1.547284-2.595969-1.846872 2.662984-1.547284z" fill="#9096ba"/><path d="m163.608477 160.01522-2.670039 1.550808-2.63124-1.850396 2.666511-1.529661z" fill="#9096ba"/><path d="m163.153829 163.114722-2.878139 1.645971-2.218566-1.550808 2.881667-1.642447z" fill="#9096ba"/><path d="m160.274279 164.761751 2.613605 1.843347-3.100349 1.783429-2.613605-1.832773z" fill="#c1bed4"/><path d="m161.820926 169.80082-2.662984 1.547284-2.013992-1.430973 2.645348-1.529661z" fill="#9096ba"/><path d="m158.30755 159.715984 2.631241 1.850397-2.881667 1.645971-2.613605-1.832773z" fill="#c1bed4"/><path d="m160.274279 164.761751-3.100349 1.794003-2.218566-1.547284 3.100349-1.797528z" fill="#9096ba"/><path d="m157.174283 166.556811 2.613605 1.832774-2.645349 1.529661-2.617132-1.850397z" fill="#9096ba"/><path d="m158.056066 163.211295-3.100349 1.797528-2.610077-1.846872 3.100348-1.78343z" fill="#d8d6cc"/><path d="m154.95607 165.009528 2.218566 1.547283-2.648876 1.512038-2.197403-1.543759z" fill="#9096ba"/><path d="m152.345287 163.161246 2.610077 1.846872-2.627713 1.515562-2.592442-1.846871z" fill="#9096ba"/><path d="m126.012074 219.43726v.976304l.857093-.48639c-.021163-.031721-.04938-.049344-.084651-.08459-.010582 0-.017636-.007049-.038799-.017622-.211628-.112786-.592558-.306637-.733643-.387702" fill="#bcbcbc"/><path d="m87.6167752 194.483344c-.081124.133934-.1693023.274916-.2222093.415899.0952325.274916.5043798.521635.7583333.500488.0493799-.109262.1163954-.225572.1834109-.327785.5502325-.884665 1.3403101-1.445071 2.1444961-1.617775.6278295-.151556 1.283876-.052868 1.8341085.338359.4162016.296063.7301163.719011.9382171 1.230073.3632946.2009.7442248.419423 1.1533721.64147l.0070542-.017623c-.134031-1.191302-.6736821-2.245147-1.5484108-2.851372-1.0793023-.754257-2.4513566-.683766-3.6364729.049344-.6066666.377128-1.1639535.92696-1.6118992 1.638922" fill="#bcbcbc"/><path d="m93.3208527 197.579321c-.1163953.172704-.2222093.366555-.3139147.563931.0387984.36303.4514729.475816.775969.48639.0634883-.16213.1587209-.317211.2539535-.468767.5079069-.814175 1.230969-1.364007 1.9751938-1.579005.6842635-.204425 1.4073255-.119835 1.9963566.296063.3774031.274916.8218217.764831.9487984 1.37458.3774031.214999.7653876.437046 1.1674807.652045-.095233-1.261794-.6454652-2.382606-1.5625195-3.024077-1.0934108-.754256-2.4689922-.683765-3.6576356.081065-.6031396.366555-1.1427907.916387-1.5836822 1.617775" fill="#bcbcbc"/><path d="m122.230283 214.955776c-.328023 0-.712481-.204425-.768915-.539258.105814-.222048.208101-.440571.338605-.652045.451473-.711962 1.00876-1.275892 1.62248-1.638922-.176356-.102213-.349186-.204425-.532596-.306637-.373876-.214999-.761861-.437046-1.174535-.669667-.842985-.479341-1.767093-1.000977-2.751163-1.561382-.81124.172703-1.615426.743683-2.17624 1.642447-.091706.151556-.176357.303112-.257481.465242v.010574c-.246899.063442-.751279-.16213-.807713-.426473.105814-.214998.215155-.433521.349186-.644995.472636-.750732 1.068721-1.332285 1.72124-1.705889-.162248-.091639-.335077-.197376-.50438-.289014-.345659-.2009-.716007-.405325-1.086356-.620324-1.001706-.570979-2.056318-1.159581-3.13562-1.772855-.716008.222047-1.386163.76483-1.879962 1.550808-.126976.204425-.239845.415898-.335077.641471v.017622c-.292752 0-.694845-.16213-.81124-.437046l.021162-.010573c.109341-.274916.253954-.549832.412675-.803601.419728-.673192.941744-1.205401 1.509612-1.568431-.141085-.081065-.275116-.16213-.412674-.24672-.384458-.2009-.758334-.415898-1.13221-.630897-.980542-.560405-1.968139-1.117286-2.952209-1.670643-.76186.193851-1.495504.743683-2.013992 1.579005-.102287.172703-.193992.338358-.268062.521635l-.007054-.010573c-.27159.081065-.758334-.155081-.765388-.479341v-.014098c.102287-.200901.201046-.415899.324496-.599176.440892-.711962.991124-1.261794 1.597791-1.638923-.17283-.091638-.331551-.193851-.507907-.281965-.349186-.204425-.712481-.408849-1.068721-.613274-1.079302-.613274-2.140969-1.21245-3.177946-1.804577-.705426.236146-1.368527.76483-1.8587983 1.540235-.0987597.172703-.2010465.370079-.2927519.560405-.292752.070492-.775969-.183277-.7865504-.475816.1163953-.225572.2363178-.461718.3668217-.676716.4197287-.659094.9276356-1.187778 1.5025579-1.557858-.144612-.070491-.278643-.151556-.409147-.232621-.398566-.214998-.7865505-.437046-1.1674807-.652044-1.0369767-.592127-2.0281008-1.152533-2.945155-1.670644-.7442248.214999-1.4672869.764831-1.9716667 1.57548-.0987597.155081-.1904651.310162-.2539535.472292-.3244961-.010574-.7371705-.12336-.775969-.489914.0881783-.193851.1939923-.387702.3139148-.560406.4408914-.701388.9805426-1.25122 1.5836821-1.6213-.1798837-.098687-.3386046-.190326-.5008527-.292538-.4091473-.225573-.7865504-.440571-1.1533721-.641471-1.1533721-.652045-2.088062-1.191303-2.7723256-1.568431-.804186.172703-1.5907364.729584-2.140969 1.617775-.0705426.102212-.134031.214998-.1834108.327784-.2539535.017623-.6666279-.225572-.7618605-.500488.0564341-.140983.1410853-.28549.2257365-.419423.4444186-.708438 1.0052325-1.261794 1.6118992-1.638923l-.0141085-.010573c-1.6824419.88819-24.4006977 12.797693-26.8802714 14.098257-.0705426.03877-.1410852.081065-.1939922.133934l38.1812011 22.028526 26.400582-15.067512c-.031744-.028196-.070543-.066967-.109341-.098688-.021163-.010573-.04938-.028196-.084651-.052868-.335078-.190327-1.019341-.578029-1.971667-1.120812-.761861.20795-1.506085.764831-2.031628 1.614251-.112868.169179-.215155.366554-.296279.560405z" fill="#fa7564"/><path d="m107.48793 203.089625c.673682-.193851 1.379109-.112786 1.971667.296064.455.32426.779496.814174.980543 1.37458.370348.214998.747751.429997 1.128682.630897-.109341-1.251221-.656047-2.361458-1.56252-3.006454-1.079302-.754256-2.451356-.68024-3.650581.063443-.606667.377128-1.156899.92696-1.597791 1.638922-.126977.183277-.222209.398276-.324496.599176v.014098c.007054.32426.490271.560406.765388.479341l.007054.010574c.07407-.186802.162248-.348932.268062-.521636.518488-.838846 1.248605-1.385154 2.013992-1.579005" fill="#bcbcbc"/><path d="m62.7716589 209.904723 37.3170541 21.531563.952326-.539258 24.972093-14.249814.514961-.292538s.867674-1.635398.197519-2.329737l-26.404108 15.067512-38.1812017-22.028527c-.9311628.711962-.2645349 2.322688-.2645349 2.322688z" fill="#ec6959"/><path d="m126.012074 220.413211-25.412985 14.48596-.144612.084589-38.0542251-21.975658-.1234496-.059918c-.938217.711962-.268062 2.326213-.268062 2.326213l38.2129457 22.049674 26.442907-15.08866s.857093-1.603677.204574-2.308589z" fill="#ec6959"/><path d="m62.5307558 212.785702c-.0423256.081065-.0846511.16213-.1305039.222047l38.0542251 21.975659.144612-.08459-.088178-.16213c.955853-1.029172.842984-2.555309.52907-3.841775l-.952326.542783-37.3170542-21.531563c.2010465.874092.1269767 2.135886-.239845 2.879569" fill="#e0ebef"/><path d="m101.601147 199.747633c.719535-.253768 1.495504-.193851 2.126861.257294.511434.355981.86062.905813 1.047558 1.547283.359767.204425.719535.40885 1.072248.613275-.070543-1.314663-.620775-2.498917-1.566047-3.168584-1.114573-.775404-2.550116-.673192-3.752868.140983-.5749223.370079-1.0793021.898764-1.4990308 1.557857-.134031.214999-.2539535.44762-.3668217.673192.0105814.292539.4937985.549832.7865504.479341.0917054-.190327.1904651-.387702.2927519-.560406.4867442-.775404 1.1533722-1.304089 1.8587982-1.540235" fill="#bcbcbc"/><path d="m100.5095 234.735278.088178.165655 25.412985-14.485959v-.976305-.257293-2.534162l-24.972093 14.249814c.313914 1.282941.426783 2.809078-.52907 3.83825" fill="#fff"/><path d="m111.982907 205.636828c-.567868.366555-1.089884.895239-1.509612 1.568431-.158721.253769-.303334.528685-.412675.803601l-.021163.010573c.116396.274916.522016.437046.814768.437046v-.017622c.091705-.225573.204573-.437046.33155-.641471.493799-.785978 1.163954-1.328761 1.883489-1.550808.719534-.243195 1.474341-.172704 2.091589.264342.507907.338358.864147.877616 1.040504 1.508513.373876.214999.740697.419424 1.086356.620324-.07407-1.304089-.624302-2.474244-1.573101-3.136862-1.111046-.764831-2.525426-.669668-3.731705.133933" fill="#bcbcbc"/><path d="m117.793857 208.927361c-.656047.377129-1.248605.955157-1.721241 1.709414-.134031.211474-.246899.426472-.349186.641471.056434.264342.560814.489914.807713.429996v-.014098c.081124-.158605.162248-.313686.257481-.465242.560814-.898764 1.365-1.469744 2.17624-1.642447.631357-.130409 1.273295-.028197 1.816473.345407.419729.299588.737171.715487.931163 1.215975.416202.232621.804186.454669 1.174535.669667v-.007049c-.126977-1.201877-.670155-2.26277-1.544884-2.87252-1.047558-.743683-2.384341-.694339-3.548294-.010574" fill="#bcbcbc"/><path d="m123.422101 212.124846c-.613721.366555-1.171008.92696-1.622481 1.638922-.130504.211474-.232791.429997-.338604.652045.056434.334833.440891.539258.768914.539258v-.028196c.084651-.193851.183411-.387702.296279-.560406.52907-.845896 1.269768-1.406301 2.031628-1.610726.680737-.190327 1.382636-.102212 1.964613.306637 1.269767.898764 1.590736 3.024076.631356 4.786358-.303333.560406-.708953 1.008026-1.14279 1.332286v.257293c.141085.081065.525542.274916.733643.387702.021163.010574.028217.017623.038798.017623v-.017623c.433838-.398276.821822-.88819 1.13221-1.45917 1.26624-2.333261.850038-5.124716-.846512-6.305445-1.079302-.750732-2.454884-.680241-3.647054.063442" fill="#bcbcbc"/><path d="m94.4745775 183.67703c-1.5413566.898764-1.2979845 2.446048.5325969 3.47522l22.9263566 12.70253c1.848217 1.01155 4.578217 1.120812 6.112519.218523l13.420737-7.817483c1.534302-.902289 1.294457-2.449573-.539651-3.464647l-22.926357-12.70253c-1.830581-1.025648-4.57469-1.120811-6.108992-.222048z" fill="#fff"/><path d="m91.7431667 189.836559 25.8362403 14.327354c2.073953 1.141958 5.146085 1.254744 6.888488.23967l15.120814-8.800837c1.192171-.704913 2.29969-4.074397 1.657752-5.05775.320969.831797-.003527 1.667119-1.026395 2.252197l-15.117287 8.814935c-1.735349 1.000976-4.811008.902288-6.884961-.250244l-25.8327133-14.31678c-1.4672869-.814175-2.0351551-1.920888-1.6154264-2.861947h-.0105814c-1.2768217 1.586054-.8853101 4.620704.9840698 5.653402" fill="#250f8a"/><path d="m139.621159 188.89691c.850039.468767 1.396744 1.043271 1.622481 1.628348 0 .014099.003527.014099.003527.021148.320969.828272-.003527 1.663594-1.026396 2.252196l-15.117287 8.814936c-1.735348 1.000976-4.811007.898764-6.884961-.250244l-25.8362401-14.316781c-1.4672868-.814174-2.0316279-1.924412-1.6154263-2.86547.1728294-.391227.5043798-.754257 1.0087597-1.043271l15.1208137-8.807887c1.728295-1.01155 4.811008-.898763 6.884961.239671zm-45.1472869-5.21988c-1.5378295.898764-1.2979845 2.446048.536124 3.47522l22.9263569 12.70253c1.84469 1.01155 4.57469 1.120812 6.108992.218523l13.424264-7.817483c1.530775-.902289 1.29093-2.449573-.543179-3.464647l-22.926356-12.70253c-1.830582-1.025648-4.57469-1.120811-6.108993-.222048z" fill="#5740c0"/><path d="m325.643147 315.865462c0 2.798504-2.275 5.064799-5.068488 5.064799-2.814651 0-5.075543-2.266295-5.075543-5.064799 0-1.282941.47969-2.474244 1.266241-3.362434.081124-.063442.141085-.144507.201046-.207949l6.694496-.451145c1.202752.926961 1.982248 2.379081 1.982248 4.021528" fill="#000"/><path d="m316.384426 312.334201c-3.544767-1.494415-7.438721-2.791455-10.362713-3.119239-4.698139-.489915-13.861628-.489915-19.050039.754257-1.562519-1.244172-3.16031-2.315639-4.747519-3.224977 19.445078-5.713319 36.491705 2.287442 41.874109 5.061275l-.437365.03877-6.694496.451144z" fill="#e9f1f4"/><path d="m229.573601 310.78868c.398566.711962.596085 1.508513.596085 2.364982 0 2.787931-2.260891 5.078898-5.07907 5.078898-2.789961 0-5.068488-2.290967-5.068488-5.078898 0-1.307613.50438-2.498916 1.322674-3.394155l8.077132.711962c.04938.102212.112868.211474.151667.317211" fill="#000"/><path d="m224.916729 308.088511c17.025465-5.339715 35.779224-3.302517 40.029418-2.259246-2.133914 1.09614-4.158488 2.340311-6.091356 3.700793-5.241318-1.279417-11.865272-.782453-17.113644-.116311-3.523604.345408-7.336434.662618-11.057558 1.201877l-1.262713-.144508-8.077132-.711961-.88531-.070492c.585504-.225572 1.139264-.475816 1.707132-.659093.899418-.359506 1.823527-.659094 2.751163-.941059" fill="#e9f1f4"/><path d="m234.764481 242.18515c.373876 1.653021.818294 3.468171 1.534302 4.789883l10.136977 4.796932c.384457 4.338739 1.333256 8.635183 1.862325 12.956298.045853.250245.077597.489915.091706.715487.190465 1.533185.402093 3.464647.624302 5.604057.169302 1.603677.370349 3.309566.564341 5.011931.377403 3.133337.451473 9.999189.014109 10.115499-8.426318 2.960634-24.771047-3.182681-25.465892-12.413515-.035271-.539259-4.786318-49.315704-5.452946-56.682044-.35624-3.824152.927636-9.438783 2.246783-13.301705.084652-.250244.158721-.472292.2469-.697864l2.190348.630897c-.010581.066967-.010581.133933-.010581.186802-.02469.225572-.02469.437046.028217.652044.017636 2.097116.366822 6.569788 2.204457 7.359291l15.388876 6.742491 3.491861 1.504989c.292752 2.305065.874729 4.793408 1.654225 7.376913-2.923993-.394751-11.032869-2.206377-13.325504-4.303493l-1.544884.884666s-4.063256.662618-3.745814 7.126669c.303333 6.478149 2.962791 8.962967 2.962791 8.962967z" fill="#250f8a"/><path d="m224.127709 273.761722c.620775 8.342644 17.850814 15.08866 25.465892 12.413515.095232.690815.229263 1.385154.359767 2.114739l-.225736.035246c-4.870969 7.246504-33.426628-6.298397-33.426628-6.298397-3.276706-1.621299-6.634535-4.025052-5.378876-7.616583l-.14814-.179753c4.031512-3.108666 9.350427-.475816 13.262016-2.142935.021163.623848.056434 1.187778.091705 1.674168" fill="#061b26"/><path d="m210.921775 274.410594c-1.252132 3.591531 2.102171 5.995284 5.378876 7.616584 0 0 28.555659 13.5449 33.426628 6.298396l.225737-.035246c.28217 1.441547.239844 4.398657.239844 4.398657-1.72124 3.129813-5.974961 3.330713-12.969263 1.480317-1.396744-3.009978-6.92376-5.293896-6.92376-2.016051-6.070194-2.298016-14.46124-6.122168-18.196473-8.638707-3.20969-4.853325-1.548411-9.10395-1.329728-9.283703z" fill="#050407"/><path d="m300.054159 342.518218c-.088178-.077541-.155194-.133934-.250426-.211474.067015 0 .134031-.010574.176356-.038771.042326.091639.059961.172704.07407.250245" fill="#1c2122"/><path d="m300.054159 342.518218c-.014109-.077541-.031744-.158606-.07407-.250245 2.433721-.556881 4.775737-1.177204 6.969613-1.889166.673682.937534 1.086356 2.114739 1.086356 3.369483 0 3.239075-2.617132 5.886023-5.844457 5.886023-3.23438 0-5.855039-2.646948-5.855039-5.886023 0-.267866.014109-.504012.052907-.768355.105814-.831797.384457-1.610725.825349-2.283917.010581-.03877.02469-.081065.063488-.105737.899419.44762 1.629535 1.043271 2.525427 1.716463.095232.07754.162248.133933.250426.211474" fill="#000"/><path d="m272.82576 308.379288c8.468643 5.445451 20.774806 17.1893 26.026705 30.568546.419729 1.099664.821822 2.209902 1.125155 3.320139-.038798.028197-.105814.038771-.176356.038771-.892365-.673192-1.626008-1.268843-2.5219-1.716463-.063488-.049344-.134031-.109262-.222209-.133934-2.976899-4.599556-7.410504-11.542948-10.92-16.036767-3.622364-4.65595-9.339845-8.275677-14.164961-11.757947 0 0 0-.024672.007054-.049344.144612-1.272367.162248-2.685718.162248-3.954561.232791-.105737.462054-.169179.684264-.27844" fill="#e9f1f4"/><path d="m272.839516 308.317255c3.692906.289015 7.237674-.331309 9.385697-1.57548 1.583682.912862 3.181473 1.980805 4.74752 3.224976 9.759573 7.658879 18.771395 21.048698 20.168139 30.357073-.056434.014098-.112868.03877-.190465.056393-2.193876.711962-4.535891 1.332285-6.97314 1.885642-.303333-1.106713-.705426-2.220476-1.125155-3.316615-5.251899-13.379246-17.558062-25.123095-26.026705-30.568547v-.063442z" fill="#fff"/><path d="m271.196578 308.116003c.546705.091638 1.089883.144507 1.629534.2009v.063442c-.225736.105737-.451472.172704-.684263.278441-8.800194 3.792431-18.986551 17.295037-24.111473 27.66078-.567868 1.187778-1.093411 2.312114-1.534302 3.39768-.116396.274916-.232791.553357-.331551.821224-.197519-.056393-.423256-.133934-.620775-.2009-1.827054-.514587-3.583566-1.09614-5.251899-1.719988-.631357-.236146-1.245078-.475816-1.851744-.711962 4.024457-11.719176 10.930581-21.644349 20.415038-28.376267 1.932869-1.360482 3.957442-2.601129 6.091357-3.697268h.021163c1.38969 1.057369 3.562403 1.889166 6.228915 2.283918" fill="#fff"/><path d="m248.028965 336.319214c5.124923-10.365744 15.314806-23.86835 24.111473-27.660781 0 1.268843-.017636 2.682194-.162248 3.954561-4.035039 3.200305-7.68562 6.83413-11.427907 11.130574-1.865853 2.14646-8.429845 10.475005-10.373295 13.869161-.084651.052868-.201046.119835-.310387.172704-1.040504.567454-2.387868 1.335809-3.371938 1.931461.440891-1.085566.966434-2.209902 1.534302-3.39768" fill="#e9f1f4"/><path d="m245.541984 340.337922c.201047.066967.423256.144507.624303.2009.095232-.267867.211628-.546307.33155-.821223.980543-.595652 2.327907-1.364007 3.371938-1.934986.056434.056393.095233.12336.116396.172704.779496.993927 1.234496 2.220475 1.234496 3.584481 0 .091639 0 .172704-.014109.278441-.144612 3.080469-2.708837 5.554713-5.830349 5.554713-3.227325 0-5.851511-2.632849-5.851511-5.833154 0-1.057369.292752-2.047771.768914-2.921863 1.664807.620323 3.421318 1.205401 5.248372 1.719987" fill="#000"/><path d="m263.649574 302.032252c-.723062 1.286466-.179884 2.661046 1.287403 3.795956-4.250194-1.046796-22.996899-3.083994-40.025892 2.255721-.91.278441-1.851744.585078-2.740581.944583-.581977.183278-1.132209.433522-1.707132.659094-.04938 0-.091705.014098-.126977.052868 0-.03877 0-.052868.035272-.091638.303333-.422948.638411-.821224.980542-1.230073 1.05814-1.201877 2.29969-2.340311 3.73876-3.422352 4.811008-2.090067 9.667868-3.570384 14.507093-4.550213 1.460233-.292539 2.927519-.542783 4.377171-.72606.303333-.03877.585503-.081065.874728-.119835 6.701551-.870568 13.336086-.859994 19.66376-.264343.913527.052869 1.827054.158606 2.708837.278441-1.689496.539258-2.976899 1.37458-3.572984 2.417851" fill="#fff"/><path d="m268.148078 299.335608c-.303334.052868-.606667.158605-.913528.278441h-.014108c-.881783-.119836-1.791783-.225573-2.70531-.278441l.014108-.116311c-.074069-.172703-.229263-.44057-.349186-.68729v-.014098-4.310542c2.056318.634421 3.30845 2.706865 3.968024 5.128241" fill="#000"/><path d="m283.971849 305.128229c.850039-1.459169.059961-3.017027-1.837636-4.190707l.081124-.148031c6.588682-1.889167 21.049923-1.455645 31.052868 2.752685 0 0 .014109.03877.035272.03877 4.638178 2.428425 8.327558 5.237502 10.824767 8.222808h-.021163c-5.396511-2.777356-22.429031-10.774593-41.891744-5.061274.818295-.461718 1.396744-1.008025 1.756512-1.614251" fill="#fff"/><path d="m263.649574 302.032252c.596085-1.043271 1.883488-1.878593 3.572984-2.417851h.014109c.30686-.119835.606666-.225572.91-.278441.056434-.014098.095232-.042294.151666-.052868.645465-.172704 1.347365-.289014 2.073954-.384178v1.177205c-.832403.253769-1.534303.623848-1.94345 1.071468-.109341.119835-.186938.225572-.264535.345407-.599612 1.082041.328024 2.192279 2.207985 2.879569.567868.2009 1.230969.408849 1.985775.489914 2.246783.37008 4.539419.077541 5.936163-.634421.536124-.278441.945271-.64852 1.171008-1.029173.328023-.553357.2081-1.152533-.253954-1.667119-.222209-.264342-.525543-.504013-.917054-.715487v-1.441546c.363294.081065.71248.186802 1.051085.292539 1.107519.341882 2.035155.76483 2.789961 1.268843 1.89407 1.17368 2.687675 2.735062 1.837636 4.190707-.359767.609749-.938217 1.152532-1.756512 1.61425-2.144496 1.240647-5.682209 1.86097-9.371589 1.57548h-.010581c-.543178-.056393-1.100465-.112786-1.636589-.2009-2.659458-.394751-4.842752-1.230073-6.239496-2.287442h-.021163c-1.467287-1.13491-2.010465-2.50949-1.287403-3.795956" fill="#e9f1f4"/><path d="m186.224798 296.16209s28.573295 13.537852 33.419574 6.294872l.225737-.042295c.292751 1.445072.239844 4.402181.239844 4.402181-.253953.451144-.557286.84942-.913527 1.191303-2.119806 1.945559-6.087829 1.868019-12.055736.292539-1.38969-3.017027-6.916706-5.293896-6.916706-2.019576-6.070193-2.294491-14.468294-6.125692-18.192945-8.635182-3.216744-4.85685-1.551938-9.114523-1.322675-9.287227l.144613.172704c-1.259186 3.595055 2.10217 6.005857 5.371821 7.630681" fill="#050407"/><path d="m279.466643 303.197473c-.225736.380653-.63841.750732-1.171007 1.029173-1.400272.715486-3.68938 1.008025-5.93969.637946-.751279-.081065-1.41438-.292539-1.982248-.493439-1.879962-.683765-2.807597-1.794003-2.207985-2.876044.07407-.12336.155194-.225573.264535-.348932.40562-.44762 1.111047-.817699 1.94345-1.067943v2.287442c.567868.211474 1.230969.380653 1.982248.500488 2.25031.331309 4.539418.056393 5.93969-.659093v-1.388679c.387984.211474.691317.451144.917054.711962.462054.514587.581977 1.113763.253953 1.667119" fill="#3d4445"/><path d="m215.823078 208.096269c-.014109.03877-.028218.095163-.042326.133933-.275116-.095163-.571395-.176228-.857093-.253768-.014109 0-.031744 0-.042326-.017623-1.929341-.222048-3.932752-.366555-5.982015-.48639 1.576628-.07754 3.156783-.03877 4.726356.148032-2.659457-.676717-5.347131-1.099664-7.766744-1.099664 1.178062-.225572 2.370233-.380653 3.587093-.44762 2.260892.130409 4.458295.303113 6.574574.578029.081124.017622.162248.024672.236318.042294-.144613.44762-.289225.926961-.433837 1.402777" fill="#361ea2"/><path d="m214.380128 234.285897c.303333 2.30154.874729 4.786358 1.654225 7.380437-2.923993-.398276-11.032869-2.209902-13.311396-4.314067l.02469-.042294c-3.66469-1.924412-4.839225-6.791836-5.756279-10.612463l13.896899 6.079873z" fill="#250f8a"/><path d="m208.899671 207.473126c2.049263.119835 4.049147.264342 5.982015.48639.010581.017623.028217.017623.042326.017623.285697.07754.581976.15508.857093.250244 3.333139 1.015074 6.454651 2.364982 8.764922 3.672596 1.685969 3.626776 3.752868 6.612082 6.017287 9.0969-.052907.278441-.12345.546308-.17283.821224l.462055-.264343c-.017636-.091638-.017636-.172703-.017636-.246719.112868.126884.229264.246719.345659.380653.042326.052868.095233.095163.12345.130409.409147.451144.857093.859993 1.312093 1.244171 2.708837 2.527113 5.653992 4.402181 8.637945 5.780285l-.278643.669668-9.699612-4.229478-1.499031-.644995-2.47252-1.099664-22.84876-9.967468c-1.019341-.451144-2.324379-.595651-3.717596-.451144-1.883489.172704-3.904535.870567-5.410621 1.98433-.821821.553356-1.375581 1.201876-1.710658 1.825724-.102287.207949-.211628.437046-.257481.616799 0 0-.017636.042295-.017636.095163-.038798.063442-.052907.130409-.052907.197376l-2.204457-.630897c.07407-.239671.169302-.451145.250426-.666143.264535-.72606.52907-1.321712.790078-1.808102l-.077597-.066966c2.698256-4.060298 7.925465-7.020932 13.812248-8.145268 2.419612 0 5.107287.422947 7.766744 1.099664-1.569574-.190327-3.149729-.225572-4.726356-.148032" fill="#250f8a"/><path d="m194.970322 220.471719 21.258023 9.290752 16.704496 7.313471c2.440775 1.057369 6.528721.380653 9.14938-1.53671 2.193876-1.593103 2.662984-3.528089 1.326201-4.744064 2.366706 1.149008 1.809419 8.420184-.775969 10.309351-1.601317 1.170155-3.774031 1.882117-5.763333 2.001952-1.24155.088114-2.454884-.066967-3.382519-.465242l-4.130272-1.808102-14.976201-6.54864-3.491861-1.508514-13.896899-6.076349-1.495504-.662618c-1.82-.793027-2.183294-5.265699-2.207984-7.362815.158721.726061.716008 1.37458 1.682442 1.797528" fill="#000"/><path d="m224.103725 209.877231c.412674.88819.850039 1.748184 1.312093 2.555309-.282171-.172703-.571396-.345407-.871202-.532209-.366821-.697864-.677209-1.438022-.984069-2.192279.162248.066967.345658.119835.543178.169179" fill="#361ea2"/><g fill="#250f8a"><path d="m230.775647 219.716053c-.028217.133933-.045852.292538-.059961.422947-.035271-.183277-.042326-.355981-.042326-.556881.007055.042295.042326.095163.102287.133934m1.269768-33.067463c-.835931.821224-1.961086 1.864495-3.269651 3.031125-.04938 3.15801-.299807 6.344216-.842985 9.371817-.719535 3.979233-1.925814 7.708222-3.830465 10.816888v.007049c.416202.891715.853566 1.751708 1.312093 2.555309-.282171-.172704-.571395-.341883-.871202-.528685 1.689497 3.623253 3.756396 6.612083 6.017287 9.096901-.04938.274916-.119922.542783-.169302.821223l.458527-.267866c-.014108-.088115-.014108-.172704-.014108-.24672.112868.130409.229263.24672.345658.380653.042326.052868.095233.095163.119923.133933.412674.44762.86062.859994 1.312093 1.244172 2.712364 2.523588 5.657519 4.398656 8.641473 5.776761 1.029922.475816 2.066899.884665 3.096822 1.237122.261007-.630897.433837-1.265319.567868-1.952609.105814-.532209.193992-1.071468.275116-1.653021 1.326202-9.029933 1.548411-18.722485 1.548411-27.977991 0-4.412755-.222209-8.814936-.447946-13.220641-.218682-4.627753-1.985775-9.044032-2.197403-13.446213l-.144612-.014098c.010581-.028197.010581-.066967.010581-.105737-.902946 2.209902-2.158605 4.233002-3.449535 5.949465-.017636.017622-.028217.017622-.028217.017622-2.077481 2.773833-4.260775 4.811031-5.276589 5.82963-.571395.567455-1.156899 1.149008-1.72124 1.702364-.476163.479341-.973489.951633-1.442597 1.441547"/><path d="m247.722457 251.235879c-3.431899 1.561382-7.350542-.40885-10.983488-2.019576-.197519-2.146459-.172829-4.194231.130504-6.111594 1.989302-.119835 4.162015-.831797 5.763333-1.998428 2.585388-1.889167 3.142675-9.160343.775969-10.312875 0-.021148-.038798-.03877-.056434-.049344-.243372-.211474-.55376-.422948-.927636-.595652l-1.449651-.634421.278644-.673192c1.029922.475816 2.066899.884666 3.096821 1.240647 1.43907.504012 2.867559.884665 4.257248 1.191303z"/><path d="m224.103725 209.877231c-.19752-.049344-.38093-.102212-.543178-.169179.30686.754257.617248 1.494415.984069 2.192279-2.306744-1.307613-5.431783-2.657521-8.761395-3.672596.014108-.03877.02469-.095163.038798-.130409.144613-.47934.289225-.955157.433838-1.406301-.07407-.014098-.155194-.024672-.236318-.03877.941744-2.907766 3.92217-9.755994 11.914651-7.602485-.719535 3.982757-1.925814 7.711746-3.830465 10.816888z"/><path d="m214.934593 300.882539c-.186938-6.069299-1.111046-12.138599-1.491977-18.218473-.370349-6.256101-.913527-13.153674-2.75469-19.45207l5.664574 2.685718c.387984 4.338739 1.333256 8.631658 1.865853 12.956298.052907.253769.077597.489915.102287.715487.172829 1.53671.384457 3.468171.610193 5.604057.17283 1.603677.384458 3.306041.567869 5.011931.370348 3.133337.455 9.999189.010581 10.119024-.282171.102212-.60314.193851-.920581.260817-1.096938.264343-2.331435.355981-3.654109.317211"/><path d="m193.265306 218.024614c-.028217.222048-.028217.437046.02469.64852.02469 2.10064.384457 6.569788 2.207985 7.362815l1.495503.662618c.913528 3.820628 2.088063 8.684526 5.752752 10.612463l-.021162.03877-1.548411.891715s-4.077365.659094-3.742287 7.126669c.289225 6.474625 2.959264 8.959443 2.959264 8.959443l4.299573 1.984329c.370349 1.656546.81124 3.464647 1.520194 4.789883l4.472403 2.111214c1.84469 6.294872 2.384341 13.195969 2.758217 19.448546.377403 6.083398 1.305039 12.152698 1.491977 18.221998-8.137093-.239671-19.596744-5.709795-20.799496-12.335975-.045853-.225573-.063489-.433522-.07407-.659094 0-.066967-.014109-.119835-.014109-.190326-.031744-.433522-.059961-.937535-.088178-1.476793-.021163.014098-.035271.014098-.059961.024672-.825349-8.621084-4.69814-48.445136-5.294225-55.039596-.370349-3.820628.913527-9.438784 2.236202-13.301706.077597-.250244.155193-.475816.243372-.697864l2.204457.634422c-.02469.063442-.02469.130409-.02469.183277"/></g><path d="m206.213054 261.100429c-.708953-1.321711-1.149845-3.133337-1.520194-4.786358l17.730892 8.20871 6.973139 3.200305c1.932869 2.699816 3.915117 5.117667 5.795078 7.03503l-11.748876-5.54414-7.089535-3.316615-5.664574-2.685718z" fill="#1e1e1e"/><path d="m230.431047 137.690982c-1.403799 1.730561-2.57128 3.838251-3.188528 5.649877l-.130503-.042295c-2.518373-.902289-5.855039-1.085566-8.592094-1.099664-1.121627-2.527113 4.765156-2.312114 5.943218-1.994904l.059961-.052868c-.617248-.662618-1.904651-.965731-2.818179-1.268843-1.343837-.585078-2.603023-1.149008-3.932751-1.815151l-.035272.056393c-1.516666-.225572-7.128333-.64852-6.412325-2.98883.91.197375 2.105697.253768 3.213217.331309-1.467287-.690815-3.823411-1.864495-2.751163-2.312115.980543.102213 2.105698.197376 3.290814.299588l.014108-.063442c1.456706-.951632 3.30845-1.152532 5.184884-.92696 1.142791-.437046 2.969845-.595652 3.975078-.289014l.010581-.038771c2.969845 1.223024 7.15655 2.097116 9.357481 3.672596l.014108.017623c-1.118101.616799-2.229147 1.649496-3.202635 2.865471" fill="#ffd6bb"/><path d="m229.504469 147.646819c-.807713-.504013-1.827054-.84942-2.70531-1.268843-.126977-.64852-.014109-1.508514.253953-2.43195.056435-.197375.116396-.398275.186938-.606225.617248-1.811626 1.784729-3.915791 3.192055-5.649876.973488-1.215975 2.084535-2.245148 3.202635-2.865471.352713-.214999.708954-.373604 1.072248-.479341.183411-.063442.409148-.105737.589031-.116311.532597.634422 1.142791 1.254745 1.784729 1.846872-.52907.190327-1.040504.426472-1.491977.72606-3.64 2.199329-5.519961 6.87995-6.084302 10.845085" fill="#e8f6fd"/><path d="m178.512725 164.173148c-.539651-.331309-1.125155-.683765-1.738876-1.071467.134031-.60975.52907-.990403 1.163953-1.085566 1.432016-.207949 1.100465.782453 1.534303 1.550808.638411.986878 1.273294 1.966707 2.0281 2.95711-1.005232-.793027-2.119806-1.466219-3.019224-2.298016z" fill="#ffd6bb"/><path d="m161.507364 165.651703c3.068605-.870567 5.699845 1.099664 8.334613 2.093591-1.534303-1.339334-3.707016-2.460146-5.463527-3.18973-1.111047-.437046-3.756396-.764831-3.202636-2.537687h.33155c3.809303-.091638 6.429962 1.719988 9.607907 3.291943l.088179-.197375c-1.534303-1.110238-3.181473-1.98433-4.962675-2.541211-1.424961-.433521-3.075659-.761306-3.075659-2.639899h.102287c.797132 0 1.69655.088114 2.63124.260818l.014109-.03877c3.692907-1.385154 7.618605.941059 10.860039 2.946536.613721.387702 1.199225.743683 1.738876 1.074992l-.031745.049344c.899419.835321 2.013993 1.508513 3.019225 2.30154.306861.253769.610194.518111.871202.793027-1.068721.623848-2.133915 1.624824-3.093295 2.816127-1.34031 1.638922-2.458411 3.623252-3.100349 5.367911l-.666627-.260817c-2.638295-.955157-6.168954-3.810054-8.207636-6.083398-1.876434-1.018599-4.994419-1.282942-6.257132-3.249649z" fill="#ffd6bb"/><path d="m182.370702 167.319175c.398565-.236146.797131-.422948 1.178062-.539259.190465-.056393.412674-.091638.599612-.119835.52907.64852 1.121628 1.254745 1.788256 1.864495-.536124.169179-1.051085.419423-1.499031.722535-3.636473 2.195804-5.519961 6.87995-6.08783 10.845085-.804186-.500489-1.823527-.845896-2.698255-1.282942-.130504-.634421-.014109-1.494415.253953-2.431949.07407-.278441.172829-.57098.271589-.874092.641938-1.744659 1.760039-3.728989 3.100349-5.367912.95938-1.191302 2.024574-2.192279 3.093295-2.816126" fill="#e8f6fd"/><path d="m184.437248 169.248521c.447946-.303112.962907-.553357 1.499031-.722536.352713-.158605.733643-.267867 1.160426-.331309.22221.088114.500853.236146.807714.419423 3.294341 1.850397 15.279534 10.605415 19.360426 13.329903-3.745814 5.022504-6.962558 11.676881-4.038566 20.34731.186938.236145.384457.461717.592558.662618-.977015-.662618-1.957558-1.364007-2.976899-1.94556-8.274651-4.944964-15.223101-11.546473-22.672403-17.834295-.028217-.926961 0-1.970232.179884-3.08047.571395-3.968659 2.451356-8.64928 6.087829-10.845084" fill="#250f8a"/><path d="m194.047271 287.698202c0 .070491.014109.123359.014109.190326.010581.225572.031744.433521.07407.659094 1.202752 6.62618 12.662403 12.096304 20.799496 12.335975 1.322674.03877 2.553643-.052869 3.654108-.320736.317442-.063442.638411-.155081.920582-.257293.105814.694339.239845 1.385154.359767 2.10769l-.225736.042294c-4.846279 7.246505-33.419574-6.294872-33.419574-6.294872-3.269651-1.624824-6.631008-4.032101-5.371822-7.627157l-.144612-.176228c3.99624-3.087518 9.276357-.500488 13.191473-2.111214.028217-.010574.042325-.010574.063488-.024672.02469.539258.052907 1.039747.084651 1.476793" fill="#061b26"/><path d="m243.351283 230.7423c.017636.014098.059961.028196.059961.052868 1.336783 1.215975.867675 3.150961-1.326201 4.744064-2.624186 1.917363-6.712132 2.594079-9.152907 1.53671l-16.700969-7.313471-21.261551-9.290752c-.966434-.422948-1.520194-1.071467-1.678914-1.797528.014108-.532209.021162-.902288.049379-1.032697 0-.052868.017636-.095163.017636-.095163.04938-.179753.155194-.40885.257481-.616799.335077-.623848.888837-1.272368 1.714186-1.825724 1.506085-1.113763 3.527132-1.811626 5.407093-1.98433 1.393217-.144507 2.701783 0 3.721124.451144l22.845232 9.967468 2.47252 1.099664 1.499031.644995 9.699612 4.229478 1.449651.637946c.373876.169179.687791.380653.927636.592127" fill="#1e1e1e"/><path d="m229.39795 267.722733-6.976667-3.200304-17.727364-8.20871-4.303101-1.98433s-2.666512-2.488343-2.959264-8.962967c-.33155-6.464051 3.745814-7.126669 3.745814-7.126669l16.312985 7.602485c2.899302 7.588387 7.32938 15.564476 11.907597 21.880495" fill="#000"/><path d="m207.263787 181.942239c.313915-.422947.631356-.845895.952325-1.240646 0 0 9.050621-11.902454 11.558411-16.50201 1.664806-3.32014 3.139148-7.36634 5.110814-10.774593.328023-.60975.687791-1.191303 1.05814-1.748184h.031744c.76186-.711962 1.626008-1.110238 2.521899-1.254745h.010582c.268062-.03877.532596-.063442.797131-.063442.303334-.014099.596086 0 .899419.03877.021163.014098.067015.03877.119922.024672.405621.119835.821822.264342 1.248605.451144.021163.010574.056434.024672.084651.03877.546706.225572 1.086357.48639 1.633062.778929 1.700078.912862 3.410737 2.118263 4.853334 3.242599l.010581-.028196c.14814.133933.278643.264342.469109.422947h.010581c.673682.592127 1.361473 1.215975 2.038682 1.850397.52907.489914 1.047558.993927 1.573101 1.508513.850039.856469 1.689496 1.705889 2.511318 2.604653.014108.014098.014108.024672.028217.035246.253953.916386.409147 1.829249.476163 2.713914.077596.926961.063488 1.825725-.02469 2.71039-.105814 1.046796-.303334 2.047772-.599613 3.027601-.183411.64852-.409147 1.29704-.673682 1.917363v.014098c-.902946 2.209902-2.158605 4.229477-3.449535 5.94594-.017636.017623-.028217.017623-.028217.017623-2.077481 2.777357-4.260775 4.81103-5.276589 5.829629-.571395.567455-1.156899 1.149008-1.72124 1.702365-.476163.479341-.973489.955157-1.442597 1.441547-.835931.821223-1.961086 1.864494-3.269651 3.031125-6.680388 5.94594-18.168256 15.120381-20.975853 14.989972-.444419-.010574-.871202-.063442-1.252132-.172704-.017636.014099-.028217.014099-.042326 0-1.089883-.264342-1.954031-.807125-2.687674-1.543759-.208101-.197375-.40562-.426472-.592558-.662618-2.923992-8.670428.292752-15.324805 4.038566-20.34731" fill="#361ea2"/><path d="m206.574938 204.526943c-.028217-.014099-.045853-.014099-.070543-.028197.014109.014098.02469.014098.042326 0 .010581.014098.010581.028197.028217.028197" fill="#3c1f17"/><path d="m217.490353 245.842238c-.543179-1.41335-1.019341-2.802029-1.456706-4.176609-.779496-2.594079-1.350891-5.075372-1.654225-7.380437l14.976202 6.54864c.225736 3.686694.902946 7.560191 1.975194 11.447785 1.946977 7.324045 5.188411 14.626942 9.011822 20.520013 1.703604 2.629325 3.513023 4.983734 5.396511 6.929294.476163.475816.93469.937534 1.410853 1.37458l-11.233915-5.62168c-.236318-.222048-.483217-.475816-.723062-.72606-1.883488-1.917363-3.862209-4.335214-5.795077-7.035031-4.578217-6.316019-9.008295-14.292108-11.907597-21.880495" fill="#2f2f2f"/><path d="m217.490353 245.842238-16.312985-7.602485 1.544884-.88819c2.278527 2.104164 10.387403 3.915791 13.311395 4.314066.437365 1.37458.913527 2.763259 1.456706 4.176609" fill="#1e1e1e"/><path d="m230.672302 219.583529c.007055.03877.045853.091639.102287.133933-.028217.133934-.042325.292539-.056434.422948-.038798-.186802-.045853-.359505-.045853-.556881" fill="#211d50"/><path d="m232.825264 151.33457c.15872.102213.303333.222048.465581.359506-.546705-.292539-1.086357-.556881-1.633062-.782453-.028217-.014099-.063488-.024672-.084651-.03877.377403.091638.758333.225572 1.135736.398275.02469.024672.04938.056393.116396.063442" fill="#3c1f17"/><path d="m247.722457 251.235879-.387984 8.437807.112868.119835-9.583217-4.455049c-.532597-2.054821-.913527-4.127265-1.125155-6.122169 3.632946 1.610726 7.551589 3.580958 10.983488 2.019576" fill="#1e1e1e"/><path d="m239.386787 140.862737c-.86062.676717-1.693023 1.388679-2.518372 2.090067-.895892.736634-1.798837 1.508514-2.670039 2.276869-.814767.697863-1.643643 1.41335-2.419612 2.128836-.832404.750733-1.671861 1.504989-2.461938 2.283918.014108-.634421.067015-1.293515.186938-1.994903.564341-3.965135 2.447829-8.645757 6.084302-10.845085.451473-.299588.962907-.539258 1.495504-.72606.359767-.158605.744225-.246719 1.163953-.331309.225737.095163.50438.243195.800659.422948.931163.518111 2.17624 1.258269 3.583566 2.118263-.384457.289014-.758333.595651-1.139264.898764-.705426.553356-1.393217 1.124336-2.105697 1.677692" fill="#250f8a"/><path d="m238.442926 107.122788c.179884-2.98883.673683-3.133338-.592558-5.353813 0 0-.010581-1.177205.144613-2.8689954.201046.1727037.437364.3454073.6631.5286846l.144613-.0246719c.35624 1.7552327 1.072248 3.1474357 1.788256 5.0471757.768914 2.157034 3.322558 5.14234 3.49186 9.893452.52907.28549 1.08283.567455 1.640116.85647.109341.042294.158721.091638.27159.133933-.193993-2.238098-.310388-4.839227-.218683-6.189135.846512-1.124336 4.087946-1.032697 3.587093 1.719987-.264535 1.452121-.091705 4.137839-.546705 5.924793-.289225 1.187778-.88531 1.977281-2.049264 1.755233 0 .183277 0 .384178-.052907.542783v.03877c-.010581.109262-.010581.197376-.010581.292539-.081124.556881-.183411 1.043271-.261008 1.360482v.105737c-.042325.03877-.052907.105737-.070542.144507-.183411.465242-.571396.912862-1.015814 1.286466-.860621.711962-1.961086 1.177204-2.451357.948108-.366822-.40885-.775969-1.519088-1.185116-2.935962-.733644-2.50949-1.484923-5.977661-2.123334-8.064204-.546705-1.942034-1.238023-3.316615-1.153372-5.142339" fill="#ffd6bb"/><path d="m246.544395 275.694593 6.560465 3.006453 6.631008 3.080469.451473 4.740539-7.794961-3.672596-5.294225-2.498916-.451473-4.497344c-.02469-.049344-.04938-.102212-.102287-.158605" fill="#1e1e1e"/><path d="m240.340876 272.80163c-3.823411-5.893071-7.064845-13.195968-9.011822-20.520013-1.068721-3.887594-1.749457-7.757566-1.971666-11.447785l4.130271 1.808102c.924108.398275 2.140969.553356 3.382519.465242-.303333 1.917363-.328023 3.965135-.130504 6.10807.211628 1.994903.589031 4.067347 1.125155 6.122168 2.140969 8.286251 6.472287 16.50906 8.680272 20.357884.04938.052868.077597.109261.102287.158605l.451472 4.497344.052907.754257c-.476162-.437046-.938217-.898764-1.414379-1.37458-1.883489-1.94556-3.692907-4.299969-5.396512-6.929294" fill="#1e1e1e"/><path d="m245.356105 122.315775c.444418-.370079.832403-.821223 1.015814-1.282941.017635-.038771.028217-.109262.070542-.144507v-.105737c.077597-.320736.179884-.807126.261008-1.364007.236318 1.110238.550233 2.315639.83593 3.503417v.028197.010573c.052907.218523.09876.412374.158721.620324.116396.504012.232791 1.008025.342132 1.494415l-.038799.014098c-2.490155-.144507-4.32779-.659093-5.096705-1.8222.490271.225573 1.590736-.23967 2.451357-.951632" fill="#ffd6bb"/><path d="m247.973942 134.161131h.017636c-.017636.017623-.035272.017623-.059962.017623 0-.017623.042326-.017623.042326-.017623" fill="#e8f6fd"/><path d="m247.539752 122.961123v-.010574-.028196c-.285698-1.187779-.599612-2.39318-.83593-3.503417 0-.091639 0-.183278.010581-.289015v-.042294c.052907-.158606.052907-.355981.052907-.539259 1.163954.222048 1.760039-.570979 2.049264-1.758757l.222209.052868c1.054612 1.533186 2.306744 3.873496 3.470698 5.737991.119922.211474.239845.405325.373876.606225 1.837635 1.008025 3.876317 1.124336 5.847984.754257.726589-.211474 1.484923-.422948 2.207985-.60975 2.500736-.912862 4.726356-2.417851 6.063139-3.623252.010582 0 .02469-.024672.02469-.024672.007054 0 .021163-.014098.035271-.024672v.024672h.045853c.04938.581553.328023 1.332285.606667 2.118263-.225737.03877-.444419.088114-.687791.130409-.927636.183277-1.925814.394751-2.952209.634422l.010581.049344c-1.611899.370079-3.241434.84942-4.560581 1.388678-1.520194.599176-3.513024 1.850396-5.308334 3.122764-2.246783 1.610726-4.221976 3.228501-4.669922 3.595055-.225737-.92696-.391512-1.942035-.571395-2.946535 0-.014099-.010582-.028197-.010582-.028197-.193992-.821223-.691318-1.702364-.924108-2.67162-.109341-.486389-.225737-.990402-.342132-1.494415-.059961-.207949-.105814-.4018-.158721-.620323" fill="#ffd6bb"/><path d="m253.347174 150.687813c-4.514728 2.354409-9.068255 4.680621-12.676511 6.488723-.673682-.630897-1.361473-1.254745-2.038682-1.846872h-.010582c-.190465-.16213-.320969-.292539-.469108-.426472l-.010582.031721c-1.442597-1.124336-3.149728-2.333262-4.853333-3.242599-.158721-.133934-.303333-.253769-.462054-.355981-.067016-.010574-.095233-.042295-.119923-.063442-.373876-.176229-.754806-.306638-1.135736-.401801-.426783-.183277-.839458-.331309-1.245078-.447619-.052907.014098-.102287-.014099-.123449-.028197-.299807-.03877-.592558-.052868-.895892-.03877-.268062 0-.532597.028196-.797132.066967.264535-.278441.52907-.528685.807714-.782454.790077-.778928 1.629534-1.533185 2.461938-2.283917.775969-.715487 1.604845-1.430973 2.419612-2.128837.871202-.768355 1.774147-1.53671 2.670039-2.273344.825349-.704913 1.657752-1.416875 2.518372-2.093591.71248-.553357 1.400271-1.120812 2.105697-1.674168.380931-.306638.754807-.613275 1.139264-.902289.95938-.76483 1.929341-1.519087 2.87814-2.273344 4.532364.504013 8.376938-.010574 12.387286-.923436 1.38969-.292539 2.765272-.676716 4.204342-1.029173.874728-.243194 2.966317-1.12786 5.230736-2.357933 1.044031-.553357 2.10217-1.17368 3.107403-1.836298.275116-.197376.55376-.387702.818295-.595651 3.125038-2.209902 5.424728-4.786359 3.879845-6.862327-.081124-.119835-.186938-.236146-.303334-.355981 0-.028197-.042325-.042295-.056434-.052869-.063488-.066966-.116395-.130408-.222209-.183277.35624-.066967.754806-.148032 1.163953-.229097 3.001589-.567454 7.160078-1.349908 7.445776-1.371055 4.726356-.370079 10.362713 2.125312 12.771744 4.796932-5.481163 4.440951-19.66376 13.615392-24.386589 16.13898-3.121512 1.66007-10.63783 5.625205-18.203528 9.537471" fill="#361ea2"/><path d="m266.167593 157.590672c-1.865853 1.29704-4.024457 2.840799-6.049031 4.546688l-.014109.028197c-1.936395 1.240646-3.707015 3.062846-5.156666 5.205781-.476163.704913-.927636 1.441547-1.34031 2.209902-.977016 1.836298-1.721241 3.83825-2.155078 5.829629-.246899 1.05737-.38093 2.114739-.440891 3.147436l-.141086 3.239075-.250426 5.593483-.102287 2.417852v.014098l-.81124 17.703886-.285698 6.146841-.148139 3.094567-.416202 9.121572-.141085 3.108666-.109341 2.273344c-1.386163-.306637-2.814651-.68729-4.257248-1.191303.264535-.634421.437364-1.268843.571395-1.956133.105814-.528684.193992-1.071467.275116-1.65302 1.326202-9.029934 1.548411-18.718962 1.548411-27.974467 0-4.41628-.222209-8.81846-.447945-13.220641-.218683-4.627753-1.985776-9.044032-2.197404-13.446213l-.144612-.017623c.010581-.024672.010581-.063442.010581-.102212v-.014098c.264535-.616799.490272-1.268844.673683-1.917363.292752-.976305.493798-1.980806.596085-3.027601.091705-.884666.105814-1.78343.028217-2.706866-.067016-.88819-.222209-1.801052-.476163-2.717439-.014108-.010573-.014108-.021147-.028217-.035245-.821822-.898764-1.661279-1.74466-2.511318-2.604653-.529069-.514587-1.044031-1.018599-1.576628-1.508514 3.608256-1.808101 8.161783-4.134314 12.676512-6.488723 7.565698-3.915791 15.085543-7.880926 18.203527-9.537471 4.72283-2.523588 18.908954-11.698029 24.386589-16.142504.141086.16213.285698.320735.412675.504012 1.516666 4.497344 2.521899 9.636159 2.895775 14.954727-.331551.081065-.663101.169179-.994651.264342-9.618489 2.565883-23.473062 10.943772-32.082791 16.857991" fill="#4229b5"/><path d="m274.40662 272.388552-14.669341 9.392963-.902946-9.639683 14.672869-9.389439 7.459883-4.835703 33.306706-21.341236.744225 9.82296-2.624187 1.688267-30.502635 19.515512z" fill="#2f2f2f"/><path d="m259.392326 129.055095c.659573-.299588 1.319147-.616799 1.943449-.951633-.673682.373604-1.375581.729585-2.063372 1.089091.038799-.056394.07407-.081065.119923-.137458" fill="#8d8d8e"/><path d="m259.526709 124.005451c1.319148-.539258 2.948682-1.018599 4.560582-1.388678 1.005232-.232621 1.999883-.437046 2.923992-.606225.648992-.105737 1.259186-.207949 1.816473-.306637l.04938.2009c.028217 0 .067015.024672.123449 0h.007055.028217c.673682.119835 1.435542 1.293515 2.162131 1.258269v.683766c-.056434.014098-.098759.024672-.162248.042295-1.269767.31721-2.871085.948107-4.666395 1.769331-1.583682.711962-3.287287 1.561382-5.033217 2.446048-.624302.331309-1.283876.648519-1.94345.951632-.045852.052868-.084651.081065-.119922.133933-.19752.091639-.384458.197376-.581977.289015-1.971667 1.0045-3.932752 1.994903-5.738643 2.819651-.377403.183277-.772442.355981-1.142791.500488-1.403798.634422-2.670039 1.09614-3.770504 1.360482h-.014108c-.010582 0-.02469.017623-.035272 0 .063489-.063442.105814-.102212.151667-.148032.176356-.222047.30686-.433521.416201-.659093.433838-.803601.539652-1.624824.906473-2.562358 0 0 .031745-.014099.084651-.066967.447946-.370079 2.419613-1.98433 4.666396-3.595056 1.798837-1.272368 3.788139-2.527112 5.31186-3.122764" fill="#e8f6fd"/><path d="m278.295636 294.390997v3.291943 1.096139.595652 1.441546 1.388679c-1.396745.715486-3.68938.993927-5.93969.659093-.751279-.119835-1.41438-.289014-1.982248-.500488v-2.287442-1.177205c-.726589.095164-1.428489.211474-2.073954.384178-.059961.010574-.095232.03877-.151666.052868-.656047-2.421375-1.911706-4.493819-3.968024-5.128241v-.109261c2.038682-.102212 4.105582-.116311 6.193644-.102212l-.186938-13.950226 8.126511-5.290371z" fill="#fff"/><path d="m267.001054 119.708302c-1.336783 1.205401-3.562403 2.71039-6.063139 3.623253-.723062.186801-1.481396.398275-2.207985.609749-1.968139.370079-4.006821.250244-5.847984-.754257-.134031-.2009-.250427-.394751-.370349-.606225-1.163954-1.864494-2.419613-4.204805-3.474225-5.73799l-.218682-.052869c.455-1.786954.278643-4.472672.543178-5.924792.50438-2.752685-2.737054-2.844324-3.587093-1.719988-.091705 1.349908.02469 3.954561.218682 6.189135-.109341-.042295-.162248-.091639-.268062-.130409-.557286-.292539-1.114573-.570979-1.643643-.859993-.169302-4.751113-2.722946-7.736419-3.488333-9.893453-.716008-1.89974-1.435543-3.291943-1.791783-5.0471756l-.144613.0246719c-.225736-.1832773-.462054-.355981-.663101-.5286846-.754806-.6449953-1.414379-1.3217116-1.904651-2.0477719-.038798-.9022884 0-1.7728558.134031-2.6222758.052907-.3136863.12345-.630897.19752-.9516324 2.560697-11.0001652 19.427442-16.7381559 29.860697-11.1693443l.014109-.0775404c1.576628.8564691 3.11093 1.9279367 4.458294 3.1439113 3.682326 3.2954677 6.119574 7.6553537 5.096706 11.8072905-1.072248 4.3775093-2.511318 9.0969003-4.035039 13.3510493-.081124.2009-.148139.398276-.225736.595652-.500853 1.364006-.998179 2.675144-1.509613 3.901692-.708953 1.110238-1.689496 2.248672-1.74593 3.256698.042326.211474-.451473.828272-1.269767 1.568431-.014109.014098-.028217.028196-.035272.028196 0 0-.017635.024672-.028217.024672" fill="#000"/><path d="m248.039194 134.161131c1.100465-.264342 2.366705-.72606 3.770504-1.360482.370349-.148032.765387-.320735 1.14279-.504013 1.805892-.821223 3.766977-1.811626 5.738644-2.819651.197519-.088114.384457-.197376.581977-.28549.68779-.359505 1.389689-.715486 2.063372-1.085566 1.74593-.88819 3.449535-1.734085 5.033217-2.449572 1.79531-.817699 3.396628-1.45212 4.666395-1.769331.063488-.014098.105814-.024672.158721-.042295v-.683765c-.726589.03877-1.484923-1.138435-2.158605-1.25827.95938-.119835 1.897597-.370079 2.818179-.595651.25748-.03877.504379-.049344.740697-.049344.045853-.052869.045853-.105737.045853-.148032.617248.176228 1.421434.384178 1.915233.704913.105813.052869.155193.116311.222209.183277.014108.010574.056434.024672.056434.049344.116395.12336.222209.239671.303333.359506 1.544884 2.075968-.754806 4.652425-3.879845 6.862327-.264535.207949-.543178.398275-.818294.595651-1.00876.662618-2.063372 1.282941-3.107403 1.836298-2.264419 1.230073-4.356008 2.114739-5.230737 2.357933-1.43907.352457-2.818178.736634-4.204341 1.029173-4.010349.909338-7.858449 1.427449-12.387287.923436.243372-.158605.483217-.345407.7019-.528685.571395-.437046 1.121627-.856469 1.707131-1.282941l.014109-.021147c.02469 0 .038798 0 .056434-.017623.010581.017623.02469 0 .035271 0z" fill="#250f8a"/><path d="m273.507554 262.752745-14.672868 9.389439 1.05814-33.345903 1.812945-55.504838c.02469-.821224.116396-1.653021.278644-2.484818.239845-1.325236.620775-2.643423 1.149845-3.929889 1.322674-3.302517 9.981783-10.020337 12.965736-11.846061.98407-.553357 3.244961-1.927937 6.140737-3.714891 8.8531-5.364387 23.631783-14.330878 26.26655-14.9653 2.430194-.489914 4.88155.253769 6.846163 1.850396.045852 0 .07407.024672.098759.081065.278644.250244.518489.489915.744225.754257.190465.303113.335078.620323.472636.923436.169302.225572.33155.451144.486744.701388v.014098c.78655 1.441547 1.220388 3.330714 1.107519 5.618156l-2.945155 79.595236-1.044031.68729-33.306705 21.337712z" fill="#1e1e1e"/><path d="m274.40662 272.388552 7.484574-4.786359 30.502635-19.515512.028218.056393-.091706 4.518491-29.994729 19.480267-4.024457 2.615227-8.122984 5.290371-9.999419 6.474624-.451473-4.740539z" fill="#000"/><path d="m315.354504 148.20088c-1.96814-1.596627-4.415969-2.34031-6.846163-1.850396-2.634767.634422-17.41345 9.600913-26.270077 14.9653-2.892248 1.786954-5.156667 3.161534-6.13721 3.714891-2.98748 1.825724-11.646589 8.543544-12.969263 11.846061-.525543 1.286466-.906473 2.604653-1.146318 3.929889-.165775.831797-.253954 1.663594-.278644 2.484818l-1.816472 55.504838-1.054613 33.345903.899419 9.636159-6.627481-3.080469-6.563992-3.002929c-2.207985-3.845299-6.535775-12.068108-8.680271-20.357883l9.583217 4.455049-.112869-.119835.387985-8.437807.88531-19.963132.105814-2.273344.141085-3.108666.419729-9.121572.148139-3.094568.285698-6.14684.807713-17.703887v-.014098l.102287-2.417851.253954-5.593484.141085-3.239074c.056434-1.032698.193992-2.086542.440891-3.147436.433838-1.991379 1.178062-3.993332 2.155078-5.82963.409147-.768355.86062-1.504988 1.34031-2.209901 1.449651-2.139411 3.220271-3.965135 5.156667-5.205782l.014108-.028196c2.024574-1.705889 4.179651-3.249649 6.049031-4.546688 8.609729-5.914219 22.464302-14.292109 32.079264-16.857991.335077-.095164.666628-.183278.998178-.264343 2.617132-.627372 4.878023-.743683 6.571047-.222047 4.063255 1.399252 8.112403 4.782833 10.376821 8.790263-.222209-.264342-.465581-.504013-.744225-.754257-.021162-.056393-.049379-.081065-.095232-.081065" fill="#000"/><path d="m316.195019 149.035497c.419729.514587.747752 1.057369.95938 1.624824-.151666-.250244-.313915-.475816-.483217-.701388-.137558-.303113-.28217-.620323-.476163-.923436" fill="#8d8d8e"/></g></svg>