<svg height="144" viewBox="0 0 218 144" width="218" xmlns="http://www.w3.org/2000/svg" xmlns:xlink="http://www.w3.org/1999/xlink"><defs><path id="a" d="m3.99287356.73733333c-.64482758.39733334-1.29091954.79333334-1.93701149 1.188-.64609196.39466667-1.28965517.79066667-1.93701149 1.18533334.75862068-.46533334 1.80931034-.39866667 2.97252873.30933333l3.87402299-2.372c-.67643678-.412-1.31367816-.60666667-1.87885058-.60666667-.40712643 0-.77632183.10133334-1.09367816.296"/><path id="b" d="m.7839532 2.61866667c2.2275 1.40533333 4.02096059 4.80266666 4.01486453 7.60133333l3.73444582-2.37333333c.00731527-2.79866667-1.78736454-6.196-4.01364532-7.60133334"/><mask id="c" fill="#fff"><path d="m.75672414 4.62933333c-.00745541 2.75866667 1.68989298 5.52133337 5.08707491 7.62666667 6.74714625 4.18 17.65068375 4.18 24.35185495 0 3.3288406-2.076 4.9963674-4.79333333 5.0025802-7.51466667.0024852-1.26.0074555-2.52.0099406-3.78-.0074554 2.72133334-1.6737396 5.44-5.0025803 7.51333334-6.7024138 4.18000003-17.6059512 4.18000003-24.35061234 0-3.39966706-2.10266667-5.09577288-4.86666667-5.08956004-7.62266667" fill="none"/></mask><mask id="d" fill="#fff"><path d="m.75672414 4.62933333c-.00745541 2.75866667 1.68989298 5.52133337 5.08707491 7.62666667 6.74714625 4.18 17.65068375 4.18 24.35185495 0 3.3288406-2.076 4.9963674-4.79333333 5.0025802-7.51466667.0024852-1.26.0074555-2.52.0099406-3.78-.0074554 2.72133334-1.6737396 5.44-5.0025803 7.51333334-6.7024138 4.18000003-17.6059512 4.18000003-24.35061234 0-3.39966706-2.10266667-5.09577288-4.86666667-5.08956004-7.62266667" fill="none"/></mask><mask id="e" fill="#fff"><path d="m3.99287356.73733333c-.64482758.39733334-1.29091954.79333334-1.93701149 1.188-.64609196.39466667-1.28965517.79066667-1.93701149 1.18533334.75862068-.46533334 1.80931034-.39866667 2.97252873.30933333l3.87402299-2.372c-.67643678-.412-1.31367816-.60666667-1.87885058-.60666667-.40712643 0-.77632183.10133334-1.09367816.296" fill="none"/></mask><mask id="f" fill="#fff"><path d="m3.99287356.73733333c-.64482758.39733334-1.29091954.79333334-1.93701149 1.188-.64609196.39466667-1.28965517.79066667-1.93701149 1.18533334.75862068-.46533334 1.80931034-.39866667 2.97252873.30933333l3.87402299-2.372c-.67643678-.412-1.31367816-.60666667-1.87885058-.60666667-.40712643 0-.77632183.10133334-1.09367816.296" fill="none"/></mask><mask id="g" fill="#fff"><path d="m3.99287356.73733333c-.64482758.39733334-1.29091954.79333334-1.93701149 1.188-.64609196.39466667-1.28965517.79066667-1.93701149 1.18533334.75862068-.46533334 1.80931034-.39866667 2.97252873.30933333l3.87402299-2.372c-.67643678-.412-1.31367816-.60666667-1.87885058-.60666667-.40712643 0-.77632183.10133334-1.09367816.296" fill="none"/></mask><mask id="h" fill="#fff"><path d="m3.99287356.73733333c-.64482758.39733334-1.29091954.79333334-1.93701149 1.188-.64609196.39466667-1.28965517.79066667-1.93701149 1.18533334.75862068-.46533334 1.80931034-.39866667 2.97252873.30933333l3.87402299-2.372c-.67643678-.412-1.31367816-.60666667-1.87885058-.60666667-.40712643 0-.77632183.10133334-1.09367816.296" fill="none"/></mask><mask id="i" fill="#fff"><path d="m3.99287356.73733333c-.64482758.39733334-1.29091954.79333334-1.93701149 1.188-.64609196.39466667-1.28965517.79066667-1.93701149 1.18533334.75862068-.46533334 1.80931034-.39866667 2.97252873.30933333l3.87402299-2.372c-.67643678-.412-1.31367816-.60666667-1.87885058-.60666667-.40712643 0-.77632183.10133334-1.09367816.296" fill="none"/></mask><mask id="j" fill="#fff"><path d="m3.99287356.73733333c-.64482758.39733334-1.29091954.79333334-1.93701149 1.188-.64609196.39466667-1.28965517.79066667-1.93701149 1.18533334.75862068-.46533334 1.80931034-.39866667 2.97252873.30933333l3.87402299-2.372c-.67643678-.412-1.31367816-.60666667-1.87885058-.60666667-.40712643 0-.77632183.10133334-1.09367816.296" fill="none"/></mask><mask id="k" fill="#fff"><path d="m3.99287356.73733333c-.64482758.39733334-1.29091954.79333334-1.93701149 1.188-.64609196.39466667-1.28965517.79066667-1.93701149 1.18533334.75862068-.46533334 1.80931034-.39866667 2.97252873.30933333l3.87402299-2.372c-.67643678-.412-1.31367816-.60666667-1.87885058-.60666667-.40712643 0-.77632183.10133334-1.09367816.296" fill="none"/></mask><mask id="l" fill="#fff"><path d="m3.99287356.73733333c-.64482758.39733334-1.29091954.79333334-1.93701149 1.188-.64609196.39466667-1.28965517.79066667-1.93701149 1.18533334.75862068-.46533334 1.80931034-.39866667 2.97252873.30933333l3.87402299-2.372c-.67643678-.412-1.31367816-.60666667-1.87885058-.60666667-.40712643 0-.77632183.10133334-1.09367816.296" fill="none"/></mask><mask id="m" fill="#fff"><path d="m3.99287356.73733333c-.64482758.39733334-1.29091954.79333334-1.93701149 1.188-.64609196.39466667-1.28965517.79066667-1.93701149 1.18533334.75862068-.46533334 1.80931034-.39866667 2.97252873.30933333l3.87402299-2.372c-.67643678-.412-1.31367816-.60666667-1.87885058-.60666667-.40712643 0-.77632183.10133334-1.09367816.296" fill="none"/></mask><mask id="n" fill="#fff"><use fill="none" xlink:href="#a"/></mask><mask id="o" fill="#fff"><path d="m1.44536207 2.7212c-.00132759 1.4574-.48987931 2.4836-1.27713793 2.968.20312069-.1246.40756896-.2506.60936207-.3752.06239655-.0378.14337931-.0868.20444827-.126.54298276-.3304 1.08463793-.6636 1.62762069-.9968.47394828-.2898.94922414-.5796 1.42317242-.8708.06106896-.0364.14205172-.0854.20444827-.1246.78593104-.483 1.27315517-1.5078 1.27713793-2.968" fill="none"/></mask><mask id="p" fill="#fff"><path d="m.7839532 2.61866667c2.2275 1.40533333 4.02096059 4.80266666 4.01486453 7.60133333l3.73444582-2.37333333c.00731527-2.79866667-1.78736454-6.196-4.01364532-7.60133334" fill="none"/></mask><mask id="q" fill="#fff"><path d="m.7839532 2.61866667c2.2275 1.40533333 4.02096059 4.80266666 4.01486453 7.60133333l3.73444582-2.37333333c.00731527-2.79866667-1.78736454-6.196-4.01364532-7.60133334" fill="none"/></mask><mask id="r" fill="#fff"><path d="m.7839532 2.61866667c2.2275 1.40533333 4.02096059 4.80266666 4.01486453 7.60133333l3.73444582-2.37333333c.00731527-2.79866667-1.78736454-6.196-4.01364532-7.60133334" fill="none"/></mask><mask id="s" fill="#fff"><path d="m.7839532 2.61866667c2.2275 1.40533333 4.02096059 4.80266666 4.01486453 7.60133333l3.73444582-2.37333333c.00731527-2.79866667-1.78736454-6.196-4.01364532-7.60133334" fill="none"/></mask><mask id="t" fill="#fff"><path d="m.7839532 2.61866667c2.2275 1.40533333 4.02096059 4.80266666 4.01486453 7.60133333l3.73444582-2.37333333c.00731527-2.79866667-1.78736454-6.196-4.01364532-7.60133334" fill="none"/></mask><mask id="u" fill="#fff"><path d="m.7839532 2.61866667c2.2275 1.40533333 4.02096059 4.80266666 4.01486453 7.60133333l3.73444582-2.37333333c.00731527-2.79866667-1.78736454-6.196-4.01364532-7.60133334" fill="none"/></mask><mask id="v" fill="#fff"><path d="m.7839532 2.61866667c2.2275 1.40533333 4.02096059 4.80266666 4.01486453 7.60133333l3.73444582-2.37333333c.00731527-2.79866667-1.78736454-6.196-4.01364532-7.60133334" fill="none"/></mask><mask id="w" fill="#fff"><path d="m.7839532 2.61866667c2.2275 1.40533333 4.02096059 4.80266666 4.01486453 7.60133333l3.73444582-2.37333333c.00731527-2.79866667-1.78736454-6.196-4.01364532-7.60133334" fill="none"/></mask><mask id="x" fill="#fff"><path d="m.7839532 2.61866667c2.2275 1.40533333 4.02096059 4.80266666 4.01486453 7.60133333l3.73444582-2.37333333c.00731527-2.79866667-1.78736454-6.196-4.01364532-7.60133334" fill="none"/></mask><mask id="y" fill="#fff"><path d="m.7839532 2.61866667c2.2275 1.40533333 4.02096059 4.80266666 4.01486453 7.60133333l3.73444582-2.37333333c.00731527-2.79866667-1.78736454-6.196-4.01364532-7.60133334" fill="none"/></mask><mask id="z" fill="#fff"><path d="m.7839532 2.61866667c2.2275 1.40533333 4.02096059 4.80266666 4.01486453 7.60133333l3.73444582-2.37333333c.00731527-2.79866667-1.78736454-6.196-4.01364532-7.60133334" fill="none"/></mask><mask id="A" fill="#fff"><path d="m.7839532 2.61866667c2.2275 1.40533333 4.02096059 4.80266666 4.01486453 7.60133333l3.73444582-2.37333333c.00731527-2.79866667-1.78736454-6.196-4.01364532-7.60133334" fill="none"/></mask><mask id="B" fill="#fff"><path d="m.7839532 2.61866667c2.2275 1.40533333 4.02096059 4.80266666 4.01486453 7.60133333l3.73444582-2.37333333c.00731527-2.79866667-1.78736454-6.196-4.01364532-7.60133334" fill="none"/></mask><mask id="C" fill="#fff"><path d="m.7839532 2.61866667c2.2275 1.40533333 4.02096059 4.80266666 4.01486453 7.60133333l3.73444582-2.37333333c.00731527-2.79866667-1.78736454-6.196-4.01364532-7.60133334" fill="none"/></mask><mask id="D" fill="#fff"><path d="m.7839532 2.61866667c2.2275 1.40533333 4.02096059 4.80266666 4.01486453 7.60133333l3.73444582-2.37333333c.00731527-2.79866667-1.78736454-6.196-4.01364532-7.60133334" fill="none"/></mask><mask id="E" fill="#fff"><use fill="none" xlink:href="#b"/></mask></defs><g fill="none" fill-rule="evenodd" transform="translate(-11 -19)"><path d="m24.9618867 126.894564c20.7601434 45.361495 103.4538013 56.461298 175.2793793 25.929738 71.825577-30.53156-21.908371-55.6849665 23.026052-73.0198508 44.934423-17.3348842-55.467119-72.48593282-127.9612534-27.6040009-72.4941341 44.881932-91.10432118 29.3326187-70.3441779 74.6941137z" fill="#02ecf1" opacity=".1" transform="matrix(-.93358043 -.35836795 .35836795 -.93358043 206.353333 243.24533)"/><g transform="translate(69 19)"><path d="m71.0156563 119.79387c-.0253092.139012-.0670694.280672-.1012369.418361.0366984-.146956.0771932-.292588.1025024-.442192-.0012655.009268-.0012655.015887-.0012655.023831m-.263216 1.020747c-.0468221.135041-.1088297.270081-.1632445.402474.0569457-.139012.1202188-.279349.1683064-.422333-.002531.00662-.0037964.01324-.0050619.019859m-.4353188 1.016776c-.0645385.124449-.1429972.244926-.213863.366728.0746622-.12445.1543863-.25287.2201903-.383939-.0025309.006619-.0037964.011915-.0063273.017211m-.6479164 1.04855c-.0670694.093999-.1417317.186673-.213863.278024.0746623-.095322.1518554-.191969.2201904-.28994-.002531.003972-.0037964.00662-.0063274.011916m-.5783159.746694c-.1354044.1549-.296118.304504-.446708.456755.1543863-.156223.3176309-.309799.4555662-.469994-.0037964.005296-.0050618.007944-.0088582.013239m-1.2793817 1.224633c-.0607422.050309-.1202189.100618-.1822265.153575.0645385-.054281.1265461-.108562.1898192-.160195-.0025309.001324-.0050618.003972-.0075927.00662m3.2686874-5.659787c.2366413-2.904695-1.4628737-5.859699-5.1352434-8.075952-6.8752531-4.153158-17.979679-4.153158-24.8055791-.005296-3.4002955 2.067973-5.0960141 4.776727-5.0922177 7.488129 0-.009267-.0025309-.018535-.0025309-.026479l-.0101237 3.750685c-.0063273 2.739204 1.7210278 5.483704 5.1820654 7.574184.413806.247574.8440629.481909 1.285709.703005.15059.071492.3075072.139012.4618935.20918.2594197.120478.5150429.246251.7820553.356137.0303711.013239.0645386.021182.0949097.033098.6099525.248898 1.2414178.46867 1.8880687.667259.049353.015887.0961751.03707.1467936.051633.1442626.042366.2948526.072816.4391152.112534.3644529.100618.7301714.197265 1.1022171.281996.0961751.022507.1898192.052957.2872598.07414.1429971.03045.2910561.051633.4353188.078112.3087726.062224.6200762.120477.9326452.17211.1252807.019859.2454996.047662.3707803.066196.1366698.021183.2758706.030451.4125405.048986.2897907.03707.5795814.071492.871903.101942.1417317.014563.2796671.03707.4213988.050309.131608.009268.2644815.010592.3960895.021183.2935871.021183.5859087.035746.8807613.048985.1505899.00662.2999144.022507.4505043.025155.1202189.003972.2391723-.002648.3593911-.001324.3214273.005296.6403236.001324.9604854-.00662.1594482-.001323.3176309.005296.4770791-.001323.0923787-.002648.1847574-.015888.279667-.019859.3960895-.018535.7909135-.047662 1.1857375-.08076.1594482-.014563.3201618-.018535.47961-.034422.049353-.005296.0974405-.014563.1467936-.019859.6719601-.075464 1.3363274-.169462 1.9905711-.292588.032902-.005295.0670695-.007943.0999715-.014563.1910847-.034422.3758421-.086055.5643959-.127097.3252236-.068844.6504473-.133716.9693436-.2158.2315795-.058253.4580971-.127097.6871457-.193293.3037108-.087379.6074216-.172111.9035396-.270081.0645385-.021183.131608-.03707.1961465-.056929.1062988-.03707.2037394-.087379.3100381-.123125.4707518-.168139.9313798-.350841 1.3793532-.548106.1657755-.072816.3328165-.144308.4947955-.221096.5719887-.271405 1.1300573-.557373 1.6552239-.875115.0721313-.04369.1442626-.088703.213863-.132393.1581827-.099294.2935871-.207856.4429116-.308475.2176594-.146955.4391152-.293911.6403236-.448811.1733682-.131068.3277545-.268757.4897336-.403797.183492-.1549.3720457-.307151.5390867-.466023.0341674-.033098.0759277-.0609.1088297-.093998.2252522-.218448.4327879-.440868.6301999-.664612.0404948-.047661.0746622-.092674.1138915-.139012.1164225-.137688.2366414-.278024.3429401-.418361.0468221-.062224.0771932-.127097.1214844-.187997.1505899-.211828.2834634-.423657.411275-.638133.0531494-.092675.1240152-.17873.1733682-.271405.0240438-.046337.0379639-.092675.0620077-.139012.0974405-.189322.1771646-.381291.2568887-.57326.0468221-.11121.1088297-.219772.148059-.330982.0139201-.03707.0177164-.07414.0303711-.11121.063273-.182702.1062987-.369375.1518554-.554725.030371-.123125.0771931-.242279.1012369-.365404.0063273-.033098.0037964-.066196.0113891-.09797.0341675-.195942.0468221-.390559.0632731-.585176.0101237-.124449.0366984-.247574.0404948-.370699.0012655-.05031.0025309-.101943.0025309-.152252 0-.003972 0-.005296 0-.007944.0025309-1.25111.0063273-2.503545.0088583-3.753332 0 .169463-.0265747.338926-.0404948.509712" fill="#250f8a"/><path d="m35.2080505.96213333-.0099405 3.78c0 .05333334-.0012426.10666667-.0024851.16133334l.0111831-3.77866667c0-.05466667.0012425-.10933333.0012425-.16266667" fill="#872d24" mask="url(#c)" transform="translate(35.086207 117)"/><g fill="#250f8a"><path d="m35.2063109 1.12493333-.0099405 3.77866667c-.0099406.35466667-.0472176.708-.1130737 1.06133333l.0099405-3.78133333c.0658561-.35066667.1031332-.70533333.1130737-1.05866667" mask="url(#d)" transform="translate(35.086207 117)"/><path d="m.95543044.18346667-.00994055 3.78133333c-.06585612.348-.15904875.69466667-.27833531 1.03866667l.00994055-3.78c.11928656-.34266667.21247919-.68933334.27833531-1.04" transform="translate(69.224138 119)"/><path d="m.67697087.22386667-.00994055 3.78c-.12425684.356-.27709275.70533333-.45850773 1.05066666l.00994055-3.78c.18141498-.34666666.33425089-.69733333.45850773-1.05066666" transform="translate(69.224138 120)"/><path d="m1.16661474.27466667-.00994054 3.78c-.19756837.37466666-.42868609.74266666-.69335315 1.104l.00994054-3.77866667c.26466707-.36266667.49578478-.72933333.69335315-1.10533333" transform="translate(68.275862 121)"/><path d="m1.4214132.38013333-.00994055 3.77866667c-.30939952.42-.66477408.83333333-1.06736623 1.232l.00994055-3.78c.40259215-.39866667.7579667-.80933333 1.06736623-1.23066667" transform="translate(67.327586 122)"/><path d="m2.25010166.61053333-.00869797 3.78c-.61755648.612-1.34445898 1.192-2.18070749 1.73333334l.00994054-3.78c.83500595-.54 1.56190844-1.12133334 2.17946492-1.73333334" transform="translate(65.431035 123)"/><path d="m4.81151902.3436-.00994054 3.78c-.06834126.044-.13916766.088-.20999406.13333333-1.14813317.716-2.41928062 1.308-3.76995243 1.78l.00869797-3.78c1.35191439-.472 2.6243044-1.06533333 3.77119501-1.78133333.07206897-.044.14041023-.088.20999405-.132" transform="translate(60.689655 125)"/><path d="m3.67565458.2564-.00994055 3.78c-1.045.36266667-2.13846017.65333333-3.2604994.86933333l.00869797-3.77866666c1.12328181-.21733334 2.21674198-.508 3.26174198-.87066667" transform="translate(57.844828 127)"/><path d="m2.31108561.12746667-.00869798 3.77866666c-.72193222.13866667-1.45629013.24933334-2.19686088.32933334l.00869798-3.78133334c.74181332-.07733333 1.47617123-.188 2.19686088-.32666666" transform="translate(55.948276 128)"/><path d="m2.01127348.45426667-.00869797 3.78133333c-.63370987.06666667-1.27114745.112-1.90982759.136l.00869798-3.77866667c.64116528-.024 1.27736028-.07066666 1.90982758-.13866666" transform="translate(54.051724 128)"/><path d="m1.99849465.59226667-.00994055 3.77866666c-.58773484.02266667-1.17671224.02533334-1.76444708.00933334l.00994054-3.77866667c.58773484.016 1.17671225.012 1.76444709-.00933333" transform="translate(52.155173 128)"/><path d="m2.13072354.60146667-.00994054 3.77866666c-.56661118-.01466666-1.13322236-.048-1.69610583-.09466666l.00994055-3.78133334c.56288347.04933334 1.12949465.08133334 1.69610582.09733334" transform="translate(50.258621 128)"/><path d="m2.33141795.50373333-.00994054 3.78133334c-.56164091-.05066667-1.12079667-.11866667-1.67498217-.20266667l.00994055-3.78c.55418549.084 1.11334126.152 1.67498216.20133333" transform="translate(48.362069 128)"/><path d="m2.55348454 1.302-.00994054 3.78c-.57530916-.088-1.14564804-.19333333-1.70728895-.31866667l.00869798-3.77866666c.56288347.124 1.13197979.22933333 1.70853151.31733333" transform="translate(46.465517 127)"/><path d="m2.74200178.98426667-.00994054 3.77866666c-.60885851-.13466666-1.20777646-.29333333-1.7955113-.472l.00994055-3.77866666c.58773484.17866666 1.18665279.33466666 1.79551129.472" transform="translate(44.568966 127)"/><path d="m2.84266944 1.5116-.00994055 3.78c-.71696195-.22-1.41652794-.47333333-2.09-.75733333l.00869798-3.78c.67471463.28533333 1.37303805.53866666 2.09124257.75733333" transform="translate(42.672414 126)"/><path d="m8.3381308 9.75373333-.00994055 3.77999997c-.87352557-.3706666-1.70604637-.796-2.48389417-1.2773333-3.3984245-2.1053333-5.09453032-4.868-5.08831748-7.628l.00994054-3.77733333c-.00745541 2.75733333 1.68989299 5.52 5.08831748 7.624.7778478.48133333 1.60912604.90933333 2.48389418 1.27866666" transform="translate(35.086207 117)"/></g><path d="m60.999125 123.477221h7.58375c3.25375-3.9825 2.16625-8.965589-3.2775-12.291618-3.75375-2.295-8.78375-3.316765-13.67-3.074559l-6.5675 5.630294z" fill="#02ecf1"/><path d="m60.999125 123.477221-15.93125-9.735883 6.5675-5.630294c-3.955.194559-7.81625 1.213677-10.8325 3.069265-6.74125 4.149265-6.705 10.875441.0875 15.027353 6.785 4.147941 17.75375 4.147941 24.495 0 1.33625-.820588 2.39375-1.747059 3.1975-2.730441z" fill="#02ecf1"/><path d="m61.112 80.9588382 2.29875-1.4148529-.11375 42.5197057-2.2975 1.41353z" fill="#4f34ce"/><path d="m45.1825 71.2184559 2.2975-1.4135294 15.93125 9.7385294-2.29875 1.4148529z" fill="#263543"/><path d="m61.112 80.9588382-.1125 42.5183828-15.93125-9.735883.11375-42.5223527z" fill="#250f8a"/><path d="m1.9665 2.85895588c.005 0 .01-.00132353.01375-.00264706-.095.0225-.17625.07014706-.265.1032353.08375-.03044118.16125-.07941177.25125-.10058824m1.46375.12970588c.0025 0 .00375.00132353.005.00132353-.0875-.03044117-.16625-.03705882-.2525-.05823529.08375.02117647.1625.02779412.2475.05691176m-.7575-.17073529h.0125c-.1-.00794118-.19.01191177-.285.01323529.09125-.00132352.17625-.02117647.2725-.01323529m103.0425 130.71970553c.02875-.068823.0475-.154853.07125-.22897-.0375.115147-.0625.248823-.11.353382.0175-.035735.02375-.084706.03875-.124412m-.20375.398383c-.07.117794-.13125.248823-.21375.348088.0825-.099265.14375-.230294.21375-.348088m4.4775-65.9541179c-.01-.1852942-.0275-.3719118-.0525-.5611765-.00375-.0344118-.01125-.0675-.01625-.1019118-.005-.0264706-.01-.0555882-.01375-.0833823-.015-.0913236-.02625-.1813236-.04375-.2713236-.02625-.135-.055-.272647-.08875-.405-.0275-.1204411-.06-.2395588-.09375-.3586764 0-.0013236-.00125-.0052941-.00125-.0066177l-.00375-.0119117c-.0325-.1177942-.06875-.2342647-.1075-.3520589-.0375-.115147-.0775-.2289706-.11875-.3427941-.04125-.1125-.085-.2236765-.13-.3348529-.005-.0105883-.00875-.0211765-.01375-.0330883-.00375-.0066176-.0075-.0145588-.01-.0225-.03875-.092647-.0775-.1839705-.1175-.2752941-.05-.1111764-.10125-.2210294-.15375-.3295588-.055-.1125-.11125-.2236765-.17-.3335294-.01375-.0251471-.03-.0516177-.04375-.0780882-.00875-.0158824-.0175-.0317648-.02625-.0463236-.03875-.0714706-.0775-.1442647-.11875-.2144117-.0675-.1177942-.13875-.2342647-.2125-.3507353-.07875-.1244118-.16-.2488236-.24375-.3692647-.00375-.0039706-.0075-.0092647-.01125-.0145589-.0075-.0119117-.0175-.0238235-.02625-.0357353-.085-.1217647-.17-.2408823-.26-.3573529-.12875-.1667647-.26125-.3282353-.3975-.4844118-.00375-.002647-.0075-.0066176-.01125-.0092647-.17-.1932353-.35125-.36-.5325-.5294117-.0825-.0820589-.16125-.1720589-.2475-.2475-.27125-.2342647-.55125-.4420589-.83875-.6167647l-97.7475-59.75470592c-.06875-.04102942-.135-.07941177-.2025-.11647059-.16-.08867647-.31875-.16544118-.47375-.23029412-.0425-.01720588-.08375-.02779412-.12625-.04367647-.025-.01058824-.05-.01852941-.075-.02911765-.04875-.01455882-.0975-.03705882-.145-.05161764-.1-.02779412-.19875-.05426471-.295-.07279412-.08875-.01852941-.17625-.03308824-.26125-.04235294-.01-.00132353-.02-.00132353-.03125-.00264706h-.02375c-.0625-.00529412-.12375-.01058824-.185-.01058824-.075-.00132353-.15.00132353-.22375.00661765-.07.00397059-.1425.01323529-.21125.02779412-.02.00264706-.0375.00794117-.0575.01323529-.01.00264706-.02.00397059-.02875.00661765-.03875.00926471-.07875.01455882-.11625.02514706-.0675.02117647-.1325.04235294-.19625.06882353-.06375.02514706-.1275.05558823-.18875.08735294-.03375.01852941-.06625.03838235-.09875.05691176-.6375.39308824-1.27625.78485294-1.91375 1.17926471-.63875.39308823-1.27625.78617647-1.915 1.17794118.0025-.00264706.005-.00264706.0075-.00397059-.74375.45264706-1.2075 1.42544117-1.21125 2.80985294l-.16375 61.20264701c-.005 1.9720589.93 4.2352942 2.28625 5.8870589.5525.6736764 1.16875 1.2586764 1.83 1.6610294l97.7475 59.7560291c.60125.366618 1.16875.549265 1.685.582353.60125.039706 1.11625-.150882 1.525-.5175-.09.080736-.17125.177353-.2725.238236.19125-.119118.38375-.235589.575-.353383.0575-.035735.13375-.082059.19125-.11647.51125-.315 1.02125-.63 1.53125-.943677.4475-.27397.89375-.549265 1.34125-.824559.0575-.035735.13375-.083382.1925-.119117.74-.455294 1.19875-1.424118 1.2025-2.803236l.16375-61.2039702c0-.1217647-.00375-.244853-.01-.3692647" fill="#250f8a"/><g transform="translate(.948276)"><path d="m.11910345 3.11053333 3.87275862-2.37333333c.03287356-.01866667.06574713-.03866667.09988506-.05466667l-3.87402299 2.372c-.03413793.01866667-.0670115.036-.09862069.056" fill="#1a242e" mask="url(#e)"/><path d="m.21721839 3.05453333 3.87402299-2.372c.06195402-.036.12643678-.064.19218391-.092l-3.87402299 2.376c-.06448276.02533334-.12896552.056-.19218391.088" fill="#1b252f" mask="url(#f)"/><path d="m.40990805 2.966 3.87275862-2.37466667c.06448276-.02666666.13149425-.048.19850574-.06666666l-3.87402298 2.37333333c-.0670115.01866667-.13275862.04133333-.19724138.068" fill="#1c2631" mask="url(#g)"/><path d="m.6074023 2.89826667 3.87275862-2.37333334c.06827586-.02133333.13655172-.03733333.20609195-.048l-3.87402298 2.37333334c-.06954023.01333333-.1378161.028-.20482759.048" fill="#1d2732" mask="url(#h)"/><path d="m.81185058 2.85013333 3.87402298-2.37333333c.06954023-.012.14287357-.02133333.21367816-.028l-3.87275862 2.37333333c-.07333333.00533334-.14413793.016-.21494252.028" fill="#1d2934" mask="url(#i)"/><path d="m1.02729885 2.8228 3.87275862-2.37333333c.0745977-.00666667.15045977-.008.22632184-.008l-3.87275862 2.37333333c-.07712644 0-.15172414.00133333-.22632184.008" fill="#1e2a35" mask="url(#j)"/><path d="m1.25324138 2.81493333 3.87275862-2.37333333c.07965517.00133333.16057471.008.24275862.01466667l-3.87402299 2.37466666c-.08218391-.008-.16183908-.01466666-.24149425-.016" fill="#1f2b37" mask="url(#k)"/><path d="m1.49524138 2.83066667 3.87275862-2.37333334c.08724138.00933334.17574713.02266667.26425287.04l-3.87402298 2.37333334c-.08850575-.016-.1770115-.03066667-.26298851-.04" fill="#202c38" mask="url(#l)"/><path d="m1.75886207 2.87093333 3.87402299-2.37333333c.09862069.02.19724138.04533333.2983908.07466667l-3.87402299 2.37466666c-.10114942-.03066666-.20103448-.05333333-.2983908-.076" fill="#212d3a" mask="url(#m)"/><g fill="#250f8a"><use xlink:href="#a"/><path d="m2.057 2.94653333 3.87402299-2.37333333c.11505747.03466667.23137931.076.35022988.124l-3.87402298 2.37466667c-.11758621-.04666667-.23517242-.09066667-.35022989-.12533334" mask="url(#n)"/></g></g><g fill="#250f8a"><path d="m.51118391 3.07146667 3.87275862-2.37333334c.15804598.064.31735632.14.48045977.232l-3.87402299 2.37333334c-.16183908-.09066667-.32114942-.168-.4791954-.232" transform="translate(2.844828)"/><path d="m.0426092 3.3032 3.87275862-2.37333333c.06954023.036.13528735.07466666.20609195.11866666l-3.87528736 2.372c-.06827586-.04-.13528735-.08266666-.20356321-.11733333" transform="translate(3.793104)"/><path d="m1.44629138 2.72134 4.06772414-2.4934c-.00265518 1.4602-.4912069 2.485-1.27713793 2.968l-4.06772414 2.492c.78593103-.483 1.27448276-1.5092 1.27713793-2.9666" mask="url(#o)" transform="translate(104.310345 129)"/><g transform="translate(3.793103 1)"><path d="m102.377826 69.507668 3.827196-2.3496-.162434 61.03944-3.829696 2.35092z"/><path d="m.55577444 2.386196 3.82844625-2.34828 97.70909531 59.59404-3.8296957 2.3496z"/></g></g><g transform="translate(101.465517 60)"><path d="m.7839532 2.6184 3.73566503-2.37333333c.56571428.356 1.10216748.84133333 1.58985221 1.41333333l-3.73566502 2.37333333c-.48646552-.572-1.02413793-1.056-1.58985222-1.41333333" fill="#23313e" mask="url(#p)"/><path d="m2.37404926 4.03106667 3.73444581-2.372c.1341133.15466666.26334976.31733333.38892858.48666666l-3.73566503 2.37333334c-.12435961-.16933334-.25481527-.332-.38770936-.488" fill="#22303d" mask="url(#q)"/><path d="m2.76224631 4.51946667 3.73444581-2.37333334c.10119458.13333334.19751231.27066667.29139162.41066667l-3.73566502 2.37466667c-.09387931-.14133334-.19019705-.27866667-.29017241-.412" fill="#222e3b" mask="url(#r)"/><path d="m3.05217488 4.93093333 3.73566502-2.37333333c.08168719.12133333.16093596.244.23774631.372l-3.73444582 2.37333333c-.07681034-.12533333-.15727832-.25066666-.23896551-.372" fill="#212d3a" mask="url(#s)"/><path d="m3.29150616 5.3032 3.73444581-2.37333333c.07071429.116.14020936.23333333.2060468.35066666l-3.73444581 2.37466667c-.06705665-.11866667-.13533252-.236-.2060468-.352" fill="#202c38" mask="url(#t)"/><path d="m3.49743103 5.6548 3.73444582-2.37333333c.06461822.11333333.12557882.22666666.18532019.34266666l-3.73688423 2.37333334c-.05852217-.116-.11948276-.22933334-.18288178-.34266667" fill="#1f2b37" mask="url(#u)"/><path d="m3.68080049 5.99733333 3.73566503-2.37333333c.05730295.11066667.11216748.22266667.16581281.336l-3.73566503 2.372c-.05242611-.112-.10850985-.22533333-.16581281-.33466667" fill="#1e2a35" mask="url(#v)"/><path d="m3.84636946 6.33186667 3.73566502-2.372c.0512069.10933333.1024138.21866666.14996306.33066666l-3.73444582 2.37466667c-.04876847-.11333333-.09875615-.224-.15118226-.33333333" fill="#1d2934" mask="url(#w)"/><path d="m3.99694212 6.6652 3.73444581-2.37466667c.04998769.11066667.09509852.22266667.13899015.33333334l-3.73566503 2.37333333c-.04389162-.11066667-.09022167-.22133333-.13777093-.332" fill="#1d2732" mask="url(#x)"/><path d="m4.13507882 6.99733333 3.73444581-2.37333333c.04511084.112.08778325.22533333.12801724.33866667l-3.73688423 2.37466666c-.03901478-.11466666-.0816872-.22666666-.12557882-.34" fill="#1c2631" mask="url(#y)"/><path d="m4.26065764 7.33706667 3.73688423-2.37466667c.04023399.11466667.07802956.22933333.11582513.344l-3.73566503 2.37466667c-.03657635-.116-.07437192-.23066667-.11704433-.344" fill="#1b252f" mask="url(#z)"/><path d="m4.37733621 7.68093333 3.73566502-2.37466666c.03779557.11866666.07315271.23733333.10485222.356l-3.73566503 2.37466666c-.0316995-.12-.06705665-.23866666-.10485221-.356" fill="#1a242e" mask="url(#A)"/><path d="m4.48267611 8.0364 3.73566502-2.37333333c.03535715.124.06705665.25066666.09631774.37733333l-3.73444582 2.37333333c-.02926108-.12666666-.0621798-.25066666-.09753694-.37733333" fill="#19232c" mask="url(#B)"/><path d="m4.57972537 8.414 3.73444581-2.37333333c.03291872.136.06096059.272.08656404.408l-3.73566502 2.37466666c-.02438424-.136-.05486453-.272-.08534483-.40933333" fill="#18222b" mask="url(#C)"/><path d="m4.66482635 8.8228 3.73566503-2.37333333c.02804187.15333333.05242611.30533333.0719335.45866666l-3.73444582 2.37466667c-.0207266-.15333333-.04389162-.30666667-.07315271-.46" fill="#182029" mask="url(#D)"/><g fill="#250f8a"><use xlink:href="#b"/><path d="m4.73749138 9.2824 3.73444581-2.37333333c.02438424.18933333.0414532.37866666.05242611.568l-3.73566502 2.37333333c-.0097537-.188-.02682266-.37733333-.0512069-.568" mask="url(#E)"/></g></g><path d="m.04731897 2.85013333 3.73566502-2.37333333c.00609606.124.00853448.24666667.00853448.36933333l-3.73444581 2.37333334c0-.12-.00365764-.24533334-.00975369-.36933334" fill="#250f8a" transform="translate(106.206896 67)"/><path d="m102.012349 60.342216c2.282823 1.39128 4.120827 4.75596 4.113331 7.52532l-.163684 61.04076c-.007497 2.76936-1.857996 3.88344-4.13957 2.49216l-97.70909537-59.59536c-2.28157404-1.39128-4.12082759-4.75728-4.11333063-7.52664l.16368357-61.04076c.00749696-2.76804 1.85924544-3.88344 4.14081947-2.49084z" fill="#0ad7dd" transform="translate(0 3)"/><path d="m94.7722872 58.11296-94.11305475-57.40284-.12994726 55.44264 94.09431241 57.38172zm-60.5016957-22.70136.0249898-9.18456 55.5474564 33.87912-.0249898 9.18456zm-29.47678704-17.9784.02498986-9.18456 24.39884788 14.88036-.0237404 9.18588-.1037079 38.3592-24.40009735-14.88432zm29.37307914 56.33496.1037079-38.35656 55.5474564 33.87912-.1037079 38.35788z" fill="#fff" transform="translate(6.637931 10)"/><path d="m8.615557 5.796192-7.99550507-4.87608-.00749696 2.42352 7.99675456 4.8774z" fill="#250f8a" transform="translate(48.362069 96)"/><path d="m24.475888 15.129132-24.39884784-14.88036-.02374036 9.18456 24.3988479 14.88168zm-5.9076024 3.65772.0149939-5.32092 4.3832211 2.67432-.0149939 5.3196zm-5.9288438-3.61548.0137444-5.32224 4.3832211 2.673-.0137444 5.32224zm-5.93009332-3.61812.01374442-5.32092 4.3832211 2.673-.0137444 5.32092z" fill="#fa7564" transform="translate(11.37931 18)"/><path d="m25.4002986 15.315012-24.39884789-14.88168-.10370791 38.35656 24.3988479 14.88432zm-23.04814606-.74184.02374036-8.95884 21.5075213 13.11948-.0237404 8.9562zm-.05872617 21.6876.00749696-2.29812 21.50627177 13.11684-.0062474 2.29944z" fill="#e5fdfd" transform="translate(10.431034 27)"/><path d="m55.679742 34.290456-55.5474564-33.87912-.10370791 38.35788 55.54745641 33.88044zm-54.02932253-19.63896.02374037-8.9562 52.45371196 31.99284-.0237404 8.95752zm-.01374442 4.59888.00624747-2.29944 52.45496148 31.99416-.0062475 2.29812zm-.01124544 4.60416.00624747-2.29812 52.45371192 31.99284-.0062474 2.29944zm-.03123732 11.34276.02374037-8.96016 52.45496144 31.99416-.0237403 8.95752z" fill="#e5fdfd" transform="translate(40.775862 45)"/><path d="m55.7047318 34.105896-55.54745634-33.87912-.02498986 9.18456 55.5474564 33.87912zm-5.9438377 3.6366.0149939-5.32092 4.3832211 2.673-.0137444 5.32092zm-5.9288438-3.6168.0137444-5.32092 4.3832211 2.67432-.0149939 5.3196zm-5.9300933-3.6168.0137444-5.32224 4.3832211 2.67432-.0149939 5.32092z" fill="#fa7564" transform="translate(40.775862 36)"/><path d="m4.8490142 3.094576-4.3832211-2.673-.01499391 5.32092 4.38447059 2.673z" fill="#ffca00" transform="translate(90.086207 68)"/><path d="m4.60845112 3.478832-4.3832211-2.673-.01499391 5.3196 4.38322109 2.673z" fill="#fff" transform="translate(84.396552 64)"/><path d="m5.31553915 2.860448-4.3832211-2.673-.01374442 5.32224 4.3832211 2.67168z" fill="#fff" transform="translate(77.758621 61)"/><path d="m4.94925923 3.139724-4.3832211-2.673-.01499391 5.32092 4.38322109 2.67168z" fill="#ffca00" transform="translate(29.396552 31)"/><g fill="#fff"><path d="m4.70932089 3.52266-4.38322109-2.673-.01499392 5.32224 4.3832211 2.67168z" transform="translate(23.706897 27)"/><path d="m4.46875781 2.905596-4.38447059-2.673-.01374442 5.32092 4.38322109 2.673z" transform="translate(18.017241 24)"/><path d="m21.9871124 13.733548-21.50752132-13.11816-.02374037 8.95884 21.50627179 13.11552z" transform="translate(12.327586 32)"/><path d="m53.1799708 32.6884-52.45371198-31.99284-.02498985 8.9562 52.45371193 31.99416z" transform="translate(41.724138 50)"/><path d="m53.1249931 32.2309-52.45496146-31.99284-.02374036 8.95884 52.45371192 31.99152z" transform="translate(41.724138 71)"/></g><g fill="#ffca00"><path d="m21.9107684 14.08002-21.50627185-13.11816-.00749696 2.29944 21.50752131 13.11684z" transform="translate(12.327586 60)"/><path d="m53.1494832 32.944568-52.453712-31.99284-.00749696 2.29944 52.45496146 31.99152z" transform="translate(41.724138 61)"/><path d="m53.1366134 32.549124-52.45371198-31.99284-.00624746 2.29812 52.45496144 31.99416z" transform="translate(41.724138 66)"/></g><g transform="translate(4.741379 8)"><path d="m2.46699607 57.9697922-2.44554343 1.2666889.15479703-58.28223332 2.42057617 1.47956666z" fill="#172029"/><path d="m96.4769812 115.44904-.0074901 2.767411-96.4485378-58.9803666 2.44554343-1.2666888z" fill="#263442"/></g></g></g></svg>