<svg height="462" viewBox="0 0 528 462" width="528" xmlns="http://www.w3.org/2000/svg" xmlns:xlink="http://www.w3.org/1999/xlink"><mask id="a" fill="#fff"><path d="m52.3329972 4.54898668c0 1.99177765-11.7082472 3.60660104-26.1509382 3.60660104-14.4414719 0-26.15093823-1.61482339-26.15093823-3.60660104s11.70946633-3.60660104 26.15093823-3.60660104" fill="none"/></mask><mask id="b" fill="#fff"><path d="m.06915169 83.9002895 236.86037631-83.9002895 195.05618 2.43196294-167.883635 81.46832656z" fill="none"/></mask><mask id="c" fill="#fff"><path d="m.59126404 3.68928778c0-1.99177765 11.70702806-3.60660104 26.15093816-3.60660104 14.441472 0 26.1497191 1.61482339 26.1497191 3.60660104 0 1.99299363-11.7082471 3.60660104-26.1497191 3.60660104" fill="none"/></mask><mask id="d" fill="#fff"><path d="m326.917363 0-52.385301 23.1758242-63.849153-5.1084396c-6.626132 2.9591868-26.554475 5.1084396-50.108368 5.1084396-28.970289 0-52.454741-3.2507143-52.454741-7.2613517 0-1.9052967 5.307971-3.6386044 13.980784-4.9327912l-122.03216752-9.76434064h263.85135852z" fill="none"/></mask><mask id="e" fill="#fff"><path d="m.50225 9.45625h3.98125l2.33158333-8.90125-2.7685-.36375z" fill="none"/></mask><mask id="f" fill="#fff"><path d="m.6608.40922222 1.2124 9.05911111h3.9998l-2.3632-9.41355555z" fill="none"/></mask><mask id="g" fill="#fff"><path d="m111.267597 8.14081319c0 4.24117581-24.8355057 7.67851651-55.4711605 7.67851651s-55.47116033-3.4373407-55.47116033-7.67851651c0-4.23995605 24.83550553-7.67729671 55.47116033-7.67729671" fill="none"/></mask><mask id="h" fill="#fff"><path d="m53.1394053 4.51196703c0 1.998-11.6989777 3.61786813-26.1329554 3.61786813-14.4315412 0-26.1317372-1.61986813-26.1317372-3.61786813s11.700196-3.61786813 26.1317372-3.61786813" fill="none"/></mask><mask id="i" fill="#fff"><path d="m.56875 20.2593684c1.98625 1.0289474 3.925 1.9937369 5.34875 2.6946316l3.355-9.0099474.31375-2.8616842-4.37625-10.95526314z" fill="none"/></mask><mask id="j" fill="#fff"><path d="m.27695706 14.8943158 148.38338694 7.2135263 48.372736-20.62131578-19.42708-.58105264z" fill="none"/></mask><mask id="k" fill="#fff"><path d="m.02918519 14.8059474 148.54529581 7.2135263 48.425519-20.62252633-19.448278-.57984211z" fill="none"/></mask><mask id="l" fill="#fff"><path d="m.6944098 3.70081319c0-1.998 11.700196-3.61786814 26.1329555-3.61786814 14.4315412 0 26.1317371 1.61986814 26.1317371 3.61786814 0 1.99921978-11.7001959 3.61786813-26.1317371 3.61786813" fill="none"/></mask><mask id="m" fill="#fff"><path d="m1.62138776 5.40613333c-.13975511.40786667-.86334694 2.48266667-1.61567347 4.65246667l4.62628571 8.6754 2.33926531-12.7262-.36702041-1.0982-2.89828572-4.39786667-.56816326-.1064s-1.21208163 4.11793334-1.51640816 5.0008" fill="none"/></mask><g fill="none" fill-rule="evenodd"><path d="m65.4209062 359.534472c-16.3631013 16.912338-47.4420591 13.8992-47.4208954 40.037731.0176365 23.181779 25.9326408 34.022028 44.3803708 40.788373 60.6764534 22.247882 109.9773954 29.747248 169.0524584 7.203337 40.803698-15.562593 256.352902-141.712634 286.20789-161.627537 41.131736-27.445987-50.517857-53.443552-102.813468-62.158745-76.535152-12.760904-349.4063558 135.756841-349.4063558 135.756841" fill="#fa7564" fill-opacity=".2"/><path d="m52.3329972 4.54898668c0 1.99177765-11.7082472 3.60660104-26.1509382 3.60660104-14.4414719 0-26.15093823-1.61482339-26.15093823-3.60660104s11.70946633-3.60660104 26.15093823-3.60660104c14.442691 0 26.1509382 1.61482339 26.1509382 3.60660104" mask="url(#a)" transform="translate(412.770228 265.159815)"/><path d="m.06915169 83.9002895 236.86037631-83.9002895 195.05618 2.43196294-167.883635 81.46832656z" mask="url(#b)" transform="translate(114 253)"/><path d="m.59126404 3.68928778c0 1.99299363 11.70702806 3.60660104 26.15093816 3.60660104 14.441472 0 26.1497191-1.61360741 26.1497191-3.60660104 0-1.99177765-11.7082471-3.60660104-26.1497191-3.60660104-14.4439101 0-26.15093816 1.61482339-26.15093816 3.60660104" mask="url(#c)" transform="translate(375.106742 436.613202)"/><path d="m390 175h48v-62h-48z" fill="#02ecf1"/><g transform="translate(114 47)"><g fill="#fff"><path d="m286.024755 73.2104385.77116-.3281209c.282637-.1158791.529944-.2098022.756541-.2903077.579893.4586374.486087.5232857.63837 1.0624286l-6.317911 2.8896593v.0158571l2.726472 1.2441759c1.359582.6257472 2.552261 1.1795274 3.584129 1.6308461-.153501.5598791-.02802.6037912-.639587 1.0843846-.341114-.1158791-.646898-.2463956-.916134-.3708131-1.803029-.8221319-4.129911-1.8711429-7.002575-3.1958242v-.4293627c0-.0512307.095025-.1170989.298475-.204923-.079187.0292747-.152283.0512307-.224161.0805055v-.0939231c0-.0878242.013401-.1817473.123045-.2476154z"/><path d="m286.024755 114.426324.77116-.328121c.282637-.115879.529944-.209802.756541-.290307.579893.458637.486087.523285.63837 1.062428l-6.317911 2.88966v.015857l2.726472 1.244175c1.359582.625748 2.552261 1.179528 3.584129 1.630847-.153501.559879-.02802.603791-.639587 1.084384-.341114-.117099-.646898-.247615-.916134-.372033-1.803029-.822132-4.129911-1.869923-7.002575-3.194604v-.430583c0-.050011.095025-.115879.298475-.203703-.079187.029275-.152283.051231-.224161.080506v-.093923c0-.087825.013401-.182967.123045-.248836z"/><path d="m294.723517 77.5932308h24.569924v-2.5895934h-24.569924z"/><path d="m300.210572 86.6561978h19.082869v-2.5895934h-19.082869z"/><path d="m308.832218 94.424978h10.461223v-2.5895934h-10.461223z"/><path d="m294.723517 118.809604h24.569924v-2.589593h-24.569924z"/><path d="m300.210572 109.746637h19.082869v-2.589593h-19.082869z"/><path d="m308.832218 101.977857h10.461223v-2.5895933h-10.461223z"/><path d="m291.597333 113.258995-2.559571 9.226417 1.838359.147593 2.558352-9.226417z"/></g><path d="m308.173504 134.650402.964864 8.206682 5.773347 15.008175-5.279951 1.625967-4.06047-15.653439-.531162-8.82511z" fill="#250f8a"/><path d="m320.512069 174.334976-2.579062 26.117934.858875 22.959923h-8.886009l-.477559-1.708912 6.091314-.813594-3.249107-20.330076-2.93114-25.282385z" fill="#fff"/><path d="m323.446986 174.043082 2.021098 22.247572 13.604341 18.09422-1.623944 8.538461h-4.061689l2.436526-1.82967.4069-5.489011-12.99521-14.637363-11.776946-26.225275z" fill="#e7eefa"/><path d="m299.012776 138.150074 2.837334.94045c1.153695 3.345857 3.076114 6.373352 5.612537 8.840967l5.310408 5.165769 6.537198 4.420484 4.855996 18.03689-15.191738 1.435681-.501924-19.875099-5.640557-7.060087c-2.319572-2.901858-3.888695-6.33188-4.568485-9.986341z" fill="#250f8a"/><path d="m302.14761 140.080986-3.736412 1.327121-2.41216-12.672297.724866-1.075846z" fill="#ffd0d4"/><path d="m302.991135 139.839835-4.701276 2.293187s-.963646-.845308-.844256-1.327121c.120608-.483033.361824-.845308.723648-1.086824.361824-.241517 3.978847-1.568637 3.978847-1.568637z" fill="#472bc7"/><g fill="#ffd0d4"><path d="m305.039888 135.012555-.239998-6.758802h2.65094l.72243 6.396527z"/><path d="m298.981833 128.122626c-.03533-.024395-1.698259-.93923-1.733588-1.057549-.03533-.119539-1.210954-2.960407-1.210954-2.960407l-1.692167.239077.482432 4.666879 2.330537.562319z"/><path d="m323.366094 149.594418c-1.132985 2.599351-4.802392 5.273109-7.39851 4.138714-2.596119-1.134396-3.134591-5.646363-2.002825-8.245714 1.132985-2.599352 4.155495-3.787418 6.751613-2.653022 2.596118 1.134395 3.782706 4.16067 2.649722 6.760022"/><path d="m315.625861 143.901825c-.449539-.319582-.916134-.614769-1.397348-.88434-.347205-.192726-.891768-.311044-1.045269.05367-.075532.181747.003655.38667.082842.565978.261926.600132.550655 1.231978 1.087908 1.60767.451976.315923 1.055016.406187 1.580087.234198.473905-.153692.936844-.514747.985575-1.003879-.475123-.092703-.895423-.290308-1.293795-.573297"/></g><path d="m316.544309 153.915489c2.535205.562319 5.770911-1.908956 6.822272-4.320462 1.131766-2.600571-.053604-5.626846-2.649722-6.760022-.157156-.069527-.319185-.102461-.477559-.153692-.297256.314703-.537254.689176-.644461 1.045352-.417864 1.38811-.101116 3.028714.776034 4.182626 0 0-2.937232 5.542682-3.826564 6.006198" fill="#000"/><path d="m320.713083 148.740937c.377661.197605.668826.537923.850347.922154.590858 1.238077-.810145 2.454198-2.005261 2.293187-.386189-.051231-.751668-.207363-1.089126-.403747-.289947-.170769-.573802-.39033-.704156-.702594-.125481-.302505-.085279-.655022.051167-.951428.136445-.296407.361824-.544022.605476-.761143.555528-.495231 1.608107-.752604 2.291553-.396429" fill="#ffd0d4"/><path d="m326.917363 0-62.997588 1.21734066h-263.85135852l122.03216752 9.76434064c-8.672813 1.2941868-13.980784 3.0274945-13.980784 4.9327912 0 4.0106374 23.484452 7.2613517 52.454741 7.2613517 23.553893 0 43.482236-2.1492528 50.108368-5.1084396l63.849153 5.1084396z" mask="url(#d)" transform="translate(.298441 288.43956)"/><path d="m6.96375056 289.656901h257.25446544v-270.7887691h-257.25446544z" fill="#ffda4f"/><path d="m.36685746 289.656901h257.25446554v-270.7887691h-257.25446554z" fill="#fff"/><path d="m.36685746 39.9593516h257.25446554v-21.0912197h-257.25446554z" fill="#ffca00"/><g fill="#e5fdfd" transform="translate(49.247216 164.021978)"><path d="m29.8316013 61.7009967c-.3325857-.0902637-.6663897-.1353956-.9977572-.1512527-.0718775-.0024396-.1425368.0073186-.2144143.0073186-.2680178 0-.5335991.0182967-.793089.0646484-.0511671.0085385-.0998976.0243956-.1510646.0353736-.2875101.060989-.5640557.1475934-.8332918.2622528-.0182739.0085384-.0365479.0158571-.0548218.0243956-1.2219176.5391428-2.2087105 1.5832747-2.5900267 2.9738241-.6676081 2.4456594.3874075 6.3684726 2.8300245 7.0381319 1.1342026.3122637 2.3670846-.1390549 3.430628-.9502088 0 0 .0012183-.0024395.0024365-.0024395.403245-.3086044.7809065-.666 1.1208018-1.0575495.0121827-.0158571.0243653-.0304945.0377662-.0451319.1461915-.1732088.2862917-.3512967.4178641-.5342637.0194922-.0268352.0402027-.0548901.0596949-.0829451.1364454-.1951648.2631448-.3952087.3776615-.5976923.0158374-.0268351.0268017-.0524505.0426392-.0792857.0938062-.1707692.1778663-.343978.2533986-.5171868.023147-.0524505.0450757-.1036813.0670045-.1549121.0804053-.1988241.1522828-.3964285.2058864-.5915934.166902-.6111099.2034499-1.2283187.1242628-1.8186923-.2375612-1.7735604-1.5033363-3.3202417-3.3356036-3.8227912"/><path d="m19.1492639 46.2607747h20.6593007v.0024396c0 .8916593.5506548 1.6528022 1.3279064 1.9687253l-8.7617461 24.9664615-8.8482427-.7086923-5.4760913-25.0128132c.5128886-.2402967.908824-.6781978 1.098873-1.2161209m-3.5877839.6855165-.1766482.0256154 3.1857573 27.2901429 2.4779465 25.5178021 2.1039399 25.8544614h3.6876815l.973392-26.1423295 2.4145969-.1024615 1.5520668 26.244791h4.2383363l1.6665835-26.5631537-.3545145-23.7454615 6.726029-27.9988352-.2728909-.0390329c.1681203-.3049451.2728909-.6501429.2728909-1.0246154v-.0024396h15.6802606v-46.02596701h-59.53650337v46.02596701h14.96026727c.0901514.2561539.2265969.4854726.4008085.6855165"/></g><path d="m175.127144 209.239231 2.979871 17.956384h-6.316693l2.979871-17.956384zm28.108978 0-2.979871 17.956384h-20.913917l-2.979871-17.956384zm1.593488 0 2.979871 17.956384h-6.317911l2.979871-17.956384zm5.141069 30.96778h-10.640308l1.958967-11.791615h6.722374zm2.158762 13.010176h-14.957831l1.95653-11.790396h11.04477zm2.158761 13.010176h-19.276572l1.957748-11.790396h15.362294zm2.161198 13.011395h-23.59775l1.95653-11.791615h19.683472zm-24.833069 0h-3.634078l-1.957748-11.791615h7.549575zm-28.465928 0 1.95653-11.791615h19.683472l1.957748 11.791615zm4.11651-24.801791h15.363512l1.957748 11.790396h-19.279009zm2.15998-13.010176h11.043552l1.95653 11.790396h-14.956612zm12.075421-1.21978-1.957749-11.791615h20.509455l-1.957749 11.791615zm14.231746 14.229956-1.95653 11.790396h-7.955257l-1.95653-11.790396zm-12.071766-1.21978-1.957749-11.790396h16.188276l-1.95653 11.790396zm-12.075421-24.801791h6.722374l1.958966 11.791615h-10.639089zm-11.401722 61.241505h1.235318l1.526484-9.198363h24.003432l1.526483 9.198363h1.235319l-1.526484-9.198363h3.228397l-1.527702 9.198363h1.235319l1.527701-9.198363h24.002214l1.527702 9.198363h1.2341l-13.348506-80.41767h2.569317v-3.659341h-36.549103v3.659341h1.449733z" fill="#000"/><path d="m347.814192 123.478923h48.306556v-122.73794498h-48.306556z" fill="#ffca00"/><g fill="#fff"><path d="m359.18704 6.9177011.772379-.32812088c.282637-.11587912.529944-.2098022.755323-.29030769.581111.45863736.486087.52328571.639588 1.06242857l-6.317911 2.8896593v.0158572l2.725254 1.2441758c1.360799.6257473 2.553479 1.1795275 3.585347 1.6308462-.153501.5598791-.029238.6037912-.639588 1.0843846-.341113-.1170989-.646897-.2476154-.916133-.3708132-1.803029-.8233517-4.129911-1.8711429-7.002575-3.1958242v-.4293626c0-.0512308.095025-.1170989.298474-.2037033-.079187.0280549-.153501.050011-.22416.0792857v-.0939231c0-.08782416.013401-.18296702.123045-.24883515z"/><path d="m359.18704 48.1334648.772379-.3281208c.282637-.1158792.529944-.211022.755323-.2903077.581111.4586373.486087.5232857.639588 1.0624285l-6.317911 2.8896594v.0146373l2.725254 1.2453956c1.360799.6257473 2.553479 1.1795275 3.585347 1.6308462-.153501.5598791-.029238.6037912-.639588 1.0843846-.341113-.1170989-.646897-.2476154-.916133-.372033-1.803029-.8221318-4.129911-1.869923-7.002575-3.1946044v-.4305824c0-.050011.095025-.1158791.298474-.2037033-.079187.0292748-.153501.0512308-.22416.0805055v-.093923c0-.0878242.013401-.1829671.123045-.2488352z"/><path d="m367.887508 11.3006154h24.569924v-2.58959342h-24.569924z"/><path d="m373.374563 20.3635824h19.082869v-2.5895934h-19.082869z"/><path d="m381.994991 28.1323626h10.462441v-2.5895934h-10.462441z"/><path d="m367.887508 52.516989h24.569924v-2.5895934h-24.569924z"/><path d="m373.374563 43.4528022h19.082869v-2.5895934h-19.082869z"/><path d="m381.994991 35.6852418h10.462441v-2.5895934h-10.462441z"/><path d="m364.75974 46.9661352-2.558352 9.2264175 1.838359.1475935 2.558351-9.2264176z"/><path d="m359.18704 62.9245198.772379-.3281209c.282637-.1158791.529944-.2098022.755323-.2903077.581111.4586374.486087.5232857.639588 1.0624286l-6.317911 2.8896593v.0158572l2.725254 1.2441758c1.360799.6257472 2.553479 1.1795275 3.585347 1.6308461-.153501.5598792-.029238.6037913-.639588 1.0843847-.341113-.1170989-.646897-.2476154-.916133-.3708132-1.803029-.8233517-4.129911-1.8711429-7.002575-3.1958242v-.4305824c0-.050011.095025-.1158791.298474-.2037033-.079187.0292747-.153501.0512307-.22416.0805055v-.0939231c0-.0878242.013401-.182967.123045-.2488352z"/><path d="m359.18704 104.140405.772379-.32812c.282637-.11588.529944-.211022.755323-.290308.581111.458637.486087.523286.639588 1.062428l-6.317911 2.88966v.014637l2.725254 1.245396c1.360799.625747 2.553479 1.179527 3.585347 1.630846-.153501.559879-.029238.603791-.639588 1.084385-.341113-.117099-.646897-.247616-.916133-.372033-1.803029-.822132-4.129911-1.869923-7.002575-3.195825v-.429362c0-.050011.095025-.115879.298474-.203704-.079187.029275-.153501.051231-.22416.080506v-.093923c0-.087824.013401-.182967.123045-.248835z"/><path d="m367.887508 67.308044h24.569924v-2.5895935h-24.569924z"/><path d="m373.374563 76.371011h19.082869v-2.5895934h-19.082869z"/><path d="m381.994991 84.1385714h10.462441v-2.5895934h-10.462441z"/><path d="m367.887508 108.523198h24.569924v-2.589594h-24.569924z"/><path d="m373.374563 99.4602308h19.082869v-2.5895934h-19.082869z"/><path d="m381.994991 91.6914505h10.462441v-2.5895934h-10.462441z"/><path d="m364.75974 102.972466-2.558352 9.226418 1.838359.148813 2.558351-9.227638z"/></g><path d="m31.1718508 222.481165h59.5377216v-46.025967h-59.5377216z" fill="#02ecf1"/><g fill="#000"><path d="m191.404719 304.641779-16.176093-97.447022 1.201207-.200044 16.176093 97.447022z"/><path d="m161.703594 304.641779-16.177312-97.447022 1.201207-.200044 16.177312 97.447022z"/><path d="m149.573595 228.415396h29.966828v-1.219781h-29.966828z"/><path d="m151.695808 241.426791h29.968047v-1.21978h-29.968047z"/><path d="m153.818022 254.436967h29.966829v-1.21978h-29.966829z"/><path d="m155.939018 267.447143h29.966828v-1.21978h-29.966828z"/><path d="m158.060013 280.458538h29.966829v-1.21978h-29.966829z"/><path d="m160.181009 293.468714h29.968047v-1.21978h-29.968047z"/></g><g fill="#525252"><path d="m129.671322 304.641779-1.201207-.200044 16.176094-97.447022 1.202425.200044z"/><path d="m159.372935 304.641779-1.201207-.200044 16.176094-97.447022 1.201207.200044z"/><path d="m141.534278 228.415396h29.966829v-1.219781h-29.966829z"/><path d="m139.413283 241.426791h29.966828v-1.21978h-29.966828z"/><path d="m137.291069 254.436967h29.966829v-1.21978h-29.966829z"/><path d="m135.170073 267.447143h29.966829v-1.21978h-29.966829z"/><path d="m133.04786 280.458538h29.966828v-1.21978h-29.966828z"/><path d="m130.926864 293.468714h29.966829v-1.21978h-29.966829z"/></g><path d="m142.824419 209.239231h36.547884v-3.659341h-36.547884z" fill="#000"/><path d="m275.991873 352.412154-2.477946-25.517802-3.185758-27.290143 2.477947-.353736 5.663704 25.871538 8.849461.708692 9.202757-26.226494 2.477947.354956-6.726029 27.997615.354514 23.746682z" fill="#ffca00"/><path d="m279.141083 317.549493c-.668827 2.44566.386189 6.369693 2.828806 7.039352 2.442617.66844 5.348174-2.168769 6.017-4.614429.668826-2.445659-.768724-4.971824-3.211341-5.641483-2.443835-.669659-4.965639.770901-5.634465 3.21656" fill="#ffd0d4"/><path d="m282.406758 316.137964c-.499488-.136616-1.198771-.481813-1.46557-.951429-.025584-.043912-.03533-.086604-.051167-.129297 1.085472-.784318 2.492565-1.10512 3.883822-.723329 2.443835.668439 3.881385 3.195824 3.212559 5.641483-.477559 1.745506-2.096631 3.684956-3.87164 4.411945.032893-.494011.152283-.981923.277764-1.461296.506798-1.934572 1.070853-3.852066 1.690949-5.751264-1.251156-.250055-2.481601-.597692-3.676717-1.036813" fill="#000"/><path d="m285.260904 319.877078c.330149-.241516.784561-.352516 1.161004-.190286.086497.037813.169339.089044.236343.157352.18274.181747.236343.459857.213196.717231-.062131.709912-.644461 1.305165-1.324251 1.516187-.192486.059769-.397154.092703-.596949.062208-.199795-.030494-.394717-.129296-.510452-.295186-.426392-.61111.344768-1.621088.821109-1.967506" fill="#ffd0d4"/><path d="m292.628836 351.70334-2.457236 39.139087h-2.703326l-2.296425-38.820725-2.415815.102462-1.475316 39.675791-2.086885-.048791-3.201594-39.339132-.471468-4.847407 17.04837.22322z" fill="#fff"/><g fill="#250f8a"><path d="m290.172087 390.842305 5.946341.656242-.215633.923374h-8.706924l.271672-1.579616z"/><path d="m281.280108 391.800077v1.11122l-8.168452.309824v-1.023396l6.081568-.446439z"/></g></g><path d="m.50225 9.45625h3.98125l2.33158333-8.90125-2.7685-.36375z" mask="url(#e)" transform="translate(406 347)"/><path d="m.6608.40922222 1.2124 9.05911111h3.9998l-2.3632-9.41355555z" mask="url(#f)" transform="translate(384 347)"/><path d="m388.221616 345.186702c0 1.174649-.950245 2.126077-2.123432 2.126077-1.173188 0-2.123433-.951428-2.123433-2.126077 0-1.174648.950245-2.126077 2.123433-2.126077 1.173187 0 2.123432.951429 2.123432 2.126077" fill="#ffd0d4"/><path d="m412.999619 345.895395c0 1.174648-.950245 2.126076-2.123432 2.126076s-2.123432-.951428-2.123432-2.126076c0-1.174649.950245-2.126077 2.123432-2.126077s2.123432.951428 2.123432 2.126077" fill="#ffd0d4"/><path d="m166.020713 323.00073-2.477946-25.517803-3.185758-27.290142 2.477947-.354956 5.663704 25.872758 8.848242.708692 9.203976-26.226494 2.477946.354956-6.726028 27.997615.354514 23.746681z" fill="#2d109f"/><path d="m164.250455 268.775278c0 1.174648-.950245 2.126077-2.123432 2.126077s-2.123432-.951429-2.123432-2.126077.950245-2.126077 2.123432-2.126077 2.123432.951429 2.123432 2.126077" fill="#ffd0d4"/><path d="m189.028459 269.484092c0 1.174649-.950245 2.126077-2.123432 2.126077s-2.123432-.951428-2.123432-2.126077c0-1.174648.950245-2.126077 2.123432-2.126077s2.123432.951429 2.123432 2.126077" fill="#ffd0d4"/><path d="m177.008835 292.585998c.019492-.026835.040202-.05489.058476-.081725.137664-.196385.264363-.396429.37888-.598913.015837-.025615.026802-.05245.042639-.078065.093806-.17199.177866-.343979.253399-.517187.023147-.052451.045075-.103682.067004-.154912.080406-.198825.152283-.396429.205887-.592814.166902-.611109.203449-1.227098.124262-1.818692-.052385-.38789-.169338-.756264-.314311-1.112439-.293602-.72211-.754105-1.371033-1.369328-1.865044-.1401-.11222-.300911-.202484-.45563-.298847-.110862-.069527-.211978-.151252-.330149-.211022-.271673-.137835-.561619-.251274-.866185-.334219h-.002437c-.332585-.091484-.665171-.136616-.99532-.151253-.071878-.003659-.142537.007319-.215633.007319-.268018 0-.532381.017077-.791871.063428-.051167.009758-.101116.024396-.151064.036594-.28751.059769-.564056.147593-.833292.262252l-.054822.024396c-1.221918.536703-2.209929 1.583275-2.590027 2.973824-.667608 2.44444.387408 6.368473 2.830025 7.038132 1.134203.311044 2.365866-.139055 3.42941-.950209.001218-.00122.003654-.002439.004873-.003659.402026-.307385.779688-.666 1.118365-1.05633.013401-.015857.025583-.031714.038984-.047571.14741-.171989.286292-.351297.417865-.533044" fill="#000"/><path d="m182.657066 322.292037-2.456017 39.139088h-2.704544l-2.296425-38.821945-2.414597.103682-1.476535 39.675791-2.086884-.048791-3.201595-39.339132-.470249-4.847407 17.04837.22322z" fill="#ffca00"/><path d="m180.201414 361.431003 5.945123.656242-.214415.922154h-8.708142l.272891-1.578396z" fill="#2d109f"/><path d="m171.308339 362.388653v1.11122l-8.167234.309824v-1.023396l6.081568-.446439z" fill="#2d109f"/><path d="m347.320635 345.345396h102.332857v-60.989011h-102.332857z" fill="#fff"/><g fill="#250f8a"><path d="m398.529094 337.343637h45.651962v-45.281901h-45.651962z"/><path d="m353.114693 296.334626h39.868868v-3.844747h-39.868868z"/><path d="m353.114693 305.731813h39.868868v-3.843527h-39.868868z"/><path d="m353.114693 315.13022h39.868868v-3.844747h-39.868868z"/><path d="m353.114693 324.528626h39.868868v-3.844747h-39.868868z"/><path d="m353.114693 333.925813h39.868868v-3.843527h-39.868868z"/></g><path d="m111.267597 8.14081319c0 4.24117581-24.8355057 7.67851651-55.4711605 7.67851651s-55.47116033-3.4373407-55.47116033-7.67851651c0-4.23995605 24.83550553-7.67729671 55.47116033-7.67729671s55.4711605 3.43734066 55.4711605 7.67729671" mask="url(#g)" transform="translate(15.837416 330.56044)"/><g fill="#e5fdfd" transform="translate(154.590755 46.351648)"><path d="m119.159354 128.584596c.454412.361055.939281.71967 1.494809.857505-.002437.151253-.023147.297626-.012183.451319.213196 2.82745 2.794695 6.564857 5.618628 6.352615.20345-.014637.400809-.05489.595731-.10856v-.00122c.765069-.209802 1.453387-.701374 2.035717-1.356396.018274-.020736.037766-.037813.054822-.058549.092588-.107341.181521-.219561.268018-.33422.02802-.037813.058476-.074406.085278-.11222.079187-.10734.152283-.21834.225379-.33056.034111-.051231.067004-.102462.099897-.154912.065786-.107341.127918-.215901.188831-.325682.035329-.063428.070659-.126857.103552-.190285.054822-.106121.107207-.213462.157156-.322022.034111-.073187.068223-.147594.101116-.222.043857-.102462.086497-.206143.127917-.309824.032894-.084165.06335-.16833.093807-.252495.035329-.098802.069441-.197604.101116-.297626.029238-.092704.05604-.184187.081623-.27689.025584-.093923.052385-.186627.076751-.28177.024365-.100022.045075-.198824.064568-.298846.018274-.087824.037766-.174428.053603-.262253.018274-.10734.031675-.213461.045076-.320802.010964-.078066.023147-.157351.031675-.235417.010964-.119539.015837-.236638.021928-.352517.002437-.063428.008528-.129296.009747-.191505.001218-.071967-.002437-.139055-.004873-.208583.377661.16589.79187.262253 1.229227.262253 1.682421 0 3.045657-1.364934 3.045657-3.04945 0-1.684517-1.363236-3.049451-3.045657-3.049451-1.3608 0-2.499876.900198-2.88972 2.134615-.041421-.039033-.075532-.085384-.116953-.121978-.249744-.214681-.51898-.404967-.804053-.568417-.572584-.326901-1.209735-.546462-1.887089-.633066-.337459-.043912-.684664-.053671-1.036742-.026835-2.046682.153692-3.707174 1.49667-4.395492 3.294626-.417864-.043912-.835729-.086604-1.257248-.096363-.394717-.008538-.931971.141495-.897859.536704.017055.195165.183957.339099.33624.461077"/><path d="m103.334973 126.422535 2.486475 2.538363c-.917352-.66722-1.776228-1.314923-2.543733-1.912616zm67.686682 43.019209-16.336904.742846-11.225074-18.327198.236343-.156132-12.713791-13.673736-2.780075-.300066-16.954564-8.405505-6.105933-5.559758-1.736024 1.902857 3.529307-38.2437696-50.8210514-4.7034725c.1961403-.4610769.3045657-.9685055.3045657-1.5015495 0-1.9113956-1.3985657-3.484912-3.2259599-3.7788791v-77.13280218h-1.2182628v77.13280218c-1.8273942.2939671-3.2259599 1.8674835-3.2259599 3.7788791 0 .2854286.0353296.5610989.0950245.8294506l-43.91350111-4.0630879-4.85843207 52.6322969 102.00514498 9.438659.800398-8.65922c3.406263 3.175088 7.811502 6.771 10.054323 7.746825l8.282969 3.602011 9.536561 17.007395-.063349.040253.152283.120758.093806.16711.067004-.042692.307003.240296 2.676523 23.085561 3.247889 20.328857-6.091314.813593.478777 1.711352h8.886009l-.860094-22.962363 1.50821-15.274088 11.056953 8.649462 18.141151-4.16311 1.756735 4.60589 1.420495-.60989z"/></g><path d="m130.294913 176.966568 102.005144 9.438659 4.859651-52.632296-102.006363-9.43866z" fill="#02ecf1"/><path d="m235.365938 170.113721 6.104715 5.560978 20.125701 9.975363-8.853116 2.254153-13.321703-9.147131-6.183902-6.311143z" fill="#ff7e6e"/><path d="m261.094552 175.476485c.211977 2.82745-1.784755 6.910055-4.609907 7.121077-2.823933.213461-5.40665-3.525165-5.618628-6.352616-.211978-2.82745 1.905363-5.292626 4.730515-5.504868 2.823933-.212242 5.286042 1.908956 5.49802 4.736407" fill="#ffd0d4"/><path d="m231.062181 169.079713c-.023147.00244-.872277-.437901-.872277-.437901l-.821109 1.347857-4.168895-2.341978-1.383947 1.543022 5.880555 4.447319 1.281612-1.61011-.667608-.909956.272891-.996561z" fill="#ffd0d4"/><path d="m272.448517 203.487884-2.58028 26.117934.860093 22.961142h-8.886009l-.477559-1.711351 6.091314-.812374-3.249107-20.330077-2.929922-25.282384z" fill="#250f8a"/><path d="m231.058526 171.368021c2.582717 2.417604 11.806185 9.086143 15.200265 10.080264l7.104909 2.082164 7.843176.848967 12.712572 13.673737-12.761303 8.37745-9.720519-17.335516-8.28175-3.602011c-3.405045-1.480813-11.798876-9.000758-14.106266-11.912374z" fill="#fa7564"/><path d="m251.594782 174.065443c-.547-.071967-1.097655-.114659-1.649528-.126857-.395935-.008539-.933189.141494-.89786.536703.017056.195165.18274.339099.336241.461077.512889.408626 1.062325.83189 1.712877.912396.548219.068307 1.123239-.135396 1.506992-.533044.345986-.357396.58842-.894099.402026-1.349077-.464158.140274-.927098.16345-1.410748.098802" fill="#ffd0d4"/><path d="m59.898571 316.117998h21.1161493c.4836503 0 .9222249-.285429 1.117147-.731868.1937037-.444.1059888-.961187-.2229421-1.317363l-20.3047862-21.954824-1.7871916 1.657681 18.4091693 19.906813h-18.3275457z" fill="#250f8a"/><path d="m257.080498 182.489001c2.50353-.689176 4.210316-4.388769 4.014175-7.012516-.211977-2.827451-2.674086-4.948649-5.49802-4.736407-.170556.012198-.328931.059769-.493396.087824-.114517.418385-.153501.861165-.081624 1.225879.278983 1.422264 1.324252 2.724989 2.637539 3.334879 0 0-.008527 6.27333-.578674 7.100341" fill="#fa7564"/><path d="m258.350537 175.963665c.425173-.00244.841819.162231 1.182933.417165 1.100091.818472.428828 2.54934-.702938 2.965285-.365479.135396-.761414.16955-1.151258.152473-.337459-.014637-.690755-.075626-.951464-.290308-.250962-.208582-.380098-.539143-.398371-.866044-.017056-.325681.067004-.650143.180302-.956307.260709-.697715 1.070853-1.418605 1.840796-1.422264" fill="#ffd0d4"/><path d="m301.245448 215.793514-16.335686.742846-11.384666-18.585791-12.613893 8.192044 21.524267 16.837846 18.138715-4.16311 1.757954 4.605891 1.421712-.609891z" fill="#472bc7"/><path d="m265.378086 173.005332c0 1.684516-1.363237 3.04945-3.045657 3.04945-1.682421 0-3.045658-1.364934-3.045658-3.04945 0-1.683297 1.363237-3.049451 3.045658-3.049451 1.68242 0 3.045657 1.366154 3.045657 3.049451" fill="#fa7564"/><path d="m61.2469443 323.551582h18.9634789v-256.9698787h-18.9634789zm-2.4365256 2.439561h23.8365301v-261.8490001h-23.8365301z" fill="#250f8a"/><path d="m55.5466927 334.937011h30.3627639v-21.784055h-30.3627639z" fill="#472bc7"/><g fill="#250f8a"><path d="m59.898571 225.96392h21.1161493c.4836503 0 .9222249-.286649 1.117147-.731868.1937037-.444.1059888-.961187-.2229421-1.317363l-20.3047862-21.954824-1.7871916 1.656461 18.4091693 19.908033h-18.3275457z"/><path d="m59.898571 248.502409h21.1161493c.4836503 0 .9222249-.286649 1.117147-.731868.1937037-.444.1059888-.961187-.2229421-1.317363l-20.3047862-21.954824-1.7871916 1.657681 18.4091693 19.906813h-18.3275457z"/><path d="m59.898571 271.04102h21.1161493c.4836503 0 .9222249-.286649 1.117147-.731868.1937037-.444.1059888-.961187-.2229421-1.317363l-20.3047862-21.954824-1.7871916 1.657681 18.4091693 19.906813h-18.3275457z"/><path d="m59.898571 293.579509h21.1161493c.4836503 0 .9222249-.286649 1.117147-.731868.1937037-.444.1059888-.961187-.2229421-1.317363l-20.3047862-21.954824-1.7871916 1.657681 18.4091693 19.906813h-18.3275457z"/><path d="m59.898571 203.966159h21.1161493c.4836503 0 .9222249-.286648 1.117147-.731868.1937037-.444.1059888-.961187-.2229421-1.316143l-20.3047862-21.956044-1.7871916 1.656462 18.4091693 19.908033h-18.3275457z"/><path d="m59.898571 181.968399h21.1161493c.4836503 0 .9222249-.286648 1.117147-.731868.1937037-.444.1059888-.961187-.2229421-1.316143l-20.3047862-21.956044-1.7871916 1.656461 18.4091693 19.908033h-18.3275457z"/><path d="m59.898571 159.971248h21.1161493c.4836503 0 .9222249-.286648 1.117147-.731868.1937037-.444.1059888-.961187-.2229421-1.316143l-20.3047862-21.956044-1.7871916 1.656462 18.4091693 19.908033h-18.3275457z"/><path d="m59.898571 137.973488h21.1161493c.4836503 0 .9222249-.286648 1.117147-.731868.1937037-.444.1059888-.961187-.2229421-1.316143l-20.3047862-21.956044-1.7871916 1.656462 18.4091693 19.908032h-18.3275457z"/><path d="m59.898571 115.975849h21.1161493c.4836503 0 .9222249-.286648 1.117147-.731868.1937037-.444.1059888-.961186-.2229421-1.316143l-20.3047862-21.9560435-1.7871916 1.6564615 18.4091693 19.908033h-18.3275457z"/><path d="m59.898571 93.978089h21.1161493c.4836503 0 .9222249-.2866483 1.117147-.7318681.1937037-.444.1059888-.9611868-.2229421-1.3161429l-20.3047862-21.9560439-1.7871916 1.6564615 18.4091693 19.908033h-18.3275457z"/></g><path d="m59.898571 71.9809385h21.1161493c.4836503 0 .9222249-.2866484 1.117147-.7318682.1937037-.444.1059888-.9611868-.2229421-1.3161428l-20.3047862-21.956044-1.7871916 1.6564616 18.4091693 19.9080329h-18.3275457z" fill="#0089c7"/><path d="m58.8506214 72.4183516h38.6420779v-32.6181428h-38.6420779z" fill="#472bc7"/><path d="m.78090646 58.536033h38.64207794v-18.7358242h-38.64207794z" fill="#472bc7"/><path d="m1.42195635 42.1832934h190.86157865c.672481 0 1.218263-.5464615 1.218263-1.2197802s-.545782-1.2197802-1.218263-1.2197802h-190.86157865c-.67248107 0-1.21826281.5464615-1.21826281 1.2197802s.54578174 1.2197802 1.21826281 1.2197802" fill="#250f8a"/><path d="m182.198512 125.942308h1.218263v-79.2857146h-1.218263z" fill="#472bc7"/><g fill="#250f8a"><path d="m45.1914588 340.628505h51.0744499v-9.585032h-51.0744499z"/><path d="m78.0297327 41.8640769c.1559377 0 .3118753-.0597692.4312651-.1780879l10.1761492-10.1900439h93.301875l9.567018 9.5801538c.23878.2378571.623751.2378571.86253 0 .237561-.2390769.237561-.6245275 0-.8636044l-9.925187-9.9363297h-94.3105968l-10.5343185 10.5462198c-.2375612.2390769-.2375612.6245275 0 .8636044.1193898.1183187.2753274.1780879.431265.1780879"/><path d="m.60876592 41.8640769c.21928731 0 .43126504-.1195384.53969043-.3269011l10.18467705-19.4798901h24.6990601l9.576764 18.8639011c.1522828.2988462.5201982.4171648.8186726.2671319.2996926-.1524725.4203006-.5196264.2680178-.8209121l-9.9166593-19.5299011h-26.1829042l-10.52579064 20.1336923c-.1571559.2988462-.04142093.6672198.25705346.8233517.09015144.0475714.18639421.0695274.2814187.0695274"/></g><path d="m178.340761 46.6562275c0 2.4700549 2.000388 4.472934 4.46737 4.472934 2.465764 0 4.466151-2.0028791 4.466151-4.472934 0-2.470055-2.000387-4.4729341-4.466151-4.4729341-2.466982 0-4.46737 2.0028791-4.46737 4.4729341" fill="#472bc7"/><path d="m156.396559 31.4869187c.260708 0 .503142-.1695495.582329-.4318022.09868-.322022-.082841-.6635605-.404463-.7611429l-90.1916502-27.53531865c-.1376637-.04025275-.2850735-.03415385-.4154276.02195604l-42.7464053 18.06372531c-.310657.1305164-.4556303.4879121-.3252762.798956.1315724.311044.4885234.4561978.7979621.3244615l42.5441738-17.97712083 89.9808904 27.46945053c.059695.0182967.11939.0268352.177867.0268352" fill="#250f8a"/><path d="m80.3943808 41.9455582c.1437551 0 .2899466-.0256153.4324833-.0805055.6298419-.2390769.945372-.9428901.7065925-1.5735164l-14.2025078-37.4155385c-.1912673-.50742857-.6919733-.82701099-1.237755-.78187912-.5409087.04391209-.9880112.44156044-1.0952183.9746044l-7.3412517 36.49094502c-.1327906.6599011.2948196 1.3039451.9538998 1.4369011.6578619.1292967 1.3023229-.2951868 1.4351136-.9550879l6.5079599-32.34857141 12.701608 33.46589011c.185176.4866923.6481158.7867582 1.1390757.7867582" fill="#250f8a"/><path d="m63.7378045 3.30926374c0 1.35761538 1.098873 2.45785714 2.4547995 2.45785714s2.4547996-1.10024176 2.4547996-2.45785714c0-1.35761539-1.0988731-2.45785715-2.4547996-2.45785715s-2.4547995 1.10024176-2.4547995 2.45785715" fill="#472bc7"/><g fill="#250f8a"><path d="m169.238267 41.9802c.134009 0 .269236-.0439121.382535-.1353956l11.962122-9.6813956v9.051989c0 .3366593.272891.6098901.609131.6098901.337459 0 .609132-.2732308.609132-.6098901v-10.3290989c0-.2354176-.135227-.4488791-.345987-.5501209-.210759-.1024615-.46294-.0731868-.645679.0756264l-12.955007 10.484011c-.261926.2122417-.302129.5964725-.090151.8575055.11939.1500329.296038.2268791.473904.2268791"/><path d="m157.670131 41.9802c.134009 0 .269236-.0439121.382534-.1353956l11.963341-9.6813956v9.051989c0 .3366593.271673.6098901.609131.6098901.336241 0 .609132-.2732308.609132-.6098901v-10.3290989c0-.2354176-.135227-.4488791-.347205-.5501209-.209541-.1024615-.461722-.0731868-.645679.0756264l-12.955007 10.484011c-.261927.2122417-.302129.5964725-.090151.8575055.119389.1500329.296037.2268791.473904.2268791"/><path d="m146.101994 41.9802c.134009 0 .269237-.0439121.382535-.1353956l11.963341-9.6813956v9.051989c0 .3366593.271672.6098901.609131.6098901.336241 0 .609132-.2732308.609132-.6098901v-10.3290989c0-.2354176-.135228-.4488791-.347205-.5501209-.209542-.1024615-.461722-.0731868-.64568.0756264l-12.955006 10.484011c-.261927.2122417-.30213.5964725-.090152.8575055.11939.1500329.296038.2268791.473904.2268791"/><path d="m134.534467 41.9802c.134009 0 .269236-.0439121.382535-.1353956l11.962122-9.6813956v9.051989c0 .3366593.272891.6098901.609132.6098901.337458 0 .609131-.2732308.609131-.6098901v-10.3290989c0-.2354176-.135227-.4488791-.345987-.5501209-.210759-.1024615-.461721-.0731868-.645679.0756264l-12.955007 10.484011c-.261926.2122417-.302129.5964725-.090151.8575055.11939.1500329.296038.2268791.473904.2268791"/><path d="m122.966331 41.9802c.134009 0 .269236-.0439121.382534-.1353956l11.963341-9.6813956v9.051989c0 .3366593.271673.6098901.609132.6098901.33624 0 .609131-.2732308.609131-.6098901v-10.3290989c0-.2354176-.135227-.4488791-.347205-.5501209-.210759-.1024615-.461721-.0731868-.645679.0756264l-12.955007 10.484011c-.261926.2122417-.302129.5964725-.090151.8575055.119389.1500329.296038.2268791.473904.2268791"/><path d="m111.398195 41.9802c.134009 0 .269236-.0439121.382534-.1353956l11.963341-9.6813956v9.051989c0 .3366593.271673.6098901.609131.6098901.336241 0 .609132-.2732308.609132-.6098901v-10.3290989c0-.2354176-.135227-.4488791-.347205-.5501209-.209541-.1024615-.461722-.0731868-.645679.0756264l-12.955007 10.484011c-.261927.2122417-.302129.5964725-.090152.8575055.11939.1500329.296038.2268791.473905.2268791"/><path d="m99.8306675 41.9802c.1340089 0 .2692365-.0439121.3825345-.1353956l11.963341-9.6813956v9.051989c0 .3366593.271672.6098901.609131.6098901.336241 0 .609132-.2732308.609132-.6098901v-10.3290989c0-.2354176-.135228-.4488791-.347205-.5501209-.209542-.1024615-.461722-.0731868-.64568.0756264l-12.9550063 10.484011c-.2619265.2122417-.3021292.5964725-.0901514.8575055.1193897.1500329.2960378.2268791.4739042.2268791"/><path d="m88.2624094 41.9802c.1340089 0 .269236-.0439121.3825345-.1353956l11.9633411-9.6813956v9.051989c0 .3366593.271672.6098901.609131.6098901.336241 0 .609131-.2732308.609131-.6098901v-10.3290989c0-.2354176-.135227-.4488791-.347204-.5501209-.21076-.1024615-.46294-.0731868-.64568.0756264l-12.9550064 10.484011c-.2619265.2122417-.3021292.5964725-.0901515.8575055.1193898.1500329.2960379.2268791.4739043.2268791"/><path d="m19.8755922 41.9802c.1729933 0 .3447684-.0731868.4653764-.2159011l15.5365056-18.3589121v17.810011c0 .3366593.2728908.6098901.6091314.6098901.3374588 0 .6091314-.2732308.6091314-.6098901v-19.4725714c0-.2561539-.1595925-.4854726-.398372-.5732967-.241216-.089044-.5092338-.017077-.6749176.1780879l-16.6110133 19.6287033c-.2180691.2561538-.185176.6416044.0706592.8587253.1145167.0975824.2546169.1451538.3934989.1451538"/><path d="m7.92613964 41.9802c.19735858 0 .39106236-.0963626.50801559-.2732308l11.83907797-17.9356483v17.4440769c0 .3366593.2716726.6098901.6091314.6098901.3362405 0 .6091314-.2732308.6091314-.6098901v-19.4725714c0-.2695715-.1766481-.5074286-.4337016-.5842748-.2607082-.0756263-.5360356.0231759-.6834454.2476154l-12.95622495 19.6274835c-.18517594.2817693-.10720712.6599011.17299332.8453077.10355234.0683077.21928731.1012418.33502227.1012418"/></g><path d="m178.971943 127.568519c0 2.121197 1.717751 3.839868 3.835092 3.839868 2.118559 0 3.836309-1.718671 3.836309-3.839868 0-2.121198-1.71775-3.839868-3.836309-3.839868-2.117341 0-3.835092 1.71867-3.835092 3.839868" fill="#472bc7"/><path d="m495.47394 225.034813-.978265-13.522483 1.510646-9.953407 5.130105-29.330835-2.477947-.354956-5.662485 25.871538-8.849461.708693-9.203976-26.225275-2.477947.353736 6.726029 27.998835 2.359775 10.702352-.276545 13.04311z" fill="#fff"/><path d="m483.100898 190.99526c0 2.535924 2.052772 6.041572 4.585541 6.041572 2.532768 0 4.584323-3.505648 4.584323-6.041572 0-2.535923-2.051555-4.591252-4.584323-4.591252-2.532769 0-4.585541 2.055329-4.585541 4.591252" fill="#ffd0d4"/><path d="m53.1394053 4.51196703c0 1.998-11.6989777 3.61786813-26.1329554 3.61786813-14.4315412 0-26.1317372-1.61986813-26.1317372-3.61786813s11.700196-3.61786813 26.1317372-3.61786813c14.4339777 0 26.1329554 1.61986813 26.1329554 3.61786813" mask="url(#h)" transform="translate(458.066815 259.813187)"/><path d="m489.61702 191.621862c.255835-.320803.662735-.546462 1.069635-.490352.093806.013417.186394.041472.269236.087824.22416.128077.349641.383011.395935.636725.126699.700154-.277764 1.429583-.878367 1.812594-.170557.10856-.35817.193945-.559183.21834-.201013.023176-.414209-.020736-.570147-.150033-.572584-.475714-.095025-1.654022.272891-2.115098" fill="#ffd0d4"/><path d="m489.613365 191.366927c.103552.050011.22416.097583.330149.054891.107207-.041473.163247-.156132.233907-.247616.275327-.359835.879585-.359835 1.199989-.040253.321621.319583.353296.864825.131572 1.258814-.222942.395208-.657862.641604-1.106183.707472-.294819 1.05267-.415427 2.152912-.358169 3.244616.729739.05367 1.459479.10734 2.188.161011.142537.010978.298474.017076.410555-.069528.10477-.082945.142536-.22322.170556-.353736.272891-1.251495.408118-2.533484.405682-3.815473-.002437-1.249055-.151065-2.543241-.794307-3.612989-.771161-1.279549-3.932553-3.38611-5.476092-2.205362-1.698258 1.301505 1.487499 4.352175 2.664341 4.918153" fill="#000"/><path d="m485.745624 189.496151c-.693191 1.05023-1.692167 1.951648-2.909211 2.270011-.35086-1.361275-.046294-2.877462.804053-3.996.478777-.629407 2.208711-2.16633 3.129717-1.805275.952682.374472-.555528 2.820132-1.024559 3.531264" fill="#000"/><path d="m494.956422 215.443315-13.537336-.634285-10.414929 46.704165-4.83163-2.94577 5.881773 7.152791 13.867485-38.496263-.210759 17.459934 9.402552 12.473472.600604 4.502209.248525 1.913835 1.67633-.198824.304565-6.861264-7.277902-11.850164 5.134978-19.615286z" fill="#250f8a"/><g fill="#ffd0d4"><path d="m495.811764 184.881478 2.931141 1.029495 2.393886-13.683495-2.477946-.354956z"/><path d="m478.74305 183.056565-3.435501 1.357615-2.842208-11.831868 2.477947-.354956z"/><path d="m490.227369 197.96728-2.541296 4.516846-1.279176-4.211901z"/><path d="m471.356113 170.809971c0 1.174649.951463 2.126077 2.12465 2.126077 1.173188 0 2.123433-.951428 2.123433-2.126077 0-1.174648-.950245-2.126076-2.123433-2.126076-1.173187 0-2.12465.951428-2.12465 2.126076"/><path d="m498.018769 171.207742c0 1.173428.950245 2.126077 2.123432 2.126077s2.123432-.952649 2.123432-2.126077c0-1.174649-.950245-2.127297-2.123432-2.127297s-2.123432.952648-2.123432 2.127297"/></g><path d="m.56875 20.2593684c1.98625 1.0289474 3.925 1.9937369 5.34875 2.6946316l3.355-9.0099474.31375-2.8616842-4.37625-10.95526314z" mask="url(#i)" transform="translate(476 215)"/><path d="m342.00163 83h-64.002037c-2.200265 0-3.999593-1.8281585-3.999593-4.0624365v-2.875127c0-2.234278 1.799328-4.0624365 3.999593-4.0624365h64.002037c2.200265 0 3.99837 1.8281585 3.99837 4.0624365v2.875127c0 2.234278-1.798105 4.0624365-3.99837 4.0624365" fill="#fff"/><path d="m.27695706 14.8943158 148.38338694 7.2135263 48.372736-20.62131578-19.42708-.58105264z" mask="url(#j)" transform="translate(17 384)"/><path d="m.02918519 14.8059474 148.54529581 7.2135263 48.425519-20.62252633-19.448278-.57984211z" mask="url(#k)" transform="translate(42 421)"/><g transform="translate(17 102)"><path d="m.6944098 3.70081319c0 1.99921978 11.700196 3.61786813 26.1329555 3.61786813 14.4315412 0 26.1317371-1.61864835 26.1317371-3.61786813 0-1.998-11.7001959-3.61786814-26.1317371-3.61786814-14.4327595 0-26.1329555 1.61986814-26.1329555 3.61786814" mask="url(#l)" transform="translate(214.469933 316.384615)"/><path d="m.38193007 293.580092-.04873052 3.659341 146.17935445 1.946769 31.666305-16.042549.04873-3.659341z" fill="#ffca00"/><path d="m146.512188 299.185836-146.17935392-1.946769 31.66752342-16.04133 146.1793545 1.94677z" fill="#ffca00"/><path d="m146.560431 295.526496-146.17813545-1.94677 31.66630515-16.041329 146.1793543 1.946769z" fill="#fff"/><g fill="#fa7564"><path d="m112.607203 281.429862-80.3212847-1.069748 2.3951046-1.213681 80.3200671 1.069747z"/><path d="m106.62066 284.461503-80.3212852-1.068527 2.3951047-1.213681 80.3212855 1.069747z"/><path d="m100.873749 287.372753-80.3212853-1.068528 2.3951047-1.213681 80.3212846 1.069747z"/><path d="m95.3665918 290.163732-80.3212851-1.069747 2.3951047-1.213682 80.321285 1.069748z"/><path d="m146.452128 293.208425-51.950381-.690395 24.183735-12.252693 51.951599.691616z"/></g><path d="m25.2296183 329.326484-.0487305 3.65934 146.1781362 1.946769 31.667523-16.042549.048731-3.659341z" fill="#2d109f"/><path d="m171.359267 334.932227-146.1781356-1.946769 31.6663051-16.041329 146.1793545 1.946769z" fill="#2d109f"/><path d="m171.40812 331.272887-146.1781363-1.946769 31.6663052-16.04133 146.1793541 1.946769z" fill="#fff"/><g fill="#fa7564"><path d="m137.454892 317.175155-80.3212855-1.068528 2.3938864-1.213681 80.3212851 1.069747z"/><path d="m131.468348 320.207895-80.321285-1.068528 2.3951047-1.213681 80.3200673 1.069747z"/><path d="m125.721437 323.119266-80.3212851-1.068528 2.3951047-1.213681 80.3212854 1.069747z"/><path d="m120.21428 325.910123-80.3212851-1.069747 2.3951047-1.213681 80.3200664 1.069747z"/><path d="m171.299816 328.954816-51.951599-.690395 24.184953-12.252692 51.951599.691615z"/></g><path d="m254.877274 10.2197802h91.36971v-9.75824174h-91.36971z" fill="#e5fdfd"/><path d="m254.877274 59.7587143h91.36971v-41.0004725h-91.36971z" fill="#e5fdfd"/><path d="m234.415088 275.494167 4.204225 6.585593 4.08849 12.622286 12.38486 19.921451-1.893181.517187-14.750726-16.514605-7.199933-13.938428z" fill="#e7f8fc"/><path d="m208.927934 284.388804-15.747265 26.282605 2.046681.731868 19.013428-24.30778z" fill="#2d109f"/></g><path d="m1.62138776 5.40613333c-.13975511.40786667-.86334694 2.48266667-1.61567347 4.65246667l4.62628571 8.6754 2.33926531-12.7262-.36702041-1.0982-2.89828572-4.39786667-.56816326-.1064s-1.21208163 4.11793334-1.51640816 5.0008" mask="url(#m)" transform="translate(249 380)"/><g transform="translate(207 377)"><path d="m12.12624 3.8945932c2.7528.46489923 6.192 3.40103995 5.7396 6.2298962-.4524 2.8300895-4.626 4.4800501-7.3788 4.0151509s-4.6176-3.1359117-4.1652-5.96476803c.4524-2.82885629 3.0516-4.74517829 5.8044-4.28027907" fill="#ffd0d4"/><path d="m8.57256 12.9036496c-.1956.5203912-.3648 1.0531139-.504 1.5920024-.0996.3872105-.0804.9519952.3048 1.0111866.1908.0295957.3672-.0998855.5184-.2207346.51-.406941 1.0428-.8471771 1.2708-1.4674538.1908-.5240906.1308-1.1369684-.1596-1.6092665-.2616-.4254383-.7188-.7916852-1.1976-.7176959.0276.4907954-.0588.9507621-.2328 1.4119618" fill="#ffd0d4"/><path d="m17.89896 9.5124749c-.078-2.62661897-3.2184-5.18664759-5.7732-5.61825164-2.7528-.46489923-5.352 1.45142277-5.8032 4.28027907-.0276.17140846-.0204.33665116-.0312.50682647.3732.21210257.7872.35514848 1.1532.37241264 1.4256.06412403 2.9124-.65480501 3.8004-1.80040548 0 0 5.9964 1.50198211 6.654 2.25913894" fill="#000"/><path d="m11.95512 6.70889827c.096-.41927251.3504-.78921884.6732-1.06297913 1.038-.88663804 2.5368.18497317 2.6724 1.39716398.0444.39214312-.0144.790452-.1212 1.16903042-.0936.32678592-.2328.66097078-.4992.86567441-.2568.19853787-.6036.24663089-.9192.18620633-.3168-.06042457-.6072-.2195015-.8736-.40447466-.6072-.42297198-1.1076-1.39223137-.9324-2.15062135" fill="#ffd0d4"/><path d="m17.35452 23.3095001-9.6636 17.2481311 2.2044.1738748 12.3756-12.8913965 1.6956-16.5513989s0-5.05346695-2.2044-4.70448424c-2.2044.3489827-3.2208 3.13591174-3.2208 3.13591174z" fill="#1e0880"/><path d="m17.62176 6.74626285c9.9828-5.07689684 21.3468-6.65780083 21.3468-6.65780083l5.4396 10.92944778-24.5112 4.1027049z" fill="#1e0880"/><path d="m38.96808.08796875 1.5228-.05425879c4.1088-.14551223 7.5156 3.24196303 7.5096 7.4679833l-8.1012 15.06051524 1.476 21.654192h-2.2044l-4.8084-20.4469338z" fill="#fff"/><path d="m5.8626 38.2748157c0 1.4699201-1.1064 2.6611473-2.472 2.6611473-1.3644 0-2.472-1.1912272-2.472-2.6611473 0-1.4686869 1.1076-2.6611472 2.472-2.6611472 1.3656 0 2.472 1.1924603 2.472 2.6611472" fill="#ffd0d4"/><path d="m11.48112 40.9397858c0 1.4686869-1.1064 2.6611473-2.472 2.6611473-1.3644 0-2.472-1.1924604-2.472-2.6611473 0-1.4699201 1.1076-2.6611473 2.472-2.6611473 1.3656 0 2.472 1.1912272 2.472 2.6611473" fill="#ffd0d4"/><g fill="#250f8a"><path d="m41.37564 44.2165238.4056 2.1506213-10.5912.2416983s.588-1.5722719.942-1.4501896c.3528.119616 7.0392-.94213 7.0392-.94213z"/><path d="m64.014 40.2870772 1.0404 2.4071174-9.5592.2441646.2352-1.2084913 6.4188-.9199333z"/></g></g></g></svg>