<svg width="87" height="13" viewBox="0 0 87 13" fill="none" xmlns="http://www.w3.org/2000/svg">
<path d="M9.3599 12H12.6299L10.1699 8.17499C11.5049 7.66499 12.2699 6.65999 12.2699 5.03999C12.2699 2.89499 10.6949 1.49999 7.7849 1.49999H0.899902V12H3.8849V8.57999H7.2299L9.3599 12ZM3.8849 3.62999H7.6949C9.0749 3.62999 9.2399 4.54499 9.2399 5.03999C9.2399 5.53499 9.0599 6.46499 7.6949 6.46499H3.8849V3.62999Z" fill="#4D4D4D"/>
<path d="M22.0615 8.59499C22.3015 5.14499 19.7815 3.77999 17.4415 3.77999C15.1465 3.77999 12.6415 4.97999 12.6415 7.99499C12.6415 11.01 15.1465 12.21 17.4415 12.21C19.4665 12.21 21.4315 11.415 21.9415 9.28499H19.5415C19.2115 9.91499 18.6115 10.365 17.4415 10.365C16.0615 10.365 15.3265 9.61499 15.1165 8.59499H22.0615ZM17.4415 5.62499C18.6565 5.62499 19.2865 6.19499 19.5415 7.03499H15.2215C15.5215 6.20999 16.2415 5.62499 17.4415 5.62499Z" fill="#4D4D4D"/>
<path d="M28.4915 2.92499V1.04999C27.9365 0.974993 27.4865 0.929993 26.8715 0.929993C23.9615 0.929993 23.5715 2.41499 23.5715 4.00499H22.2515V5.69999H23.5715V12H26.2715V5.69999H28.3565V4.00499H26.2715C26.2715 2.89499 27.1415 2.77499 28.4915 2.92499Z" fill="#4D4D4D"/>
<path d="M37.9193 8.59499C38.1593 5.14499 35.6393 3.77999 33.2993 3.77999C31.0043 3.77999 28.4993 4.97999 28.4993 7.99499C28.4993 11.01 31.0043 12.21 33.2993 12.21C35.3243 12.21 37.2893 11.415 37.7993 9.28499H35.3993C35.0693 9.91499 34.4693 10.365 33.2993 10.365C31.9193 10.365 31.1843 9.61499 30.9743 8.59499H37.9193ZM33.2993 5.62499C34.5143 5.62499 35.1443 6.19499 35.3993 7.03499H31.0793C31.3793 6.20999 32.0993 5.62499 33.2993 5.62499Z" fill="#4D4D4D"/>
<path d="M44.3458 3.77999C42.6508 3.77999 41.7208 4.84499 41.4058 5.38499V4.00499H38.7058V12H41.4058V8.30999C41.4058 7.06499 42.0658 6.02999 43.7758 6.02999C44.4808 6.02999 45.0658 6.19499 45.3658 6.34499H45.5308V3.91499C45.2908 3.83999 44.8708 3.77999 44.3458 3.77999Z" fill="#4D4D4D"/>
<path d="M57.0716 3.77999C55.5116 3.77999 54.4316 4.87499 54.2216 5.20499C53.7416 4.30499 52.7516 3.77999 51.3566 3.77999C49.9916 3.77999 49.1366 4.63499 48.8366 5.09999V4.00499H46.1366V12H48.8366V7.30499C48.8366 6.17999 49.5416 5.74499 50.3816 5.74499C51.2066 5.74499 51.8516 6.13499 51.8516 7.30499V12H54.5516V7.30499C54.5516 6.17999 55.2716 5.74499 56.0966 5.74499C56.9216 5.74499 57.5666 6.13499 57.5666 7.30499V12H60.2816V6.70499C60.2816 4.90499 59.1266 3.77999 57.0716 3.77999Z" fill="#4D4D4D"/>
<path d="M65.6211 3.77999C63.3111 3.77999 61.6462 4.46999 61.4212 6.43499H63.8362C63.9412 5.92499 64.3011 5.48999 65.6211 5.48999C67.2411 5.48999 67.4361 6.16499 67.4361 6.94499V7.13999C61.8411 6.73499 61.0312 8.21999 61.0312 9.89999C61.0312 11.46 62.4712 12.21 64.3462 12.21C66.1462 12.21 67.1361 11.4 67.4361 10.92V12H70.1362V6.94499C70.1362 4.25999 67.9161 3.77999 65.6211 3.77999ZM67.4361 9.59999C66.9861 10.23 66.1612 10.71 65.0962 10.71C64.1662 10.71 63.6562 10.35 63.6562 9.77999C63.6562 8.65499 64.9011 8.54999 67.4361 8.66999V9.59999Z" fill="#4D4D4D"/>
<path d="M77.1075 5.69999V4.00499H74.7675V1.91999H72.0675V4.00499H70.5825V5.69999H72.0675V8.86499C72.0675 10.875 72.5475 12.12 75.5025 12.12C76.1325 12.12 76.5525 12.075 77.1075 12V9.94499C75.3375 10.17 74.7675 9.95999 74.7675 8.86499V5.69999H77.1075Z" fill="#4D4D4D"/>
<path d="M86.8363 8.59499C87.0763 5.14499 84.5563 3.77999 82.2163 3.77999C79.9213 3.77999 77.4163 4.97999 77.4163 7.99499C77.4163 11.01 79.9213 12.21 82.2163 12.21C84.2413 12.21 86.2063 11.415 86.7163 9.28499H84.3163C83.9863 9.91499 83.3863 10.365 82.2163 10.365C80.8363 10.365 80.1013 9.61499 79.8913 8.59499H86.8363ZM82.2163 5.62499C83.4313 5.62499 84.0613 6.19499 84.3163 7.03499H79.9963C80.2963 6.20999 81.0163 5.62499 82.2163 5.62499Z" fill="#4D4D4D"/>
</svg>
