<svg xmlns="http://www.w3.org/2000/svg" height="12" width="14"><path d="M.856 4.026A4.26 4.26 0 0 0 0 6.6c0 1.393.665 2.667 1.744 3.443L1.75 11.1c0 .497.393.9.874.9h1.752c.483 0 .874-.406.874-.9v-.3h2.333v.3c0 .497.393.9.874.9h1.752c.483 0 .874-.406.874-.9v-1.055s.268-.2.523-.447c.06.003 1.518.003 1.518.003A.89.89 0 0 0 14 8.701V6.3c0-.497-.395-.9-.876-.9 0 0-.346 0-.476 0-.27-.94-.826-1.72-1.57-2.25.006-.103.006-1.348.006-1.348 0-.638-.615-.986-1.14-.65l-1.54.985C8.15.915 7.095 0 5.833 0 4.45 0 3.318 1.1 3.216 2.495c-.395.088-.768.234-1.11.43l-.047-.222c-.164-.628-.57-1.137-1.23-1.45-.293-.138-.64-.006-.773.295s-.006.657.287.796c.34.16.516.38.59.67.064.246.05.532-.014.808L.87 4l-.013.036zM8.31 3.6h.01l1.596-1.017v1.245l.29.173c.75.446 1.274 1.215 1.418 2.098l.082.5h1.125v1.81l-1.735-.01-.174.2a2.95 2.95 0 0 1-.716.599l-.29.173v1.43L8.74 10.8l.01-1.2H4.083v1.2H2.917V9.372l-.29-.173c-.896-.533-1.46-1.515-1.46-2.6 0-1.41.946-2.594 2.222-2.914a2.72 2.72 0 0 0 .262.514H3.5c-.322 0-.583.26-.583.583v.033c0 .322.26.583.583.583h4.667c.322 0 .583-.26.583-.583v-.033c0-.322-.26-.583-.583-.583h-.15a2.72 2.72 0 0 0 .293-.6zm1.608 3c.322 0 .583-.27.583-.6s-.26-.6-.583-.6-.583.27-.583.6.26.6.583.6zM5.833 4.2c-.805 0-1.458-.672-1.458-1.5s.653-1.5 1.458-1.5 1.458.672 1.458 1.5-.653 1.5-1.458 1.5z" fill="#f1787e" fill-rule="evenodd"/></svg>