<svg fill="none" height="23" viewBox="0 0 21 23" width="21" xmlns="http://www.w3.org/2000/svg"><g stroke="#2c3e50" stroke-linecap="round" stroke-linejoin="round" stroke-width="2"><path d="m7.93942 3.22635c0-.59046.24371-1.15674.67751-1.57427.43379-.41752 1.02215-.65208 1.63567-.65208.6134 0 1.2018.23456 1.6356.65208.4338.41753.6775.98381.6775 1.57427 1.3282.60449 2.4605 1.54545 3.2755 2.72205.8149 1.1766 1.2819 2.54447 1.3508 3.95701v3.33949c.087.6921.3417 1.3548.7434 1.9349.4018.58.9395 1.0612 1.5697 1.4047h-18.5051c.63026-.3435 1.16792-.8247 1.56968-1.4047.40177-.5801.65642-1.2428.74346-1.9349v-3.33949c.06889-1.41254.53584-2.78041 1.35082-3.95701.81497-1.1766 1.94725-2.11756 3.27546-2.72205"/><path d="m6.7832 16.5845v1.1131c0 .8857.36556 1.7352 1.01626 2.3614.6507.6263 1.53324.9782 2.45344.9782.9203 0 1.8028-.3519 2.4535-.9782.6507-.6262 1.0163-1.4757 1.0163-2.3614v-1.1131"/></g></svg>