<svg fill="none" height="14" viewBox="0 0 14 14" width="14" xmlns="http://www.w3.org/2000/svg"><path d="m8.82333 4.7013-1.54611-3.51524c-.10912-.24808-.44532-.24808-.55444 0l-1.54611 3.51524c-.04447.10111-.13584.17072-.24127.18383l-3.66569.4558c-.25869.03217-.362588.36749-.17133.55298l2.71014 2.62834c.07795.07559.11285.18823.09216.29744l-.71941 3.79691c-.05077.268.22123.4752.44855.3418l3.22107-1.8908c.09264-.0544.20558-.0544.29822 0l3.22109 1.8908c.2273.1334.4993-.0738.4485-.3418l-.7194-3.79691c-.0207-.10921.0142-.22185.0922-.29744l2.7101-2.62834c.1913-.18549.0874-.52081-.1713-.55298l-3.6657-.4558c-.10543-.01311-.1968-.08272-.24127-.18383z" stroke="#a66201" stroke-linecap="round" stroke-linejoin="round"/></svg>