<svg width="20" height="20" viewBox="0 0 20 20" fill="none" xmlns="http://www.w3.org/2000/svg">
<path fill-rule="evenodd" clip-rule="evenodd" d="M12.0004 13C11.7352 13 11.4808 13.1054 11.2933 13.2929C11.1058 13.4804 11.0004 13.7348 11.0004 14C11.0004 14.2652 11.1058 14.5196 11.2933 14.7071C11.4808 14.8947 11.7352 15 12.0004 15H17.0004C17.2656 15 17.52 14.8947 17.7075 14.7071C17.8951 14.5196 18.0004 14.2652 18.0004 14V9.00001C18.0004 8.73479 17.8951 8.48044 17.7075 8.2929C17.52 8.10537 17.2656 8.00001 17.0004 8.00001C16.7352 8.00001 16.4808 8.10537 16.2933 8.2929C16.1058 8.48044 16.0004 8.73479 16.0004 9.00001V11.586L11.7074 7.29301C11.5199 7.10554 11.2656 7.00022 11.0004 7.00022C10.7352 7.00022 10.4809 7.10554 10.2934 7.29301L8.00041 9.58601L3.70741 5.29301C3.5188 5.11085 3.2662 5.01006 3.00401 5.01234C2.74181 5.01461 2.491 5.11978 2.30559 5.30519C2.12018 5.4906 2.01501 5.74141 2.01273 6.00361C2.01045 6.26581 2.11125 6.51841 2.29341 6.70701L7.29341 11.707C7.48094 11.8945 7.73524 11.9998 8.00041 11.9998C8.26557 11.9998 8.51988 11.8945 8.70741 11.707L11.0004 9.41401L14.5864 13H12.0004Z" fill="#5048e5"/>
</svg>
