<svg height="32" viewBox="0 0 32 32" width="32" xmlns="http://www.w3.org/2000/svg"><path d="m762.2 517.465647c0 5.449472 4.637686 11.71342 12.197666 17.246778.248782.182091.572952.455844.611378.428458 7.912116-5.638794 12.790956-12.085632 12.790956-17.675236 0-3.853345-2.865378-6.977098-6.4-6.977098-1.59926 0-3.099113.637325-4.265876 1.77577l-1.550965 1.513324c-.32207.314253-.844845.313671-1.166318 0l-1.550965-1.513324c-1.166763-1.138445-2.666616-1.77577-4.265876-1.77577-3.534622 0-6.4 3.123753-6.4 6.977098zm6.4-10.465647c2.458734 0 4.701579 1.00768 6.4 2.66488 1.698421-1.6572 3.941266-2.66488 6.4-2.66488 5.301934 0 9.6 4.68563 9.6 10.465647 0 8.016943-7.029529 15.482891-14.361737 20.681755-.545336.386668-.958871.661789-.958871.661789-.371563.252112-.981459.255536-1.354077.003457 0 0-.385054-.25589-.913942-.630089-7.350086-5.200333-14.411373-12.68188-14.411373-20.716912 0-5.780017 4.298066-10.465647 9.6-10.465647z" fill="#030303" transform="translate(-759 -507)"/></svg>