<svg height="24" viewBox="0 0 24 24" width="24" xmlns="http://www.w3.org/2000/svg"><g fill="none" fill-rule="evenodd"><circle cx="12" cy="12" fill="#12100e" r="12"/><path d="m5.89729225 8.15196943c.01987878-.20101228-.05502049-.39969055-.20168067-.53497943l-1.49393091-1.84185773v-.27513227h4.63865546l3.58543417 8.047619 3.1521943-8.047619h4.4220354v.27513227l-1.2773109 1.25338037c-.1101182.08590582-.1647425.22709814-.1419234.36684304v9.20928872c-.0228191.1397449.0318052.2809371.1419234.366843l1.2474323 1.2533804v.2751322h-6.2745098v-.2751322l1.2922503-1.2839507c.126984-.1299236.126984-.1681364.126984-.366843v-7.44385657l-3.5929038 9.33921217h-.4855275l-4.18300658-9.33921217v6.25925927c-.03487638.2631568.05052113.5280982.2315593.718401l1.68067226 2.0864197v.2751322h-4.76563958v-.2751322l1.68067227-2.0864197c.17972005-.1906183.26013797-.4573172.21661998-.718401z" fill="#fff" fill-rule="nonzero"/></g></svg>