<svg fill="none" height="12" viewBox="0 0 9 12" width="9" xmlns="http://www.w3.org/2000/svg"><path clip-rule="evenodd" d="m2.60647 4.4256c-.40809.158-.69749.55428-.69749 1.01815 0 .60277.48865 1.09142 1.09142 1.09142s1.09141-.48865 1.09141-1.09142c0-.34142-.15678-.64623-.40227-.84636.02566-.35098.023-.70793-.01521-1.06387h.41865l3.81994 3.81994-3.00138 3.00134-3.81994-3.77357v-3.04771h1.48287c.0395.29442.04823.59478.032.89208zm-.35347-1.98358h-1.707294c-.301385 0-.545706.24432-.545706.5457v3.81994c0 .14568.0582512.28532.161782.38781l3.984238 3.94433c.42743.4231 1.11822.4218 1.54311-.0042l2.99121-2.9991c.42485-.42596.4261-1.11464.00439-1.54266l-3.93036-3.98912c-.10256-.10409-.24259-.1627-.38873-.1627h-.93165c-.38351-1.10383-1.17364-1.949807-2.42325-2.4084556-.282934-.1038442-.596476.0413333-.70032.3242626-.103844.28293.041333.596472.324263.700313.785377.28826 1.306777.75834 1.618317 1.38388z" fill="#4d4d4d" fill-rule="evenodd"/></svg>