<svg xmlns="http://www.w3.org/2000/svg" height="11" width="12"><path d="M8.57 0C10.46 0 12 1.513 12 3.38c0 1.932-1.146 3.635-3.07 5.184-.485.39-.996.752-1.556 1.114l-1.09.677-.287.18-.282-.188a89.79 89.79 0 0 1-1.091-.72L3.068 8.462C1.145 6.863 0 5.19 0 3.38 0 1.513 1.54 0 3.43 0 4.423 0 5.35.414 6 1.143 6.65.414 7.577 0 8.57 0zM6.81 8.8l1.467-1.05c1.7-1.37 2.68-2.825 2.68-4.37 0-1.286-1.068-2.336-2.385-2.336-.755 0-1.446.337-1.902.926L6 2.833l-.67-.863c-.456-.59-1.148-.926-1.902-.926-1.317 0-2.386 1.05-2.386 2.336 0 1.422.985 2.86 2.692 4.28.458.38.943.74 1.478 1.105l.802.53.794-.496z" fill="#f1787e"/></svg>