<svg width="14" height="14" viewBox="0 0 14 14" fill="none" xmlns="http://www.w3.org/2000/svg">
<path fill-rule="evenodd" clip-rule="evenodd" d="M3.79961 0.599976C3.58744 0.599976 3.38395 0.684261 3.23392 0.83429C3.08389 0.984319 2.99961 1.1878 2.99961 1.39998V2.19998H2.19961C1.77526 2.19998 1.3683 2.36855 1.06824 2.6686C0.76818 2.96866 0.599609 3.37563 0.599609 3.79998V11.8C0.599609 12.2243 0.76818 12.6313 1.06824 12.9313C1.3683 13.2314 1.77526 13.4 2.19961 13.4H11.7996C12.224 13.4 12.6309 13.2314 12.931 12.9313C13.231 12.6313 13.3996 12.2243 13.3996 11.8V3.79998C13.3996 3.37563 13.231 2.96866 12.931 2.6686C12.6309 2.36855 12.224 2.19998 11.7996 2.19998H10.9996V1.39998C10.9996 1.1878 10.9153 0.984319 10.7653 0.83429C10.6153 0.684261 10.4118 0.599976 10.1996 0.599976C9.98744 0.599976 9.78395 0.684261 9.63392 0.83429C9.48389 0.984319 9.39961 1.1878 9.39961 1.39998V2.19998H4.59961V1.39998C4.59961 1.1878 4.51532 0.984319 4.36529 0.83429C4.21527 0.684261 4.01178 0.599976 3.79961 0.599976V0.599976ZM3.79961 4.59998C3.58744 4.59998 3.38395 4.68426 3.23392 4.83429C3.08389 4.98432 2.99961 5.1878 2.99961 5.39998C2.99961 5.61215 3.08389 5.81563 3.23392 5.96566C3.38395 6.11569 3.58744 6.19998 3.79961 6.19998H10.1996C10.4118 6.19998 10.6153 6.11569 10.7653 5.96566C10.9153 5.81563 10.9996 5.61215 10.9996 5.39998C10.9996 5.1878 10.9153 4.98432 10.7653 4.83429C10.6153 4.68426 10.4118 4.59998 10.1996 4.59998H3.79961Z" fill="#D1D5DB"/>
</svg>
