<svg width="20" height="20" viewBox="0 0 20 20" fill="none" xmlns="http://www.w3.org/2000/svg">
<path d="M5.83333 5.83333H5.84167M5.83333 2.5H10C10.4267 2.5 10.8533 2.6625 11.1783 2.98833L17.0117 8.82167C17.3241 9.13421 17.4996 9.55806 17.4996 10C17.4996 10.4419 17.3241 10.8658 17.0117 11.1783L11.1783 17.0117C10.8658 17.3241 10.4419 17.4996 10 17.4996C9.55806 17.4996 9.13421 17.3241 8.82167 17.0117L2.98833 11.1783C2.83334 11.0238 2.71041 10.8401 2.6266 10.6379C2.5428 10.4357 2.49977 10.2189 2.5 10V5.83333C2.5 4.94928 2.85119 4.10143 3.47631 3.47631C4.10143 2.85119 4.94928 2.5 5.83333 2.5Z" stroke="#2664CB" stroke-width="1.5" stroke-linecap="round" stroke-linejoin="round"/>
</svg>
