<svg fill="none" height="9" viewBox="0 0 11 9" width="11" xmlns="http://www.w3.org/2000/svg"><g stroke="#4d4d4d" stroke-linecap="round" stroke-linejoin="round"><path d="m3 8.5c0-.82843 1.11929-1.5 2.5-1.5s2.5.67157 2.5 1.5"/><path d="m8.5 5.62476c.88295.23146 1.5.76009 1.5 1.37518"/><path d="m2.5 5.62476c-.88295.23146-1.5.76009-1.5 1.37518"/><path d="m5.5 5.5c.82843 0 1.5-.67157 1.5-1.5s-.67157-1.5-1.5-1.5-1.5.67157-1.5 1.5.67157 1.5 1.5 1.5z"/><path d="m8.5 3.61805c.30687-.27466.5-.6738.5-1.11805 0-.82843-.67157-1.5-1.5-1.5-.38418 0-.73462.14443-1 .38195"/><path d="m2.5 3.61805c-.30687-.27466-.5-.6738-.5-1.11805 0-.82843.67157-1.5 1.5-1.5.38418 0 .73462.14443 1 .38195"/></g></svg>