<svg fill="none" height="34" viewBox="0 0 33 34" width="33" xmlns="http://www.w3.org/2000/svg"><path clip-rule="evenodd" d="m0 2c0-1.10457.89543-2 2-2h14c.5356 0 1.0488.214809 1.4247.596318l14.4047 14.620082c1.5455 1.5686 1.5409 4.0926-.0161 5.6538l-10.9628 10.9917c-1.5572 1.5613-4.0889 1.566-5.6554.0152l-14.602171-14.4558c-.37944-.3756-.592929-.8874-.592929-1.4213zm15 2 14 14-11 11-14-13.8302v-11.1698zm-4 11c2.2091 0 4-1.7909 4-4 0-2.20914-1.7909-4-4-4-2.20914 0-4 1.79086-4 4 0 2.2091 1.79086 4 4 4z" fill="#000" fill-rule="evenodd"/></svg>