<svg xmlns="http://www.w3.org/2000/svg" height="32" width="32"><path d="M24.373 25.902a3.05 3.05 0 0 1 3.05 3.049A3.05 3.05 0 0 1 24.373 32a3.05 3.05 0 0 1-3.05-3.049 3.05 3.05 0 0 1 3.05-3.049zm-13.723 0a3.05 3.05 0 0 1 3.05 3.049A3.05 3.05 0 0 1 10.65 32a3.05 3.05 0 0 1-3.05-3.049 3.05 3.05 0 0 1 3.05-3.049zM2.07.1l.135.06L5.23 1.67c.362.18.636.497.764.876l.04.145.445 1.925 24.253 1.487c.84.047 1.394.76 1.24 1.58L30 18.308c-.154.826-.96 1.496-1.803 1.496l-18.2-.001.353 1.525h17.083c.842 0 1.525.683 1.525 1.525 0 .795-.61 1.448-1.386 1.518l-.14.006H9.125c-.663 0-1.244-.427-1.448-1.046l-.038-.136-4.41-19.11L.845 2.89C.09 2.513-.215 1.598.16.844.514.135 1.346-.178 2.07.1zm5.125 7.613l2.087 9.04h17.895l1.444-7.73z" fill="#030303" fill-rule="evenodd"/></svg>