<svg fill="none" height="11" viewBox="0 0 12 11" width="12" xmlns="http://www.w3.org/2000/svg"><path clip-rule="evenodd" d="m6.87138 3.52822c.10334-.15558.18809-.32478.25104-.50435h.00847l1.36833-.85449v1.04587l.24962.14557c.64274.37482 1.09228 1.02059 1.21578 1.76248l.06998.42059h.9646v1.51959l-1.48733-.00757-.14906.16787c-.17701.19934-.38438.36945-.61393.50328l-.24966.14556v1.20183l-1.00751-.00252.00751-1.00801h-3.5-.5v1.00801h-1v-1.1994l-.24962-.14556c-.76788-.4478-1.250381-1.27284-1.250381-2.18308 0-1.18544.811761-2.17944 1.905641-2.44833.05952.15302.13506.29794.22454.43266h-.12539c-.27836 0-.50401.22565-.50401.50401 0 .27835.22565.504.50401.504h3.99198c.27836 0 .50401-.22565.50401-.504 0-.27836-.22565-.50401-.504-.50401zm.32974-1.73446c-.21632-1.024925-1.11945-1.79376-2.20073-1.79376-1.18519 0-2.15634.923699-2.24362 2.09587-.33813.07371-.65808.19666-.95206.36102-.01054-.06223-.02395-.12436-.04042-.1863-.14036-.52772-.4895-.95513-1.055405-1.21677-.251-.116042-.547803-.00501-.6629255.248-.1151228.25301-.0049715.55219.2460285.66824.29099.13453.442003.3194.506409.56156.054958.20663.043511.44686-.012216.67865-.017403.07239-.033573.12237-.041057.1415-.003831.00979-.007337.01964-.010522.02952-.460444.5973-.734602 1.34776-.734602 2.16287 0 1.17007.570292 2.24048 1.495 2.89237 0 .08506.005.88705.005.88705 0 .4172.33645.75662.74926.75662h1.50148c.41436 0 .74926-.34104.74926-.75662v-.25138h2v.25138c0 .4172.33645.75662.74926.75662h1.50148c.41436 0 .74926-.34104.74926-.75662v-.8863s.22986-.16691.44842-.37582c.05158.00273 1.30098.00273 1.30098.00273.4137 0 .7506-.33959.7506-.75485v-2.01834c0-.41764-.3385-.75485-.7506-.75485h-.4084c-.2324-.78945-.7077-1.44372-1.34646-1.89126.00546-.08675.00546-1.1325.00546-1.1325 0-.536194-.52738-.828548-.97803-.546198zm1.29888 3.75029c-.27614 0-.5-.22566-.5-.50401s.22386-.504.5-.504.5.22565.5.504-.22386.50401-.5.50401zm-3.50039-2.01592c-.69036 0-1.25-.56413-1.25-1.26001 0-.69589.55964-1.26001 1.25-1.26001s1.25.56412 1.25 1.26001c0 .69588-.55964 1.26001-1.25 1.26001z" fill="#4d4d4d" fill-rule="evenodd"/></svg>