<svg xmlns="http://www.w3.org/2000/svg" height="22" width="22"><path d="M11 0C4.926 0 0 4.925 0 11c0 4.503 2.71 8.373 6.586 10.074-.03-.767-.005-1.69.2-2.526l1.415-5.993s-.35-.702-.35-1.74c0-1.63.946-2.847 2.12-2.847 1 0 1.484.752 1.484 1.652 0 1.005-.642 2.5-.97 3.903-.276 1.168.585 2.12 1.736 2.12 2.084 0 3.488-2.676 3.488-5.848 0-2.4-1.623-4.215-4.577-4.215-3.336 0-5.415 2.488-5.415 5.266 0 .96.282 1.635.724 2.158.204.242.232.338.158.614l-.224.882c-.074.278-.3.38-.55.276-1.538-.627-2.253-2.3-2.253-4.203 0-3.124 2.635-6.873 7.86-6.873 4.2 0 6.965 3.04 6.965 6.302 0 4.315-2.398 7.54-5.936 7.54-1.186 0-2.304-.642-2.687-1.37L9 19.193c-.233.847-.69 1.696-1.107 2.356 1 .292 2.035.45 3.118.45A11 11 0 0 0 22 11.001c0-6.076-4.925-11-11-11" fill="#979797" fill-rule="evenodd"/></svg>