<svg height="15" viewBox="0 0 18 15" width="18" xmlns="http://www.w3.org/2000/svg"><path d="m268.7777 734.549956 4.627465-4.504501c.376558-.366552.384669-.968961.018117-1.345519-.005957-.00612-.011997-.01216-.018117-.018118l-.009494-.009242c-.384567-.374347-.997306-.374347-1.381873 0l-6.284625 6.117627c-.39201.381593-.400454 1.008723-.018861 1.400733.006202.006372.01249.012659.018861.018861l6.284625 6.117627c.384567.374347.997306.374347 1.381873 0l.009494-.009242c.376558-.366552.384669-.968961.018117-1.345519-.005957-.00612-.011997-.01216-.018117-.018118l-4.598306-4.476116h13.228904c.532534 0 .964237-.431704.964237-.964237s-.431703-.964236-.964237-.964236z" fill="#f1787e" transform="matrix(-1 0 0 1 283 -728)"/></svg>