<svg height="22" viewBox="0 0 22 22" width="22" xmlns="http://www.w3.org/2000/svg"><path d="m544.750913 3296h-10.536682c-.670798 0-1.214231-.54377-1.214231-1.21431v-19.57147c0-.67071.543519-1.21422 1.214231-1.21422h19.571623c.670542 0 1.214146.54351 1.214146 1.21422v19.57147c0 .67062-.543689 1.21431-1.214146 1.21431h-5.606172v-8.51961h2.85964l.428191-3.32025h-3.287831v-2.11976c0-.96129.266936-1.61638 1.645409-1.61638l1.758177-.00076v-2.96966c-.30407-.04046-1.347742-.13086-2.561973-.13086-2.534913 0-4.270382 1.54731-4.270382 4.38883v2.44859h-2.866982v3.32025h2.866982z" fill="#979797" fill-rule="evenodd" transform="translate(-533 -3274)"/></svg>