<svg xmlns="http://www.w3.org/2000/svg" height="26" width="26"><path d="M13 0C5.822 0 0 5.82 0 13c0 5.322 3.2 9.896 7.783 11.906-.037-.907-.006-1.998.225-2.986l1.672-7.083s-.414-.83-.414-2.058c0-1.926 1.118-3.365 2.507-3.365 1.182 0 1.754.888 1.754 1.952 0 1.188-.758 2.966-1.148 4.612-.326 1.38.69 2.504 2.052 2.504 2.463 0 4.122-3.163 4.122-6.912 0-2.848-1.92-4.98-5.41-4.98-3.943 0-6.4 2.94-6.4 6.224 0 1.134.333 1.932.856 2.55.242.286.274.4.187.726l-.264 1.043c-.087.33-.353.448-.65.326-1.818-.74-2.663-2.73-2.663-4.967 0-3.692 3.114-8.122 9.3-8.122 4.964 0 8.23 3.594 8.23 7.448 0 5.1-2.834 8.9-7.016 8.9-1.402 0-2.723-.758-3.175-1.62l-.914 3.573c-.275 1-.815 2.004-1.31 2.784a12.98 12.98 0 0 0 3.684.534c7.18 0 13-5.82 13-13S20.18 0 13 0" fill="#cc2127" fill-rule="evenodd"/></svg>