<svg fill="none" height="20" viewBox="0 0 20 20" width="20" xmlns="http://www.w3.org/2000/svg" xmlns:xlink="http://www.w3.org/1999/xlink"><linearGradient id="a" gradientUnits="userSpaceOnUse" x1="10" x2="7.39289" y1="1.875" y2="18.0365"><stop offset="0" stop-color="#666"/><stop offset="1" stop-color="#666"/></linearGradient><path clip-rule="evenodd" d="m10 17.612c4.4873 0 8.125-3.5229 8.125-7.86852 0-4.34564-3.6377-7.86848-8.125-7.86848-4.48731 0-8.125 3.52284-8.125 7.86848 0 2.36352 1.07605 4.48362 2.77961 5.92602v1.5922c0 .6224.63389 1.0398 1.19907.7896l1.76694-.7821c.75253.2229 1.5515.3428 2.37938.3428z" fill="url(#a)" fill-rule="evenodd"/><path d="m8.05438 8.07082-2.35611 3.22228c-.25262.3455.20169.7605.54757.5002l2.01183-1.514c.20479-.1541.49184-.1562.69901-.0051l1.78932 1.3053c.3431.2503.8335.1783 1.0833-.159l2.471-3.3367c.2563-.34605-.2015-.76446-.5479-.50077l-2.127 1.61923c-.2048.15592-.4934.15878-.7015.00696l-1.78349-1.30103c-.34457-.25137-.83727-.17758-1.08603.16263z" fill="#fff"/></svg>