<svg width="20" height="20" viewBox="0 0 20 20" fill="none" xmlns="http://www.w3.org/2000/svg">
<path d="M3.82141 3.82141C3.50885 4.13397 3.33325 4.55789 3.33325 4.99992V6.66659C3.33325 7.10861 3.50885 7.53254 3.82141 7.8451C4.13397 8.15766 4.55789 8.33325 4.99992 8.33325H6.66659C7.10861 8.33325 7.53254 8.15766 7.8451 7.8451C8.15766 7.53254 8.33325 7.10861 8.33325 6.66659V4.99992C8.33325 4.55789 8.15766 4.13397 7.8451 3.82141C7.53254 3.50885 7.10861 3.33325 6.66659 3.33325H4.99992C4.55789 3.33325 4.13397 3.50885 3.82141 3.82141Z" stroke="#2664CB" stroke-width="2" stroke-linecap="round" stroke-linejoin="round"/>
<path d="M12.1547 3.82141C11.8422 4.13397 11.6666 4.55789 11.6666 4.99992V6.66659C11.6666 7.10861 11.8422 7.53254 12.1547 7.8451C12.4673 8.15766 12.8912 8.33325 13.3333 8.33325H14.9999C15.4419 8.33325 15.8659 8.15766 16.1784 7.8451C16.491 7.53254 16.6666 7.10861 16.6666 6.66659V4.99992C16.6666 4.55789 16.491 4.13397 16.1784 3.82141C15.8659 3.50885 15.4419 3.33325 14.9999 3.33325H13.3333C12.8912 3.33325 12.4673 3.50885 12.1547 3.82141Z" stroke="#2664CB" stroke-width="2" stroke-linecap="round" stroke-linejoin="round"/>
<path d="M3.82141 12.1547C3.50885 12.4673 3.33325 12.8912 3.33325 13.3333V14.9999C3.33325 15.4419 3.50885 15.8659 3.82141 16.1784C4.13397 16.491 4.55789 16.6666 4.99992 16.6666H6.66659C7.10861 16.6666 7.53254 16.491 7.8451 16.1784C8.15766 15.8659 8.33325 15.4419 8.33325 14.9999V13.3333C8.33325 12.8912 8.15766 12.4673 7.8451 12.1547C7.53254 11.8422 7.10861 11.6666 6.66659 11.6666H4.99992C4.55789 11.6666 4.13397 11.8422 3.82141 12.1547Z" stroke="#2664CB" stroke-width="2" stroke-linecap="round" stroke-linejoin="round"/>
<path d="M12.1547 12.1547C11.8422 12.4673 11.6666 12.8912 11.6666 13.3333V14.9999C11.6666 15.4419 11.8422 15.8659 12.1547 16.1784C12.4673 16.491 12.8912 16.6666 13.3333 16.6666H14.9999C15.4419 16.6666 15.8659 16.491 16.1784 16.1784C16.491 15.8659 16.6666 15.4419 16.6666 14.9999V13.3333C16.6666 12.8912 16.491 12.4673 16.1784 12.1547C15.8659 11.8422 15.4419 11.6666 14.9999 11.6666H13.3333C12.8912 11.6666 12.4673 11.8422 12.1547 12.1547Z" stroke="#2664CB" stroke-width="2" stroke-linecap="round" stroke-linejoin="round"/>
</svg>
