<svg xmlns="http://www.w3.org/2000/svg" height="32" width="32"><path d="M12.507 21.333c.947 0 1.716.767 1.716 1.714v7.24c0 .946-.765 1.714-1.716 1.714H1.716C.768 32 0 31.233 0 30.286v-7.24c0-.946.765-1.714 1.716-1.714zm17.778-7.11c.947 0 1.716.764 1.716 1.72V30.28c0 .95-.765 1.72-1.716 1.72h-10.79c-.947 0-1.716-.764-1.716-1.72V15.943c0-.95.765-1.72 1.716-1.72zm-1.84 3.556h-7.11v10.667h7.11zm-17.778 7.11h-7.11v3.556h7.11zM12.507 0c.947 0 1.716.764 1.716 1.72v14.336c0 .95-.765 1.72-1.716 1.72H1.716c-.947 0-1.716-.764-1.716-1.72V1.72C0 .77.765 0 1.716 0zm-1.84 3.556h-7.11v10.667h7.11zM30.284 0C31.232 0 32 .767 32 1.714v7.24c0 .946-.765 1.714-1.716 1.714h-10.79c-.947 0-1.716-.767-1.716-1.714v-7.24c0-.946.765-1.714 1.716-1.714zm-1.84 3.556h-7.11V7.11h7.11z" fill="#030303" fill-rule="evenodd"/></svg>