<svg height="15" viewBox="0 0 15 15" width="15" xmlns="http://www.w3.org/2000/svg"><path d="m883.081265 130.203836c0-.41708.33806-.75519.755079-.75519.417018 0 .755079.33811.755079.75519v5.283472c0 .835574-.673921 1.512692-1.510817 1.512692h-10.56979c-.834904 0-1.510816-.674391-1.510816-1.51104v-10.571354c0-.835555.67699-1.51104 1.513873-1.51104h5.293083c.417019 0 .755079.338111.755079.755191s-.33806.755191-.755079.755191h-5.293083c-.003647 0-.003715.000067-.003715.000658v10.571354c0 .001675-.001019.000658.000658.000658h10.56979c.001305 0 .000659.00065.000659-.00231zm1.407094-7.76333 1.070072 1.07023c.589138.589225.589129 1.544557-.002251 2.136024l-7.473764 7.47487-2.810854.70542c-.809538.203164-1.300474-.29109-1.097991-1.098153l.705316-2.81127 7.473764-7.47487c.590381-.590468 1.54858-.589466 2.135708-.002251zm-6.672904 8.812123-1.067436-1.067595c-.31312.31312-.505379.505363-.505379.505363l-.354385 1.421715 1.415324-.347532zm1.067843-1.068001 4.003275-4.003867c.00163-.001631-1.067821-1.070253-1.067821-1.070253.00138.001381-2.353331 2.35686-4.002844 4.006572z" fill="#a4a4ac" fill-rule="evenodd" transform="translate(-871 -122)"/></svg>