<svg height="24" viewBox="0 0 24 24" width="24" xmlns="http://www.w3.org/2000/svg"><g fill="none"><path d="m0 12c0-6.62741732 5.37258268-12 12-12 6.6274173 0 12 5.37258268 12 12 0 6.6274173-5.3725827 12-12 12-6.62741732 0-12-5.3725827-12-12z" fill="red"/><path d="m18.1325091 9.03660968c-.1472-.56550324-.5809455-1.01081292-1.1317091-1.16194516-.9981091-.27466452-5.0008-.27466452-5.0008-.27466452s-4.00269092 0-5.00087272.27466452c-.55076364.15113224-.98450908.59644192-1.13170908 1.16194516-.2674182 1.02490972-.2674182 3.16339032-.2674182 3.16339032s0 2.1384064.2674182 3.1633903c.1472.5655033.58094544 1.0108129 1.13170908 1.1620194.9981818.2745903 5.00087272.2745903 5.00087272.2745903s4.0026909 0 5.0008-.2745903c.5507636-.1512065.9845091-.5965161 1.1317091-1.1620194.2674909-1.0249839.2674909-3.1633903.2674909-3.1633903s0-2.1384806-.2674909-3.16339032" fill="#fff"/><path d="m10.8 14.4v-4l3.2 2.0000764z" fill="red"/></g></svg>