<svg xmlns="http://www.w3.org/2000/svg" height="22" width="22"><path d="M11 0l4.535.066c1.17.053 1.97.24 2.67.51a5.39 5.39 0 0 1 1.948 1.269 5.39 5.39 0 0 1 1.269 1.948c.272.7.458 1.5.51 2.67L22 11l-.066 4.535c-.053 1.17-.24 1.97-.51 2.67a5.39 5.39 0 0 1-1.269 1.948 5.39 5.39 0 0 1-1.948 1.269c-.7.272-1.5.458-2.67.51L11 22c-2.987 0-3.362-.013-4.535-.066s-1.97-.24-2.67-.51a5.39 5.39 0 0 1-1.948-1.269 5.39 5.39 0 0 1-1.269-1.948c-.272-.7-.458-1.5-.51-2.67L0 11l.066-4.535c.053-1.17.24-1.97.51-2.67a5.39 5.39 0 0 1 1.269-1.948A5.39 5.39 0 0 1 3.795.578c.7-.272 1.5-.458 2.67-.51L11 0zm0 1.982l-4.445.064c-1.072.05-1.655.228-2.043.38-.513.2-.88.438-1.265.823s-.623.75-.823 1.265c-.15.388-.33.97-.38 2.043L1.982 11l.064 4.445c.05 1.072.228 1.655.38 2.043.2.513.438.88.823 1.265s.75.623 1.265.823c.388.15.97.33 2.043.38l4.445.064 4.445-.064c1.072-.05 1.655-.228 2.043-.38.513-.2.88-.438 1.265-.823s.623-.75.823-1.265c.15-.388.33-.97.38-2.043L20.018 11l-.064-4.445c-.05-1.072-.228-1.655-.38-2.043-.2-.513-.438-.88-.823-1.265s-.75-.623-1.265-.823c-.388-.15-.97-.33-2.043-.38L11 1.982zm0 3.37A5.65 5.65 0 0 1 16.649 11 5.65 5.65 0 0 1 11 16.649 5.65 5.65 0 0 1 5.351 11 5.65 5.65 0 0 1 11 5.351zm0 9.315A3.67 3.67 0 0 0 14.667 11 3.67 3.67 0 0 0 11 7.333 3.67 3.67 0 0 0 7.333 11 3.67 3.67 0 0 0 11 14.667zm7.192-9.538a1.32 1.32 0 1 1-2.64 0 1.32 1.32 0 1 1 2.64 0z" fill="#979797" fill-rule="evenodd"/></svg>