<svg xmlns="http://www.w3.org/2000/svg" height="18" width="22"><path d="M22 2.13a8.94 8.94 0 0 1-2.592.715c.932-.562 1.648-1.452 1.985-2.513-.873.52-1.838.898-2.868 1.1A4.49 4.49 0 0 0 15.231 0c-2.49 0-4.512 2.035-4.512 4.544 0 .356.04.702.116 1.035C7.084 5.39 3.76 3.582 1.53.83a4.56 4.56 0 0 0-.611 2.287 4.55 4.55 0 0 0 2.008 3.782c-.74-.022-1.436-.23-2.045-.567v.056c0 2.202 1.556 4.04 3.622 4.455a4.38 4.38 0 0 1-1.189.16c-.29 0-.575-.027-.85-.08.575 1.805 2.24 3.12 4.216 3.154-1.544 1.22-3.492 1.946-5.606 1.946A9.2 9.2 0 0 1 0 15.96C1.998 17.247 4.37 18 6.92 18c8.303 0 12.842-6.923 12.842-12.928a14.79 14.79 0 0 0-.012-.589c.882-.64 1.648-1.44 2.25-2.352" fill="#666" fill-rule="evenodd"/></svg>