<svg height="40" viewBox="0 0 40 40" width="40" xmlns="http://www.w3.org/2000/svg"><path d="m645 404c-11.045695 0-20-8.954305-20-20s8.954305-20 20-20 20 8.954305 20 20-8.954305 20-20 20zm0-4c8.836556 0 16-7.163444 16-16s-7.163444-16-16-16-16 7.163444-16 16 7.163444 16 16 16zm-4.414214-8.585786-6-6c-.781048-.781049-.781048-2.047379 0-2.828428.781049-.781048 2.047379-.781048 2.828428 0l4.585786 4.613953 9.585786-9.613953c.781049-.781048 2.047379-.781048 2.828428 0 .781048.781049.781048 2.047379 0 2.828428l-11 11c-.781049.781048-2.047379.781048-2.828428 0z" fill="#f1787e" fill-rule="evenodd" transform="translate(-625 -364)"/></svg>