<svg xmlns="http://www.w3.org/2000/svg" height="36" width="36" fill-rule="evenodd"><circle cx="18" cy="18" fill="#cc2127" r="18"/><path d="M13.56 27.496c-.03-.816-.005-1.8.192-2.69l1.432-6.38s-.355-.748-.355-1.853c0-1.735.957-3.03 2.146-3.03 1.012 0 1.5.8 1.5 1.758 0 1.07-.65 2.67-.983 4.154-.28 1.243.592 2.255 1.756 2.255 2.108 0 3.528-2.85 3.528-6.225 0-2.565-1.643-4.486-4.63-4.486-3.375 0-5.48 2.648-5.48 5.605 0 1.022.285 1.74.733 2.297.207.257.234.36.16.654l-.226.94c-.075.296-.302.403-.556.293-1.556-.668-2.28-2.46-2.28-4.473C10.5 13 13.166 9 18.453 9c4.25 0 7.047 3.237 7.047 6.708 0 4.593-2.426 8.024-6.006 8.024-1.2 0-2.33-.683-2.718-1.458l-.783 3.218c-.236.902-.698 1.805-1.12 2.507 0 0-.258.316-.57.453-.2.088-.464.034-.55 0-.214-.082-.192-.957-.192-.957z" fill="#fff"/></svg>