<svg xmlns="http://www.w3.org/2000/svg" height="36" width="36" fill-rule="evenodd"><circle cx="18" cy="18" fill="#00aaec" r="18"/><path d="M28.5 12.453c-.716.33-1.488.555-2.297.655.826-.515 1.46-1.33 1.76-2.304a7.81 7.81 0 0 1-2.542 1.009c-.728-.81-1.768-1.315-2.92-1.315-2.208 0-4 1.865-4 4.165 0 .327.034.644.103.95-3.325-.174-6.272-1.83-8.247-4.354a4.29 4.29 0 0 0-.541 2.096c0 1.444.706 2.72 1.78 3.467-.655-.02-1.273-.2-1.813-.52v.05c0 2.02 1.38 3.703 3.21 4.084a3.76 3.76 0 0 1-1.054.147 3.83 3.83 0 0 1-.753-.074c.51 1.654 1.986 2.86 3.737 2.89-1.37 1.118-3.095 1.784-4.97 1.784-.323 0-.642-.02-.955-.057C10.77 26.3 12.874 27 15.133 27c7.36 0 11.383-6.346 11.383-11.85 0-.18-.003-.362-.01-.54.782-.588 1.46-1.32 1.995-2.156" fill="#fff"/></svg>