<svg fill="none" height="46" viewBox="0 0 266 46" width="266" xmlns="http://www.w3.org/2000/svg" xmlns:xlink="http://www.w3.org/1999/xlink"><linearGradient id="a" gradientUnits="userSpaceOnUse" x1=".126634" x2="266.415" y1="39.5134" y2="39.5134"><stop offset="0" stop-color="#b1d26f"/><stop offset="1" stop-color="#60e7ce"/></linearGradient><mask id="b" fill="#fff"><path clip-rule="evenodd" d="m231.819 0h-231.819l34.1812 45.3432h231.8188z" fill="#fff" fill-rule="evenodd"/></mask><path clip-rule="evenodd" d="m231.819 0h-231.819l34.1812 45.3432h231.8188z" fill="url(#a)" fill-rule="evenodd"/><path d="m231.819 0 .798-.601956-.3-.398044h-.498zm-231.819 0v-1h-2.00613l1.207601 1.601957zm34.1812 45.3432-.7985.602.3.398h.4985zm231.8188 0v1h2.006l-1.208-1.6019zm-34.181-46.3432h-231.819v2h231.819zm-232.617529 1.601957 34.181229 45.343243 1.597-1.2039-34.181171-45.343257zm34.979729 45.741243h231.8188v-2h-231.8188zm232.6168-1.6019-34.181-45.343256-1.597 1.203912 34.181 45.343244z" fill="#000" mask="url(#b)"/></svg>