<svg xmlns="http://www.w3.org/2000/svg" xmlns:xlink="http://www.w3.org/1999/xlink" width="314" height="301"><style>.B{stroke:#4a4a4a}.C{fill:#fff}.D{fill:#000}.E{stroke-linejoin:square}</style><defs><rect id="A" x="141" y="107" width="75" height="75" rx="20"/><filter x="-9.3%" y="-6.7%" width="118.7%" height="118.7%" id="B"><feOffset dy="2" in="SourceAlpha"/><feGaussianBlur stdDeviation="2"/><feColorMatrix values="0 0 0 0 0 0 0 0 0 0 0 0 0 0 0 0 0 0 0.14 0"/></filter><rect id="C" x="133" y="107" width="75" height="75" rx="20"/><filter x="-9.3%" y="-6.7%" width="118.7%" height="118.7%" id="D"><feOffset dy="2" in="SourceAlpha" result="A"/><feMorphology radius="1" in="SourceAlpha"/><feOffset dy="2"/><feComposite in="A" operator="out" result="A"/><feGaussianBlur stdDeviation="2"/><feColorMatrix values="0 0 0 0 0 0 0 0 0 0 0 0 0 0 0 0 0 0 0.14 0"/></filter><rect id="E" x="332" y="312" width="75" height="75" rx="20"/><rect id="F" x="324" y="312" width="75" height="75" rx="20"/><rect id="G" x="351" y="145" width="75" height="75" rx="20"/><rect id="H" x="343" y="145" width="75" height="75" rx="20"/><path id="I" d="M164.003 162.59c0-6.663 6.534-12.065 14.595-12.065s14.595 5.402 14.595 12.065"/><path id="J" d="M173.723 144.895v8.043c0 .89 2.178 1.61 4.865 1.61s4.865-.72 4.865-1.61v-8.043h-9.73z"/><path id="K" d="M178.59 126.395h0c-5.374 0-9.73 4.322-9.73 9.652v1.61h.005c.054 7.046 4.385 12.738 9.725 12.738s9.67-5.692 9.725-12.738h.005v-1.61c0-5.33-4.356-9.652-9.73-9.652"/><path id="L" d="M178.59 126.395h0c-5.374 0-9.73 4.322-9.73 9.652v1.61h.005c.054 7.046 4.385 12.738 9.725 12.738s9.67-5.692 9.725-12.738h.005v-1.61c0-5.33-4.356-9.652-9.73-9.652h0z"/></defs><g transform="translate(-123 -98)" fill="none" fill-rule="evenodd"><g transform="matrix(.891007 -.45399 .45399 .891007 -46.146292 96.786861)"><use filter="url(#B)" xlink:href="#A" class="D"/><use fill="#8fdbff" xlink:href="#A"/></g><g transform="matrix(.891007 -.45399 .45399 .891007 -47.01824 93.154937)"><use filter="url(#D)" xlink:href="#C" class="D"/><rect x="133.5" y="107.5" width="74" height="74" rx="20" class="B E"/></g><use xlink:href="#I" class="C"/><use xlink:href="#I" class="B"/><use xlink:href="#J" class="C"/><use xlink:href="#J" class="B"/><use xlink:href="#K" class="C"/><use xlink:href="#L" class="B"/><g transform="matrix(.891007 -.45399 .45399 .891007 -118.39659 205.842709)"><use filter="url(#B)" xlink:href="#E" class="D"/><use fill="#44ce91" xlink:href="#E"/></g><g transform="matrix(.891007 -.45399 .45399 .891007 -119.268538 202.210785)"><use filter="url(#D)" xlink:href="#F" class="D"/><rect x="324.5" y="312.5" width="74" height="74" rx="20" class="B E"/></g><use xlink:href="#I" x="191" y="205" class="C"/><use xlink:href="#I" x="191" y="205" class="B"/><use xlink:href="#J" x="191" y="205" class="C"/><use xlink:href="#J" x="191" y="205" class="B"/><use xlink:href="#K" x="191" y="205" class="C"/><use xlink:href="#L" x="191" y="205" class="B"/><g transform="matrix(.891007 -.45399 .45399 .891007 -40.509301 196.266618)"><use filter="url(#B)" xlink:href="#G" class="D"/><use fill="#bae3e8" xlink:href="#G"/></g><g transform="matrix(.891007 -.45399 .45399 .891007 -41.381249 192.634694)"><use filter="url(#D)" xlink:href="#H" class="D"/><rect x="343.5" y="145.5" width="74" height="74" rx="20" class="B E"/></g><use xlink:href="#I" x="209" y="38" class="C"/><use xlink:href="#I" x="209" y="38" class="B"/><use xlink:href="#J" x="209" y="38" class="C"/><use xlink:href="#J" x="209" y="38" class="B"/><use xlink:href="#K" x="209" y="38" class="C"/><use xlink:href="#L" x="209" y="38" class="B"/><path d="M224.5 151.5l111 15M276 226l75.5-9.5M370 304l12-76m-183.5-49.5L231 224m45 38l79 45" stroke="#f4dcdb" stroke-width="2" stroke-linecap="square"/><path d="M239.576 262.893c-1.95 0-3.535-1.61-3.535-3.585v-30.22c0-1.977 1.586-3.585 3.535-3.585h30.285c1.95 0 3.535 1.61 3.535 3.585v11.268c0 5.258 3.556 9.7 8.415 10.922-1.442 2.408-4.032 3.932-6.9 3.932h-1.515v4.098c0 1.977-1.586 3.585-3.535 3.585h-30.285z" fill="#c2e9f9"/><path d="M272.386 242.917V231.65c0-2.83-2.26-5.122-5.05-5.122H237.05c-2.79 0-5.05 2.293-5.05 5.122v30.22c0 2.83 2.26 5.122 5.05 5.122h30.285c2.79 0 5.05-2.293 5.05-5.122v-2.56c4.25 0 7.847-2.803 9.11-6.684-5.072-.26-9.11-4.5-9.11-9.707h0z" stroke="#545e65" stroke-width="1.024"/><path d="M235 373.5a6.5 6.5 0 1 1-13 0 6.5 6.5 0 1 1 13 0" fill="#dde0e2"/><path d="M260 348.5a3.5 3.5 0 1 1-7 0 3.5 3.5 0 1 1 7 0" fill="#545e65"/><path d="M217 322a4 4 0 1 1-8 0 4 4 0 1 1 8 0" fill="#ff5c47"/><g class="C"><rect x="240" y="236" width="28" height="3" rx="1.5"/><rect x="240" y="231" width="13" height="3" rx="1.5"/><rect x="240" y="241" width="28" height="3" rx="1.5"/><rect x="240" y="246" width="28" height="3" rx="1.5"/><rect x="240" y="251" width="23" height="3" rx="1.5"/></g></g></svg>