<svg xmlns="http://www.w3.org/2000/svg" xmlns:xlink="http://www.w3.org/1999/xlink" width="344" height="304"><style>.B{stroke:#4a4a4a}.C{fill:#fff}.D{fill:#000}.E{stroke-linejoin:square}</style><defs><rect id="A" x="1232" y="227" width="75" height="75" rx="20"/><filter x="-9.3%" y="-6.7%" width="118.7%" height="118.7%" id="B"><feOffset dy="2" in="SourceAlpha"/><feGaussianBlur stdDeviation="2"/><feColorMatrix values="0 0 0 0 0 0 0 0 0 0 0 0 0 0 0 0 0 0 0.14 0"/></filter><rect id="C" x="1224" y="227" width="75" height="75" rx="20"/><filter x="-9.3%" y="-6.7%" width="118.7%" height="118.7%" id="D"><feOffset dy="2" in="SourceAlpha" result="A"/><feMorphology radius="1" in="SourceAlpha"/><feOffset dy="2"/><feComposite in="A" operator="out" result="A"/><feGaussianBlur stdDeviation="2"/><feColorMatrix values="0 0 0 0 0 0 0 0 0 0 0 0 0 0 0 0 0 0 0.14 0"/></filter><rect id="E" x="1073" y="260" width="75" height="75" rx="20"/><rect id="F" x="1065" y="260" width="75" height="75" rx="20"/><rect id="G" x="1092" y="114" width="75" height="75" rx="20"/><rect id="H" x="1084" y="114" width="75" height="75" rx="20"/><path id="I" d="M1254.003 281.59c0-6.663 6.534-12.065 14.595-12.065s14.595 5.402 14.595 12.065"/><path id="J" d="M1263.723 263.895v8.043c0 .89 2.178 1.61 4.865 1.61s4.865-.72 4.865-1.61v-8.043h-9.73z"/><path id="K" d="M1268.59 245.395h0c-5.374 0-9.73 4.322-9.73 9.652v1.61h.005c.054 7.046 4.385 12.738 9.725 12.738s9.67-5.692 9.725-12.738h.005v-1.61c0-5.33-4.356-9.652-9.73-9.652"/><path id="L" d="M1268.59 245.395h0c-5.374 0-9.73 4.322-9.73 9.652v1.61h.005c.054 7.046 4.385 12.738 9.725 12.738s9.67-5.692 9.725-12.738h.005v-1.61c0-5.33-4.356-9.652-9.73-9.652h0z"/></defs><g transform="translate(-974 -105)" fill="none" fill-rule="evenodd"><g transform="matrix(.891007 -.45399 .45399 .891007 18.28673 605.169714)"><use filter="url(#B)" xlink:href="#A" class="D"/><use fill="#fea089" xlink:href="#A"/></g><g transform="matrix(.891007 -.45399 .45399 .891007 17.414783 601.53779)"><use filter="url(#D)" xlink:href="#C" class="D"/><rect x="1224.5" y="227.5" width="74" height="74" rx="20" class="B E"/></g><use xlink:href="#I" class="C"/><use xlink:href="#I" class="B"/><use xlink:href="#J" class="C"/><use xlink:href="#J" class="B"/><use xlink:href="#K" class="C"/><use xlink:href="#L" class="B"/><g transform="matrix(.891007 -.45399 .45399 .891007 -14.024919 536.582009)"><use filter="url(#B)" xlink:href="#E" class="D"/><use fill="#50e3c2" xlink:href="#E"/></g><g transform="matrix(.891007 -.45399 .45399 .891007 -14.896867 532.950085)"><use filter="url(#D)" xlink:href="#F" class="D"/><rect x="1065.5" y="260.5" width="74" height="74" rx="20" class="B E"/></g><use xlink:href="#I" x="-159" y="33" class="C"/><use xlink:href="#I" x="-159" y="33" class="B"/><use xlink:href="#J" x="-159" y="33" class="C"/><use xlink:href="#J" x="-159" y="33" class="B"/><use xlink:href="#K" x="-159" y="33" class="C"/><use xlink:href="#L" x="-159" y="33" class="B"/><g transform="matrix(.891007 -.45399 .45399 .891007 54.32857 529.294781)"><use filter="url(#B)" xlink:href="#G" class="D"/><use fill="#f5a623" xlink:href="#G"/></g><g transform="matrix(.891007 -.45399 .45399 .891007 53.456622 525.662857)"><use filter="url(#D)" xlink:href="#H" class="D"/><rect x="1084.5" y="114.5" width="74" height="74" rx="20" class="B E"/></g><use xlink:href="#I" x="-140" y="-113" class="C"/><use xlink:href="#I" x="-140" y="-113" class="B"/><use xlink:href="#J" x="-140" y="-113" class="C"/><use xlink:href="#J" x="-140" y="-113" class="B"/><use xlink:href="#K" x="-140" y="-113" class="C"/><use xlink:href="#L" x="-140" y="-113" class="B"/><path d="M1150 287l66-22m-101-15l-2-52m111 41l-54-64m63 197l19-61m-121 21l64 45" stroke="#f4dcdb" stroke-width="2" stroke-linecap="square"/><path d="M1220.214 405.513c-1.895-.786-9.64-4.233-14.6-9.99-4.526-5.262-5.98-11.488-3.792-16.25 1.602-3.487 4.93-5.57 8.906-5.57l.13.001c4.997.055 8.28 4.96 8.3 5.008l1.036 1.7 1.036-1.71c.03-.05 3.3-4.953 8.3-5.007l.13-.001c3.975 0 7.304 2.082 8.905 5.57 2.187 4.762.734 10.988-3.79 16.25-4.95 5.757-12.695 9.204-14.6 10" fill="#ff5c47"/><path d="M1226.788 374c-5.35.058-8.9 4.9-9.288 5.538-.39-.64-3.938-5.48-9.288-5.538-10.464-.114-15.814 12.407-6.147 23.593C1207.962 404.42 1217.5 408 1217.5 408s9.538-3.58 15.435-10.406c9.667-11.187 4.317-23.708-6.147-23.593h0z" class="B"/><path d="M977.565 215.002h0a3 3 0 0 1-3-3v-8a3 3 0 0 1 3-3h0a3 3 0 0 1 3 3v8a3 3 0 0 1-3 3" fill="#ff5c47"/><path d="M1017.566 211h0a3 3 0 0 1-3-3v-4a3 3 0 0 1 3-2.999h0a3 3 0 0 1 3 2.999v4a3 3 0 0 1-3 3" fill="#c2e9f9"/><path d="M1056.567 174h0a3 3 0 0 1-3-3v-2a3 3 0 0 1 3-3h0a3 3 0 0 1 3 3v2a3 3 0 0 1-3 3" fill="#545e65"/></g></svg>