<svg fill="none" height="460" viewBox="0 0 1018 460" width="1018" xmlns="http://www.w3.org/2000/svg"><g clip-rule="evenodd" fill-rule="evenodd"><path d="m91.0994 23.0575c28.2966.2006 57.4406-23.285908 81.2656-8.0186 25.594 16.4011 39.547 51.5722 33.037 81.2651-6.023 27.467-42.796 31.749-62.265 52.038-20.369 21.228-23.006 62.318-52.0376 67.083-29.4716 4.836-56.065-21.693-72.4723-46.649-13.8411-21.052-4.2296-47.329-5.8452-72.472-1.8338-28.5389-24.9946-62.8914-4.10809-82.4256 20.98959-19.63052 53.68749 8.9754 82.42559 9.1791z" fill="#fe4850"/><path d="m922.882.0674505c28.992-1.2990205 56.271 16.3214495 73.927 39.3536495 15.821 20.6387 11.161 47.9808 12.911 73.9269 1.97 29.259 18.11 63.483-2.24 84.598-20.387 21.152-55.222 5.429-84.598 5.506-29.521.077-62.606 14.124-85.042-5.062-23.026-19.692-23.763-54.939-20.321-85.042 3.049-26.656 19.503-47.9402 37.776-67.5862 19.254-20.7008 39.344-44.42892 67.587-45.6943495z" fill="#0884ff"/><path d="m500.565 253.002c25.581-.131 50.51 6.481 70.218 22.792 21.863 18.096 41.008 41.861 42.158 70.218 1.184 29.198-15.544 55.507-36.222 76.154-20.661 20.63-47.056 33.66-76.154 36.054-31.966 2.63-71.162 3.697-89.808-22.4-18.195-25.467 5.682-58.76 9.64-89.808 3.08-24.17-5.243-51.046 10.665-69.503 16.599-19.258 44.079-23.377 69.503-23.507z" fill="#05ecb4"/></g></svg>