<svg height="80" viewBox="0 0 345 80" width="345" xmlns="http://www.w3.org/2000/svg" xmlns:xlink="http://www.w3.org/1999/xlink"><linearGradient id="a" x1="87.25%" x2="9.4%" y1="15.5%" y2="93.1%"><stop offset=".05" stop-color="#fff44f"/><stop offset=".37" stop-color="#ff980e"/><stop offset=".53" stop-color="#ff3647"/><stop offset=".7" stop-color="#e31587"/></linearGradient><radialGradient id="b" cx="87.72%" cy="0%" gradientTransform="matrix(.813136 0 0 1 .163917 0)" r="125.932%"><stop offset=".13" stop-color="#ffbd4f"/><stop offset=".28" stop-color="#ff980e"/><stop offset=".47" stop-color="#ff3750"/><stop offset=".78" stop-color="#eb0878"/><stop offset=".86" stop-color="#e50080"/></radialGradient><radialGradient id="c" cx="49%" cy="40%" gradientTransform="matrix(.813136 0 0 1 .091563 0)" r="129.081%"><stop offset=".3" stop-color="#960e18"/><stop offset=".35" stop-color="#b11927" stop-opacity=".74"/><stop offset=".43" stop-color="#db293d" stop-opacity=".34"/><stop offset=".5" stop-color="#f5334b" stop-opacity=".09"/><stop offset=".53" stop-color="#ff3750" stop-opacity="0"/></radialGradient><radialGradient id="d" cx="48%" cy="-12%" gradientTransform="matrix(1 0 0 .588972 0 -.049323)" r="140%"><stop offset=".13" stop-color="#fff44f"/><stop offset=".53" stop-color="#ff980e"/></radialGradient><radialGradient id="e" cx="22.76%" cy="110.11%" gradientTransform="matrix(1 0 0 .912267 0 .096603)" r="100%"><stop offset=".35" stop-color="#3a8ee6"/><stop offset=".67" stop-color="#9059ff"/><stop offset="1" stop-color="#c139e6"/></radialGradient><radialGradient id="f" cx="46.8%" cy="33%" gradientTransform="matrix(1 0 0 .912267 0 .028952)" r="53.1%"><stop offset=".21" stop-color="#9059ff" stop-opacity="0"/><stop offset=".97" stop-color="#6e008b" stop-opacity=".6"/></radialGradient><radialGradient id="g" cx="210%" cy="-100%" gradientTransform="matrix(1 0 0 .996305 0 -.003695)" r="290%"><stop offset=".1" stop-color="#ffe226"/><stop offset=".79" stop-color="#ff7139"/></radialGradient><radialGradient id="h" cx="84%" cy="-41%" gradientTransform="matrix(.839546 0 0 1 .134781 0)" r="214.401%"><stop offset=".11" stop-color="#fff44f"/><stop offset=".46" stop-color="#ff980e"/><stop offset=".72" stop-color="#ff3647"/><stop offset=".9" stop-color="#e31587"/></radialGradient><radialGradient id="i" cx="15.613%" cy="-18.934%" gradientTransform="matrix(.105306 .47090208 -.99443987 .04986608 -.048598 -.253415)" r="346.225%"><stop offset="0" stop-color="#fff44f"/><stop offset=".3" stop-color="#ff980e"/><stop offset=".57" stop-color="#ff3647"/><stop offset=".74" stop-color="#e31587"/></radialGradient><radialGradient id="j" cx="18.9%" cy="-42.5%" gradientTransform="matrix(.981294 0 0 1 .003535 0)" r="242.944%"><stop offset=".14" stop-color="#fff44f"/><stop offset=".48" stop-color="#ff980e"/><stop offset=".66" stop-color="#ff3647"/><stop offset=".9" stop-color="#e31587"/></radialGradient><radialGradient id="k" cx="159.3%" cy="-44.72%" gradientTransform="matrix(.895531 0 0 1 .166419 0)" r="349.625%"><stop offset=".09" stop-color="#fff44f"/><stop offset=".63" stop-color="#ff980e"/></radialGradient><linearGradient id="l" x1="80%" x2="18%" y1="14%" y2="84%"><stop offset=".17" stop-color="#fff44f" stop-opacity=".8"/><stop offset=".6" stop-color="#fff44f" stop-opacity="0"/></linearGradient><g fill="none"><path d="m74.916 26.831c-1.684-4.052-5.1-8.427-7.775-9.81 1.9079713 3.6951202 3.2320045 7.6635092 3.925 11.764l.007.065c-4.382-10.925-11.813-15.33-17.882-24.922-.3134578-.48899467-.6178432-.98374598-.913-1.484-.1521661-.2613008-.2945972-.52815055-.427-.8-.251709-.48744625-.445687-1.00259551-.578-1.535.0003674-.05086257-.0375035-.09389766-.088-.1-.0238922-.00655267-.0491078-.00655267-.073 0-.005 0-.013.009-.019.011s-.019.011-.028.015l.015-.026c-9.735 5.7-13.038 16.252-13.342 21.53-3.8876973.2672343-7.6046315 1.6998535-10.666 4.111-.3193973-.2705436-.65322-.5235813-1-.758-.8831077-3.0910593-.9207495-6.362439-.109-9.473-3.5750624 1.7319226-6.7517292 4.1870375-9.329 7.21h-.018c-1.536-1.947-1.428-8.367-1.34-9.708-.4544023.1826212-.8881603.4129085-1.294.687-1.3559551.9677602-2.6235701 2.0536659-3.788 3.245-1.32689719 1.3453221-2.53879877 2.7994033-3.623 4.347v.006-.007c-2.49175755 3.5325567-4.25910204 7.5236964-5.2 11.743l-.052.256c-.14295438.8040739-.26997925 1.6108986-.381 2.42 0 .029-.006.056-.009.085-.33926223 1.763343-.54948637 3.5490783-.629 5.343v.2c.01761538 20.1179708 15.4244654 36.8780298 35.4698751 38.5852525s38.0646356-12.2060122 41.4841249-32.0312525c.065-.5.118-.995.176-1.5.7982677-6.5977687-.0659439-13.2904238-2.514-19.469zm-44.67 30.338c.181.087.351.181.537.264l.027.017c-.188-.09-.376-.1836667-.564-.281z" fill="url(#a)"/><path d="m74.916 26.831c-1.684-4.052-5.1-8.427-7.775-9.81 1.9079713 3.6951202 3.2320045 7.6635092 3.925 11.764v.037l.007.041c2.9872772 8.5484587 2.5551764 17.9206749-1.206 26.158-4.442 9.531-15.194 19.3-32.024 18.825-18.185-.515-34.2-14.009-37.194-31.683-.545-2.787 0-4.2.274-6.465-.37377251 1.7593733-.5823456 3.549821-.623 5.348v.2c.01761538 20.1179708 15.4244654 36.8780298 35.4698751 38.5852525s38.0646356-12.2060122 41.4841249-32.0312525c.065-.5.118-.995.176-1.5.7982677-6.5977687-.0659439-13.2904238-2.514-19.469z" fill="url(#b)"/><path d="m74.916 26.831c-1.684-4.052-5.1-8.427-7.775-9.81 1.9079713 3.6951202 3.2320045 7.6635092 3.925 11.764v.037l.007.041c2.9872772 8.5484587 2.5551764 17.9206749-1.206 26.158-4.442 9.531-15.194 19.3-32.024 18.825-18.185-.515-34.2-14.009-37.194-31.683-.545-2.787 0-4.2.274-6.465-.37377251 1.7593733-.5823456 3.549821-.623 5.348v.2c.01761538 20.1179708 15.4244654 36.8780298 35.4698751 38.5852525s38.0646356-12.2060122 41.4841249-32.0312525c.065-.5.118-.995.176-1.5.7982677-6.5977687-.0659439-13.2904238-2.514-19.469z" fill="url(#c)"/><path d="m56.082 31.387c.084.059.162.118.241.177-.9735467-1.7263053-2.1854573-3.3068386-3.6-4.695-12.046-12.048-3.157-26.123-1.658-26.838l.015-.022c-9.735 5.7-13.038 16.252-13.342 21.53.452-.031.9-.069 1.362-.069 7.031718.0128833 13.5153978 3.799166 16.982 9.917z" fill="url(#d)"/><path d="m39.125 33.793c-.064.964-3.47 4.289-4.661 4.289-11.021 0-12.81 6.667-12.81 6.667.488 5.614 4.4 10.238 9.129 12.684.2151563.1098588.4332356.2138966.654.312.3793333.168.7586667.3233333 1.138.466 1.6229684.5743867 3.3228382.9023608 5.043.973 19.317.906 23.059-23.1 9.119-30.066 3.2885504-.4278943 6.6188278.3807091 9.345 2.269-3.4666022-6.117834-9.950282-9.9041167-16.982-9.917-.46 0-.91.038-1.362.069-3.8876973.2672343-7.6046315 1.6998535-10.666 4.111.591.5 1.258 1.168 2.663 2.553 2.63 2.591 9.375 5.275 9.39 5.59z" fill="url(#e)"/><path d="m39.125 33.793c-.064.964-3.47 4.289-4.661 4.289-11.021 0-12.81 6.667-12.81 6.667.488 5.614 4.4 10.238 9.129 12.684.2151563.1098588.4332356.2138966.654.312.3793333.168.7586667.3233333 1.138.466 1.6229684.5743867 3.3228382.9023608 5.043.973 19.317.906 23.059-23.1 9.119-30.066 3.2885504-.4278943 6.6188278.3807091 9.345 2.269-3.4666022-6.117834-9.950282-9.9041167-16.982-9.917-.46 0-.91.038-1.362.069-3.8876973.2672343-7.6046315 1.6998535-10.666 4.111.591.5 1.258 1.168 2.663 2.553 2.63 2.591 9.375 5.275 9.39 5.59z" fill="url(#f)"/><path d="m25.265 24.361c.2700584.1718361.5367748.3488691.8.531-.8831077-3.0910593-.9207495-6.362439-.109-9.473-3.5750624 1.7319226-6.7517292 4.1870375-9.329 7.21.189-.005 5.811-.106 8.638 1.732z" fill="url(#g)"/><path d="m.654 42.163c2.991 17.674 19.009 31.168 37.194 31.683 16.83.476 27.582-9.294 32.024-18.825 3.7611764-8.2373251 4.1932772-17.6095413 1.206-26.158v-.037c0-.029-.006-.046 0-.037l.007.065c1.375 8.977-3.191 17.674-10.329 23.555l-.022.05c-13.908 11.327-27.218 6.834-29.912 5-.188-.09-.376-.1836667-.564-.281-8.109-3.876-11.459-11.264-10.741-17.6-3.9325445.0580347-7.5304727-2.2051213-9.181-5.775 4.3282261-2.6516118 9.7221554-2.8681413 14.249-.572 4.5898535 2.0836587 9.8127545 2.2889569 14.552.572-.015-.315-6.76-3-9.39-5.59-1.405-1.385-2.072-2.052-2.663-2.553-.3193973-.2705436-.65322-.5235813-1-.758-.2650949-.1793567-.531772-.3563636-.8-.531-2.827-1.838-8.449-1.737-8.635-1.732h-.018c-1.536-1.947-1.428-8.367-1.34-9.708-.4544023.1826212-.8881603.4129085-1.294.687-1.3559551.9677602-2.6235701 2.0536659-3.788 3.245-1.33164966 1.341539-2.54857173 2.7922787-3.638 4.337v.006-.007c-2.49175755 3.5325567-4.25910204 7.5236964-5.2 11.743-.019.079-1.396 6.099-.717 9.221z" fill="url(#h)"/><path d="m52.725 26.869c1.414919 1.3896947 2.6268457 2.9719323 3.6 4.7.2009379.1495781.3948138.3084162.581.476 8.787 8.1 4.183 19.55 3.84 20.365 7.138-5.881 11.7-14.578 10.329-23.555-4.384-10.93-11.815-15.335-17.884-24.927-.3134578-.48899467-.6178432-.98374598-.913-1.484-.1521661-.2613008-.2945972-.52815055-.427-.8-.251709-.48744625-.445687-1.00259551-.578-1.535.0003674-.05086257-.0375035-.09389766-.088-.1-.0238922-.00655267-.0491078-.00655267-.073 0-.005 0-.013.009-.019.011s-.019.011-.028.015c-1.499.711-10.388 14.786 1.66 26.834z" fill="url(#i)"/><path d="m56.9 32.04c-.1861862-.1675838-.3800621-.3264219-.581-.476-.079-.059-.157-.118-.241-.177-2.7261722-1.8882909-6.0564496-2.6968943-9.345-2.269 13.94 6.97 10.2 30.972-9.119 30.066-1.7201618-.0706392-3.4200316-.3986133-5.043-.973-.3793333-.142-.7586667-.2973333-1.138-.466-.2205755-.0985131-.4386441-.2025458-.654-.312l.027.017c2.694 1.839 16 6.332 29.912-5l.022-.05c.347-.81 4.951-12.263-3.84-20.36z" fill="url(#j)"/><path d="m21.654 44.749s1.789-6.667 12.81-6.667c1.191 0 4.6-3.325 4.661-4.289-4.7392455 1.7169569-9.9621465 1.5116587-14.552-.572-4.5268446-2.2961413-9.9207739-2.0796118-14.249.572 1.6505273 3.5698787 5.2484555 5.8330347 9.181 5.775-.718 6.337 2.632 13.725 10.741 17.6.181.087.351.181.537.264-4.733-2.445-8.641-7.069-9.129-12.683z" fill="url(#k)"/><path d="m74.916 26.831c-1.684-4.052-5.1-8.427-7.775-9.81 1.9079713 3.6951202 3.2320045 7.6635092 3.925 11.764l.007.065c-4.382-10.925-11.813-15.33-17.882-24.922-.3134578-.48899467-.6178432-.98374598-.913-1.484-.1521661-.2613008-.2945972-.52815055-.427-.8-.251709-.48744625-.445687-1.00259551-.578-1.535.0003674-.05086257-.0375035-.09389766-.088-.1-.0238922-.00655267-.0491078-.00655267-.073 0-.005 0-.013.009-.019.011s-.019.011-.028.015l.015-.026c-9.735 5.7-13.038 16.252-13.342 21.53.452-.031.9-.069 1.362-.069 7.031718.0128833 13.5153978 3.799166 16.982 9.917-2.7261722-1.8882909-6.0564496-2.6968943-9.345-2.269 13.94 6.97 10.2 30.972-9.119 30.066-1.7201618-.0706392-3.4200316-.3986133-5.043-.973-.3793333-.142-.7586667-.2973333-1.138-.466-.2205755-.0985131-.4386441-.2025458-.654-.312l.027.017c-.188-.09-.376-.1836667-.564-.281.181.087.351.181.537.264-4.733-2.446-8.641-7.07-9.129-12.684 0 0 1.789-6.667 12.81-6.667 1.191 0 4.6-3.325 4.661-4.289-.015-.315-6.76-3-9.39-5.59-1.405-1.385-2.072-2.052-2.663-2.553-.3193973-.2705436-.65322-.5235813-1-.758-.8831077-3.0910593-.9207495-6.362439-.109-9.473-3.5750624 1.7319226-6.7517292 4.1870375-9.329 7.21h-.018c-1.536-1.947-1.428-8.367-1.34-9.708-.4544023.1826212-.8881603.4129085-1.294.687-1.3559551.9677602-2.6235701 2.0536659-3.788 3.245-1.32689719 1.3453221-2.53879877 2.7994033-3.623 4.347v.006-.007c-2.49175755 3.5325567-4.25910204 7.5236964-5.2 11.743l-.052.256c-.073.341-.4 2.073-.447 2.445-.29908958 1.7878662-.49010286 3.5921403-.572 5.403v.2c.01761538 20.1179708 15.4244654 36.8780298 35.4698751 38.5852525s38.0646356-12.2060122 41.4841249-32.0312525c.065-.5.118-.995.176-1.5.7982677-6.5977687-.0659439-13.2904238-2.514-19.469z" fill="url(#l)"/><path d="m96.07 7.87h10.76v2.92h-7.68v3.94h7.68v2.89h-7.68v6.38h-3.08zm14.42-1.12c.481645-.01445219.947493.17262915 1.285361.51619186s.517138.81247239.494639 1.29380814c-.070171.93948465-.852898 1.6659291-1.795 1.6659291s-1.724829-.72644445-1.795-1.6659291c-.005413-.48168077.183545-.9452129.524166-1.28583414s.804153-.52957852 1.285834-.52416586zm-1.49 5.31h3v11.94h-3zm11.86 3.31c-.421723-.3344404-.941842-.5206994-1.48-.53-1.23 0-1.94.8-1.94 2.54v6.62h-3v-11.94h2.89v1.72c.454969-1.1278309 1.575477-1.8427071 2.79-1.78.713558.0027291 1.41002.2186325 2 .62zm1.26 2.71c-.046156-1.6513819.58056-3.2506592 1.736399-4.4310103s2.741614-1.8404853 4.393601-1.8289897c1.633314-.0678348 3.220933.5484975 4.380646 1.7006183s1.78646 2.7356572 1.729354 4.3693817v1.25h-9.27c.308623 1.5441871 1.719578 2.6163412 3.29 2.5 1.262293.0562112 2.438796-.6379255 3-1.77l2.54 1.52c-1.218548 1.8750262-3.347279 2.9546511-5.58 2.83-1.675553.1336239-3.326668-.4662186-4.525729-1.6441763s-1.828125-2.8181626-1.724271-4.4958237zm3-1.34h6.26c-.316035-1.4698529-1.671255-2.4787869-3.17-2.36-1.465342-.0577887-2.76567.9321385-3.1 2.36zm10-4.68h2.13v-.59c0-3.24 1.37-4.59 4.37-4.59h1.06v2.63h-.86c-1.41 0-1.72.48-1.72 2v.59h2.58v2.7h-2.51v9.2h-2.92v-9.2h-2.13zm8.13 6c-.027478-1.6561002.619675-3.2521752 1.792761-4.4214886 1.173085-1.1693134 2.771236-1.8113228 4.427239-1.7785114 3.424165 0 6.2 2.7758346 6.2 6.2s-2.775835 6.2-6.2 6.2c-1.682021.0746133-3.317997-.5609268-4.508535-1.7514648-1.190538-1.1905379-1.826078-2.8265144-1.751465-4.5085352zm9.49 0c.066967-1.2095894-.540278-2.3570849-1.578073-2.9820434-1.037794-.6249585-2.33606-.6249585-3.373854 0-1.037795.6249585-1.64504 1.772454-1.578073 2.9820434-.066967 1.2095894.540278 2.3570849 1.578073 2.9820434 1.037794.6249585 2.33606.6249585 3.373854 0 1.037795-.6249585 1.64504-1.772454 1.578073-2.9820434zm7.05-.13-4.3-5.83h3.51l2.54 3.67 2.6-3.67h3.51l-4.37 5.8 4.61 6.1h-3.55l-2.85-3.88-2.75 3.88h-3.55zm25.7-2.27c1.345048-.632965 2.185843-2.0041682 2.14-3.49 0-2.61-2-4.29-5-4.29h-6.9v16.12h7.12c3 0 5.1-1.73 5.1-4.55.076045-1.6597316-.913112-3.1836764-2.46-3.79zm-7.91-6.1h5c2 0 3.18 1.06 3.18 2.61s-1.06 2.69-3 2.69h-5.19zm5.25 12.75h-5.25v-5.75h5.17c2.2 0 3.35 1.17 3.35 2.88s-1.28 2.87-3.27 2.87zm9.06-8v-2.23h-1.74v11.92h1.79v-6.53c0-2.63 1.14-3.78 3.13-3.78.513398-.0192191 1.021117.1129269 1.46.38l.75-1.72c-.613921-.3275234-1.304959-.483007-2-.45-1.563539-.0973224-2.980023.9180331-3.39 2.43zm11.66-2.49c-1.647459-.0162942-3.231903.6323373-4.395006 1.7992039-1.163102 1.1668667-1.806611 2.7533987-1.784994 4.4007961-.035569 1.6524151.603114 3.2481017 1.768986 4.4196327 1.165871 1.171531 2.758446 1.8179343 4.411014 1.7903673 2.27625.091398 4.41982-1.070872 5.58515-3.0283377 1.165331-1.9574656 1.165331-4.395859 0-6.3533246-1.16533-1.9574657-3.3089-3.1197357-5.58515-3.0283377zm0 10.69c-1.184626.0093748-2.321123-.4681447-3.143544-1.3208163-.822422-.8526717-1.258596-2.0056687-1.206456-3.1891837-.07705-1.6093095.737652-3.1304688 2.119928-3.9581927s3.107868-.8277239 4.490144 0 2.196978 2.3488832 2.119928 3.9581927c.04931 1.1897791-.391284 2.3477565-1.219014 3.2038338-.827731.8560772-1.970221 1.3354-3.160986 1.3261662zm20.74-1.06-3.55-9.39h-1.68l-3.65 9.45-3-9.45h-1.9l3.91 11.94h1.77l3.66-9.46 3.67 9.46h1.63l4.14-11.93h-1.88zm11.38-4.35c-1.86-.38-3.29-.62-3.29-1.86s.75-1.9 2.58-1.9c1.300453-.0346704 2.530461.5897377 3.27 1.66l1.5-1c-1.13729-1.4413074-2.895425-2.2516106-4.73-2.18-2.82 0-4.44 1.61-4.44 3.46 0 2.39 2.19 2.94 4.24 3.34 1.75.35 3.38.62 3.38 1.94s-1 2.08-2.82 2.08c-1.535014.0632703-2.992773-.675075-3.85-1.95l-1.57 1.06c1.235584 1.7078952 3.267648 2.6539215 5.37 2.5 3.12 0 4.71-1.83 4.71-3.71-.02-2.45-2.3-3.03-4.35-3.42zm12-5.28c-1.663175-.02756-3.26592.6230596-4.439291 1.8020899s-1.816271 2.7848866-1.780709 4.4479101c-.046547 1.6704341.605654 3.2846015 1.799561 4.4538332s2.821341 1.7875842 4.490439 1.7061668c2.25961.1025506 4.390997-1.0516303 5.54-3l-1.54-.9c-.768669 1.4830748-2.331563 2.3817385-4 2.3-2.307325.1234692-4.303308-1.5905209-4.53-3.89h10.54v-.82c.053283-1.6265159-.568767-3.202594-1.718557-4.3542781-1.14979-1.1516842-2.724842-1.7763279-4.351443-1.7257219zm-4.41 5.3c.363572-2.1465395 2.232987-3.7107435 4.41-3.69 2.17744-.1262391 4.054621 1.5151827 4.22 3.69zm17.8-5.24c-1.567178-.1022458-2.989288.9141452-3.4 2.43v-2.23h-1.75v11.92h1.79v-6.53c0-2.63 1.15-3.78 3.14-3.78.513398-.0192191 1.021117.1129269 1.46.38l.75-1.72c-.608354-.3230989-1.291756-.4784176-1.98-.45zm-152.06 20.56-14.78 39.17h7.78l2.58-7.14h16.36l2.58 7.14h7.78l-14.81-39.17zm-1.9 25.17 5.69-15.56 5.63 15.56zm39.76-25.17h-12.66v39.17h12.8c11.69 0 20.28-8.42 20.28-19.58s-7.98-19.59-20.42-19.59zm-.32 32.09h-4.73v-25.06h4.51c8.58 0 13.31 5.37 13.31 12.56 0 7.03-5.15 12.5-13.09 12.5zm38-32.09h-12.68v39.17h12.82c11.7 0 20.32-8.42 20.32-19.61s-8-19.56-20.48-19.56zm-.32 32.09h-4.72v-25.06h4.5c8.59 0 13.31 5.37 13.31 12.56-.02 7.03-5.17 12.5-13.11 12.5zm25.22-9.31h19.85v-6.39h-19.87zm43.76-23.3103041c-8.141417-.0037333-15.48286 4.8990337-18.59844 12.4207259s-1.391162 16.1796532 4.368554 21.9336405c5.759715 5.7539873 14.419388 7.4697897 21.937976 4.3467271 7.518589-3.1230626 12.414048-10.4693801 12.402114-18.6107894.023903-5.3390243-2.087726-10.4660533-5.864902-14.2394734-3.777177-3.7734201-8.906304-5.879946-14.245302-5.8508307zm0 32.7803041c-5.149215.0771048-9.834443-2.9653486-11.858619-7.7006491s-.985875-10.2243634 2.628009-13.8931784c3.613884-3.6688149 9.08666-4.789798 13.851956-2.8372818 4.765295 1.9525162 7.878077 6.5913171 7.878654 11.7411093.06189 3.3512149-1.228995 6.5860382-3.581123 8.9739179-2.352127 2.3878796-5.56711 3.7274137-8.918877 3.7160821zm49.89-5.58-17.16-26.67h-8.11v39.17h7.35v-27.52l17.71 27.52h7.51v-39.17h-7.3zm28.55-11c-4.89-1.12-8.8-1.71-8.8-4.88 0-2.57 1.82-4.67 6.06-4.67 3.724603-.1860077 7.249156 1.6934975 9.17 4.89l6.17-4.83c-4-4.4-8.31-6.81-15.23-6.81-8.16 0-13.9 5.15-13.9 11.58 0 7.94 6.55 9.82 12.39 11.05 5.42 1.24 9.18 2 9.18 5.64 0 2.84-2.2 4.88-6.44 4.88-4.67 0-8.15-2.09-10.73-6.17l-6.6 5.26c3.7 4.72 8.85 8 17.28 8 8.74 0 14.38-5.57 14.38-12.28 0-8.39-6.93-10.32-12.93-11.61z" fill="#000"/></g></svg>