<svg width="132" height="20" viewBox="0 0 132 20" fill="none" xmlns="http://www.w3.org/2000/svg">
<path d="M13.0389 6.36039L10.462 0.794593C10.2802 0.401802 9.71983 0.401802 9.53797 0.794594L6.96112 6.36039C6.887 6.52048 6.73472 6.6307 6.559 6.65146L0.449519 7.37314C0.0183585 7.42407 -0.154797 7.955 0.163971 8.24869L4.68087 12.4102C4.81078 12.5299 4.86895 12.7083 4.83446 12.8812L3.63545 18.893C3.55083 19.3173 4.00416 19.6454 4.38303 19.4341L9.75148 16.4403C9.90589 16.3542 10.0941 16.3542 10.2485 16.4403L15.617 19.4341C15.9958 19.6454 16.4492 19.3173 16.3645 18.893L15.1655 12.8812C15.1311 12.7083 15.1892 12.5299 15.3191 12.4102L19.836 8.24869C20.1548 7.955 19.9816 7.42407 19.5505 7.37314L13.441 6.65146C13.2653 6.6307 13.113 6.52048 13.0389 6.36039Z" fill="#F1A43B"/>
<path d="M41.0389 6.36039L38.462 0.794593C38.2802 0.401802 37.7198 0.401802 37.538 0.794594L34.9611 6.36039C34.887 6.52048 34.7347 6.6307 34.559 6.65146L28.4495 7.37314C28.0184 7.42407 27.8452 7.955 28.164 8.24869L32.6809 12.4102C32.8108 12.5299 32.8689 12.7083 32.8345 12.8812L31.6355 18.893C31.5508 19.3173 32.0042 19.6454 32.383 19.4341L37.7515 16.4403C37.9059 16.3542 38.0941 16.3542 38.2485 16.4403L43.617 19.4341C43.9958 19.6454 44.4492 19.3173 44.3645 18.893L43.1655 12.8812C43.1311 12.7083 43.1892 12.5299 43.3191 12.4102L47.836 8.24869C48.1548 7.955 47.9816 7.42407 47.5505 7.37314L41.441 6.65146C41.2653 6.6307 41.113 6.52048 41.0389 6.36039Z" fill="#F1A43B"/>
<path d="M69.0389 6.36039L66.462 0.794593C66.2802 0.401802 65.7198 0.401802 65.538 0.794594L62.9611 6.36039C62.887 6.52048 62.7347 6.6307 62.559 6.65146L56.4495 7.37314C56.0184 7.42407 55.8452 7.955 56.164 8.24869L60.6809 12.4102C60.8108 12.5299 60.8689 12.7083 60.8345 12.8812L59.6355 18.893C59.5508 19.3173 60.0042 19.6454 60.383 19.4341L65.7515 16.4403C65.9059 16.3542 66.0941 16.3542 66.2485 16.4403L71.617 19.4341C71.9958 19.6454 72.4492 19.3173 72.3645 18.893L71.1655 12.8812C71.1311 12.7083 71.1892 12.5299 71.3191 12.4102L75.836 8.24869C76.1548 7.955 75.9816 7.42407 75.5505 7.37314L69.441 6.65146C69.2653 6.6307 69.113 6.52048 69.0389 6.36039Z" fill="#F1A43B"/>
<path d="M97.0389 6.36039L94.462 0.794593C94.2802 0.401802 93.7198 0.401802 93.538 0.794594L90.9611 6.36039C90.887 6.52048 90.7347 6.6307 90.559 6.65146L84.4495 7.37314C84.0184 7.42407 83.8452 7.955 84.164 8.24869L88.6809 12.4102C88.8108 12.5299 88.8689 12.7083 88.8345 12.8812L87.6355 18.893C87.5508 19.3173 88.0042 19.6454 88.383 19.4341L93.7515 16.4403C93.9059 16.3542 94.0941 16.3542 94.2485 16.4403L99.617 19.4341C99.9958 19.6454 100.449 19.3173 100.365 18.893L99.1655 12.8812C99.1311 12.7083 99.1892 12.5299 99.3191 12.4102L103.836 8.24869C104.155 7.955 103.982 7.42407 103.55 7.37314L97.441 6.65146C97.2653 6.6307 97.113 6.52048 97.0389 6.36039Z" fill="#F1A43B"/>
<path d="M125.039 6.36039L122.462 0.794593C122.28 0.401802 121.72 0.401802 121.538 0.794594L118.961 6.36039C118.887 6.52048 118.735 6.6307 118.559 6.65146L112.45 7.37314C112.018 7.42407 111.845 7.955 112.164 8.24869L116.681 12.4102C116.811 12.5299 116.869 12.7083 116.834 12.8812L115.635 18.893C115.551 19.3173 116.004 19.6454 116.383 19.4341L121.751 16.4403C121.906 16.3542 122.094 16.3542 122.249 16.4403L127.617 19.4341C127.996 19.6454 128.449 19.3173 128.365 18.893L127.166 12.8812C127.131 12.7083 127.189 12.5299 127.319 12.4102L131.836 8.24869C132.155 7.955 131.982 7.42407 131.55 7.37314L125.441 6.65146C125.265 6.6307 125.113 6.52048 125.039 6.36039Z" fill="#F1A43B"/>
</svg>
