<svg fill="none" height="24" viewBox="0 0 24 24" width="24" xmlns="http://www.w3.org/2000/svg"><path d="m14.2512 24h-4.50196c-.58116 0-1.084-.3924-1.20837-.9432l-.50338-2.2608c-.67153-.2855-1.30827-.6425-1.89851-1.0644l-2.27202.702c-.55409.1714-1.15644-.0548-1.44707-.5436l-2.255944-3.7812c-.28745-.489-.1884179-1.1058.238704-1.4868l1.76246-1.56c-.08015-.7067-.08015-1.4197 0-2.1264l-1.76246-1.5564c-.427751-.38116-.526823-.99874-.238704-1.488l2.250994-3.7836c.29064-.48876.89298-.71504 1.44707-.5436l2.27203.702c.30185-.21701.61609-.41733.94121-.6.3121-.17077.63329-.32538.96224-.4632l.50462-2.2584c.12376-.550837.62606-.94380673 1.20713-.9444h4.50196c.5811.00059327 1.0834.393563 1.2072.9444l.5095 2.2596c.3473.14822.6855.3157 1.013.5016.3058.17133.6015.35923.8855.5628l2.2733-.702c.5537-.1708 1.1553.05539 1.4458.5436l2.251 3.7836c.2875.48898.1884 1.10582-.2387 1.4868l-1.7624 1.56c.0801.7067.0801 1.4197 0 2.1264l1.7624 1.56c.4271.381.5262.9978.2387 1.4868l-2.251 3.7836c-.2905.4882-.8921.7144-1.4458.5436l-2.2733-.702c-.2876.2056-.5865.3958-.8954.57-.3243.1823-.6587.3469-1.0018.4932l-.5108 2.2548c-.1243.5504-.6265.9427-1.2072.9432zm-2.2559-16.8c-2.7323 0-4.94726 2.14903-4.94726 4.8 0 2.651 2.21496 4.8 4.94726 4.8s4.9472-2.149 4.9472-4.8c0-2.65097-2.2149-4.8-4.9472-4.8z" fill="#3ecf8e"/></svg>