<svg fill="none" height="25" viewBox="0 0 26 25" width="26" xmlns="http://www.w3.org/2000/svg"><g stroke="#3ecf8e" stroke-linecap="round" stroke-linejoin="round" stroke-width="2"><path d="m17 9.12475v-.11916c0-.97-.7858-1.75583-1.7558-1.75583h-.1192-1.3692c-.97 0-1.7558.78583-1.7558 1.75583 0 .805.5475 1.50671 1.3283 1.70251l2.3434.5875c.7808.1958 1.3283.8983 1.3283 1.7033 0 .9692-.7858 1.7559-1.7558 1.7559h-1.3692v-.0042h-.1192c-.97-.0009-1.7558-.7867-1.7558-1.7567v-.1191"/><path d="m14.5 6v.79167"/><path d="m14.5 15.9994v-.7916"/><path d="m22.0711 3.92894c3.9052 3.90525 3.9052 10.23686 0 14.14216-3.9053 3.9052-10.2369 3.9052-14.14216 0-3.90525-3.9053-3.90525-10.23694 0-14.14216 3.90526-3.9052522 10.23686-3.9052522 14.14216 0"/></g><path d="m5.65625 17 2.12132 2.1213-4.59619 4.5962c-.58579.5858-1.53554.5858-2.12132 0-.58579-.5858-.585791-1.5355 0-2.1213z" fill="#3ecf8e"/></svg>