<svg height="170" viewBox="0 0 1440 170" width="1440" xmlns="http://www.w3.org/2000/svg"><g fill="#fea089" fill-rule="evenodd"><path d="m0 0c90.691156 1.1407348 147.852131 33.4375 291.790541 73.6835938 95.958939 26.8307292 251.591736 36.1861982 466.898388 28.0664062-289.545218 90.421875-542.441528 87.240885-758.688929-9.5429687" opacity=".1"/><path d="m100.462578 129.703125c177.495315-39.9304845 326.29859-64.1661616 446.409823-72.7070313 120.111234-8.5408696 264.443355-4.6489425 432.996362 11.6757813-47.952183 1.2890625-168.774688 24.3111979-362.467516 69.066406-193.692827 44.755209-366.005717 42.076823-516.938669-8.035156z" opacity=".1"/><path d="m1045.79002 63.3984375c84.90904-27.5195313 233.29912-41.96875 393.36409-14.1601563v98.4174168c-167.98337-51.8459863-299.10473-79.9317397-393.36409-84.2572605z" opacity=".2"/></g></svg>