<svg height="16" viewBox="0 0 20 16" width="20" xmlns="http://www.w3.org/2000/svg"><path d="m16.8962721 14.2223226-5.0780903-4.96524388-1.1753575 1.14923838c-.355022.3471327-.93062656.3471327-1.28564865 0l-1.17535747-1.14923838-5.08090861 4.96799958c3.05570434-.0016847 10.73764513-.0024928 13.79536253-.0027557zm1.285307-1.2574128c.0004195-2.3852312.0003421-7.54169503.0002788-9.93009213l-5.0780274 4.96518233zm-16.36343699.0002725 5.07802738-4.9651823-5.07774863-4.96490977c-.00041948 2.38523114-.00034206 7.54169497-.00027875 9.93009207zm1.28147919-11.18750451 6.9003787 6.77238528 6.9031891-6.77514359c-3.0542951.00168697-10.74726119.00249565-13.8035678.00275831zm-1.28061676-1.77767779h16.36199096c1.0046084 0 1.8190045.79344249 1.8190045 1.7734127v12.4531746c0 .9794288-.8150415 1.7734127-1.8190045 1.7734127h-16.36199096c-1.00460847 0-1.81900454-.7934425-1.81900454-1.7734127v-12.4531746c0-.97942879.81504147-1.7734127 1.81900454-1.7734127z" fill="#666" fill-rule="evenodd"/></svg>