<svg width="20" height="20" viewBox="0 0 20 20" fill="none" xmlns="http://www.w3.org/2000/svg">
<path d="M11.5233 8.47672C10.8982 7.85182 10.0505 7.50077 9.16661 7.50077C8.28273 7.50077 7.43504 7.85182 6.80994 8.47672L3.47661 11.8101C3.15824 12.1175 2.9043 12.4854 2.72961 12.892C2.55491 13.2987 2.46296 13.7361 2.45911 14.1787C2.45526 14.6213 2.5396 15.0602 2.70721 15.4699C2.87481 15.8796 3.12232 16.2517 3.43529 16.5647C3.74827 16.8777 4.12044 17.1252 4.5301 17.2928C4.93975 17.4604 5.37868 17.5447 5.82128 17.5409C6.26388 17.537 6.70128 17.4451 7.10796 17.2704C7.51464 17.0957 7.88246 16.8418 8.18995 16.5234L9.10828 15.6059M8.47661 11.5234C9.1017 12.1483 9.9494 12.4993 10.8333 12.4993C11.7172 12.4993 12.5649 12.1483 13.1899 11.5234L16.5233 8.19006C17.1305 7.56138 17.4665 6.71937 17.4589 5.84538C17.4513 4.9714 17.1007 4.13535 16.4827 3.51733C15.8646 2.8993 15.0286 2.54874 14.1546 2.54114C13.2806 2.53355 12.4386 2.86953 11.8099 3.47672L10.8933 4.39339" stroke="#000" stroke-width="1.5" stroke-linecap="round" stroke-linejoin="round"/>
</svg>
