<svg fill="none" height="19" viewBox="0 0 19 19" width="19" xmlns="http://www.w3.org/2000/svg"><path d="m9.83708 18.906c-.53072.0016-1.03996-.2095-1.414-.586l-7.837004-7.835c-.413528-.4122-.6255273-.98492-.58000038-1.567l.50000038-6.566c.071418-.98832.859414-1.77333 1.848004-1.840997l6.566-.5000001c.052-.01100148.103-.01100147.155-.01100147.52965-.00063428 1.03762.21032957 1.41102.58600157l7.837 7.833997c.3752.3751.586.88393.586 1.4145 0 .5306-.2108 1.0394-.586 1.4145l-7.072 7.071c-.3742.3763-.8833.5873-1.41402.586zm-4.243-15.314c-.90518.00026-1.69734.60844-1.93141 1.48283-.23406.87439.14832 1.79698.93232 2.24942.78399.45243 1.77412.32191 2.41409-.31825l.007-.006.007-.007-.008.007c.56843-.57344.7363-1.43244.42556-2.17769s-1.03913-1.23055-1.84656-1.23031z" fill="#979797"/></svg>