<svg xmlns="http://www.w3.org/2000/svg" height="32" width="32"><path d="M16 0a16 16 0 0 1 16 15.993c0 2.412-.534 4.7-1.49 6.75l1.404 6.717c.362 1.73-.742 2.838-2.472 2.47l-6.7-1.424c-2.046.95-4.327 1.48-6.73 1.48A16 16 0 0 1 0 15.993 16 16 0 0 1 16 0zm0 3.2A12.8 12.8 0 0 0 3.2 15.993 12.8 12.8 0 0 0 16 28.787c1.888 0 3.713-.407 5.383-1.182l.968-.45 6.083 1.3-1.275-6.1.45-.964c.78-1.674 1.19-3.504 1.19-5.398A12.8 12.8 0 0 0 16 3.199zm0 10.395a2.4 2.4 0 0 1 2.4 2.399 2.4 2.4 0 0 1-4.8 0 2.4 2.4 0 0 1 2.4-2.399zm-6.4 0a2.4 2.4 0 0 1 2.4 2.399 2.4 2.4 0 1 1-4.8 0 2.4 2.4 0 0 1 2.4-2.399zm12.8 0a2.4 2.4 0 0 1 2.4 2.399 2.4 2.4 0 1 1-4.8 0 2.4 2.4 0 0 1 2.4-2.399z" fill="#030303" fill-rule="evenodd"/></svg>