<svg height="11" viewBox="0 0 12 11" width="12" xmlns="http://www.w3.org/2000/svg"><path d="m8.571162 0c1.889236 0 3.428838 1.513353 3.428838 3.379265 0 1.932337-1.146393 3.634553-3.069208 5.183856-.485212.390958-.995513.752243-1.556176 1.11374-.31152.200857-1.099157.683511-1.089133.677174l-.286645.181231-.281995-.188386c.02746.018344-.776022-.504819-1.091273-.719647-.56064-.382048-1.071975-.760727-1.557811-1.164806-.67019389-.55741179-1.24591896-1.1239377-1.71159899-1.70216055-.87022445-1.08053521-1.35616001-2.20191739-1.35616001-3.38100145 0-1.865785 1.53988-3.379265 3.42911-3.379265.99413 0 1.919699.414184 2.571015 1.143178.651258-.729023 1.576817-1.143178 2.571037-1.143178z" fill="#f1787e"/></svg>