<svg height="18" viewBox="0 0 18 18" width="18" xmlns="http://www.w3.org/2000/svg"><path d="m978.645579 272.596685 13.642274.836391c.472225.02633.784077.427477.697809.889212l-1.116487 5.975754c-.086835.464768-.54077.841537-1.014172.841537h-10.236775l.198018.857553h9.609137c.473699 0 .857708.383939.857708.857552 0 .473614-.384009.857553-.857708.857553h-10.292502c-.399397 0-.745936-.275626-.835744-.664724l-2.480935-10.748763-1.341157-.673627c-.42389-.211405-.596112-.726351-.384669-1.150164s.726482-.596004 1.150373-.384599l1.701858.848759c.229192.114304.3953.325034.452892.574553zm1.576611 6.827786 10.065178-.000367.812267-4.347485-12.051606-.737054zm8.487776 8.575529c-.947399 0-1.715417-.767879-1.715417-1.715105 0-.947227.768018-1.715105 1.715417-1.715105s1.715417.767878 1.715417 1.715105c0 .947226-.768018 1.715105-1.715417 1.715105zm-7.719377 0c-.947398 0-1.715417-.767879-1.715417-1.715105 0-.947227.768019-1.715105 1.715417-1.715105.947399 0 1.715417.767878 1.715417 1.715105 0 .947226-.768018 1.715105-1.715417 1.715105z" fill="#fff" fill-rule="evenodd" transform="translate(-975 -270)"/></svg>