<svg height="26" viewBox="0 0 26 26" width="26" xmlns="http://www.w3.org/2000/svg"><path d="m777.435 1409c-.792761 0-1.435-.64264-1.435-1.43509v-23.12992c0-.79265.64234-1.43499 1.435-1.43499h23.1301c.792459 0 1.4349.64234 1.4349 1.43499v23.12992c0 .79255-.642542 1.43509-1.4349 1.43509h-6.625476v-10.06863h3.379575l.506043-3.92393h-3.885618v-2.50518c0-1.13606.31547-1.91025 1.944575-1.91025l2.077845-.00091v-3.50959c-.359356-.04782-1.592786-.15466-3.027787-.15466-2.995805 0-5.046815 1.82864-5.046815 5.1868v2.89379h-3.388251v3.92393h3.388251v10.06863z" fill="#4460a0" fill-rule="evenodd" transform="translate(-776 -1383)"/></svg>