<svg fill="none" height="17" viewBox="0 0 16 17" width="16" xmlns="http://www.w3.org/2000/svg"><path d="m14.7012 6.57587-6.12501-5.35937c-.3299-.288665-.82248-.288665-1.15238 0l-6.125 5.35937c-.18989.16615-.29881.40619-.29881.65851v7.47792c0 .4833.39175.875.875.875h3.5c.48325 0 .875-.3917.875-.875v-3.5c0-.4832.39175-.875.875-.875h1.75c.48325 0 .875.3918.875.875v3.5c0 .4833.3918.875.875.875h3.5c.4832 0 .875-.3917.875-.875v-7.47792c0-.25232-.1089-.49236-.2988-.65851z" stroke="#c4c4c4" stroke-linecap="round" stroke-linejoin="round"/></svg>