<svg height="54" viewBox="0 0 71 54" width="71" xmlns="http://www.w3.org/2000/svg" xmlns:xlink="http://www.w3.org/1999/xlink"><defs><path id="a" d="m36.5714286 34.7368421-4.5714286 9.2631579-4.5714286-9.2631579h-16.1785714c-6.21320344 0-11.25-5.0367966-11.25-11.25v-12.2368421c0-6.21320344 5.03679656-11.25 11.25-11.25h25.5c6.2132034 0 11.25 5.03679656 11.25 11.25v12.2368421c0 6.2132034-5.0367966 11.25-11.25 11.25z"/><filter id="b" height="131.8%" width="129.2%" x="-14.6%" y="-11.4%"><feOffset dx="0" dy="2" in="SourceAlpha" result="shadowOffsetOuter1"/><feGaussianBlur in="shadowOffsetOuter1" result="shadowBlurOuter1" stdDeviation="2"/><feColorMatrix in="shadowBlurOuter1" type="matrix" values="0 0 0 0 0   0 0 0 0 0   0 0 0 0 0  0 0 0 0.5 0"/></filter></defs><g fill="none" fill-rule="evenodd" transform="translate(4 2)"><path d="m55.5714286 42.7368421-4.5714286 9.2631579-4.5714286-9.2631579h-16.1785714c-6.2132034 0-11.25-5.0367966-11.25-11.25v-12.2368421c0-6.2132034 5.0367966-11.25 11.25-11.25h25.5c6.2132034 0 11.25 5.0367966 11.25 11.25v12.2368421c0 6.2132034-5.0367966 11.25-11.25 11.25z" fill="#ffc2c2"/><use fill="#000" filter="url(#b)" xlink:href="#a"/><use fill="#ffc2c2" fill-rule="evenodd" xlink:href="#a"/></g></svg>