<svg fill="none" height="14" viewBox="0 0 14 14" width="14" xmlns="http://www.w3.org/2000/svg"><g stroke="#fe4850" stroke-linecap="round" stroke-linejoin="round"><path d="m6.16953 1.30586c.47855-.407814 1.18239-.407814 1.66094 0l.81398.69367c.20507.17476.46004.28037.72862.3018l1.06603.08507c.6268.05002 1.1245.54771 1.1745 1.17447l.0851 1.06606c.0214.26858.127.52355.3018.72862l.6936.81398c.4079.47855.4079 1.18239 0 1.66094l-.6936.81398c-.1748.20507-.2804.46004-.3018.72862l-.0851 1.06603c-.05.6268-.5477 1.1245-1.1745 1.1745l-1.06603.0851c-.26858.0214-.52355.127-.72862.3018l-.81398.6936c-.47855.4079-1.18239.4079-1.66094 0l-.81398-.6936c-.20507-.1748-.46004-.2804-.72862-.3018l-1.06606-.0851c-.62676-.05-1.12445-.5477-1.17447-1.1745l-.08507-1.06603c-.02143-.26858-.12704-.52355-.3018-.72862l-.69367-.81398c-.407814-.47855-.407814-1.18239 0-1.66094l.69367-.81398c.17476-.20507.28037-.46004.3018-.72862l.08507-1.06606c.05002-.62676.54771-1.12445 1.17447-1.17447l1.06606-.08507c.26858-.02143.52355-.12704.72862-.3018z"/><path d="m9 5.6665-2.66667 2.66667-1.33333-1.33333"/></g></svg>