<svg xmlns="http://www.w3.org/2000/svg" height="11" width="27" fill="#fe4850" fill-rule="evenodd"><path d="M26.4 0c.33 0 .6.263.6.6v3.7c0 .33-.263.6-.6.6h-3.7c-.33 0-.6-.263-.6-.6V.6c0-.33.263-.6.6-.6zm-.623 1.222h-2.444v2.444h2.444zM20.3 0c.33 0 .6.263.6.6v3.7c0 .33-.263.6-.6.6h-3.7c-.33 0-.6-.263-.6-.6V.6c0-.33.263-.6.6-.6zm-.623 1.222h-2.444v2.444h2.444zM16 6.7c0-.33.263-.6.6-.6h3.7c.33 0 .6.263.6.6v3.7c0 .33-.263.6-.6.6h-3.7c-.33 0-.6-.263-.6-.6zm1.222.623v2.444h2.444V7.333zm4.9-.623c0-.33.263-.6.6-.6h3.7c.33 0 .6.263.6.6v3.7c0 .33-.263.6-.6.6h-3.7c-.33 0-.6-.263-.6-.6zm1.222.623v2.444h2.444V7.333zM2.618 1.737l.452-1.2C3.182.24 3.518 0 3.816 0h4.37c.3 0 .634.242.746.538l.452 1.2h1.527c.603 0 1.1.518 1.1 1.16V9.84c0 .64-.5 1.16-1.1 1.16H1.1C.5 11 0 10.482 0 9.84V2.896c0-.64.5-1.16 1.1-1.16zM1.1 2.895V9.84l9.818.001V2.896L8.92 2.895a.43.43 0 0 1-.375-.256l-.56-1.48H4l-.558 1.48c-.053.142-.218.256-.374.256zM3.27 6.08c0-1.6 1.22-2.895 2.727-2.895s2.73 1.296 2.73 2.896S7.506 8.974 6 8.974 3.273 7.678 3.273 6.08zm4.364 0c0-.96-.733-1.737-1.636-1.737S4.364 5.12 4.364 6.08 5.096 7.816 6 7.816s1.636-.778 1.636-1.737z"/></svg>