<svg width="20" height="21" viewBox="0 0 20 21" fill="none" xmlns="http://www.w3.org/2000/svg">
<path fill-rule="evenodd" clip-rule="evenodd" d="M3 17.5C3 17.2348 3.10536 16.9804 3.29289 16.7929C3.48043 16.6054 3.73478 16.5 4 16.5H16C16.2652 16.5 16.5196 16.6054 16.7071 16.7929C16.8946 16.9804 17 17.2348 17 17.5C17 17.7652 16.8946 18.0196 16.7071 18.2071C16.5196 18.3946 16.2652 18.5 16 18.5H4C3.73478 18.5 3.48043 18.3946 3.29289 18.2071C3.10536 18.0196 3 17.7652 3 17.5ZM6.293 9.793C6.48053 9.60553 6.73484 9.50021 7 9.50021C7.26516 9.50021 7.51947 9.60553 7.707 9.793L9 11.086V3.5C9 3.23478 9.10536 2.98043 9.29289 2.79289C9.48043 2.60536 9.73478 2.5 10 2.5C10.2652 2.5 10.5196 2.60536 10.7071 2.79289C10.8946 2.98043 11 3.23478 11 3.5V11.086L12.293 9.793C12.3852 9.69749 12.4956 9.62131 12.6176 9.5689C12.7396 9.51649 12.8708 9.4889 13.0036 9.48775C13.1364 9.4866 13.2681 9.5119 13.391 9.56218C13.5139 9.61246 13.6255 9.68671 13.7194 9.78061C13.8133 9.8745 13.8875 9.98615 13.9378 10.109C13.9881 10.2319 14.0134 10.3636 14.0123 10.4964C14.0111 10.6292 13.9835 10.7604 13.9311 10.8824C13.8787 11.0044 13.8025 11.1148 13.707 11.207L10.707 14.207C10.5195 14.3945 10.2652 14.4998 10 14.4998C9.73484 14.4998 9.48053 14.3945 9.293 14.207L6.293 11.207C6.10553 11.0195 6.00021 10.7652 6.00021 10.5C6.00021 10.2348 6.10553 9.98053 6.293 9.793Z" fill="#FEFEFF"/>
</svg>
