<svg width="20" height="20" viewBox="0 0 20 20" fill="none" xmlns="http://www.w3.org/2000/svg">
<path d="M7.23665 11.1184C7.40498 10.7817 7.49998 10.4017 7.49998 10.0001C7.49998 9.59839 7.40498 9.21839 7.23665 8.88172M7.23665 11.1184C6.98474 11.622 6.57015 12.0259 6.06006 12.2645C5.54997 12.5031 4.97426 12.5626 4.42619 12.4331C3.87812 12.3037 3.38979 11.993 3.04033 11.5514C2.69087 11.1099 2.50073 10.5632 2.50073 10.0001C2.50073 9.43691 2.69087 8.89026 3.04033 8.44866C3.38979 8.00707 3.87812 7.69639 4.42619 7.56697C4.97426 7.43755 5.54997 7.49696 6.06006 7.73559C6.57015 7.97421 6.98474 8.37806 7.23665 8.88172M7.23665 11.1184L12.7633 13.8817M7.23665 8.88172L12.7633 6.11839M12.7633 13.8817C12.4667 14.4749 12.4179 15.1617 12.6276 15.7908C12.8374 16.42 13.2885 16.9401 13.8817 17.2367C14.4749 17.5333 15.1616 17.5821 15.7908 17.3724C16.4199 17.1627 16.9401 16.7116 17.2367 16.1184C17.5333 15.5252 17.5821 14.8385 17.3723 14.2093C17.1626 13.5801 16.7115 13.06 16.1183 12.7634C15.8246 12.6165 15.5048 12.529 15.1773 12.5057C14.8497 12.4824 14.5207 12.5239 14.2092 12.6277C13.58 12.8374 13.0599 13.2885 12.7633 13.8817ZM12.7633 6.11839C12.9102 6.41206 13.1134 6.67392 13.3615 6.88904C13.6096 7.10415 13.8976 7.2683 14.2091 7.3721C14.5206 7.47591 14.8495 7.51735 15.177 7.49405C15.5045 7.47075 15.8242 7.38317 16.1179 7.23631C16.4116 7.08944 16.6734 6.88618 16.8885 6.63811C17.1037 6.39005 17.2678 6.10204 17.3716 5.79054C17.4754 5.47904 17.5169 5.15014 17.4936 4.82263C17.4703 4.49511 17.3827 4.17539 17.2358 3.88172C16.9392 3.28863 16.4192 2.83766 15.7901 2.62801C15.1609 2.41836 14.4743 2.4672 13.8812 2.7638C13.2881 3.06041 12.8372 3.58046 12.6275 4.20957C12.4179 4.83867 12.4667 5.5253 12.7633 6.11839Z" stroke="#2664CB" stroke-width="2" stroke-linecap="round" stroke-linejoin="round"/>
</svg>
