<svg fill="none" height="144" viewBox="0 0 250 144" width="250" xmlns="http://www.w3.org/2000/svg"><path d="m228.658 82.9185c-.309-.4047-.581-.833-.852-1.2663-5.232-8.2258-28.091-4.3271-28.091-4.3271-2.585 19.8316-7.083 17.4943-7.916 16.247-.833-1.2471-2.338-13.4955-3.333-15.1616-2.875-.2523-8.749-.2096-8.749-.2096-5.67.1335-11.001 5.1223-16.247 13.2481-5.246 8.1212-14.495 14.995-14.495 14.995s2.746.252 3.746 6.25c.614.191 2.456-.623 3.799-1.28 1.197-.586 2.533-.831 3.86-.709 2.162.2 5.27.89 7.755 3.241.306.285.63.549.971.791.314-.177.49-.296.49-.296 5.123-2.123 8.122-9.496 8.122-9.496-.416-.928-.658-1.923-.714-2.937-.081-1.01-.067-2.0257.042-3.0329.11-.9854.186-1.9613.215-2.9418.049-.9889.006-1.9802-.129-2.961.408.9316.641 1.9306.686 2.9467.069 1.009.049 2.0222-.062 3.0275-.11.9805-.172 1.9565-.195 2.9415-.036.989.017 1.978.157 2.957.287 2.631.909 5.214 1.851 7.688 1.354.448 2.749.756 4.166.918.696.08 1.399.102 2.099.067.717-.04 1.432-.116 2.142-.229-.64.384-1.345.649-2.08.781-.368.071-.74.116-1.114.133-.375.005-.75-.009-1.123-.042-.744-.081-1.473-.257-2.171-.524-.697-.259-1.345-.632-1.919-1.104.401 1.1.934 2.149 1.586 3.122 3.53.204 6.991 1.071 10.201 2.557.814.376 1.561.88 2.314 1.252.765.382 1.568.686 2.394.909 1.664.453 3.379.696 5.103.723.876.029 1.709-.019 2.614-.047.888-.01 1.777.033 2.661.128 1.751.181 3.498.381 5.231.686.662.114 1.319.238 1.976.366-.305-.413-.566-.856-.781-1.323-.335-.703-.585-1.443-.747-2.204-.167-.761-.267-1.535-.3-2.314-.044-.785-.013-1.572.09-2.351l.005-.024.009-.033c.261-.845.423-1.717.481-2.599.074-.895.084-1.794.029-2.69-.062-.897-.172-1.79-.329-2.675-.171-.872-.4-1.781-.523-2.699-.25-1.832-.307-3.684-.172-5.5272.048-.9187.143-1.8376.281-2.742.127-.9079.3-1.8088.519-2.6991-.226 1.8101-.35 3.6314-.371 5.4554-.027 1.8106.106 3.6199.395 5.4079.062.447.171.885.262 1.323l.295 1.352c.175.914.291 1.837.347 2.766.141 1.861-.074 3.732-.633 5.512-.118.732-.178 1.473-.181 2.214-.005.754.054 1.507.176 2.252.12.746.311 1.48.572 2.189.183.499.414.979.69 1.433 1.033.21 2.056.448 3.07.729 1.705.445 3.344 1.112 4.875 1.985-1.582-.745-3.247-1.298-4.96-1.647-.881-.205-1.768-.383-2.661-.534-.003-.002-.006-.004-.01-.004-.823-.143-1.652-.267-2.485-.376-1.732-.224-3.47-.419-5.208-.557-.86-.081-1.725-.114-2.589-.1-.843.028-1.766.09-2.642.061-1.785-.036-3.558-.302-5.275-.79-.861-.252-1.697-.587-2.494-.999-.4-.196-.79-.457-1.157-.672-.366-.223-.733-.457-1.119-.647-1.539-.808-3.16-1.45-4.836-1.914-1.676-.502-3.386-.88-5.117-1.133l-3.937.376c.121.168.21.357.262.557 1.014 3.28-.448 16.128-.448 16.128 5.622 4.123 36.74 10.497 36.74 10.497 20.061 3.375 20.246-14.438 20.246-14.438 3.589-31.9658-3.465-43.5002-5.36-45.9565zm-25.101 32.5845c-.368.071-.74.116-1.114.133-.375.005-.75-.009-1.124-.042-.743-.081-1.472-.257-2.17-.524-.697-.259-1.345-.633-1.919-1.105 1.353.449 2.749.757 4.166.919.696.08 1.398.102 2.099.067.717-.04 1.432-.116 2.142-.229-.641.384-1.345.649-2.08.781z" fill="#000"/><path d="m188.426 78.433c-.137-.2067-.289-.4028-.456-.5865-.166-.1807-.348-.3457-.545-.493-.194-.144-.405-.2658-.627-.3632-.213-.0958-.441-.1573-.673-.1822l.074-.0145c-.478.2299-.983.3986-1.503.502-.528.1139-1.072.1317-1.607.0527-.555-.0821-1.078-.3107-1.515-.6621-.402-.36-.755-.7716-1.049-1.224-.575-.8709-1.086-1.7822-1.529-2.7267-.447-.9378-.849-1.8861-1.224-2.8603l.385.254c-.444.0451-.891-.023-1.301-.1977-.239-.1121-.441-.2907-.581-.5144-.129-.2161-.206-.4594-.224-.7104-.023-.4304.038-.861.18-1.2681.124-.3884.288-.763.488-1.1179.376-.5505.553-1.2132.501-1.878-.03-.3236-.12-.639-.263-.9306l-.26-.4858c-.09-.1722-.176-.3473-.258-.5264-.168-.3585-.302-.732-.401-1.1156-.107-.3736-.194-.7526-.26-1.1356-.083-.38-.108-.7695-.156-1.1545-.015-.3887-.039-.7764-.018-1.1646.032-1.561.414-3.0949 1.118-4.4888.024-.0469.062-.0859.107-.1125.046-.0266.098-.0396.151-.0376.053.0021.104.019.148.049.043.03.077.0718.098.1204l.005.0106c.581 1.3415 1.322 2.6077 2.208 3.7707.882 1.1744 1.941 2.2043 3.14 3.0527 1.196.8505 2.562 1.4319 4.003 1.7043 1.44.2653 2.919.2257 4.342-.1164l.01-.0023c.033-.0076.068-.0055.101.0061.032.0115.06.032.082.0591.574.7905.974 1.6939 1.173 2.6504.212.9344.321 1.8893.323 2.8475.005.9536-.063 1.9062-.203 2.8495-.168.8955-.231 1.8074-.188 2.7174.043.8795.281 1.7385.696 2.5148.415.7478 1.049 1.3508 1.816 1.7277.783.365 1.647.5187 2.507.4458.882-.0712 1.745-.2933 2.551-.6565.077-.0338.163-.0464.247-.0366.084.0097.164.0415.232.0921.068.0505.121.1181.155.1959.033.0778.045.1631.035.2471l-.001.0062c-.349 3.0341-.893 6.0426-1.627 9.0072-.38 1.4964-.88 2.9597-1.495 4.376-.315.7235-.703 1.4134-1.157 2.0591-.238.3328-.507.6417-.804.9222-.309.3027-.672.5446-1.07.7131-.427.1832-.898.2351-1.354.1492-.452-.0926-.867-.314-1.195-.6376-.176-.1663-.316-.3664-.412-.5882-.077-.1915-.142-.3875-.195-.587-.107-.3807-.188-.7551-.268-1.1307-.314-1.4986-.53-3.0002-.77-4.4987l-.705-4.4918c-.121-.7475-.247-1.4938-.393-2.2354-.119-.7424-.316-1.4701-.589-2.1707l-.003-.0067c-.005-.0112-.006-.0239-.002-.0355.005-.0116.013-.0211.024-.0266s.024-.0065.035-.0028c.012.0037.022.0118.028.0226.331.6904.581 1.4174.743 2.166.189.737.358 1.478.521 2.2198.33 1.483.608 2.9748.906 4.4611.293 1.4864.597 2.9733.93 4.4372.087.3636.177.7285.283 1.0755.049.1657.107.3285.175.4875.058.1252.142.2368.246.3279.216.2094.491.3479.788.397.297.0492.601.0066.873-.1221.6-.3202 1.104-.794 1.461-1.3729.399-.6081.743-1.2514 1.026-1.9219.577-1.3738 1.042-2.7916 1.392-4.2398.708-2.9278 1.26-5.8911 1.653-8.8775l.668.5047c-.912.395-1.885.6301-2.877.6948-1.018.0695-2.037-.1288-2.955-.5753-.923-.4646-1.677-1.2051-2.159-2.1187-.454-.8919-.703-1.8737-.731-2.8741-.024-.9645.066-1.9285.268-2.8717.17-.9055.271-1.8226.3-2.7433.034-.9173-.037-1.8355-.21-2.7368-.156-.8893-.494-1.7368-.992-2.4898l.192.0628c-1.479.3064-3.004.3192-4.488.0377-.739-.1442-1.459-.3727-2.146-.6809-.688-.2995-1.347-.6648-1.965-1.0906-1.232-.8577-2.335-1.8879-3.274-3.059-.961-1.1606-1.777-2.4342-2.428-3.7925l.508.0298c-.597 1.3255-.894 2.7666-.869 4.2202.003.7252.079 1.4483.227 2.1583.069.3557.157.7072.265 1.0532.095.3422.219.6759.37.9974.074.1623.155.3233.24.4834.084.1645.171.3049.272.5066.191.3831.309.7976.351 1.2234.064.8464-.16 1.6898-.638 2.3919-.351.5675-.549 1.2168-.573 1.884-.002.1203.03.2386.092.3415.063.1029.153.1862.26.2403.285.1185.594.166.901.1385l.005-.0002c.082-.0036.164.0191.232.0649s.12.1122.148.1896c.34.9508.725 1.9014 1.135 2.8298.395.9312.857 1.8328 1.381 2.6978.25.4197.554.8049.904 1.1461.357.3073.79.5142 1.254.5995.98.1558 1.984.0306 2.896-.3609l.02-.0079c.017-.007.036-.0093.054-.0068.267.0408.524.1253.763.2499.232.1184.45.2624.65.4293.195.1685.373.3555.531.5585.156.2014.297.4143.421.6368.003.0054.005.0114.006.0176s0 .0125-.002.0185c-.001.0061-.004.0117-.008.0167-.004.0049-.008.0091-.014.0122-.011.0057-.023.0072-.035.0043-.012-.003-.022-.0102-.029-.0202z" fill="#000"/><path d="m177.158 69.6311c-.097.7572-.198 1.5082-.278 2.2604-.074.7524-.146 1.503-.17 2.2536-.036.7461-.005 1.4941.093 2.2346.049.3668.147.7253.293 1.0654.136.3491.364.6554.659.8871-.349-.1794-.637-.4583-.827-.8014-.189-.3434-.329-.7115-.416-1.0936-.163-.7571-.225-1.5324-.186-2.3059.031-.7663.119-1.5292.262-2.2825.135-.7525.325-1.4938.57-2.2177z" fill="#000"/><path d="m176.929 53.6072c-.099-.171-.161-.3602-.183-.556-.023-.1958-.005-.3941.052-.5829l.078-.2833.123-.2627c.043-.0868.082-.1772.129-.2618l.161-.2382c.215-.3179.458-.6155.727-.8889.273-.2646.563-.5086.848-.762 1.2-.9079 2.486-1.6971 3.839-2.3566.675-.3204 1.357-.6269 2.04-.9316.69-.2833 1.384-.5567 2.08-.8255.697-.2554 1.405-.4758 2.109-.7097.357-.1071.7-.2288 1.081-.3341.369-.0992.743-.1788 1.121-.2385 1.499-.2467 3.033-.1842 4.508.1836 1.468.3701 2.826 1.0893 3.957 2.0965 1.116 1.0226 2.035 2.2408 2.713 3.5943.68 1.348 1.201 2.771 1.55 4.2401l.007.0395c.367 2.0161 1.014 3.9711 1.922 5.8086.447.9168.966 1.7974 1.55 2.6336.576.838 1.225 1.6226 1.94 2.3444l1.132 1.0486c.408.3563.791.7396 1.146 1.1474.728.8044 1.329 1.7155 1.781 2.7016.938 1.9485 1.172 4.1614.664 6.2631-.003.0117-.011.0218-.021.0282s-.022.0086-.034.0062c-.012-.0023-.023-.0092-.03-.019-.007-.0099-.01-.022-.008-.034l.001-.0054c.134-1.0261.092-2.0676-.123-3.0799-.194-1.0027-.547-1.9681-1.045-2.86-.244-.4434-.517-.8709-.815-1.2801-.306-.4035-.637-.7867-.993-1.1471-.347-.3688-.719-.7136-1.114-1.0319l-1.209-1.0471c-1.554-1.5005-2.815-3.2766-3.719-5.2378-.451-.9711-.832-1.9728-1.141-2.9978-.32-1.0255-.553-2.0764-.697-3.1413l.007.0393c-.284-1.4292-.709-2.8269-1.268-4.1727-.56-1.3479-1.381-2.5714-2.417-3.5998-.533-.4972-1.126-.9257-1.765-1.2754-.644-.3418-1.333-.5923-2.046-.7441-1.428-.2847-2.901-.2496-4.314.1027-.35.0809-.696.1802-1.035.2975-.327.115-.674.2647-1.019.3959l-2.079.778c-.682.2749-1.366.5453-2.055.8058l-2.024.8699c-1.332.5979-2.617 1.2972-3.843 2.0917-.286.218-.583.4293-.861.659-.272.2323-.526.4857-.76.7576l-.174.2047c-.05.0723-.093.1491-.14.2238l-.139.2273-.096.2442c-.137.3237-.145.6878-.022 1.017l.005.01c.005.0109.005.0231.002.0344-.004.0113-.012.0208-.022.0265-.011.0057-.023.0072-.035.0043-.011-.003-.021-.0102-.027-.0202z" fill="#000"/><path d="m178.107 62.8047c.659-.4734 1.377-.8573 2.137-1.1415.38-.146.77-.263 1.167-.3503.4-.1013.816-.1205 1.223-.0563-.389.0841-.77.1996-1.141.3455l-1.112.4208c-.744.2795-1.487.5676-2.274.7818z" fill="#000"/><path d="m180.189 65.4656c.15-.0052.292-.0684.396-.1762s.162-.2518.162-.4017-.058-.2939-.162-.4018c-.104-.1078-.246-.1709-.396-.1761-.15.0052-.292.0683-.396.1761-.104.1079-.162.2519-.162.4018s.058.2939.162.4017.246.171.396.1762z" fill="#000"/><path d="m179.258 72.4666c.289.009.579.001.868-.0241.282-.0256.56-.0597.835-.1122.275-.0536.55-.1151.825-.1905.276-.0744.554-.1565.848-.2301-.219.2079-.469.3805-.742.5114-.273.1331-.562.2299-.861.2878-.601.1296-1.229.0439-1.773-.2423z" fill="#000"/><path d="m177.115 131.109c-1.431-.527-2.903-.937-4.401-1.227-1.474-.3-2.988-.348-4.478-.143l-.549.093-.536.146c-.355.099-.705.219-1.046.36-.682.294-1.336.649-1.954 1.061-.629.413-1.227.885-1.93 1.293-.703.396-1.461.686-2.248.864-.782.185-1.585.266-2.388.241-.842.001-1.671-.2-2.418-.587-.206-.125-.39-.285-.544-.471-.138-.169-.223-.293-.344-.432-.227-.261-.489-.488-.78-.676-.638-.371-1.312-.677-2.012-.913-.755-.24-1.479-.568-2.156-.978-.344-.232-.645-.521-.893-.853-.121-.157-.23-.306-.347-.445-.058-.072-.118-.133-.18-.203-.067-.079-.144-.159-.201-.239-.455-.63-.872-1.287-1.25-1.967-.383-.667-.763-1.333-1.129-2.01l.112.082-.98-.214c-.339-.058-.671-.149-.992-.272-.644-.269-1.209-.696-1.643-1.243-.237-.273-.401-.603-.474-.958-.027-.187-.015-.377.036-.559.05-.182.139-.352.26-.497.232-.273.515-.497.833-.66.319-.162.667-.26 1.023-.288.345-.02.691-.006 1.033.042l.998.072c.665.042 1.331.074 1.997.094 1.332.041 2.665.031 3.989-.051 1.314-.068 2.62-.251 3.903-.547.62-.147 1.221-.367 1.789-.655.267-.139.515-.312.738-.513.225-.205.429-.433.61-.678.15-.171.244-.384.269-.611-.008-.049-.016-.068-.079-.122-.093-.06-.195-.105-.303-.134-.595-.121-1.207-.129-1.806-.025-.305.043-.608.109-.903.199-.121.035-.237.084-.347.146l-.102.066c-.045.031-.09.056-.136.082-.088.05-.18.094-.273.132-.35.14-.715.234-1.087.283-.179.025-.358.043-.535.055-.206.019-.413.011-.616-.022-.431-.073-.83-.275-1.144-.578-.299-.301-.516-.673-.631-1.081-.199-.782-.094-1.612.295-2.32.193-.394.497-.723.876-.946.126-.067.263-.111.405-.131.082-.011.166-.012.249-.002.043.005.086.012.128.023l.054.014.006-.001c.097.01.195.004.29-.018.613-.141 1.21-.342 1.783-.599.301-.128.601-.262.9-.402l.447-.212c.161-.077.324-.149.49-.217.663-.265 1.361-.437 2.072-.509.703-.064 1.411-.039 2.107.072.682.094 1.356.23 2.02.41 1.337.352 2.609.918 3.765 1.676.573.384 1.11.821 1.604 1.304.476.438.986.839 1.523 1.199 2.295 1.338 4.945 1.943 7.593 1.732l.004-.001c.013 0 .025.004.034.012s.015.019.016.031c.002.012-.002.025-.01.034-.007.01-.018.016-.031.018-2.707.415-5.476-.057-7.893-1.347-.591-.357-1.153-.761-1.681-1.207-1.461-1.298-3.227-2.205-5.133-2.639-.632-.153-1.274-.264-1.921-.335-.628-.085-1.264-.091-1.894-.017-.621.073-1.229.232-1.807.471-.143.061-.285.125-.425.194l-.457.224c-.306.147-.615.29-.927.428-.643.302-1.317.532-2.011.686-.232.049-.473.049-.705 0l-.056-.012c-.018-.005-.003-.001-.007-.002l.005.001c.003.001.003 0-.001 0-.024.005-.048.014-.069.026-.194.131-.348.312-.448.523-.264.477-.341 1.035-.215 1.566.065.239.188.46.357.642.168.166.383.278.616.321.126.023.255.029.383.017.157-.008.312-.022.464-.041.292-.032.579-.101.854-.204.062-.024.122-.051.18-.083.027-.014.054-.029.08-.046l.108-.069c.181-.104.374-.186.575-.243.347-.1.7-.173 1.058-.217.725-.114 1.466-.086 2.18.083.215.062.418.162.598.294.113.087.207.196.277.321.069.124.113.261.128.403.019.244-.028.489-.138.708-.083.18-.186.35-.309.506-.22.291-.47.557-.747.795-.28.24-.59.443-.921.606-.633.302-1.3.527-1.987.672-1.334.274-2.691.417-4.053.426-1.349.029-2.695-.017-4.036-.103-.67-.043-1.339-.099-2.007-.165l-1.001-.107c-.32-.05-.644-.069-.968-.055-.312.019-.617.1-.899.238-.281.138-.532.33-.739.565-.096.11-.167.24-.209.381-.042.14-.054.288-.034.433.061.304.199.587.4.822.4.509.927.904 1.527 1.145.306.114.621.196.943.248l.985.192c.023.004.044.013.063.026.018.013.034.03.046.05l.003.006c.737 1.329 1.565 2.605 2.478 3.82.057.074.118.128.177.194.068.07.145.143.211.218.137.149.26.304.38.444.222.276.49.511.791.696.652.354 1.344.63 2.06.823.764.22 1.502.523 2.2.903.36.221.686.491.97.803.136.146.275.333.383.457.096.105.207.195.329.267.626.306 1.315.462 2.013.456.73.023 1.46-.046 2.174-.203.711-.152 1.397-.407 2.036-.756.625-.356 1.253-.812 1.912-1.228.668-.423 1.373-.784 2.106-1.079.373-.137.754-.251 1.14-.342l.58-.131.588-.076c1.558-.158 3.133-.041 4.65.348 1.495.378 2.952.896 4.351 1.546.012.004.02.013.025.025.005.011.005.024.001.035-.005.011-.013.021-.024.026s-.024.006-.035.002z" fill="#000"/><path d="m145.475 123.942c.927-.08 1.854-.117 2.781-.148.927-.035 1.854-.04 2.781-.045l1.39.01c.478 0 .953.066 1.413.195.881.313 1.739.684 2.57 1.112-.447-.128-.886-.279-1.329-.418-.428-.165-.866-.3-1.311-.406-.442-.091-.892-.131-1.343-.118l-1.39.01c-.927-.005-1.854-.01-2.781-.045-.927-.031-1.854-.068-2.781-.147z" fill="#000"/><path d="m145.945 124.771c.623.48 1.219.993 1.811 1.51.306.249.577.542.875.749.301.217.638.377.995.475.344.103.742.119 1.135.192.391.065.779.149 1.162.254.782.164 1.51.526 2.112 1.052-.324-.215-.679-.379-1.054-.485-.368-.118-.744-.211-1.126-.279-.381-.066-.763-.134-1.149-.181-.397-.038-.793-.099-1.184-.182-.4-.114-.775-.302-1.106-.553-.306-.258-.595-.535-.865-.83-.547-.56-1.09-1.125-1.606-1.722z" fill="#000"/><path d="m137.185 112.446c-.307-.622-.682-1.208-1.118-1.748l.073.048c-.73-.115-1.411-.441-1.957-.939-.285-.288-.461-.667-.496-1.071-.018-.2-.009-.402.026-.599.049-.189.108-.375.177-.557.333-.71.92-1.27 1.645-1.569.363-.172.758-.266 1.16-.277.432-.003.854.13 1.208.38l-.626.2c.095-.26.226-.505.389-.728.154-.219.335-.418.537-.593.41-.35.896-.599 1.42-.726.505-.122 1.029-.149 1.545-.08l.368.047c.143.021.284.056.421.104.254.087.498.202.726.343.863.558 1.553 1.345 1.992 2.273.432.879.746 1.811.934 2.772l-.898.055c.078-.611.262-1.204.544-1.752.281-.565.7-1.049 1.217-1.409.529-.347 1.145-.538 1.777-.551.151-.006.302-.002.452.013l.225.015c.088.003.176.018.26.042.304.09.591.23.85.414.927.729 1.612 1.72 1.966 2.845.373 1.065.616 2.171.721 3.295-.247-1.084-.602-2.14-1.058-3.153-.416-.987-1.1-1.839-1.976-2.457-.206-.127-.431-.222-.666-.283-.05-.013-.102-.017-.153-.015l-.194-.001c-.621-.032-1.234.144-1.744.498-.382.318-.695.71-.921 1.152-.226.443-.36.927-.394 1.422v.004c-.012.107-.061.207-.139.281s-.18.119-.288.125-.214-.026-.301-.091c-.086-.065-.146-.158-.17-.264-.182-.875-.477-1.723-.877-2.523-.373-.769-.941-1.427-1.648-1.908-.168-.107-.348-.195-.536-.262-.084-.031-.17-.054-.258-.068l-.327-.046c-.414-.06-.835-.046-1.243.04-.392.082-.759.255-1.072.505-.306.248-.548.565-.708.925l-.019.046c-.041.096-.119.172-.216.211s-.205.038-.301-.003c-.032-.014-.063-.032-.09-.054-.235-.159-.507-.252-.79-.27-.282-.018-.564.04-.816.169-.588.207-1.081.621-1.387 1.164-.159.255-.236.552-.221.851.016.3.122.587.305.824.451.486 1.032.832 1.674.998l.016.004c.024.008.044.023.058.043.392.585.703 1.22.922 1.889z" fill="#000"/><path d="m133.973 112.123c-.255-.526-.708-.929-1.26-1.121-.536-.154-1.109-.111-1.616.121-.244.075-.463.215-.634.404-.171.19-.288.422-.339.672-.023.524.12 1.042.408 1.48.29.484.635.933 1.029 1.337.095.105.196.201.295.299l.323.282c.23.199.452.402.673.606.883.817 1.708 1.675 2.531 2.546.062.065.103.148.117.236l.005.031c.054.277.144.545.269.799.26.543.631 1.027 1.088 1.421.232.21.464.351.775.589.569.447 1.049.996 1.415 1.62.369.612.642 1.278.81 1.973l-.022-.068c.217.601.624 1.114 1.16 1.462.572.334 1.222.512 1.884.517.695.016 1.389-.056 2.066-.214.692-.15 1.372-.357 2.031-.617-.619.364-1.274.664-1.953.897-.69.242-1.41.389-2.14.437-.767.056-1.535-.097-2.223-.442-.347-.193-.659-.444-.923-.741-.255-.3-.467-.634-.631-.991l-.009-.022-.013-.046c-.176-.597-.436-1.165-.772-1.687-.333-.517-.752-.973-1.239-1.348-.219-.167-.558-.378-.823-.614-.28-.235-.534-.498-.759-.786-.229-.288-.424-.603-.582-.936-.166-.348-.282-.718-.342-1.1l.122.267c-.797-.867-1.62-1.722-2.445-2.557-.208-.206-.417-.411-.63-.608l-.337-.317c-.109-.114-.219-.227-.319-.346-.412-.471-.766-.989-1.054-1.544-.336-.583-.464-1.263-.361-1.928.038-.175.104-.342.195-.495.099-.145.21-.281.333-.405l.414-.285.444-.182c.607-.215 1.273-.196 1.866.054.278.132.526.32.728.552.201.233.353.504.445.798z" fill="#000"/><path d="m135.038 119.068c-.146-.527-.136-1.085.029-1.606.078-.272.218-.523.408-.733.094-.107.209-.194.338-.254s.269-.092.412-.094c-.212.132-.387.315-.511.531-.121.21-.215.434-.28.666-.153.471-.246.97-.396 1.49z" fill="#000"/><path d="m136.162 110.629c.327-.081.595-.137.878-.193.297-.066.599-.106.903-.117-.206.261-.502.438-.829.495-.163.039-.332.042-.496.01s-.32-.099-.456-.195z" fill="#000"/><path d="m137.901 106.443c-.006.414.049.826.161 1.223.1.398.312.758.61 1.038.158.133.342.233.54.292.198.06.406.079.611.055.213-.017.425-.052.633-.104l.612-.221-.593.277c-.209.074-.423.129-.64.167-.226.045-.458.043-.683-.005s-.438-.141-.625-.273c-.369-.285-.647-.67-.802-1.109-.165-.428-.266-.879-.3-1.336-.003-.032 0-.063.01-.093.009-.031.025-.058.045-.083.02-.024.045-.044.074-.058.028-.014.058-.023.09-.026.031-.002.063.002.093.012s.058.025.082.046c.023.021.043.046.057.074.014.029.022.059.024.091.001.007.001.014.001.022z" fill="#000"/><path d="m139.818 109.132c.331.503.623 1.031.873 1.578.281.551.473 1.143.569 1.753.027.114.082.219.158.307.077.089.174.157.283.199.249.126.516.211.791.254.281.051.57.054.852.007.291-.025.562-.161.755-.38-.073.138-.174.259-.296.356-.122.098-.263.168-.414.207-.301.09-.615.125-.928.105-.32-.015-.634-.09-.925-.223-.17-.067-.32-.176-.435-.317-.116-.141-.193-.31-.225-.489-.096-.57-.249-1.129-.458-1.668z" fill="#000"/><path d="m145.631 109.742c.106.743.342 1.462.697 2.123.09.158.191.309.303.452.143.171.27.356.378.551.109.197.197.406.261.622.065.228.096.417.141.606.023.168.069.332.137.487.093.14.21.263.346.362.135.105.289.182.453.227.165.046.336.058.506.036.356-.074.677-.267.909-.548.26-.29.482-.611.66-.958l-.01.031c.119-.561.198-1.129.237-1.7.052-.574.013-1.152-.114-1.714.169.557.25 1.136.239 1.717.003.583-.035 1.166-.115 1.743-.001.009-.004.017-.007.025l-.003.006c-.163.384-.376.745-.633 1.073-.264.363-.644.625-1.078.743-.228.047-.463.049-.692.005s-.447-.133-.641-.261c-.2-.125-.375-.285-.518-.472-.078-.104-.135-.222-.167-.348l-.09-.297c-.08-.365-.22-.714-.414-1.034-.098-.15-.211-.291-.337-.42-.15-.163-.287-.338-.41-.522-.466-.728-.797-1.535-.977-2.381-.014-.061-.016-.124-.006-.185.011-.062.033-.121.066-.174.034-.053.077-.099.128-.136.051-.036.109-.062.17-.076s.124-.016.185-.005c.062.01.121.032.174.066.053.033.099.076.136.127.036.051.062.109.076.17.002.011.005.023.006.034z" fill="#000"/><path d="m144.754 118.083c.019 0 .033.005.052.005l.043.029z" fill="#000"/><path d="m154.412 117.441c-8.178-1.243-15.885-4.413-17.799-5.237-.331-.145-.686-.23-1.047-.252-1.742-.091-2.342.476-2.504 1.061-.072.283-.052.582.059.852.11.27.305.497.555.648l8.507 5.351.005-.005c.428-.515.925-.97 1.475-1.352-.201.423-.448.822-.737 1.19.791-.217 1.628-.214 2.418.01 9.849.933 12.324-1.124 12.324-1.124-1.056-.985-3.256-1.142-3.256-1.142zm-7.183-.814 1.999 1.456-4.584-.685-4.127-2.766zm2.571 2.47c-1.705-.157-3.404-.352-5.104-.543-.033-.006-.065-.017-.095-.033-1.571-.947-3.137-1.904-4.689-2.885l-2.328-1.48c-.761-.509-1.537-1-2.294-1.523.814.428 1.614.88 2.418 1.318l2.395 1.367c1.58.899 3.141 1.832 4.703 2.77 1.675.205 3.361.414 5.036.652 1.69.238 3.385.486 5.07.781-1.709-.105-3.413-.262-5.112-.424z" fill="#000"/><path d="m144.849 118.117-.095-.034c.019 0 .033.005.052.005z" fill="#fff"/><g fill="#000"><path d="m86.8571 49.8292s-1.2223-.7334-2.3632.5704c0 0-2.0372-2.8947-10.6751-.388 0 0 1.1409 2.1808 1.9558 2.1808s-1.5483 3.7485-3.7486 3.5855c0 0-3.7485 5.4598-.8963 10.7566 2.8111 5.2206 4.8305 6.8789 7.6188 3.4926.0856-.105.181-.2016.285-.2884.8019-.6613 4.3519-3.4108 5.6101-1.3606.2679.4555.3446.9985.2132 1.5104-.5743 2.4052-3.2597 11.2641-11.038 7.7286 0 0-9.0645-3.3992-6.9265-11.452.2286-.819.5601-1.6058.9867-2.3414.4112-.7515.6647-1.579.7448-2.4319s-.0148-1.7132-.2789-2.5281c-.3277-1.1617-1.0669-2.1646-2.0797-2.8214-.9818-.6124-2.2762-.8862-3.2567.8264-.4058.7124-.6197 1.518-.6208 2.3379-.0019.7505.1377 1.6709.756 2.1126l-.7561 1.4668c-.4111-.8367-.937-1.6119-1.5622-2.3033-1.0471-1.0605-1.7197-2.4336-1.9159-3.9109-.2768-2.3436.0564-5.8428 2.8489-9.9207 0 0 3.7485-7.497 10.7566-7.334 7.0081.1629 13.0383 2.0372 14.3421 10.5121z"/><path d="m75.123 59.608c1.2173-.2784 2.4681-.3814 3.7145-.306.6279.0312 1.2509.1257 1.8598.2821.6213.1333 1.1987.4219 1.6783.8388-.5536-.2571-1.1449-.4236-1.7514-.4932-.599-.0861-1.2035-.1488-1.8133-.1761-1.2185-.0755-2.4435-.0813-3.6879-.1456z"/><path d="m86.8561 59.4915c-.4457.1355-.8582.3627-1.2109.6672-.1672.1379-.3034.3095-.3997.5037-.0963.1941-.1507.4064-.1595.6229.0329.4443.1493.8783.3433 1.2793l.5329 1.3101c.3975.8864.6285 1.8384.6814 2.8084-.0008.2556-.0477.5089-.1384.7478-.0975.2418-.257.4537-.4624.6144-.4171.2627-.9095.3797-1.4002.3328.46-.0393.898-.2145 1.2582-.5034.1479-.1577.2594-.3458.3267-.5512s.0887-.423.0629-.6376c-.0352-.4537-.1273-.9013-.2742-1.332-.1369-.4412-.3007-.8783-.4751-1.3138-.1675-.4388-.3486-.8751-.5117-1.3244-.078-.2268-.1571-.453-.2184-.6922-.0762-.2472-.102-.5073-.0759-.7647.0273-.256.1107-.5028.2443-.7229.1337-.22.3142-.4079.5288-.5502.4035-.2698.8657-.4392 1.3479-.4942z"/><path d="m86.8573 49.8291c.1526.9134.2662 1.8317.3405 2.755.0849.9217.1374 1.8462.1574 2.7734.0144.9271.0006 1.8559-.0718 2.7855-.0425.9474-.2542 1.8797-.625 2.7526-.0053.0109-.0122.0209-.0204.0298-.286.3079-.5545.6317-.8041.9698-.1239.1693-.2341.3482-.3296.5351-.1062.1819-.1487.394-.1208.6028-.0654-.21-.0536-.4365.0334-.6386.0749-.2039.1661-.4014.2726-.5908.2128-.3773.4588-.735.735-1.0687l-.0203.0296c.1578-.4169.263-.8519.313-1.2949.0707-.4469.0992-.9033.1329-1.358.0538-.9129.0633-1.8313.0685-2.7501-.0001-1.8392-.0404-3.6817-.0613-5.5325z"/><path d="m81.9687 65.801c-.086.1769-.1554.3614-.2076.551-.053.1752-.0646.3603-.0339.5408.0253.1788.1035.346.2244.4801.128.148.2702.2832.4246.4035-.0988-.0293-.1958-.064-.2906-.1041-.0923-.0508-.1793-.1108-.2596-.1789-.1682-.1456-.2816-.3442-.3218-.563-.0285-.2167.0039-.437.0936-.6364.0837-.1908.2107-.3596.3709-.493z"/><path d="m63.1445 61.3191c.2821.354.5071.7499.667 1.1733.0857.2162.1477.441.1849.6705.02.1203.028.2424.0237.3642l-.0023.0938.0055.0509c-.0021.0332.0052.0662.0209.0954.07.1491.1934.2664.3459.3286.181.0925.3716.1647.5684.2154.4186.1128.8492.1753 1.2826.186-.4281.1678-.892.2233-1.3476.1612-.2378-.0242-.4706-.0839-.6907-.177-.1295-.0502-.2477-.1256-.348-.2218-.1002-.0961-.1805-.2112-.236-.3385-.0293-.0717-.0436-.1486-.042-.226l-.0017-.1144.0035-.0713c.0051-.0986.0028-.1975-.0066-.2957-.0181-.2088-.0507-.416-.0976-.6203-.0924-.4187-.2141-.8396-.3299-1.2743z"/><path d="m62.3869 62.7861c-.1819.6591-.4383 1.2954-.7643 1.8964-.3191.6099-.7043 1.1828-1.1487 1.7084-.4446.5356-.972.9966-1.5621 1.3657-.5917.3668-1.2688.5728-1.9645.5975.6367-.1913 1.2349-.4928 1.7674-.8907.5212-.4009.9957-.8591 1.4146-1.3658.4303-.5061.8281-1.039 1.191-1.5954.3653-.5589.7281-1.1257 1.0666-1.7161z"/><path d="m68.3594 81.8544c.5149-.2258 1.0018-.5107 1.4509-.8491.4455-.3327.8682-.695 1.2651-1.0844.4093-.3779.7762-.8005 1.1574-1.2141l.5549-.6406c.1806-.2187.3608-.4389.5596-.6499-.1135.2642-.2454.5196-.377.7765-.149.2453-.2955.4943-.4594.7318-.3304.4759-.7061.9187-1.1218 1.3223-.4177.4069-.8838.7608-1.3878 1.054-.4998.3034-1.0605.4924-1.6419.5535z"/><path d="m60.2061 66.244c-.4055-.6009-.907-1.1311-1.4846-1.5692-.1202-.1062-.2659-.1796-.4228-.2128-.157-.0333-.3198-.0255-.4728.0228-.2703.1836-.4643.4596-.5456.7761-.1114.3374-.1916.6844-.2397 1.0364-.0242.1752-.0457.3574-.0615.5258.0009.1604.015.3488.0311.5241.0701.7186.2033 1.4296.3981 2.1249.3587 1.4147.9158 2.7714 1.6549 4.0299.7488 1.258 1.6446 2.4224 2.6685 3.4688.5134.5193 1.047 1.0192 1.5885 1.5064.5625.4641 1.0999.9625 1.6853 1.3885.2825.2282.5938.4133.8888.622.3122.1796.612.3834.9373.5359.6284.3415 1.2969.6035 1.99.78 1.3843.3672 2.8553.2128 4.1331-.4339 1.2842-.6854 2.3628-1.7002 3.1252-2.9402.0028-.0054.0076-.0094.0133-.0112.0057-.0019.012-.0013.0173.0014.005.0031.0087.0078.0105.0134.0017.0055.0015.0116-.0007.0169-.6632 1.3465-1.7054 2.4698-2.9985 3.2318-.6622.3756-1.3908.6199-2.1456.7195-.7573.0894-1.5245.0406-2.2643-.144-.7346-.1745-1.4416-.4493-2.1011-.8167-.3367-.1672-.6425-.3838-.9619-.5771-.2999-.2211-.6172-.4199-.9017-.6594-.5963-.4479-1.1184-.9711-1.6702-1.4626-.2814-.2394-.52-.5252-.7783-.7885-.249-.273-.5184-.5259-.7496-.8146-.9648-1.1152-1.8409-2.3041-2.6204-3.5558-.7937-1.2516-1.4258-2.5985-1.8814-4.0087-.2223-.7135-.3676-1.4488-.4331-2.1933-.0125-.1907-.0237-.3686-.0196-.5755.0217-.1961.0482-.3784.0783-.5661.0599-.3743.1543-.7423.2818-1.0993.0575-.197.1536-.3806.2827-.5401s.2887-.2917.4695-.3889c.2032-.0796.4281-.0842.6344-.0129.1875.0643.3627.1602.5178.2836.5695.4852 1.04 1.0757 1.3858 1.7391.0015.0026.0024.0054.0028.0084.0004.0029.0001.0059-.0006.0088-.0008.0028-.0022.0055-.004.0079-.0018.0023-.0041.0043-.0067.0057-.0051.0026-.0109.0033-.0165.002-.0055-.0014-.0104-.0047-.0138-.0093z"/><path d="m61.5826 64.3249c-.7276-.448-1.5391-.7423-2.3847-.8649-.833-.1521-1.693.0019-2.4214.4338-.3435.2386-.6323.5476-.8473.9063l-.7394 1.0619c-.4893.7217-1.0372 1.4019-1.6382 2.0336-.014.0139-.0307.0246-.0492.0316-.0184.007-.038.01-.0577.0089l-.011-.0007c-3.0453-.1804-6.101-.2526-9.1488-.2321-1.5241.0127-3.0467.0738-4.5605.1927-1.5022.0831-2.9895.3413-4.4318.7693l-.0255.007-.0348.0074c-.7983.2043-1.5587.5353-2.2522.9803-.3607.2185-.7078.4588-1.0394.7194l-.5024.3867c-.1622.1358-.315.2839-.4729.4251-1.2583 1.1499-2.3762 2.4446-3.3305 3.8571-1.9152 2.8486-3.4807 5.9174-4.6625 9.1402-.2921.8086-.612 1.6069-.8815 2.4236l-.7713 2.4637c-.2611.8112-.4945 1.671-.7985 2.4925-.2956.8295-.6416 1.6318-.9727 2.4284l-1.0194 2.3933-.5309 1.1926c-.1809.4125-.3826.8156-.6043 1.2078-.0449.0732-.096.1424-.1527.2071.0323.0013.0351-.073.0369-.0433-.0051.0466-.0032.0936.0059.1395.0339.1684.092.3311.1724.4829.1779.3397.4154.6444.7012.9004.5837.525 1.3137.858 2.0923.956l-.3061.743c-.4802-.375-.9347-.782-1.3604-1.217-.2333-.235-.4368-.498-.6057-.783-.051-.093-.0914-.1906-.1206-.2922-.0153-.067-.0257-.135-.0311-.2035 0-.0898.0153-.1789.0453-.2635.0341-.091.089-.1728.1602-.2388.0331-.0309.0679-.0598.1042-.0866.0316-.0183.0623-.0327.0943-.0479.1072-.0493.2215-.0811.3387-.0944.3349-.0239.6716-.0001.9998.0708.3067.0556.6003.1299.8927.2068l.8718.2771.8433.3382c2.2027.994 4.1563 2.313 6.19 3.474 2.0204 1.18 4.11 2.237 6.2574 3.166 2.1546.918 4.3567 1.72 6.5969 2.402l.0027.001c.0614.019.1144.058.1504.111.036.054.0527.118.0474.182-.194 2.189-.2726 4.386-.2354 6.583.0152 1.093.1085 2.183.2794 3.262.0812.527.2325 1.04.4498 1.527.1012.219.2525.411.4418.56.0485.021.0955.044.1424.069.0495.015.1023.014.1529.026.1138.013.2692.005.4018.009l13.243.036c4.4143.022 8.8284-.002 13.2426-.007l13.2428-.045-.1527.067c.9017-.949 1.8886-1.814 2.9483-2.584 1.0574-.78 2.206-1.429 3.4204-1.932 1.2274-.517 2.546-.781 3.8776-.779.6757.012 1.3472.11 1.9985.29l1.8347.615c.6131.199 1.2279.393 1.844.573.5925.199 1.2056.332 1.8281.394.69.078 1.358.295 1.963.637.318.17.606.392.851.657.137.147.243.319.312.508.068.188.099.389.088.589.018.341.006.683-.034 1.023-.042.394-.209.764-.476 1.057-.287.284-.665.456-1.067.488-.354.037-.712.026-1.063-.034-.334-.052-.665-.128-.9892-.225l-.9258-.28c-.296-.085-.5971-.151-.9014-.197-.252-.052-.5122-.049-.7632.007l.0915-.63c1.225.858 2.6631 1.36 4.1561 1.451.755.04 1.511-.004 2.256-.13.77-.105 1.533-.234 2.308-.363.39-.062.778-.13 1.207-.158.235-.019.472-.005.703.042.279.06.532.208.719.424.161.192.285.412.365.65.227.638.261 1.329.097 1.986-.115.436-.321.844-.603 1.196s-.634.642-1.034.85c-.751.385-1.568.625-2.407.706l.366-.276c-.196.447-.439.873-.725 1.268-.285.4-.616.764-.987 1.085-.39.326-.834.583-1.311.758-.491.166-1.011.231-1.528.194l.392-.161c-.796.927-1.576 1.837-2.4719 2.713-.1144.109-.2353.219-.3699.327-.1385.106-.2836.202-.4342.289-.2828.16-.5767.299-.8793.416-.5903.229-1.2003.404-1.8224.522-1.232.23-2.4899.288-3.7378.172-.311-.022-.6184-.072-.9279-.107l-.9167-.161-.8593-.14-.8747-.091c-2.3808-.123-4.7678-.046-7.1358.23-2.3845.242-4.7622.601-7.1282 1.02-1.1738.209-2.3365.485-3.5208.746-1.1794.262-2.3628.517-3.5494.757-2.3743.474-4.7589.906-7.1576 1.249-4.7965.712-9.636 1.095-14.4848 1.146-.606.002-1.2118.025-1.8178.01l-1.8178-.04c-1.2122-.009-2.422-.095-3.6319-.167-1.2114-.052-2.4163-.192-3.6226-.31-.6059-.066-1.1993-.103-1.8172-.2-.6118-.094-1.2175-.225-1.814-.391-2.4091-.65-4.5944-1.947-6.319-3.75-1.7269-1.813-2.8189-4.138-3.1121-6.625-.5308-4.82-.7439-9.646-.8648-14.475-.1054-4.829-.1186-9.657-.0396-14.4852.0001-.0127.0053-.0247.0143-.0336.009-.0088.0212-.0137.0338-.0136s.0247.0053.0335.0143.0137.0212.0136.0338c.0202 4.8253.1314 9.6493.3335 14.4713.2134 4.816.4769 9.641 1.0756 14.41.3074 2.345 1.3684 4.526 3.0231 6.215 1.6488 1.69 3.7276 2.898 6.0124 3.494.5676.153 1.1438.272 1.7254.357.5757.085 1.1884.12 1.7824.18 1.1965.106 2.391.235 3.5924.276 1.1997.061 2.3986.136 3.6006.134l1.8017.025c.6005.009 1.2013-.018 1.8018-.026l1.8015-.037 1.7997-.093c1.2006-.047 2.3977-.152 3.5953-.249 1.1991-.078 2.3913-.237 3.587-.354 1.1923-.148 2.3853-.295 3.5738-.473 2.3791-.345 4.7449-.778 7.1025-1.254 1.1785-.24 2.3539-.496 3.53-.759 1.1717-.261 2.3579-.544 3.5601-.76 2.3855-.427 4.783-.795 7.2005-1.044 2.4284-.288 4.8775-.36 7.3186-.216l.925.101.9262.157.8652.155c.2898.034.5785.084.8693.105 1.1582.113 2.3264.066 3.4715-.142.5645-.104 1.1184-.259 1.6547-.464.2605-.099.5136-.217.7575-.352.1108-.064.2178-.134.3205-.21.1005-.08.2037-.172.3084-.271.8345-.807 1.6348-1.726 2.4141-2.627.045-.052.102-.094.166-.122s.133-.041.202-.039l.023.001c.388.028.778-.02 1.148-.141.373-.137.721-.336 1.028-.59.314-.271.596-.579.838-.916.246-.337.456-.699.628-1.079l.001-.002c.032-.073.083-.137.147-.185s.14-.079.219-.089c.72-.065 1.422-.264 2.07-.587.298-.148.561-.357.772-.614.211-.258.365-.556.452-.878.086-.323.104-.662.053-.993-.031-.306-.139-.6-.312-.855-.068-.085-.165-.143-.272-.161-.153-.03-.309-.038-.464-.026-.352.018-.737.079-1.12.136-.769.12-1.549.244-2.331.342-.8.125-1.612.162-2.42.11-1.6489-.115-3.2318-.691-4.5684-1.663l-.0071-.005c-.0525-.039-.0933-.092-.118-.152-.0248-.06-.0325-.126-.0223-.191.0102-.064.0378-.125.0799-.175.0422-.049.0972-.087.159-.107.3755-.113.7732-.128 1.1564-.047.3347.054.6656.13.9907.227l.9278.291c.294.092.594.164.898.215.586.1 1.223.089 1.536-.238.33-.322.351-.958.335-1.594.003-.073 0-.145-.008-.217-.001-.053-.013-.105-.034-.153-.043-.114-.107-.219-.189-.309-.195-.211-.423-.389-.675-.526-.521-.301-1.097-.497-1.694-.576-.6651-.072-1.3198-.219-1.9518-.438-.6238-.188-1.2407-.39-1.8556-.597l-1.8381-.637c-.5949-.167-1.2081-.261-1.8258-.279-1.2611-.014-2.5122.225-3.6797.701-2.3588.999-4.486 2.473-6.2485 4.332l-.0065.006c-.0191.02-.0419.035-.067.045-.0251.011-.0521.016-.0793.016l-13.2414-.044c-4.4139-.006-8.8278-.03-13.2415-.008l-13.2412.036c-.1429-.002-.2647.009-.4249-.004-.0856-.007-.1704-.021-.2538-.042l-.232-.107c-.2524-.184-.4554-.428-.5912-.709-.2424-.518-.4137-1.067-.5092-1.631-.1901-1.099-.301-2.21-.3319-3.325-.0682-2.216-.0195-4.435.1461-6.647l.2005.294c-2.2715-.658-4.5059-1.438-6.6936-2.336-2.1851-.911-4.3134-1.952-6.3734-3.119-2.0691-1.136-4.0386-2.457-6.1372-3.389l-.7957-.316-.8109-.254c-.2767-.0712-.5541-.14-.8266-.1879-.2476-.0531-.5011-.0734-.7539-.0604-.0338.0087-.0929.0158-.0847.0204l-.0055-.0014c.0084-.0021.016-.0067.0218-.0132.004-.0129.0317-.032.0366-.0602.0143-.1129-.0006-.0071.0623.0791.136.2186.297.4216.4797.6026.3988.404.8238.781 1.2724 1.129l.0039.003c.0715.056.1227.134.1455.223.0229.088.0162.181-.019.265-.0351.084-.0969.154-.1757.199-.0789.046-.1705.064-.2608.053-.951-.117-1.8436-.521-2.5579-1.16-.3614-.322-.6619-.706-.8873-1.1348-.1228-.2306-.2099-.4786-.2585-.7354-.0316-.1668-.0272-.3384.0129-.5033.033-.1227.0943-.2359.1791-.3304.0094-.0265.0031-.0025.0337-.0578.187-.3226.3765-.7314.5553-1.1128l.5307-1.1756 1.0271-2.3767c.3371-.7991.6806-1.5848.9698-2.3842.3009-.8007.5247-1.6115.7974-2.4459l.7925-2.4856c.2769-.8244.6051-1.6322.9052-2.4489 1.2206-3.2739 2.8311-6.3888 4.7969-9.2774.5009-.7198 1.038-1.4138 1.6093-2.0792.582-.6605 1.205-1.2838 1.8653-1.8661.1663-.1449.3269-.296.4978-.4355l.5309-.3983c.3523-.2693.7206-.517 1.1027-.7419.7705-.4821 1.6165-.8315 2.5027-1.0336l-.0602.0145c1.4956-.4272 3.0363-.6766 4.5902-.743 1.5344-.1009 3.0685-.1424 4.6008-.1357 3.0652.0066 6.1223.1618 9.175.4053l-.1178.0396c.5975-.6049 1.1451-1.2571 1.6375-1.9502l.7588-1.0411c.2389-.3764.5543-.6983.9257-.9447.3756-.2421.8033-.3918 1.2479-.4366.4357-.0517.8764-.043 1.3097.0258.8609.1434 1.6834.4618 2.4164.9357.0106.0067.018.0173.0208.0296.0028.0122.0006.025-.006.0356-.0067.0107-.0172.0183-.0294.0211-.0122.0029-.025.0009-.0357-.0057z"/><path d="m39.2266 72.4019c.5934.1683 1.132.4902 1.5612.9333.4423.4361.796.9537 1.0417 1.5241.2462.5672.3846 1.1754.4082 1.7933.0118.3041-.0038.6086-.0466.91-.0518.299-.1308.5926-.2361.8772-.1057-.2945-.1533-.5787-.2309-.8564-.0833-.276-.1332-.5508-.2257-.8134-.1477-.5217-.3287-1.0333-.542-1.5317-.2139-.4956-.4641-.9747-.7484-1.4336-.2978-.4875-.6256-.956-.9814-1.4028z"/><path d="m41.3048 83.8103c.1834 2.1131.2729 4.2258.3293 6.3381.0623 2.1124.069 4.2245.0649 6.3365-.0218 2.1119-.0557 4.2241-.145 6.3351-.0833 2.112-.2005 4.223-.4122 6.333-.1846-2.113-.2746-4.225-.3307-6.338-.0622-2.112-.0688-4.2243-.0636-6.3362.0231-2.1119.0569-4.2237.1465-6.3351.0836-2.1115.2002-4.2227.4108-6.3334z"/><path d="m84.8836 69.85c1.7434 1.0909 3.4548 2.227 5.1343 3.4085.8406.5899 1.6743 1.1905 2.501 1.8018l1.2305.9398c.2158.1618.419.3397.6079.5322l.2924.3053.2463.312c.6378.8224 1.2195 1.6867 1.7413 2.5872.5258.8872 1.0376 1.7803 1.5352 2.6792.9835 1.8059 1.9965 3.5917 3.0385 5.3572.521.8837 1.052 1.7614 1.594 2.6332l.809 1.3071c.24.4274.525.8278.851 1.1943.345.3383.755.6736 1.113 1.0947.423.4409.678 1.0165.72 1.6262-.032.6252-.305 1.2139-.761 1.643-.194.1968-.399.3834-.613.5592-.192.1544-.378.3165-.56.4838-.366.3364-.703.6899-1.046 1.0701-.349.3856-.711.7602-1.077 1.1292-.74.74-1.526 1.431-2.3535 2.072-.8432.653-1.7612 1.203-2.7345 1.639-.5105.216-1.0469.364-1.5958.442-.5764.085-1.1649.034-1.7179-.15-.0881-.026-.1633-.085-.2109-.164l-.0031-.005c-.3574-.592-.7485-1.182-1.1442-1.76-.3954-.58-.8094-1.146-1.2421-1.699-.4344-.548-.8987-1.0718-1.3907-1.569-.4736-.5115-1.0537-.9127-1.6994-1.1755l-.0035-.0013c-.0113-.004-.0207-.0121-.0263-.0227-.0056-.0107-.0069-.0231-.0037-.0347s.0106-.0215.0208-.0278c.0103-.0063.0225-.0086.0343-.0062.7055.182 1.3578.5287 1.9034 1.0116.5596.4525 1.0839.9466 1.5685 1.4786.9739 1.055 1.8688 2.18 2.6774 3.366l-.2138-.169c.9065.185 1.8491.048 2.6653-.387.8912-.425 1.7289-.954 2.4956-1.576.7941-.617 1.5541-1.277 2.2751-1.9777.365-.3489.726-.7031 1.075-1.0688.354-.3723.736-.7523 1.135-1.0988.2-.1743.405-.3437.618-.5055.192-.1604.374-.2974.535-.4608.312-.2687.515-.6413.573-1.0488-.025-.4228-.193-.8244-.478-1.1381-.291-.3752-.659-.715-1.017-1.1232-.094-.1066-.182-.2185-.264-.335l-.206-.3492-.372-.6813-.726-1.3592c-.478-.9081-.968-1.8097-1.467-2.7049-1.0016-1.7892-2.0574-3.5485-3.2011-5.2503-1.1337-1.6994-2.2838-3.4198-3.5121-4.9898l-.2321-.2902-.2422-.2475c-.1661-.1777-.3462-.3416-.5386-.4903l-1.1968-.9508-2.4163-1.8973c-1.6145-1.2634-3.2082-2.5572-4.7812-3.8814-.0092-.0078-.0152-.0187-.0167-.0307s.0016-.0242.0088-.0339c.0071-.0098.0176-.0166.0295-.0189s.0242 0 .0344.0065z"/><path d="m91.258 85.2227c-.8334 3.1316-1.6202 6.2709-2.2775 9.4226-.3381 1.5621-.5742 3.1447-.7068 4.7375-.045.7662-.0496 1.6112-.1168 2.4312-.0655.836-.2054 1.664-.4179 2.475-.5003 1.603-1.3019 3.096-2.3618 4.399-.4897.653-1.0087 1.284-1.4945 1.919-.2337.315-.4708.628-.6807.965-.225.325-.4285.667-.631 1.011-.7972 1.393-1.51 2.833-2.1345 4.312-.6588 1.472-1.227 2.986-1.7822 4.509.707-3.184 1.8043-6.268 3.2672-9.182.3777-.737.8104-1.444 1.2943-2.116.48-.664.9718-1.297 1.4351-1.952.9748-1.226 1.7114-2.623 2.1714-4.12.2042-.754.341-1.524.4089-2.302.0757-.793.0732-1.568.1461-2.4161.17-1.6313.4647-3.2471.8813-4.8334.7991-3.148 1.801-6.2411 2.9994-9.2598z"/><path d="m105.188 97.0115c1.047.8135 2.04 1.6802 3.048 2.4872.254.1963.508.3895.758.5593l.415.247c.152.097.298.198.436.304.534.431 1.026.912 1.468 1.437.879 1.04 1.569 2.224 2.041 3.501.494 1.264.634 2.639.404 3.977-.139-1.285-.506-2.535-1.084-3.691-.563-1.14-1.264-2.206-2.087-3.174-.397-.486-.836-.936-1.312-1.345-.116-.102-.234-.196-.353-.284l-.413-.286c-.271-.21-.529-.438-.77-.682-.943-.9362-1.797-1.9573-2.551-3.0505z"/><path d="m94.6758 104.27c.9361 1.256 1.5758 2.707 1.8711 4.245.0331.196.0612.394.0876.593.0185.192.0206.419.0447.584.0368.337.117.667.2386.983.2655.675.6058 1.318 1.0146 1.917.4048.62.8502 1.212 1.3332 1.774.2333.289.4913.558.7394.836.269.256.514.54.791.788 1.056 1.073 2.321 1.917 3.716 2.48-.777-.079-1.533-.299-2.231-.65-.698-.355-1.357-.78-1.97-1.267-1.2332-.972-2.3047-2.133-3.1747-3.44-.4419-.669-.8007-1.39-1.0685-2.146-.1292-.404-.2033-.825-.2202-1.249-.0125-.215-.0069-.37-.0069-.559l-.0273-.545c-.1707-1.495-.5538-2.957-1.1376-4.344z"/><path d="m105.188 116.487c.095-.613.307-1.202.626-1.735.312-.538.692-1.035 1.129-1.478.443-.435.934-.818 1.464-1.141.263-.161.535-.306.814-.437.285-.117.571-.231.861-.326-.505.351-1.003.687-1.476 1.054-.471.362-.92.752-1.343 1.169-.417.421-.803.872-1.153 1.349-.358.484-.667 1.001-.922 1.545z"/><path d="m106.903 117.574c1.058-1.691 2.217-3.316 3.47-4.868.627-.778 1.278-1.537 1.954-2.279.688-.737 1.416-1.436 2.181-2.092.78-.685 1.658-1.25 2.605-1.676.512-.215 1.063-.321 1.619-.31.569.015 1.125.174 1.616.463.914.588 1.613 1.457 1.994 2.475.198.484.342.99.428 1.506.106.535.095 1.086-.032 1.616l-.152-.334c1.07.547 2.102 1.138 3.124 1.754 1.021.616 2.029 1.256 2.999 1.951.992.676 1.911 1.453 2.742 2.318.421.447.777.949 1.06 1.494.311.579.385 1.257.206 1.89l.005-.018c-.135.525-.425.996-.832 1.352-.221.178-.478.304-.754.371-.275.068-.562.074-.839.018-.516-.105-1.006-.31-1.443-.602-.421-.275-.818-.584-1.187-.923l.638-.276c-.018.653-.158 1.297-.412 1.898-.25.607-.623 1.156-1.096 1.611-.474.448-1.029.801-1.636 1.041-.257.111-.507.237-.749.376-.112.064-.219.135-.321.213-.038.03-.074.062-.107.097-.026.022-.019.048.004-.037l-.162-.455c.297.257.542.568.723.917.193.358.294.758.294 1.165s-.101.807-.294 1.165c-.175.34-.406.649-.684.912-.556.525-1.264.861-2.022.963-.352.042-.706.059-1.061.049-.381-.001-.76-.061-1.123-.178l.337.001c-1.108.343-2.248.578-3.402.701-1.151.117-2.312.111-3.462-.019-.598-.057-1.186-.196-1.747-.412-.312-.121-.594-.307-.827-.547-.233-.239-.412-.526-.524-.841-.165-.63-.089-1.299.213-1.877.134-.28.309-.538.517-.768.223-.278.542-.461.894-.513l-.039.005c.166-.025.333-.039.501-.042.165-.004.33.002.494.018.336.027.664.115.969.259l-.245.286c-.152-.268-.27-.554-.352-.851-.086-.296-.124-.603-.113-.91.011-.311.098-.614.255-.882.159-.259.375-.478.632-.64.01-.007.023-.01.036-.007.012.002.023.01.03.02.006.01.009.022.007.034s-.008.023-.018.03c-.223.173-.403.395-.527.649-.118.249-.173.523-.162.799.013.276.07.549.168.808.095.259.22.506.373.735.023.035.035.075.034.117-.002.041-.016.081-.042.114-.026.032-.061.056-.101.067s-.082.01-.121-.005l-.015-.006c-.27-.098-.553-.153-.84-.161-.146-.005-.292-.002-.437.01-.143.011-.285.031-.426.06l-.019.003-.02.002c-.2.069-.373.199-.494.372-.158.196-.287.415-.383.649-.204.439-.238.938-.097 1.402.089.211.222.401.391.557.169.155.369.272.587.343.496.167 1.012.267 1.535.297 1.089.083 2.183.049 3.265-.1 1.079-.134 2.144-.37 3.179-.706.105-.036.219-.037.325-.003l.012.004c.559.123 1.136.146 1.703.069.548-.071 1.06-.311 1.464-.688.396-.345.645-.829.694-1.353.002-.25-.056-.497-.17-.72-.117-.235-.275-.447-.466-.627l-.034-.031c-.057-.053-.099-.12-.122-.195-.022-.075-.024-.154-.006-.23.038-.157.118-.302.233-.416.07-.073.146-.14.227-.2.137-.101.281-.193.43-.275.278-.153.565-.29.859-.41.512-.187.983-.472 1.388-.838.397-.369.717-.813.942-1.306.229-.494.366-1.026.406-1.569l.001-.028c.005-.072.03-.141.072-.199s.1-.102.167-.128.14-.033.21-.019c.071.015.136.049.187.098.329.323.683.62 1.058.888.35.265.748.459 1.172.573.193.052.395.061.591.025s.382-.114.544-.231c.334-.269.58-.63.707-1.039l.005-.018c.167-.518.127-1.081-.113-1.57-.238-.524-.56-1.007-.952-1.43-.799-.864-1.689-1.639-2.655-2.311-1.948-1.342-4.023-2.49-6.195-3.427-.058-.026-.106-.072-.135-.129-.028-.057-.036-.123-.022-.185l.005-.02c.071-.446.05-.903-.062-1.341-.103-.459-.257-.906-.46-1.331-.363-.841-.971-1.551-1.746-2.039-.382-.208-.807-.324-1.242-.341-.434-.017-.867.067-1.264.244-.87.384-1.681.892-2.406 1.508-.762.615-1.489 1.272-2.179 1.968-.702.689-1.381 1.406-2.041 2.142-1.312 1.48-2.589 3-3.813 4.564-.004.005-.009.009-.014.013-.005.003-.011.005-.018.006-.006.001-.012 0-.018-.001-.006-.002-.012-.005-.017-.008-.009-.008-.016-.018-.018-.03s0-.024.006-.034z"/><path d="m116.466 110.322c.005.881.117 1.758.334 2.612.112.404.291.787.529 1.132.225.324.563.553.948.64.398.095.813.09 1.208-.014.41-.095.798-.266 1.145-.504.721-.501 1.345-1.13 1.839-1.856-.35.845-.908 1.587-1.623 2.158-.368.307-.8.527-1.265.644-.464.117-.949.128-1.419.033-.49-.119-.918-.419-1.198-.839-.255-.398-.433-.841-.524-1.306-.163-.894-.154-1.81.026-2.7z"/><path d="m123.473 118.742c.905.032 1.785.304 2.551.787.386.233.744.511 1.067.827.323.312.604.664.836 1.048-.338-.293-.664-.584-1.01-.848-.341-.268-.698-.514-1.069-.737-.369-.226-.752-.428-1.147-.605-.399-.184-.809-.341-1.228-.472z"/><path d="m113.504 127.285c.21.212.452.39.717.527.258.15.519.29.784.427.529.272 1.066.533 1.606.789 1.077.523 2.167 1.022 3.22 1.639-1.183-.276-2.332-.681-3.426-1.21-.55-.262-1.082-.563-1.589-.9-.534-.312-.984-.748-1.312-1.272z"/><path d="m121.898 120.806c.186.102.349.242.478.411.074.09.128.195.156.308.029.113.033.231.012.345-.068.227-.209.425-.402.563-.175.134-.365.245-.567.33-.093.039-.183.085-.269.137-.082.04-.161.085-.236.136l-.206.18c-.062.068-.118.139-.17.215-.217.302-.347.658-.376 1.029-.054.366.001.74.158 1.075.158.335.411.616.727.808.078.052.164.092.255.116.09.029.178.069.271.094.192.037.388.061.583.07.202.006.404-.001.605-.021.2-.035.403-.065.611-.091-.192.075-.387.148-.586.215-.204.057-.412.1-.621.131-.215.018-.432.019-.648.003-.109-.019-.217-.044-.323-.075-.11-.021-.216-.058-.315-.111-.421-.191-.761-.523-.963-.938-.195-.412-.273-.87-.227-1.324.046-.453.215-.886.489-1.25.07-.091.146-.176.229-.256l.271-.213c.191-.11.392-.201.601-.273.364-.083.681-.303.886-.616.031-.085.042-.176.033-.266s-.038-.177-.084-.254c-.098-.178-.223-.34-.372-.478z"/><path d="m118.04 111.68c.056.25.132.495.229.733.08.225.222.423.41.571.094.067.202.112.315.134.114.021.23.018.342-.01.123-.022.244-.053.362-.093.119-.046.236-.098.363-.14-.099.085-.208.159-.315.24-.119.064-.243.118-.371.163-.137.046-.283.061-.427.042-.143-.02-.28-.072-.4-.152-.219-.179-.375-.424-.443-.698-.072-.257-.094-.525-.065-.79z"/><path d="m118.475 111.37c.255-.072.52-.107.785-.105.271.001.539.044.797.127.268.088.502.257.669.485.144.236.194.518.139.79-.031-.249-.127-.486-.278-.686-.164-.179-.373-.309-.606-.376-.489-.148-.996-.227-1.506-.235z"/><path d="m122.113 125.696c.094-.194.238-.359.417-.479.095-.065.202-.111.315-.135.113-.023.23-.024.344-.001.216.069.406.204.544.385.056.092.116.181.164.274.037.1.079.195.107.296-.139-.159-.262-.317-.401-.455-.13-.131-.29-.228-.467-.28-.176-.042-.362-.018-.522.068-.18.087-.348.197-.501.327z"/><path d="m113.758 126.751c.012-.373.107-.739.278-1.07.045-.093.109-.176.188-.243.078-.068.169-.119.268-.149.104-.02.212-.017.314.011.103.027.198.077.278.146.157.118.29.265.393.432.105.178.14.388.099.59-.056.182-.151.35-.279.491s-.286.252-.462.326c.285-.206.486-.506.57-.847.014-.159-.023-.318-.106-.455-.093-.138-.211-.258-.348-.354-.054-.053-.119-.094-.19-.118s-.147-.032-.222-.022c-.149.049-.275.15-.356.284-.187.304-.33.633-.425.978z"/><path d="m107.952 123.993c-.023.372-.127.735-.307 1.062-.047.091-.113.172-.193.238-.08.065-.173.114-.272.142-.105.017-.212.011-.314-.019s-.196-.083-.274-.154c-.154-.122-.283-.272-.381-.443-.101-.18-.131-.39-.084-.591.061-.181.16-.346.292-.484.132-.137.292-.245.469-.314-.289.199-.498.494-.591.832-.019.159.014.319.094.457.09.141.204.264.339.364.052.054.116.096.187.122.07.026.146.036.221.029.15-.046.279-.144.363-.276.195-.299.347-.624.451-.965z"/><path d="m111.359 130.15c.098-.257.234-.497.406-.712.087-.114.192-.213.31-.295.068-.05.147-.084.231-.097s.169-.005.25.022c.142.081.248.212.299.367.051.132.083.271.095.413.034.273.022.55-.036.819-.029-.265-.074-.528-.135-.788-.029-.124-.067-.245-.114-.363-.054-.104-.119-.216-.201-.241-.154-.084-.395.107-.571.28-.188.189-.366.388-.534.595z"/><path d="m105.185 117.602-1.923 2.119s.014 2.708-1.357 2.823c0 0-.695.628-.2.757.443.109 2.038-.286 2.728-.205 0 0 3.27-.648 3.827-.295.168.113.309.262.413.435.105.174.17.368.192.569l.266-.028 10.316.614 4.475-6.789zm13.291 4.751-14.476-.243 1.89-3.041h14.504z"/><path d="m93.3223 122.545c.5579-.407 1.1888-.702 1.8583-.871.6805-.175 1.3853-.236 2.0857-.18.0628.005.1211.035.1621.083.0409.048.0613.11.0565.173-.0047.063-.0341.121-.0818.162s-.1097.062-.1726.058c-.0098-.001-.0196-.003-.0293-.004-.6501-.129-1.3169-.148-1.9734-.058-.6702.088-1.3171.304-1.9055.637z"/><path d="m97.2344 127.462c1.3394.025 2.6785.072 4.0186.199.331.03.678.084.998.121.323.035.649.042.974.019.642-.043 1.273-.195 1.866-.447l.015-.007c.058-.026.124-.027.182-.004.059.022.107.068.132.126.026.057.027.123.004.182-.022.059-.068.106-.126.132l-.013.005c-.656.239-1.348.364-2.046.37-.345.003-.69-.024-1.03-.081-.342-.061-.653-.13-.987-.18-1.3176-.205-2.653-.331-3.9876-.435z"/><path d="m98.2656 131.156c.4541-.163.913-.316 1.3768-.457.4686-.148.9476-.265 1.4316-.35.062-.011.126.005.178.042.051.037.086.093.096.155.01.063-.005.127-.042.178-.037.052-.093.086-.156.096-.013.002-.025.003-.038.003h-.005c-.473.006-.946.042-1.4148.109-.476.062-.9521.137-1.4266.224z"/><path d="m100.059 119.128c.243.253.53.46.846.613.32.148.656.259 1.001.332-.183.043-.371.052-.557.029-.188-.025-.372-.078-.544-.158-.169-.087-.324-.201-.457-.337-.133-.134-.233-.299-.289-.479z"/><path d="m107.324 127.546c-.126 0-.248-.049-.337-.138-.09-.089-.141-.21-.141-.336-.001-.126.049-.248.138-.337.088-.09.209-.141.336-.141l6.03-.057c.063-.002.125.009.184.032.058.023.111.057.156.101s.081.097.105.155.036.12.035.183c.001.063-.011.125-.034.183-.024.058-.058.111-.102.155-.044.045-.096.08-.154.105-.057.024-.119.037-.181.038l-6.031.057z"/><path d="m123.894 127.391c-.126 0-.247-.05-.336-.139-.09-.089-.14-.21-.14-.336 0-.127.05-.248.139-.337s.21-.14.337-.14l16.622-.022h.001c.126 0 .247.05.336.14.09.089.14.21.14.336s-.05.248-.139.337-.211.139-.337.14l-16.622.021z"/><path d="m234.246 127.245c-.126 0-.248-.05-.337-.14-.089-.089-.139-.21-.139-.336-.001-.126.05-.248.139-.337s.21-.139.336-.139l15.279-.019c.126 0 .248.05.337.139s.139.21.14.337c0 .126-.051.247-.14.336-.089.09-.21.14-.336.14l-15.278.019z"/><path d="m147.228 126.999h-1.131c-.03 0-.059-.012-.08-.033-.022-.021-.034-.05-.035-.08 0-.015.003-.029.008-.043.006-.014.014-.026.025-.037.01-.01.022-.018.036-.024.013-.006.028-.009.043-.009h1.134c.015 0 .029.003.043.009.014.005.026.014.037.024.011.011.019.023.025.037.005.014.008.028.008.043s-.003.03-.008.044c-.006.013-.014.026-.025.036-.011.011-.023.019-.037.025-.014.005-.028.008-.043.008z"/><path d="m.478247 128.542c-.126252 0-.247565-.049-.337253-.138-.0896883-.089-.14040306-.21-.14098887-.336s.04900567-.248.13786487-.337c.08886-.09.209709-.141.335961-.141l20.958569-.195c.1251.002.2447.052.3341.14s.1418.206.1463.331c.0006.063-.0111.125-.0345.183s-.0579.111-.1017.155c-.0438.045-.096.081-.1535.105-.0576.025-.1194.037-.1819.038l-20.958536.195z"/><path d="m79.5232 62.6502c.1761-.0061.3429-.0803.4653-.207s.1908-.296.1908-.4721c0-.1762-.0684-.3454-.1908-.4721s-.2892-.2009-.4653-.207c-.176.0061-.3428.0803-.4652.207s-.1908.2959-.1908.4721c0 .1761.0684.3454.1908.4721s.2892.2009.4652.207z"/><path d="m113.851 49.4785-5.559.2071c-1.824.0553-3.628.0995-5.421.1329-1.791.0249-3.5752.0533-5.3523.0333-1.7782-.0134-3.5561-.0929-5.3518-.1425l.2643-.2644c-.0286 1.0258-.0751 2.0518-.0889 3.0777-.0252 1.0259-.0261 2.0517-.0322 3.0777-.0014 2.0518.0417 4.1036.0996 6.1553l-.2428-.2429 4.4364-.1231c.0452-.0014.0903.0063.1325.0226s.0807.0408.1134.0721l.0131.0125 1.6943 1.6295h-.5825l1.6383-1.6854c.0395-.0407.0867-.0732.1388-.0956.0521-.0223.1082-.0341.1649-.0346l.0112-.0002c2.3267-.0191 4.6527-.0669 6.9787-.0626 1.163-.0058 2.326-.001 3.489.0143l3.489.0441-.449.4493c.032-1.9995.09-3.9994.173-6.0406zm.067-.0673.244 6.0743c.082 2.0624.14 4.1661.172 6.2702.002.1173-.043.2306-.125.3149-.082.0842-.194.1326-.311.1344h-.001l-.013.0001-3.489.0442c-1.163.0139-2.326.0187-3.489.0142-2.326.0043-4.652-.0434-6.9787-.0626l.3147-.1303-1.6853 1.6384-.0099.0096c-.038.037-.083.0661-.1323.0857s-.102.0293-.155.0286c-.0531-.0008-.1054-.012-.1542-.033-.0487-.021-.0928-.0514-.1298-.0894l-.0015-.0015-1.6295-1.6943.2588.1072-4.4364-.1232-.0136-.0004c-.0626-.0017-.1219-.0283-.1649-.0738-.0431-.0454-.0663-.1061-.0645-.1687v-.0001c.058-2.0518.101-4.1036.0996-6.1554-.0061-1.026-.007-2.0518-.0321-3.0777-.0139-1.0258-.0604-2.0518-.089-3.0777-.0009-.0337.0048-.0673.0169-.0989.012-.0315.0301-.0603.0533-.0849.0232-.0245.051-.0442.0818-.058s.0641-.0213.0978-.0223h.0002l.0145-.0003c1.8238-.0496 3.6655-.1292 5.507-.1425 1.8424-.02 3.6771.0084 5.5061.0332 1.827.0334 3.643.0777 5.439.133z"/><path d="m177.721 26.7059-8.182.1416-8.113.1023-16.113.1132-8.017-.0283-8.011-.1013c-5.347-.0821-10.72-.1212-16.091-.1078l.154-.1532.028 6.1553.071 6.1554-.253-.2526c4.734-.0645 9.467-.1256 14.2-.1583l14.2-.0784c4.734-.0366 9.467.0055 14.2.0045 4.734-.0059 9.467.0563 14.2.0942l.007.0001c.102.0009.199.0421.27.1144l1.647 1.6767h-.523l1.681-1.6434.006-.0061c.031-.0306.068-.0546.109-.0708.04-.0162.084-.0243.127-.0237l4.437.0645-.279.2789c.032-2.0202.059-4.0403.115-6.0875zm.068-.0672.13 6.121c.056 2.0565.082 4.14.115 6.2234.001.0728-.027.1431-.078.1954-.05.0522-.12.0823-.192.0834h-.001l-.008.0001-4.437.0645.243-.1005-1.643 1.6804c-.068.0693-.16.1088-.257.1099s-.191-.0364-.26-.1042l-.001-.0006-.005-.0051-1.677-1.647.276.1143c-4.733.0379-9.466.1001-14.2.0943-4.733-.0011-9.466.041-14.2.0044l-14.2-.0783c-4.733-.0328-9.466-.0938-14.2-.1583h-.006c-.033-.0004-.065-.0073-.095-.0202-.031-.0129-.058-.0316-.081-.0551s-.041-.0512-.053-.0817c-.012-.0304-.018-.0629-.018-.0957l.071-6.1554.029-6.1554c0-.0406.016-.0796.045-.1084s.068-.045.108-.0451c5.39.0136 10.776-.0256 16.19-.1076l8.128-.1013 8.124-.0284 16.167.1133 8.028.1022z"/><path d="m132.893.435054c-3.491.099367-6.922.168518-10.334.228022-3.419.07101-6.797.102738-10.174.128767-3.376.026501-6.729.00535-10.089-.069844-3.3622-.057529-6.7397-.151317-10.1287-.168173l.1524-.15236c-.0014 1.025854-.016 2.051734-.0046 3.077604l.0188 3.07771c.0025 2.05185.0525 4.10362.0825 6.15542l-.2491-.2492 4.4365-.083c.0416-.0009.083.0065.1218.0218.0388.0152.0743.0379.1043.0668l.0089.0087 1.6885 1.6352h-.523l1.6409-1.6827c.0356-.0365.078-.0656.1248-.0857s.0972-.0307.1482-.0312l.0096-.0001 8.2492-.0717c2.75-.0219 5.5-.042 8.25-.0377 5.5-.0025 11 .0779 16.499.1511l-.357.3577.146-6.06779zm.067-.067288.178 6.101394.146 6.24304c.002.0927-.033.1824-.097.2494-.064.0671-.151.1059-.244.1081l-.004.0001-.013.0002c-5.499.0732-10.999.1536-16.499.151-2.75.0045-5.5-.0158-8.25-.0375l-8.2493-.0718.2823-.1169-1.6827 1.6409-.0075.0073c-.0691.0674-.1622.1046-.2587.1034s-.1886-.0407-.256-.1098l-.0009-.0009-1.6353-1.6885.2348.0973-4.4364-.0831-.0083-.0001c-.0322-.0005-.064-.0073-.0935-.0201-.0296-.0128-.0563-.0313-.0787-.0545-.0223-.0231-.04-.0504-.0518-.0804-.0118-.0299-.0176-.0619-.017-.0941.03-2.0518.0801-4.10356.0826-6.15541l.0188-3.07772c.0114-1.02585-.0032-2.05173-.0046-3.0776 0-.040452.0161-.079239.0447-.107848s.0673-.044701.1078-.044748c3.4041-.016852 6.8197-.110642 10.2507-.1680423 3.433-.07530856 6.873-.0963424 10.291-.0699749 3.416.0261486 6.831.0578772 10.205.1288872 3.382.05939 6.744.128656 10.046.228019z"/></g></svg>