<svg fill="none" height="60" viewBox="0 0 60 60" width="60" xmlns="http://www.w3.org/2000/svg"><path d="m0 8c0-4.41828 3.58172-8 8-8h43.27c4.4183 0 8 3.58172 8 8v43.27c0 4.4183-3.5817 8-8 8h-43.27c-4.41828 0-8-3.5817-8-8z" fill="#b1d26f"/><g fill="#000"><path clip-rule="evenodd" d="m51.27 1h-43.27c-3.86599 0-7 3.13401-7 7v43.27c0 3.866 3.13401 7 7 7h43.27c3.866 0 7-3.134 7-7v-43.27c0-3.86599-3.134-7-7-7zm-43.27-1c-4.41828 0-8 3.58172-8 8v43.27c0 4.4183 3.58172 8 8 8h43.27c4.4183 0 8-3.5817 8-8v-43.27c0-4.41828-3.5817-8-8-8z" fill-rule="evenodd"/><path d="m22.968 24.8-3.488 5.072-3.488-5.072h-2.992l5.184 7.232v3.968h2.592v-3.968l5.184-7.232z"/><path d="m29.443 27.248c-2.48 0-5.088 1.28-5.088 4.496s2.608 4.496 5.088 4.496c2.496 0 5.088-1.28 5.088-4.496s-2.592-4.496-5.088-4.496zm0 7.312c-2.048 0-2.8-1.328-2.8-2.816 0-1.504.752-2.832 2.8-2.832s2.816 1.328 2.816 2.832c0 1.488-.768 2.816-2.816 2.816z"/><path d="m39.4476 36.24c1.824 0 2.864-.928 3.232-1.44v1.2h2.432v-8.528h-2.432v5.04c0 .992-.672 1.904-2.176 1.904s-2.096-.88-2.096-1.904v-5.04h-2.432v5.648c0 1.92 1.28 3.12 3.472 3.12z"/></g></svg>