<svg width="173" height="19" viewBox="0 0 173 19" fill="none" xmlns="http://www.w3.org/2000/svg"><path d="M3.76923 7.60194V3.64194H5.24523C6.07323 3.64194 7.40523 3.96594 7.40523 5.60394C7.40523 7.11594 6.32523 7.60194 5.20923 7.60194H3.76923ZM7.83723 14.9999H11.7072L8.59324 9.18594V9.14994C9.90723 8.55594 11.1132 7.33194 11.1132 5.36994C11.1132 3.29994 9.94324 2.23794 8.53924 1.67994C7.60323 1.30194 6.54123 1.22994 5.71323 1.22994H0.115234V14.9999H3.76923V10.0859H5.37123L7.83723 14.9999Z" fill="#000"/><path d="M18.0061 9.09594H15.0181C15.1261 7.76394 15.5941 7.11594 16.5121 7.11594C17.3941 7.11594 17.8801 7.72794 17.9881 8.96994L18.0061 9.09594ZM21.5341 12.0119H18.0421C17.8621 12.6059 17.5201 12.9659 16.6381 12.9659C15.7021 12.9659 15.1441 12.4799 15.0361 10.9139H21.5881V10.2119C21.5881 7.15194 20.0941 5.02794 16.5121 5.02794C13.3801 5.02794 11.4901 7.04394 11.4901 10.0859C11.4901 13.3259 13.2901 15.2519 16.5121 15.2519C19.5541 15.2519 21.2641 14.1179 21.5341 12.0119Z" fill="#000"/><path d="M25.9329 7.65594H27.6069V5.26194H25.9329V4.52394C25.9329 3.46194 26.3829 3.10194 27.1749 3.10194C27.6249 3.10194 27.9309 3.15594 27.9309 3.15594V0.797941C27.9309 0.797941 27.2469 0.689941 26.2929 0.689941C24.0429 0.689941 22.4949 1.51794 22.4949 4.41594V5.26194H21.3069V7.65594H22.4949V14.9999H25.9329V7.65594Z" fill="#000"/><path d="M33.8897 9.09594H30.9017C31.0097 7.76394 31.4777 7.11594 32.3957 7.11594C33.2777 7.11594 33.7637 7.72794 33.8717 8.96994L33.8897 9.09594ZM37.4177 12.0119H33.9257C33.7457 12.6059 33.4037 12.9659 32.5217 12.9659C31.5857 12.9659 31.0277 12.4799 30.9197 10.9139H37.4717V10.2119C37.4717 7.15194 35.9777 5.02794 32.3957 5.02794C29.2637 5.02794 27.3737 7.04394 27.3737 10.0859C27.3737 13.3259 29.1737 15.2519 32.3957 15.2519C35.4377 15.2519 37.1477 14.1179 37.4177 12.0119Z" fill="#000"/><path d="M38.0841 14.9999H41.5761V10.4459C41.5761 8.57394 42.5121 8.17794 44.2761 8.17794H44.8881V5.11794H44.7261C43.4841 5.11794 42.0441 5.71194 41.4501 7.43994H41.4141V5.26194H38.0841V14.9999Z" fill="#000"/><path d="M45.2349 14.9999H48.7629V9.47394C48.7629 8.15994 49.3569 7.52994 50.2569 7.52994C50.7429 7.52994 51.1029 7.69194 51.3369 8.03394C51.5349 8.33994 51.5889 8.78994 51.5889 9.47394V14.9999H55.1169V9.47394C55.1169 8.15994 55.7109 7.52994 56.6109 7.52994C57.0969 7.52994 57.4569 7.69194 57.6909 8.03394C57.8889 8.33994 57.9429 8.78994 57.9429 9.47394V14.9999H61.4709V8.91594C61.4709 6.46794 60.6249 5.08194 58.1049 5.08194C56.2329 5.08194 55.2609 6.25194 54.8649 7.09794H54.8289C54.4689 5.94594 53.7129 5.08194 51.7509 5.08194C50.1309 5.08194 49.2309 5.90994 48.6729 6.84594H48.6369V5.26194H45.2349V14.9999Z" fill="#000"/><path d="M66.2932 13.0199C65.6272 13.0199 65.2312 12.5519 65.2312 11.9939C65.2312 11.6519 65.3572 11.3279 65.6632 11.1299C66.0232 10.8959 66.5452 10.7879 67.7692 10.7159V11.0579C67.7692 12.2639 67.1572 13.0199 66.2932 13.0199ZM65.5012 8.26794C65.5372 7.60194 65.9332 7.22394 66.6352 7.22394C67.3912 7.22394 67.7332 7.72794 67.7332 8.44794V9.02394C65.7352 9.11394 64.2952 9.14994 63.2512 9.70794C62.2972 10.2119 61.7752 10.9859 61.7752 12.1379C61.7752 13.9919 63.1072 15.0899 65.1772 15.0899C66.5452 15.0899 67.3552 14.6219 68.0212 13.8479H68.0752C68.4532 14.8739 69.2092 14.9999 70.5232 14.9999H71.8732V12.6599C71.3332 12.6599 71.1532 12.5159 71.1532 12.1379V9.07794C71.1532 6.48594 70.1272 5.04594 66.5992 5.04594C63.9532 5.04594 62.2612 6.21594 62.1352 8.26794H65.5012Z" fill="#000"/><path d="M73.4498 2.57994V3.33594C73.4498 5.02794 73.2698 5.26194 72.0818 5.26194H71.7218V7.65594H72.9998V11.8679C72.9998 14.3519 74.3858 15.1259 76.3118 15.1259C77.1038 15.1259 77.8598 15.0719 78.4178 14.9999V12.5339C78.4178 12.5339 78.0218 12.5879 77.7338 12.5879C76.7978 12.5879 76.4738 12.1559 76.4738 11.1839V7.65594H78.4718V5.26194H76.4198V2.57994H73.4498Z" fill="#000"/><path d="M85.0421 9.09594H82.0541C82.1621 7.76394 82.63 7.11594 83.548 7.11594C84.4301 7.11594 84.9161 7.72794 85.0241 8.96994L85.0421 9.09594ZM88.5701 12.0119H85.0781C84.8981 12.6059 84.556 12.9659 83.674 12.9659C82.738 12.9659 82.1801 12.4799 82.0721 10.9139H88.6241V10.2119C88.6241 7.15194 87.1301 5.02794 83.548 5.02794C80.416 5.02794 78.5261 7.04394 78.5261 10.0859C78.5261 13.3259 80.326 15.2519 83.548 15.2519C86.5901 15.2519 88.3001 14.1179 88.5701 12.0119Z" fill="#000"/><path d="M102.58 5.78386C103.024 5.78386 103.426 5.87386 103.786 6.05386C104.158 6.23386 104.428 6.44986 104.596 6.70186L104.74 5.92786H106.99L105.244 14.9999H102.994L103.174 14.0639C102.982 14.3279 102.658 14.5739 102.202 14.8019C101.758 15.0299 101.278 15.1439 100.762 15.1439C99.6825 15.1439 98.8485 14.8019 98.2605 14.1179C97.6845 13.4219 97.3965 12.5399 97.3965 11.4719C97.3965 9.77986 97.8525 8.41186 98.7645 7.36786C99.6765 6.31186 100.948 5.78386 102.58 5.78386ZM99.7905 11.0579C99.7905 11.7419 99.9405 12.2759 100.24 12.6599C100.552 13.0439 100.954 13.2359 101.446 13.2359C102.298 13.2359 102.964 12.8879 103.444 12.1919C103.924 11.4959 104.164 10.6619 104.164 9.68986C104.164 9.05386 104.014 8.56186 103.714 8.21386C103.414 7.86586 103.012 7.69186 102.508 7.69186C101.656 7.69186 100.99 8.04586 100.51 8.75386C100.03 9.44986 99.7905 10.2179 99.7905 11.0579Z" fill="#3ECF8E"/><path d="M108.612 5.92786H110.862L110.574 7.38586C111.414 6.31786 112.428 5.78386 113.616 5.78386C114.348 5.78386 114.906 5.96386 115.29 6.32386C115.686 6.68386 115.884 7.18186 115.884 7.81786C115.884 8.05786 115.86 8.29186 115.812 8.51986L114.552 14.9999H112.302L113.436 9.18586C113.472 8.98186 113.49 8.80786 113.49 8.66386C113.49 8.35186 113.4 8.11186 113.22 7.94386C113.052 7.77586 112.818 7.69186 112.518 7.69186C111.942 7.69186 111.402 8.02186 110.898 8.68186C110.394 9.32986 110.028 10.2299 109.8 11.3819L109.098 14.9999H106.848L108.612 5.92786Z" fill="#3ECF8E"/><path d="M116.732 5.92786H118.982L119.882 11.6159L122.87 5.92786H125.228L118.136 18.6719H115.886L118.208 14.4959L116.732 5.92786Z" fill="#3ECF8E"/><path d="M135.854 5.92786H138.212L133.64 14.9999H131.606L131.282 9.13186L128.654 14.9999H126.602L125.504 5.92786H127.808L128.114 12.0839L130.76 5.92786H132.884L133.136 12.0839L135.854 5.92786Z" fill="#3ECF8E"/><path d="M140.048 2.25586H142.298L141.308 7.38586C142.244 6.31786 143.282 5.78386 144.422 5.78386C145.154 5.78386 145.73 5.98186 146.15 6.37786C146.57 6.76186 146.78 7.27786 146.78 7.92586C146.78 8.12986 146.756 8.37586 146.708 8.66386L145.484 14.9999H143.234L144.332 9.31186C144.38 9.03586 144.404 8.83786 144.404 8.71786C144.404 8.03386 144.038 7.69186 143.306 7.69186C142.754 7.69186 142.214 7.98586 141.686 8.57386C141.17 9.16186 140.798 10.0259 140.57 11.1659L139.832 14.9999H137.582L140.048 2.25586Z" fill="#3ECF8E"/><path d="M156.228 10.2659L156.048 11.1839H149.532V11.4719C149.532 11.9639 149.694 12.3839 150.018 12.7319C150.354 13.0679 150.804 13.2359 151.368 13.2359C152.328 13.2359 153.156 12.7199 153.852 11.6879L155.634 12.6059C155.046 13.4819 154.404 14.1239 153.708 14.5319C153.012 14.9399 152.166 15.1439 151.17 15.1439C150.03 15.1439 149.094 14.7839 148.362 14.0639C147.642 13.3439 147.282 12.3659 147.282 11.1299C147.282 9.67786 147.78 8.42386 148.776 7.36786C149.772 6.31186 151.068 5.78386 152.664 5.78386C153.816 5.78386 154.71 6.12586 155.346 6.80986C155.982 7.49386 156.3 8.36386 156.3 9.41986C156.3 9.76786 156.276 10.0499 156.228 10.2659ZM152.376 7.69186C151.836 7.69186 151.35 7.85986 150.918 8.19586C150.486 8.51986 150.168 8.92786 149.964 9.41986H154.104C154.032 8.26786 153.456 7.69186 152.376 7.69186Z" fill="#3ECF8E"/><path d="M158.616 14.9999H156.366L158.13 5.92786H160.38L160.11 7.27786C160.902 6.28186 161.85 5.78386 162.954 5.78386C163.35 5.78386 163.74 5.86186 164.124 6.01786L163.368 8.03386C163.128 7.86586 162.822 7.78186 162.45 7.78186C161.814 7.78186 161.184 8.11786 160.56 8.78986C159.936 9.46186 159.498 10.4579 159.246 11.7779L158.616 14.9999Z" fill="#3ECF8E"/><path d="M172.464 10.2659L172.284 11.1839H165.768V11.4719C165.768 11.9639 165.93 12.3839 166.254 12.7319C166.59 13.0679 167.04 13.2359 167.604 13.2359C168.564 13.2359 169.392 12.7199 170.088 11.6879L171.87 12.6059C171.282 13.4819 170.64 14.1239 169.944 14.5319C169.248 14.9399 168.402 15.1439 167.406 15.1439C166.266 15.1439 165.33 14.7839 164.598 14.0639C163.878 13.3439 163.518 12.3659 163.518 11.1299C163.518 9.67786 164.016 8.42386 165.012 7.36786C166.008 6.31186 167.304 5.78386 168.9 5.78386C170.052 5.78386 170.946 6.12586 171.582 6.80986C172.218 7.49386 172.536 8.36386 172.536 9.41986C172.536 9.76786 172.512 10.0499 172.464 10.2659ZM168.612 7.69186C168.072 7.69186 167.586 7.85986 167.154 8.19586C166.722 8.51986 166.404 8.92786 166.2 9.41986H170.34C170.268 8.26786 169.692 7.69186 168.612 7.69186Z" fill="#3ECF8E"/><line x1="93.5" y1="5" x2="93.5" y2="15" stroke="#000"/></svg>