<svg width="140" height="19" viewBox="0 0 140 19" fill="none" xmlns="http://www.w3.org/2000/svg"><path d="M18.5117 18.0001L14.5037 11.7601C16.7117 10.9921 17.9597 9.40809 17.9597 6.76809C17.9597 3.38409 15.6077 1.20009 11.0477 1.20009H0.679688V18.0001H4.54369V12.3121H10.5677C10.5917 12.3121 10.6397 12.3121 10.6637 12.3121L14.2157 18.0001H18.5117ZM4.54369 4.17609H10.9037C13.3037 4.17609 14.0237 5.32809 14.0237 6.76809C14.0237 8.16009 13.2557 9.38409 10.9037 9.38409H4.54369V4.17609Z" fill="#000"/><path d="M33.8831 12.5521C34.2671 7.15209 30.4031 4.87209 26.6831 4.87209C23.0111 4.87209 19.2431 6.88809 19.2431 11.6161C19.2431 16.3441 23.0591 18.3601 26.7071 18.3601C29.8751 18.3601 32.7791 17.0881 33.6191 13.8961H30.4031C29.8991 14.9761 28.6511 15.8401 26.7071 15.8401C24.0431 15.8401 22.8191 14.3041 22.5311 12.5521H33.8831ZM26.6831 7.36809C29.0831 7.36809 30.1631 8.61609 30.5471 10.1521H22.6511C23.1311 8.61609 24.4031 7.36809 26.6831 7.36809Z" fill="#000"/><path d="M44.3257 3.04809V0.456087C43.5817 0.360086 43.0298 0.288086 42.1898 0.288086C37.9178 0.288086 37.0298 2.66408 37.0298 5.20809H34.8937V7.70409H37.0298V18.0001H40.6538V7.70409H43.9897V5.20809H40.6538C40.6538 2.95209 41.9497 2.85609 44.3257 3.04809Z" fill="#000"/><path d="M59.6878 12.5521C60.0718 7.15209 56.2078 4.87209 52.4878 4.87209C48.8158 4.87209 45.0478 6.88809 45.0478 11.6161C45.0478 16.3441 48.8638 18.3601 52.5118 18.3601C55.6798 18.3601 58.5838 17.0881 59.4238 13.8961H56.2078C55.7038 14.9761 54.4558 15.8401 52.5118 15.8401C49.8478 15.8401 48.6238 14.3041 48.3358 12.5521H59.6878ZM52.4878 7.36809C54.8878 7.36809 55.9678 8.61609 56.3518 10.1521H48.4558C48.9358 8.61609 50.2078 7.36809 52.4878 7.36809Z" fill="#000"/><path d="M70.3168 4.89609C67.5808 4.89609 66.0688 6.64809 65.5408 7.56009V5.20809H61.8928V18.0001H65.5408V11.9281C65.5408 9.93609 66.6448 8.04009 69.6688 8.04009C70.7728 8.04009 71.6368 8.25609 72.0928 8.44809H72.2128V5.08809C71.7808 4.96809 71.1568 4.89609 70.3168 4.89609Z" fill="#000"/><path d="M91.0712 4.87209C88.2632 4.87209 86.8232 6.40809 86.3672 7.10409C85.6472 5.68809 84.1592 4.87209 81.9272 4.87209C79.3112 4.87209 78.2072 6.09609 77.7512 6.88809V5.20809H74.1272V18.0001H77.7512V10.4401C77.7512 8.95209 78.5192 7.58409 80.5592 7.58409C82.5992 7.58409 83.2712 8.90409 83.2712 10.4401V18.0001H86.9192V10.4401C86.9192 8.92809 87.6632 7.58409 89.7032 7.58409C91.7432 7.58409 92.4152 8.90409 92.4152 10.4401V18.0001H96.0632V9.52809C96.0632 6.64809 94.3592 4.87209 91.0712 4.87209Z" fill="#000"/><path d="M105.308 4.87209C101.804 4.87209 99.2115 6.07209 98.8035 8.90409H102.212C102.404 8.01609 103.1 7.36809 105.308 7.36809C107.948 7.36809 108.548 8.35209 108.548 9.69609V10.2961C99.6195 9.74409 98.2275 11.9041 98.2275 14.5921C98.2275 17.1121 100.291 18.3601 103.291 18.3601C106.147 18.3601 107.996 17.1361 108.548 16.2961V18.0001H112.196V9.69609C112.196 5.92809 108.98 4.87209 105.308 4.87209ZM108.548 14.2561C107.876 15.3841 106.339 16.1521 104.371 16.1521C102.787 16.1521 101.899 15.6721 101.899 14.4721C101.899 12.6481 103.7 12.1921 108.548 12.4561V14.2561Z" fill="#000"/><path d="M123.646 7.70409V5.20809H119.902V1.89609H116.254V5.20809H113.878V7.70409H116.254V13.0081C116.254 16.2001 117.142 18.1921 121.75 18.1921C122.59 18.1921 123.166 18.0721 123.646 18.0001V15.2641C120.67 15.5761 119.902 15.1681 119.902 13.0801V7.70409H123.646Z" fill="#000"/><path d="M139.727 12.5521C140.111 7.15209 136.247 4.87209 132.527 4.87209C128.855 4.87209 125.087 6.88809 125.087 11.6161C125.087 16.3441 128.903 18.3601 132.551 18.3601C135.719 18.3601 138.623 17.0881 139.463 13.8961H136.247C135.743 14.9761 134.495 15.8401 132.551 15.8401C129.887 15.8401 128.663 14.3041 128.375 12.5521H139.727ZM132.527 7.36809C134.927 7.36809 136.007 8.61609 136.391 10.1521H128.495C128.975 8.61609 130.247 7.36809 132.527 7.36809Z" fill="#000"/></svg>