<svg width="126" height="138" viewBox="0 0 126 138" fill="none" xmlns="http://www.w3.org/2000/svg">
<path d="M10.0988 110.401L16.9197 114.63L24.1822 111.215L22.2683 119.009L27.7605 124.86L19.7567 125.448L15.8886 132.48L12.8559 125.05L4.9731 123.544L11.1025 118.364L10.0988 110.401Z" fill="#F1A43B"/>
<path d="M102.099 78.4012L108.92 82.6298L116.182 79.2148L114.268 87.0085L119.76 92.8602L111.757 93.4485L107.889 100.48L104.856 93.0498L96.9731 91.5439L103.103 86.3635L102.099 78.4012Z" fill="#F1A43B"/>
<path d="M15.0988 7.40123L21.9197 11.6298L29.1822 8.21475L27.2683 16.0085L32.7605 21.8602L24.7567 22.4485L20.8886 29.4801L17.8559 22.0498L9.9731 20.5439L16.1025 15.3635L15.0988 7.40123Z" fill="#F1A43B"/>
<rect x="17" y="32.9194" width="79" height="74" rx="5" fill="#F08B7C"/>
<path d="M72.52 84.9194L65.84 74.5194C69.52 73.2394 71.6 70.5994 71.6 66.1994C71.6 60.5594 67.68 56.9194 60.08 56.9194H42.8V84.9194H49.24V75.4394H59.28C59.32 75.4394 59.4 75.4394 59.44 75.4394L65.36 84.9194H72.52ZM49.24 61.8794H59.84C63.84 61.8794 65.04 63.7994 65.04 66.1994C65.04 68.5194 63.76 70.5594 59.84 70.5594H49.24V61.8794Z" fill="#241313"/>
</svg>
