<svg fill="none" height="68" viewBox="0 0 68 68" width="68" xmlns="http://www.w3.org/2000/svg" xmlns:xlink="http://www.w3.org/1999/xlink"><linearGradient id="a" gradientUnits="userSpaceOnUse" x1=".030468" x2="64.0999" y1="55.7714" y2="55.7714"><stop offset="0" stop-color="#b1d26f"/><stop offset="1" stop-color="#60e7ce"/></linearGradient><path d="m4 12c0-4.41828 3.58172-8 8-8h48c4.4183 0 8 3.58172 8 8v48c0 4.4183-3.5817 8-8 8h-48c-4.41828 0-8-3.5817-8-8z" fill="#000"/><path d="m0 8c0-4.41828 3.58172-8 8-8h48c4.4183 0 8 3.58172 8 8v48c0 4.4183-3.5817 8-8 8h-48c-4.41828 0-8-3.5817-8-8z" fill="url(#a)"/><path d="m47.3359 32.7812c.8672-.3515 1.5703-.9374 2.1563-1.7578 1.1484-1.6172 1.4062-3.0468 1.4062-4.3359 0-1.6641-.2578-3.1172-.7734-4.3359-.7734-1.7578-2.0391-3.1641-3.7969-4.2188-2.789-1.6875-7.4297-2.5312-13.9219-2.5312-6.2109 0-10.6406.7265-13.289 2.2031-1.4766.7969-2.6953 1.9219-3.7031 3.3984-.9844 1.4531-1.4766 3.2578-1.4766 5.4375v.961h9.7266v-.6328c0-2.5547 2.7187-3.6094 8.7421-3.6094 3.1641 0 5.4141.2109 6.75.6562 1.336.4219 1.9922 1.1719 1.9922 2.2735 0 1.289-.6562 2.1562-1.9687 2.6015s-3.5625.6797-6.7735.6797h-4.5468v6.4688h4.5468c3.3282 0 5.625.2343 6.8672.6797 1.2422.4453 1.875 1.289 1.875 2.5312 0 1.125-.6562 1.8984-1.9922 2.3203-1.3359.3985-3.5859.6094-6.75.6094-6 0-8.7421-.9844-8.7421-3.5391v-.6797h-9.7266v1.0079c0 2.1328.4922 3.9374 1.4766 5.414 1.0078 1.4531 2.2265 2.6016 3.7031 3.4219 2.6484 1.4297 7.0781 2.1562 13.289 2.1562 6.4922-.0234 11.1329-.8437 13.9219-2.5078 1.7578-1.0547 3.0235-2.4609 3.7969-4.2187.5156-1.2422.7734-2.6953.7734-4.3125 0-.9141-.2343-1.9688-.7031-3.2578-.4687-1.2891-1.5234-2.4375-2.8594-2.8829z" fill="#000"/></svg>