<svg fill="none" height="68" viewBox="0 0 68 68" width="68" xmlns="http://www.w3.org/2000/svg" xmlns:xlink="http://www.w3.org/1999/xlink"><linearGradient id="a" gradientUnits="userSpaceOnUse" x1=".030468" x2="64.0999" y1="55.7714" y2="55.7714"><stop offset="0" stop-color="#b1d26f"/><stop offset="1" stop-color="#60e7ce"/></linearGradient><path d="m4 12c0-4.41828 3.58172-8 8-8h48c4.4183 0 8 3.58172 8 8v48c0 4.4183-3.5817 8-8 8h-48c-4.41828 0-8-3.5817-8-8z" fill="#000"/><path d="m0 8c0-4.41828 3.58172-8 8-8h48c4.4183 0 8 3.58172 8 8v48c0 4.4183-3.5817 8-8 8h-48c-4.41828 0-8-3.5817-8-8z" fill="url(#a)"/><path d="m50.1953 31.2344c.5391-1.125.8203-2.625.8203-4.5 0-1.6406-.2578-3.0703-.7734-4.2891-.7734-1.7812-2.0391-3.2109-3.7969-4.2656-2.7891-1.6641-7.4297-2.4844-13.9219-2.4844-6.2109 0-10.6406.7266-13.289 2.1563-1.4766.8203-2.6953 1.9687-3.7032 3.4453-.9843 1.4531-1.4765 3.2578-1.4765 5.4375v.9609h9.75v-.6797c0-2.5547 2.6953-3.5625 8.7187-3.5625 3.1641 0 5.4141.211 6.75.6328 1.336.3985 1.9922 1.1719 1.9922 2.2969 0 1.0078-.3984 1.7813-1.2187 2.3672-1.6172 1.1484-4.4063 1.3828-7.7578 1.5703-1.6641.0938-3.375.2344-5.1797.3985-1.8047.164-3.4922.4218-5.0625.7968-1.5703.3516-3.0235.9844-4.3125 1.8985-1.2891.8906-2.25 2.0625-2.8594 3.4921-.5391 1.3126-.8203 3.211-.8203 5.6719v6.5157h36.6328v-7.8282h-26.8828c0-2.4844 3.8672-2.9062 8.6719-3.0468 3.2812-.0938 6.9375-.4219 10.125-1.2422 1.6172-.3985 3.0937-1.0782 4.4531-2.0391s2.4141-2.2031 3.1406-3.7031z" fill="#000"/></svg>