<svg fill="none" height="68" viewBox="0 0 68 68" width="68" xmlns="http://www.w3.org/2000/svg" xmlns:xlink="http://www.w3.org/1999/xlink"><linearGradient id="a" gradientUnits="userSpaceOnUse" x1=".030468" x2="64.0999" y1="55.7714" y2="55.7714"><stop offset="0" stop-color="#b1d26f"/><stop offset="1" stop-color="#60e7ce"/></linearGradient><path d="m4 12c0-4.41828 3.58172-8 8-8h48c4.4183 0 8 3.58172 8 8v48c0 4.4183-3.5817 8-8 8h-48c-4.41828 0-8-3.5817-8-8z" fill="#000"/><path d="m0 8c0-4.41828 3.58172-8 8-8h48c4.4183 0 8 3.58172 8 8v48c0 4.4183-3.5817 8-8 8h-48c-4.41828 0-8-3.5817-8-8z" fill="url(#a)"/><path d="m31.2344 16.6094c-1.5235 2.3672-4.0782 3.9844-7.0078 4.1718v6.8204h5.5312v21.3984h9.6797v-32.3906z" fill="#000"/></svg>