<svg fill="none" height="276" viewBox="0 0 1 276" width="1" xmlns="http://www.w3.org/2000/svg"><path clip-rule="evenodd" d="m-.00000011 2.46429.00000011-2.46429004 1 .00000004v2.46429zm-.00000043 9.85711.00000022-4.92854h1.00000032l-.000001 4.92854zm-.00000043 9.8572.00000022-4.9286h.99999975v4.9286zm-.00000043 9.8571.00000022-4.9286h1.00000018v4.9286zm-.00000043 9.8572.00000021-4.9286h.99999962v4.9286zm-.00000043 9.8571.00000021-4.9286h1.00000005v4.9286zm-.00000043 9.8571.00000021-4.9285h1.00000048l-.000001 4.9285zm-.00000043 9.8572.00000021-4.9286h.99999991v4.9286zm-.00000043 9.8571.00000021-4.9285h1.00000034l-.000001 4.9285zm-.00000044 9.8572.00000022-4.9286h.99999977v4.9286zm-.00000043 9.8574.00000022-4.9289h1.0000002v4.9289zm-.00000043 9.857.00000022-4.929h.99999963v4.929zm-.00000043 9.857.00000022-4.929h1.00000006v4.929zm-.00000043 9.857.00000022-4.928h1.00000049l-.000001 4.928zm-.00000043 9.857.00000022-4.928h.99999992v4.928zm-.00000043 9.857.00000021-4.928h1.00000036l-.000001 4.928zm-.00000043 9.858.00000021-4.929h.99999979v4.929zm-.00000043 9.857.00000021-4.929h1.00000022v4.929zm-.00000043 9.857.00000021-4.929h.99999965v4.929zm-.00000043 9.857.00000021-4.929h1.00000008v4.929zm-.00000044 9.857.00000022-4.928h.99999951v4.928zm-.00000043 9.857.00000022-4.928h.99999994v4.928zm-.00000043 9.857.00000022-4.928h1.00000037l-.000001 4.928zm-.00000043 9.858.00000022-4.929h.9999998v4.929zm-.00000043 9.857.00000022-4.929h1.00000023v4.929zm-.00000043 9.857.00000022-4.929h.99999966v4.929zm-.00000043 9.857.00000022-4.928h1.00000009v4.928zm-.00000043 9.857.00000021-4.928h.99999953v4.928zm-.00000032 7.393.0000001-2.464h.99999996v2.464z" fill="#4c4b4a" fill-rule="evenodd"/></svg>